%TF.GenerationSoftware,KiCad,Pcbnew,8.0.1*%
%TF.CreationDate,2024-04-05T18:07:18-04:00*%
%TF.ProjectId,bus1,62757331-2e6b-4696-9361-645f70636258,rev?*%
%TF.SameCoordinates,Original*%
%TF.FileFunction,Legend,Bot*%
%TF.FilePolarity,Positive*%
%FSLAX46Y46*%
G04 Gerber Fmt 4.6, Leading zero omitted, Abs format (unit mm)*
G04 Created by KiCad (PCBNEW 8.0.1) date 2024-04-05 18:07:18*
%MOMM*%
%LPD*%
G01*
G04 APERTURE LIST*
%ADD10R,2.100000X2.100000*%
%ADD11C,2.100000*%
%ADD12C,2.610000*%
%ADD13O,2.800000X3.800000*%
%ADD14C,4.750000*%
%ADD15R,4.750000X4.750000*%
%ADD16C,1.780000*%
%ADD17R,1.780000X7.700000*%
G04 APERTURE END LIST*
%LPC*%
D10*
%TO.C,PS1*%
X10716250Y41468750D03*
D11*
X10716250Y33848750D03*
X10716250Y26228750D03*
D12*
X61516250Y26228750D03*
X61516250Y41468750D03*
%TD*%
D13*
%TO.C,J2*%
X2986250Y10333750D03*
X20086250Y10333750D03*
X27986250Y10333750D03*
X45086250Y10333750D03*
X52956250Y10333750D03*
X70056250Y10333750D03*
D14*
X6036250Y16333750D03*
X11536250Y16333750D03*
D15*
X17036250Y16333750D03*
D14*
X31036250Y16333750D03*
X36536250Y16333750D03*
D15*
X42036250Y16333750D03*
D14*
X56006250Y16333750D03*
X61506250Y16333750D03*
D15*
X67006250Y16333750D03*
%TD*%
D16*
%TO.C,J1*%
X86626250Y8093750D03*
D17*
X86626250Y4263750D03*
D16*
X89166250Y8093750D03*
D17*
X89166250Y4263750D03*
D16*
X91706250Y8093750D03*
D17*
X91706250Y4263750D03*
D16*
X94246250Y8093750D03*
D17*
X94246250Y4263750D03*
D16*
X96786250Y8093750D03*
D17*
X96786250Y4263750D03*
D16*
X99326250Y8093750D03*
D17*
X99326250Y4263750D03*
D16*
X101866250Y8093750D03*
D17*
X101866250Y4263750D03*
D16*
X104406250Y8093750D03*
D17*
X104406250Y4263750D03*
D16*
X106946250Y8093750D03*
D17*
X106946250Y4263750D03*
D16*
X109486250Y8093750D03*
D17*
X109486250Y4263750D03*
%TD*%
%LPD*%
M02*
