%TF.GenerationSoftware,KiCad,Pcbnew,8.0.1*%
%TF.CreationDate,2024-04-05T18:07:18-04:00*%
%TF.ProjectId,bus1,62757331-2e6b-4696-9361-645f70636258,rev?*%
%TF.SameCoordinates,Original*%
%TF.FileFunction,Legend,Top*%
%TF.FilePolarity,Positive*%
%FSLAX46Y46*%
G04 Gerber Fmt 4.6, Leading zero omitted, Abs format (unit mm)*
G04 Created by KiCad (PCBNEW 8.0.1) date 2024-04-05 18:07:18*
%MOMM*%
%LPD*%
G01*
G04 APERTURE LIST*
%ADD10C,0.200000*%
%ADD11C,0.100000*%
%ADD12C,0.120000*%
%ADD13C,0.400000*%
%ADD14C,0.000000*%
%ADD15R,2.100000X2.100000*%
%ADD16C,2.100000*%
%ADD17C,2.610000*%
%ADD18O,2.800000X3.800000*%
%ADD19C,4.750000*%
%ADD20R,4.750000X4.750000*%
%ADD21C,1.780000*%
%ADD22R,1.780000X7.700000*%
G04 APERTURE END LIST*
D10*
X7311964Y45676531D02*
X7311964Y46676531D01*
X7311964Y46676531D02*
X7692916Y46676531D01*
X7692916Y46676531D02*
X7788154Y46628912D01*
X7788154Y46628912D02*
X7835773Y46581293D01*
X7835773Y46581293D02*
X7883392Y46486055D01*
X7883392Y46486055D02*
X7883392Y46343198D01*
X7883392Y46343198D02*
X7835773Y46247960D01*
X7835773Y46247960D02*
X7788154Y46200341D01*
X7788154Y46200341D02*
X7692916Y46152722D01*
X7692916Y46152722D02*
X7311964Y46152722D01*
X8264345Y45724150D02*
X8407202Y45676531D01*
X8407202Y45676531D02*
X8645297Y45676531D01*
X8645297Y45676531D02*
X8740535Y45724150D01*
X8740535Y45724150D02*
X8788154Y45771770D01*
X8788154Y45771770D02*
X8835773Y45867008D01*
X8835773Y45867008D02*
X8835773Y45962246D01*
X8835773Y45962246D02*
X8788154Y46057484D01*
X8788154Y46057484D02*
X8740535Y46105103D01*
X8740535Y46105103D02*
X8645297Y46152722D01*
X8645297Y46152722D02*
X8454821Y46200341D01*
X8454821Y46200341D02*
X8359583Y46247960D01*
X8359583Y46247960D02*
X8311964Y46295579D01*
X8311964Y46295579D02*
X8264345Y46390817D01*
X8264345Y46390817D02*
X8264345Y46486055D01*
X8264345Y46486055D02*
X8311964Y46581293D01*
X8311964Y46581293D02*
X8359583Y46628912D01*
X8359583Y46628912D02*
X8454821Y46676531D01*
X8454821Y46676531D02*
X8692916Y46676531D01*
X8692916Y46676531D02*
X8835773Y46628912D01*
X9788154Y45676531D02*
X9216726Y45676531D01*
X9502440Y45676531D02*
X9502440Y46676531D01*
X9502440Y46676531D02*
X9407202Y46533674D01*
X9407202Y46533674D02*
X9311964Y46438436D01*
X9311964Y46438436D02*
X9216726Y46390817D01*
D11*
X36202916Y5446331D02*
X36202916Y4732046D01*
X36202916Y4732046D02*
X36155297Y4589189D01*
X36155297Y4589189D02*
X36060059Y4493950D01*
X36060059Y4493950D02*
X35917202Y4446331D01*
X35917202Y4446331D02*
X35821964Y4446331D01*
X36631488Y5351093D02*
X36679107Y5398712D01*
X36679107Y5398712D02*
X36774345Y5446331D01*
X36774345Y5446331D02*
X37012440Y5446331D01*
X37012440Y5446331D02*
X37107678Y5398712D01*
X37107678Y5398712D02*
X37155297Y5351093D01*
X37155297Y5351093D02*
X37202916Y5255855D01*
X37202916Y5255855D02*
X37202916Y5160617D01*
X37202916Y5160617D02*
X37155297Y5017760D01*
X37155297Y5017760D02*
X36583869Y4446331D01*
X36583869Y4446331D02*
X37202916Y4446331D01*
X86292916Y-2983669D02*
X86292916Y-3697954D01*
X86292916Y-3697954D02*
X86245297Y-3840811D01*
X86245297Y-3840811D02*
X86150059Y-3936050D01*
X86150059Y-3936050D02*
X86007202Y-3983669D01*
X86007202Y-3983669D02*
X85911964Y-3983669D01*
X87292916Y-3983669D02*
X86721488Y-3983669D01*
X87007202Y-3983669D02*
X87007202Y-2983669D01*
X87007202Y-2983669D02*
X86911964Y-3126526D01*
X86911964Y-3126526D02*
X86816726Y-3221764D01*
X86816726Y-3221764D02*
X86721488Y-3269383D01*
%TO.C,PS1*%
D12*
X6526250Y22418750D02*
X64926250Y22418750D01*
X64926250Y45278750D01*
X6526250Y45278750D01*
X6526250Y22418750D01*
D13*
X5826250Y43378750D02*
G75*
G02*
X5426250Y43378750I-200000J0D01*
G01*
X5426250Y43378750D02*
G75*
G02*
X5826250Y43378750I200000J0D01*
G01*
%TO.C,J2*%
D11*
X536250Y19333750D02*
X22536250Y19333750D01*
X22536250Y1333750D01*
X536250Y1333750D01*
X536250Y19333750D01*
X25536250Y19333750D02*
X47536250Y19333750D01*
X47536250Y1333750D01*
X25536250Y1333750D01*
X25536250Y19333750D01*
X50506250Y19333750D02*
X72506250Y19333750D01*
X72506250Y1333750D01*
X50506250Y1333750D01*
X50506250Y19333750D01*
D14*
%TO.C,G\u002A\u002A\u002A*%
G36*
X85124339Y25833140D02*
G01*
X85124339Y25733688D01*
X84557464Y25733688D01*
X83990588Y25733688D01*
X83990588Y25833140D01*
X83990588Y25932591D01*
X84557464Y25932591D01*
X85124339Y25932591D01*
X85124339Y25833140D01*
G37*
G36*
X95347989Y18981520D02*
G01*
X95347989Y18911291D01*
X95098099Y18911291D01*
X94848209Y18911291D01*
X94854442Y18975935D01*
X94860675Y19040579D01*
X95104332Y19046164D01*
X95347989Y19051748D01*
X95347989Y18981520D01*
G37*
G36*
X96581191Y22968927D02*
G01*
X96581191Y22869475D01*
X96014316Y22869475D01*
X95447440Y22869475D01*
X95447440Y22968927D01*
X95447440Y23068378D01*
X96014316Y23068378D01*
X96581191Y23068378D01*
X96581191Y22968927D01*
G37*
G36*
X100877511Y22968927D02*
G01*
X100877511Y22869475D01*
X100310635Y22869475D01*
X99743760Y22869475D01*
X99743760Y22968927D01*
X99743760Y23068378D01*
X100310635Y23068378D01*
X100877511Y23068378D01*
X100877511Y22968927D01*
G37*
G36*
X81941881Y26658590D02*
G01*
X81941881Y26071824D01*
X81822538Y26071824D01*
X81703196Y26071824D01*
X81703196Y26559138D01*
X81703196Y27046452D01*
X81444621Y27046452D01*
X81186047Y27046452D01*
X81186047Y27145904D01*
X81186047Y27245356D01*
X81563964Y27245356D01*
X81941881Y27245356D01*
X81941881Y26658590D01*
G37*
G36*
X84806094Y23794377D02*
G01*
X84806094Y23207611D01*
X84686751Y23207611D01*
X84567409Y23207611D01*
X84567409Y23694925D01*
X84567409Y24182239D01*
X84308834Y24182239D01*
X84050260Y24182239D01*
X84050260Y24281691D01*
X84050260Y24381143D01*
X84428177Y24381143D01*
X84806094Y24381143D01*
X84806094Y23794377D01*
G37*
G36*
X85855310Y17534604D02*
G01*
X86049242Y17528911D01*
X86054602Y17096295D01*
X86059963Y16663680D01*
X85989958Y16663680D01*
X85919954Y16663680D01*
X85919954Y17041597D01*
X85919954Y17419514D01*
X85790667Y17419514D01*
X85661379Y17419514D01*
X85661379Y17479905D01*
X85661379Y17540297D01*
X85855310Y17534604D01*
G37*
G36*
X86025100Y17842110D02*
G01*
X86062653Y17811419D01*
X86068908Y17798136D01*
X86069832Y17744603D01*
X86043635Y17702732D01*
X86001117Y17679688D01*
X85953079Y17682634D01*
X85923932Y17701957D01*
X85902386Y17747686D01*
X85906541Y17801242D01*
X85929641Y17836997D01*
X85974595Y17852358D01*
X86025100Y17842110D01*
G37*
G36*
X91966626Y23794377D02*
G01*
X91966626Y23207611D01*
X91847284Y23207611D01*
X91727942Y23207611D01*
X91727942Y23694925D01*
X91727942Y24182239D01*
X91469367Y24182239D01*
X91210792Y24182239D01*
X91210792Y24281691D01*
X91210792Y24381143D01*
X91588709Y24381143D01*
X91966626Y24381143D01*
X91966626Y23794377D01*
G37*
G36*
X93398733Y26658590D02*
G01*
X93398733Y26071824D01*
X93279390Y26071824D01*
X93160048Y26071824D01*
X93160048Y26559138D01*
X93160048Y27046452D01*
X92901473Y27046452D01*
X92642899Y27046452D01*
X92642899Y27145904D01*
X92642899Y27245356D01*
X93020816Y27245356D01*
X93398733Y27245356D01*
X93398733Y26658590D01*
G37*
G36*
X84946039Y15374161D02*
G01*
X84986488Y15331897D01*
X85003752Y15274919D01*
X84993860Y15214241D01*
X84965216Y15171902D01*
X84909288Y15137037D01*
X84850866Y15141857D01*
X84793339Y15182848D01*
X84757918Y15240558D01*
X84756426Y15299633D01*
X84784558Y15350455D01*
X84838009Y15383406D01*
X84886374Y15390696D01*
X84946039Y15374161D01*
G37*
G36*
X81491604Y17482452D02*
G01*
X81541111Y17439241D01*
X81567122Y17379429D01*
X81565710Y17313007D01*
X81532948Y17249960D01*
X81524183Y17240501D01*
X81465138Y17205872D01*
X81398341Y17208801D01*
X81337907Y17241944D01*
X81295950Y17295843D01*
X81284398Y17358795D01*
X81299793Y17420290D01*
X81338675Y17469816D01*
X81397586Y17496864D01*
X81422527Y17499075D01*
X81491604Y17482452D01*
G37*
G36*
X81498274Y16925680D02*
G01*
X81545145Y16882937D01*
X81568770Y16823893D01*
X81565708Y16758528D01*
X81532522Y16696818D01*
X81520432Y16684345D01*
X81459118Y16648844D01*
X81393745Y16652890D01*
X81337907Y16685014D01*
X81294527Y16739934D01*
X81283020Y16802831D01*
X81299751Y16863737D01*
X81341091Y16912683D01*
X81403406Y16939701D01*
X81431593Y16942145D01*
X81498274Y16925680D01*
G37*
G36*
X83407749Y15016205D02*
G01*
X83454621Y14973461D01*
X83478245Y14914418D01*
X83475184Y14849052D01*
X83441998Y14787343D01*
X83429908Y14774870D01*
X83368593Y14739369D01*
X83303220Y14743414D01*
X83247382Y14775539D01*
X83204003Y14830459D01*
X83192495Y14893356D01*
X83209227Y14954262D01*
X83250566Y15003208D01*
X83312882Y15030226D01*
X83341069Y15032670D01*
X83407749Y15016205D01*
G37*
G36*
X84362487Y19392085D02*
G01*
X84409358Y19349342D01*
X84432983Y19290299D01*
X84429921Y19224933D01*
X84396735Y19163224D01*
X84384645Y19150751D01*
X84323331Y19115250D01*
X84257958Y19119295D01*
X84202120Y19151419D01*
X84158740Y19206340D01*
X84147233Y19269237D01*
X84163964Y19330143D01*
X84205304Y19379088D01*
X84267619Y19406107D01*
X84295806Y19408551D01*
X84362487Y19392085D01*
G37*
G36*
X87989537Y15375769D02*
G01*
X88039335Y15338320D01*
X88066383Y15289348D01*
X88068114Y15274036D01*
X88052553Y15221906D01*
X88014335Y15172201D01*
X87966159Y15138705D01*
X87937383Y15132121D01*
X87887125Y15145907D01*
X87849320Y15171902D01*
X87816361Y15227604D01*
X87813649Y15288377D01*
X87837074Y15343080D01*
X87882526Y15380570D01*
X87930009Y15390696D01*
X87989537Y15375769D01*
G37*
G36*
X92063460Y15374425D02*
G01*
X92107873Y15334264D01*
X92133920Y15283192D01*
X92134314Y15243366D01*
X92104427Y15190704D01*
X92056148Y15149234D01*
X92004882Y15132125D01*
X92004203Y15132121D01*
X91962690Y15145547D01*
X91926845Y15171902D01*
X91892484Y15229032D01*
X91889750Y15290123D01*
X91914479Y15344414D01*
X91962506Y15381145D01*
X92011502Y15390696D01*
X92063460Y15374425D01*
G37*
G36*
X83401079Y15572977D02*
G01*
X83450586Y15529765D01*
X83476597Y15469954D01*
X83475185Y15403531D01*
X83442424Y15340485D01*
X83433658Y15331025D01*
X83374528Y15296978D01*
X83307795Y15296463D01*
X83246588Y15329059D01*
X83238222Y15337280D01*
X83202155Y15398939D01*
X83196721Y15465111D01*
X83218158Y15525675D01*
X83262706Y15570511D01*
X83326604Y15589500D01*
X83332003Y15589600D01*
X83401079Y15572977D01*
G37*
G36*
X84367566Y18836188D02*
G01*
X84393409Y18816812D01*
X84425895Y18755983D01*
X84430717Y18687483D01*
X84409809Y18624464D01*
X84365104Y18580075D01*
X84358101Y18576565D01*
X84298846Y18556203D01*
X84252327Y18562110D01*
X84202120Y18594489D01*
X84160483Y18649939D01*
X84148935Y18717977D01*
X84168311Y18784234D01*
X84189492Y18811840D01*
X84242784Y18842545D01*
X84307785Y18850798D01*
X84367566Y18836188D01*
G37*
G36*
X84736028Y24936735D02*
G01*
X84795334Y24898317D01*
X84834891Y24839000D01*
X84845874Y24778950D01*
X84828166Y24706383D01*
X84781585Y24649316D01*
X84715951Y24613997D01*
X84641083Y24606675D01*
X84594400Y24618907D01*
X84531725Y24664233D01*
X84497329Y24729077D01*
X84493502Y24802841D01*
X84522532Y24874926D01*
X84535463Y24891758D01*
X84596506Y24936939D01*
X84666556Y24950770D01*
X84736028Y24936735D01*
G37*
G36*
X91896560Y24936735D02*
G01*
X91955867Y24898317D01*
X91995423Y24839000D01*
X92006407Y24778950D01*
X91988698Y24706383D01*
X91942118Y24649316D01*
X91876484Y24613997D01*
X91801615Y24606675D01*
X91754933Y24618907D01*
X91692258Y24664233D01*
X91657862Y24729077D01*
X91654034Y24802841D01*
X91683064Y24874926D01*
X91695995Y24891758D01*
X91757038Y24936939D01*
X91827089Y24950770D01*
X91896560Y24936735D01*
G37*
G36*
X93328667Y27800948D02*
G01*
X93387973Y27762530D01*
X93427530Y27703213D01*
X93438513Y27643163D01*
X93420805Y27570596D01*
X93374224Y27513529D01*
X93308590Y27478210D01*
X93233722Y27470888D01*
X93187039Y27483120D01*
X93124364Y27528446D01*
X93089968Y27593290D01*
X93086141Y27667054D01*
X93115171Y27739139D01*
X93128102Y27755971D01*
X93189145Y27801152D01*
X93259195Y27814983D01*
X93328667Y27800948D01*
G37*
G36*
X81871815Y27800948D02*
G01*
X81931121Y27762530D01*
X81970678Y27703213D01*
X81981661Y27643163D01*
X81964161Y27568017D01*
X81916680Y27511453D01*
X81846751Y27478809D01*
X81761906Y27475426D01*
X81748346Y27477774D01*
X81695235Y27505986D01*
X81650690Y27559169D01*
X81625716Y27622591D01*
X81623635Y27644736D01*
X81636570Y27697967D01*
X81668034Y27752106D01*
X81671250Y27755971D01*
X81732293Y27801152D01*
X81802343Y27814983D01*
X81871815Y27800948D01*
G37*
G36*
X97509815Y26486013D02*
G01*
X97585353Y26447337D01*
X97634447Y26380640D01*
X97654492Y26289749D01*
X97654829Y26273018D01*
X97637739Y26180470D01*
X97592152Y26109940D01*
X97525117Y26065585D01*
X97443685Y26051564D01*
X97354904Y26072035D01*
X97332553Y26082939D01*
X97277826Y26124701D01*
X97247841Y26182112D01*
X97237692Y26265265D01*
X97237574Y26278256D01*
X97254647Y26369146D01*
X97301463Y26438832D01*
X97371412Y26482270D01*
X97457888Y26494419D01*
X97509815Y26486013D01*
G37*
G36*
X84965216Y17310117D02*
G01*
X84965216Y16783022D01*
X85074614Y16783022D01*
X85137154Y16782020D01*
X85169706Y16775454D01*
X85182061Y16757982D01*
X85184010Y16724263D01*
X85184011Y16723351D01*
X85184011Y16663680D01*
X85004997Y16663680D01*
X84825984Y16663680D01*
X84825984Y17190775D01*
X84825984Y17717869D01*
X84716587Y17717869D01*
X84654046Y17718871D01*
X84621494Y17725438D01*
X84609139Y17742910D01*
X84607190Y17776628D01*
X84607190Y17777540D01*
X84607190Y17837212D01*
X84786203Y17837212D01*
X84965216Y17837212D01*
X84965216Y17310117D01*
G37*
G36*
X90272481Y15874528D02*
G01*
X90267855Y15854608D01*
X90257113Y15827821D01*
X90233038Y15769048D01*
X90197585Y15683027D01*
X90152712Y15574494D01*
X90100378Y15448188D01*
X90042538Y15308846D01*
X90012490Y15236546D01*
X89770592Y14654753D01*
X89705647Y14654753D01*
X89660540Y14659964D01*
X89649641Y14677027D01*
X89650987Y14681555D01*
X89660932Y14705916D01*
X89684284Y14762363D01*
X89719122Y14846271D01*
X89763522Y14953019D01*
X89815562Y15077982D01*
X89873321Y15216539D01*
X89905295Y15293184D01*
X90149318Y15878010D01*
X90215320Y15884444D01*
X90259050Y15885803D01*
X90272481Y15874528D01*
G37*
G36*
X97513468Y27319396D02*
G01*
X97561800Y27297648D01*
X97597130Y27266776D01*
X97633427Y27223595D01*
X97650648Y27178127D01*
X97655254Y27112512D01*
X97655271Y27106123D01*
X97651367Y27038221D01*
X97635346Y26991838D01*
X97600744Y26949114D01*
X97597130Y26945470D01*
X97549696Y26906827D01*
X97498373Y26890129D01*
X97446422Y26887329D01*
X97379377Y26892850D01*
X97331044Y26914598D01*
X97295715Y26945470D01*
X97259417Y26988651D01*
X97242197Y27034120D01*
X97237591Y27099734D01*
X97237574Y27106123D01*
X97241478Y27174025D01*
X97257499Y27220408D01*
X97292101Y27263132D01*
X97295715Y27266776D01*
X97343149Y27305420D01*
X97394471Y27322117D01*
X97446422Y27324917D01*
X97513468Y27319396D01*
G37*
G36*
X82698645Y19365171D02*
G01*
X82739349Y19350903D01*
X82753489Y19320758D01*
X82747487Y19269529D01*
X82747461Y19269412D01*
X82736767Y19233252D01*
X82717746Y19218389D01*
X82677832Y19218837D01*
X82649021Y19222535D01*
X82536171Y19220604D01*
X82436820Y19181485D01*
X82349953Y19105178D01*
X82280017Y19023473D01*
X82280017Y18798314D01*
X82280017Y18573155D01*
X82200035Y18573155D01*
X82120053Y18573155D01*
X82125446Y18965990D01*
X82130839Y19358825D01*
X82190510Y19358825D01*
X82230089Y19354839D01*
X82248496Y19335090D01*
X82256046Y19287895D01*
X82256355Y19284236D01*
X82264764Y19230143D01*
X82281548Y19213264D01*
X82312235Y19231852D01*
X82338635Y19258252D01*
X82429417Y19326613D01*
X82543085Y19362626D01*
X82624958Y19368770D01*
X82698645Y19365171D01*
G37*
G36*
X92165530Y19159921D02*
G01*
X92165530Y18632826D01*
X92284872Y18632826D01*
X92404214Y18632826D01*
X92404214Y18573155D01*
X92404214Y18513484D01*
X92084647Y18513484D01*
X91765080Y18513484D01*
X91771374Y18568183D01*
X91777247Y18598172D01*
X91792564Y18615190D01*
X91826974Y18623716D01*
X91890129Y18628228D01*
X91901982Y18628803D01*
X92026297Y18634725D01*
X92026297Y19081644D01*
X92026297Y19528563D01*
X91927507Y19478502D01*
X91857052Y19444827D01*
X91814726Y19431979D01*
X91794368Y19440620D01*
X91789817Y19471408D01*
X91791325Y19493085D01*
X91799178Y19530619D01*
X91819765Y19560264D01*
X91861458Y19590600D01*
X91916900Y19621813D01*
X91988569Y19655267D01*
X92056543Y19678662D01*
X92100886Y19686457D01*
X92165530Y19687016D01*
X92165530Y19159921D01*
G37*
G36*
X90323614Y19369552D02*
G01*
X90357254Y19352077D01*
X90363457Y19326611D01*
X90353350Y19291572D01*
X90339180Y19257563D01*
X90319727Y19241477D01*
X90283032Y19238707D01*
X90228487Y19243468D01*
X90119613Y19240333D01*
X90031969Y19204840D01*
X89961425Y19135286D01*
X89959267Y19132288D01*
X89942673Y19105360D01*
X89931186Y19074205D01*
X89923887Y19031313D01*
X89919858Y18969172D01*
X89918183Y18880269D01*
X89917918Y18793851D01*
X89917918Y18513484D01*
X89848302Y18513484D01*
X89778686Y18513484D01*
X89778686Y18941127D01*
X89778686Y19368770D01*
X89848302Y19368770D01*
X89893907Y19366015D01*
X89913549Y19349867D01*
X89918366Y19308500D01*
X89918548Y19294181D01*
X89919178Y19219592D01*
X89960394Y19274848D01*
X90033462Y19341474D01*
X90127085Y19380680D01*
X90230584Y19389680D01*
X90323614Y19369552D01*
G37*
G36*
X86423636Y27269587D02*
G01*
X86446485Y27265363D01*
X86514016Y27247811D01*
X86548664Y27224438D01*
X86555524Y27185812D01*
X86539693Y27122500D01*
X86533603Y27104119D01*
X86517422Y27058042D01*
X86507184Y27032201D01*
X86506406Y27030858D01*
X86486329Y27031536D01*
X86439961Y27039534D01*
X86406836Y27046549D01*
X86275626Y27058030D01*
X86153295Y27031124D01*
X86038195Y26965372D01*
X85999447Y26933215D01*
X85944645Y26882437D01*
X85904132Y26837974D01*
X85875752Y26792615D01*
X85857349Y26739146D01*
X85846769Y26670356D01*
X85841856Y26579032D01*
X85840453Y26457962D01*
X85840393Y26401003D01*
X85840393Y26071824D01*
X85721050Y26071824D01*
X85601708Y26071824D01*
X85601708Y26658590D01*
X85601708Y27245356D01*
X85699577Y27245356D01*
X85797446Y27245356D01*
X85811051Y27118310D01*
X85824656Y26991264D01*
X85895505Y27069685D01*
X86011074Y27171380D01*
X86141491Y27239971D01*
X86280949Y27273395D01*
X86423636Y27269587D01*
G37*
G36*
X89198153Y17344925D02*
G01*
X89195519Y17176025D01*
X89191624Y17042065D01*
X89185337Y16938205D01*
X89175529Y16859605D01*
X89161068Y16801425D01*
X89140824Y16758824D01*
X89113666Y16726961D01*
X89078465Y16700998D01*
X89043052Y16680847D01*
X88970835Y16657184D01*
X88876283Y16646294D01*
X88774907Y16648685D01*
X88682215Y16664868D01*
X88669798Y16668588D01*
X88619921Y16692644D01*
X88607471Y16724355D01*
X88630127Y16769788D01*
X88630741Y16770631D01*
X88650938Y16790807D01*
X88679079Y16795981D01*
X88728114Y16787400D01*
X88749748Y16782101D01*
X88855656Y16767617D01*
X88942315Y16780827D01*
X89004755Y16820702D01*
X89018029Y16837721D01*
X89029251Y16859270D01*
X89038006Y16888960D01*
X89044698Y16931944D01*
X89049729Y16993372D01*
X89053505Y17078395D01*
X89056427Y17192165D01*
X89058899Y17339831D01*
X89059237Y17363886D01*
X89065788Y17837212D01*
X89135087Y17837212D01*
X89204386Y17837212D01*
X89198153Y17344925D01*
G37*
G36*
X89279199Y24406333D02*
G01*
X89316108Y24400027D01*
X89382342Y24382165D01*
X89414767Y24361827D01*
X89420548Y24344924D01*
X89415227Y24300667D01*
X89402332Y24246959D01*
X89386112Y24197744D01*
X89370821Y24166965D01*
X89365025Y24162835D01*
X89338655Y24167260D01*
X89288492Y24177849D01*
X89263478Y24183506D01*
X89135594Y24193792D01*
X89013094Y24164860D01*
X88897175Y24097055D01*
X88863660Y24069002D01*
X88808858Y24018224D01*
X88768345Y23973761D01*
X88739965Y23928402D01*
X88721562Y23874933D01*
X88710982Y23806143D01*
X88706069Y23714819D01*
X88704666Y23593749D01*
X88704606Y23536790D01*
X88704606Y23207611D01*
X88585263Y23207611D01*
X88465921Y23207611D01*
X88465921Y23794377D01*
X88465921Y24381143D01*
X88563790Y24381143D01*
X88661659Y24381143D01*
X88675587Y24251079D01*
X88689516Y24121016D01*
X88758402Y24201493D01*
X88868230Y24301584D01*
X88996554Y24370837D01*
X89136002Y24406628D01*
X89279199Y24406333D01*
G37*
G36*
X75716195Y27235410D02*
G01*
X75716724Y27092554D01*
X75718216Y26963615D01*
X75720530Y26853672D01*
X75723526Y26767803D01*
X75727062Y26711085D01*
X75730998Y26688597D01*
X75731380Y26688425D01*
X75749457Y26701876D01*
X75790963Y26739378D01*
X75851396Y26796653D01*
X75926253Y26869427D01*
X76011035Y26953421D01*
X76024496Y26966890D01*
X76302428Y27245356D01*
X76441616Y27245356D01*
X76580805Y27245356D01*
X76348711Y27011644D01*
X76116617Y26777932D01*
X76309241Y26516975D01*
X76380316Y26420507D01*
X76448528Y26327606D01*
X76507942Y26246376D01*
X76552627Y26184917D01*
X76567744Y26163921D01*
X76633624Y26071824D01*
X76498128Y26072644D01*
X76362632Y26073464D01*
X76165916Y26352747D01*
X75969200Y26632029D01*
X75842698Y26506652D01*
X75716195Y26381274D01*
X75716195Y26226549D01*
X75716195Y26071824D01*
X75596853Y26071824D01*
X75477511Y26071824D01*
X75477511Y26927110D01*
X75477511Y27782396D01*
X75596853Y27782396D01*
X75716195Y27782396D01*
X75716195Y27235410D01*
G37*
G36*
X87093936Y17544256D02*
G01*
X87174921Y17510253D01*
X87236770Y17447472D01*
X87241723Y17439404D01*
X87256684Y17409963D01*
X87267783Y17375835D01*
X87275765Y17330405D01*
X87281376Y17267057D01*
X87285361Y17179173D01*
X87288465Y17060138D01*
X87289349Y17016734D01*
X87296254Y16663680D01*
X87224705Y16663680D01*
X87153157Y16663680D01*
X87153157Y16972619D01*
X87151551Y17118543D01*
X87145924Y17229633D01*
X87135063Y17310739D01*
X87117755Y17366707D01*
X87092785Y17402386D01*
X87058942Y17422625D01*
X87039115Y17428295D01*
X86963096Y17429530D01*
X86884561Y17397833D01*
X86818872Y17350086D01*
X86755350Y17296635D01*
X86755350Y16980158D01*
X86755350Y16663680D01*
X86685733Y16663680D01*
X86616117Y16663680D01*
X86616117Y17102528D01*
X86616117Y17541376D01*
X86680761Y17535144D01*
X86727105Y17524803D01*
X86747182Y17498443D01*
X86751757Y17473605D01*
X86758109Y17418300D01*
X86817305Y17468109D01*
X86907014Y17523733D01*
X87001929Y17548932D01*
X87093936Y17544256D01*
G37*
G36*
X87198656Y15883960D02*
G01*
X87209538Y15865925D01*
X87205380Y15843202D01*
X87194942Y15814167D01*
X87171015Y15753375D01*
X87135594Y15665710D01*
X87090674Y15556061D01*
X87038249Y15429311D01*
X86980315Y15290349D01*
X86955682Y15231573D01*
X86888845Y15072573D01*
X86835337Y14946423D01*
X86793150Y14849270D01*
X86760276Y14777259D01*
X86734704Y14726536D01*
X86714428Y14693246D01*
X86697437Y14673537D01*
X86681723Y14663552D01*
X86665278Y14659439D01*
X86656985Y14658465D01*
X86614783Y14658520D01*
X86596264Y14667223D01*
X86596227Y14667763D01*
X86603621Y14689225D01*
X86624602Y14742937D01*
X86657367Y14824466D01*
X86700112Y14929376D01*
X86751036Y15053236D01*
X86808335Y15191611D01*
X86847470Y15285624D01*
X86916120Y15450034D01*
X86971382Y15581422D01*
X87015165Y15683491D01*
X87049375Y15759941D01*
X87075921Y15814476D01*
X87096710Y15850795D01*
X87113652Y15872601D01*
X87128652Y15883596D01*
X87143620Y15887480D01*
X87157927Y15887955D01*
X87198656Y15883960D01*
G37*
G36*
X85860283Y19676232D02*
G01*
X85966102Y19674099D01*
X86042466Y19667756D01*
X86099603Y19655790D01*
X86147740Y19636789D01*
X86148431Y19636451D01*
X86237744Y19573201D01*
X86294154Y19487687D01*
X86317194Y19380674D01*
X86317762Y19358825D01*
X86300310Y19248740D01*
X86250006Y19158310D01*
X86169922Y19090106D01*
X86063132Y19046702D01*
X85932710Y19030671D01*
X85925685Y19030634D01*
X85800612Y19030634D01*
X85800612Y18772059D01*
X85800612Y18513484D01*
X85720750Y18513484D01*
X85640888Y18513484D01*
X85646161Y19095277D01*
X85650262Y19547783D01*
X85800612Y19547783D01*
X85800612Y19346156D01*
X85800612Y19144529D01*
X85932324Y19155102D01*
X86011518Y19164448D01*
X86064249Y19179948D01*
X86103802Y19206118D01*
X86115858Y19217496D01*
X86160859Y19287332D01*
X86170262Y19364790D01*
X86144495Y19440627D01*
X86103174Y19490148D01*
X86059875Y19523739D01*
X86016386Y19541111D01*
X85956664Y19547303D01*
X85919640Y19547783D01*
X85800612Y19547783D01*
X85650262Y19547783D01*
X85651434Y19677071D01*
X85860283Y19676232D01*
G37*
G36*
X83427654Y24388511D02*
G01*
X83525528Y24329596D01*
X83603397Y24237057D01*
X83612671Y24221250D01*
X83628542Y24191613D01*
X83640712Y24162834D01*
X83649765Y24129197D01*
X83656286Y24084985D01*
X83660857Y24024484D01*
X83664063Y23941978D01*
X83666488Y23831751D01*
X83668715Y23688088D01*
X83668972Y23670062D01*
X83675547Y23207611D01*
X83556341Y23207611D01*
X83437134Y23207611D01*
X83430230Y23620336D01*
X83427279Y23765708D01*
X83423614Y23876834D01*
X83418766Y23959246D01*
X83412267Y24018478D01*
X83403651Y24060063D01*
X83392449Y24089535D01*
X83390203Y24093833D01*
X83334914Y24158044D01*
X83259505Y24193236D01*
X83170811Y24199641D01*
X83075672Y24177491D01*
X82980924Y24127020D01*
X82921481Y24077877D01*
X82856837Y24015312D01*
X82856837Y23611462D01*
X82856837Y23207611D01*
X82737495Y23207611D01*
X82618153Y23207611D01*
X82618153Y23794377D01*
X82618153Y24381143D01*
X82715346Y24381143D01*
X82812540Y24381143D01*
X82826093Y24290761D01*
X82839647Y24200379D01*
X82908182Y24260553D01*
X83008129Y24334698D01*
X83114350Y24382100D01*
X83183391Y24400666D01*
X83312650Y24412602D01*
X83427654Y24388511D01*
G37*
G36*
X91225224Y17541587D02*
G01*
X91277279Y17532376D01*
X91326018Y17519606D01*
X91344575Y17502395D01*
X91342145Y17470633D01*
X91340306Y17463061D01*
X91328661Y17422113D01*
X91321212Y17403961D01*
X91300317Y17404641D01*
X91253273Y17412666D01*
X91219143Y17419871D01*
X91094979Y17432198D01*
X90988530Y17411174D01*
X90902882Y17358532D01*
X90841124Y17276006D01*
X90811279Y17190921D01*
X90800207Y17065439D01*
X90825780Y16953988D01*
X90887580Y16858145D01*
X90903902Y16841326D01*
X90956196Y16798868D01*
X91011771Y16776747D01*
X91076610Y16767684D01*
X91153643Y16766411D01*
X91227644Y16773233D01*
X91254894Y16778931D01*
X91311174Y16787196D01*
X91340666Y16769295D01*
X91349954Y16720715D01*
X91350025Y16713725D01*
X91331822Y16686806D01*
X91283275Y16665906D01*
X91213476Y16651822D01*
X91131518Y16645348D01*
X91046492Y16647279D01*
X90967490Y16658411D01*
X90912437Y16675454D01*
X90806067Y16741882D01*
X90726369Y16835208D01*
X90675887Y16950700D01*
X90657166Y17083627D01*
X90659576Y17145652D01*
X90688618Y17277988D01*
X90747700Y17386256D01*
X90833862Y17468603D01*
X90944144Y17523176D01*
X91075585Y17548122D01*
X91225224Y17541587D01*
G37*
G36*
X91851775Y17510973D02*
G01*
X91857229Y17184735D01*
X92055026Y17361796D01*
X92136902Y17434220D01*
X92196443Y17483741D01*
X92240373Y17514620D01*
X92275421Y17531120D01*
X92308310Y17537501D01*
X92333491Y17538231D01*
X92414159Y17537605D01*
X92218130Y17354227D01*
X92022100Y17170848D01*
X92233047Y16928384D01*
X92304140Y16846017D01*
X92365009Y16774246D01*
X92411270Y16718345D01*
X92438536Y16683586D01*
X92443995Y16674800D01*
X92426361Y16667758D01*
X92382449Y16663918D01*
X92366505Y16663680D01*
X92333829Y16665318D01*
X92305375Y16673433D01*
X92275205Y16692822D01*
X92237382Y16728284D01*
X92185968Y16784616D01*
X92115027Y16866617D01*
X92114221Y16867556D01*
X92049836Y16942743D01*
X91995474Y17006394D01*
X91956014Y17052783D01*
X91936339Y17076182D01*
X91935073Y17077783D01*
X91917293Y17073536D01*
X91889001Y17058081D01*
X91869190Y17041867D01*
X91856834Y17017577D01*
X91850218Y16976562D01*
X91847625Y16910172D01*
X91847284Y16847854D01*
X91847284Y16663680D01*
X91777668Y16663680D01*
X91708051Y16663680D01*
X91708051Y17250446D01*
X91708051Y17837212D01*
X91777187Y17837212D01*
X91846322Y17837212D01*
X91851775Y17510973D01*
G37*
G36*
X81385816Y24028089D02*
G01*
X81387243Y23867817D01*
X81391152Y23742044D01*
X81398310Y23645523D01*
X81409483Y23573008D01*
X81425435Y23519253D01*
X81446934Y23479013D01*
X81469944Y23451712D01*
X81514502Y23418213D01*
X81570084Y23403319D01*
X81616406Y23400810D01*
X81724459Y23414521D01*
X81821707Y23460963D01*
X81899989Y23526806D01*
X81961771Y23588588D01*
X81961771Y23984865D01*
X81961771Y24381143D01*
X82081113Y24381143D01*
X82200455Y24381143D01*
X82200455Y23794377D01*
X82200455Y23207611D01*
X82103323Y23207611D01*
X82041224Y23212248D01*
X82004667Y23231485D01*
X81987111Y23273309D01*
X81982014Y23345708D01*
X81981933Y23355853D01*
X81981661Y23414588D01*
X81907072Y23342023D01*
X81797726Y23258969D01*
X81676279Y23206856D01*
X81550300Y23187137D01*
X81427356Y23201266D01*
X81343813Y23233820D01*
X81271486Y23284976D01*
X81217225Y23357407D01*
X81206425Y23377401D01*
X81190240Y23410237D01*
X81177871Y23441649D01*
X81168711Y23477535D01*
X81162156Y23523795D01*
X81157598Y23586328D01*
X81154433Y23671032D01*
X81152055Y23783808D01*
X81149894Y23928013D01*
X81143577Y24381143D01*
X81264263Y24381143D01*
X81384950Y24381143D01*
X81385816Y24028089D01*
G37*
G36*
X93166341Y19673408D02*
G01*
X93253783Y19620216D01*
X93318922Y19545152D01*
X93357219Y19451542D01*
X93364141Y19342713D01*
X93352265Y19274982D01*
X93323990Y19189188D01*
X93282021Y19103739D01*
X93221932Y19011640D01*
X93139295Y18905896D01*
X93060834Y18814534D01*
X92900469Y18632826D01*
X93139655Y18632826D01*
X93378842Y18632826D01*
X93378842Y18573155D01*
X93378842Y18513484D01*
X93060596Y18513484D01*
X92742350Y18513484D01*
X92742350Y18563567D01*
X92754919Y18602513D01*
X92793576Y18662635D01*
X92859747Y18745983D01*
X92909341Y18803553D01*
X93023018Y18939833D01*
X93107127Y19057762D01*
X93164350Y19162282D01*
X93197369Y19258331D01*
X93208865Y19350852D01*
X93208924Y19355534D01*
X93207220Y19424145D01*
X93197504Y19467548D01*
X93174762Y19500200D01*
X93151183Y19522023D01*
X93115237Y19549337D01*
X93079722Y19563131D01*
X93031005Y19566315D01*
X92962225Y19562327D01*
X92889181Y19554943D01*
X92828657Y19545794D01*
X92797049Y19537915D01*
X92772769Y19534650D01*
X92763296Y19557945D01*
X92762241Y19585928D01*
X92770508Y19635185D01*
X92802186Y19662852D01*
X92815557Y19668490D01*
X92942692Y19700871D01*
X93061132Y19701401D01*
X93166341Y19673408D01*
G37*
G36*
X86138748Y15460313D02*
G01*
X86138748Y15072450D01*
X86208364Y15072450D01*
X86255137Y15069124D01*
X86274321Y15052252D01*
X86277981Y15012779D01*
X86274100Y14972689D01*
X86254415Y14956245D01*
X86208364Y14953108D01*
X86138748Y14953108D01*
X86138748Y14813876D01*
X86138748Y14674643D01*
X86069132Y14674643D01*
X85999516Y14674643D01*
X85999516Y14813876D01*
X85999516Y14953108D01*
X85738683Y14953108D01*
X85477851Y14953108D01*
X85485935Y15008190D01*
X85498019Y15040934D01*
X85513137Y15072450D01*
X85640467Y15072450D01*
X85819992Y15072450D01*
X85999516Y15072450D01*
X85999516Y15384066D01*
X85999024Y15489536D01*
X85997667Y15578675D01*
X85995620Y15644992D01*
X85993058Y15681996D01*
X85991311Y15687394D01*
X85978817Y15667869D01*
X85950846Y15620904D01*
X85911527Y15553673D01*
X85864989Y15473349D01*
X85815360Y15387107D01*
X85766770Y15302121D01*
X85723346Y15225564D01*
X85689217Y15164611D01*
X85668883Y15127149D01*
X85640467Y15072450D01*
X85513137Y15072450D01*
X85527395Y15102172D01*
X85571055Y15186185D01*
X85625989Y15287256D01*
X85689189Y15399669D01*
X85721432Y15455723D01*
X85948843Y15848175D01*
X86043796Y15848175D01*
X86138748Y15848175D01*
X86138748Y15460313D01*
G37*
G36*
X91015320Y15865237D02*
G01*
X91090179Y15847939D01*
X91106112Y15840933D01*
X91197092Y15773088D01*
X91258096Y15682475D01*
X91285943Y15575731D01*
X91280961Y15476156D01*
X91261296Y15401305D01*
X91228458Y15325062D01*
X91178916Y15241908D01*
X91109138Y15146329D01*
X91015592Y15032806D01*
X90946473Y14953655D01*
X90831331Y14823821D01*
X91065815Y14813876D01*
X91300299Y14803930D01*
X91300299Y14744259D01*
X91300299Y14684588D01*
X90977080Y14679123D01*
X90653862Y14673658D01*
X90654568Y14728849D01*
X90663536Y14763434D01*
X90691626Y14812401D01*
X90741724Y14879945D01*
X90816716Y14970260D01*
X90836224Y14992889D01*
X90963508Y15151214D01*
X91055559Y15291914D01*
X91112548Y15415501D01*
X91134646Y15522487D01*
X91122025Y15613384D01*
X91074855Y15688705D01*
X91070455Y15693216D01*
X91034462Y15726454D01*
X91002451Y15743309D01*
X90960357Y15747520D01*
X90894113Y15742822D01*
X90886469Y15742088D01*
X90814132Y15734815D01*
X90753225Y15728196D01*
X90723478Y15724535D01*
X90691986Y15730588D01*
X90678258Y15766420D01*
X90677589Y15771668D01*
X90679264Y15808729D01*
X90702003Y15831724D01*
X90743585Y15848246D01*
X90826461Y15865704D01*
X90922227Y15871263D01*
X91015320Y15865237D01*
G37*
G36*
X78922799Y27067363D02*
G01*
X78924331Y26879867D01*
X78925823Y26728080D01*
X78927548Y26607932D01*
X78929778Y26515352D01*
X78932786Y26446269D01*
X78936844Y26396614D01*
X78942225Y26362316D01*
X78949203Y26339303D01*
X78958048Y26323507D01*
X78969035Y26310855D01*
X78973787Y26306067D01*
X79013600Y26276816D01*
X79065794Y26263326D01*
X79122965Y26260782D01*
X79196781Y26263887D01*
X79264562Y26271750D01*
X79288091Y26276534D01*
X79327923Y26283799D01*
X79350096Y26272759D01*
X79366426Y26234752D01*
X79372625Y26214555D01*
X79387288Y26162954D01*
X79395367Y26129359D01*
X79395913Y26124985D01*
X79378566Y26113280D01*
X79333919Y26095722D01*
X79292851Y26082540D01*
X79169121Y26057976D01*
X79045014Y26054785D01*
X78934279Y26072735D01*
X78888709Y26089342D01*
X78806451Y26137510D01*
X78749395Y26200005D01*
X78710454Y26275789D01*
X78701556Y26303172D01*
X78694498Y26340945D01*
X78689086Y26393507D01*
X78685125Y26465258D01*
X78682419Y26560596D01*
X78680774Y26683921D01*
X78679995Y26839633D01*
X78679860Y26966252D01*
X78679860Y27583492D01*
X78469922Y27583492D01*
X78259983Y27583492D01*
X78266045Y27677971D01*
X78272108Y27772450D01*
X78594608Y27777912D01*
X78917108Y27783374D01*
X78922799Y27067363D01*
G37*
G36*
X80550031Y19362795D02*
G01*
X80646427Y19334804D01*
X80728355Y19277703D01*
X80756021Y19249445D01*
X80825487Y19144548D01*
X80859468Y19026375D01*
X80857350Y18900798D01*
X80818518Y18773687D01*
X80808108Y18752127D01*
X80743025Y18665638D01*
X80653233Y18602443D01*
X80548360Y18565751D01*
X80438038Y18558770D01*
X80331894Y18584710D01*
X80320816Y18589745D01*
X80228875Y18648779D01*
X80154700Y18725351D01*
X80113232Y18798217D01*
X80101508Y18849303D01*
X80093825Y18921238D01*
X80092954Y18947028D01*
X80254386Y18947028D01*
X80267469Y18864472D01*
X80299075Y18790756D01*
X80349232Y18733238D01*
X80417969Y18699271D01*
X80463726Y18693294D01*
X80516354Y18699867D01*
X80558196Y18711892D01*
X80617633Y18754286D01*
X80660493Y18824036D01*
X80684439Y18911353D01*
X80687131Y19006447D01*
X80666230Y19099530D01*
X80656359Y19122795D01*
X80611662Y19188928D01*
X80550473Y19224540D01*
X80465824Y19234962D01*
X80386718Y19218541D01*
X80325993Y19174181D01*
X80283677Y19109238D01*
X80259798Y19031068D01*
X80254386Y18947028D01*
X80092954Y18947028D01*
X80092076Y18973050D01*
X80108055Y19102969D01*
X80154276Y19210197D01*
X80228163Y19291750D01*
X80327143Y19344642D01*
X80430049Y19364907D01*
X80550031Y19362795D01*
G37*
G36*
X87028297Y19384302D02*
G01*
X87134668Y19354444D01*
X87164404Y19339223D01*
X87245218Y19270891D01*
X87303757Y19178815D01*
X87340164Y19070629D01*
X87354581Y18953964D01*
X87347150Y18836456D01*
X87318013Y18725739D01*
X87267311Y18629444D01*
X87195188Y18555208D01*
X87149307Y18527876D01*
X87038917Y18491898D01*
X86929115Y18484748D01*
X86880163Y18492409D01*
X86769558Y18538901D01*
X86681327Y18615969D01*
X86618220Y18719585D01*
X86582988Y18845722D01*
X86577864Y18916331D01*
X86719367Y18916331D01*
X86736031Y18806467D01*
X86777332Y18709926D01*
X86806539Y18670990D01*
X86874337Y18623360D01*
X86956340Y18605864D01*
X87040291Y18618932D01*
X87110967Y18660300D01*
X87172824Y18741804D01*
X87206271Y18850927D01*
X87212828Y18941127D01*
X87199808Y19065345D01*
X87161712Y19161811D01*
X87099983Y19228650D01*
X87016065Y19263988D01*
X86959986Y19269318D01*
X86892413Y19262664D01*
X86842360Y19237300D01*
X86815366Y19213052D01*
X86759219Y19130903D01*
X86727158Y19028236D01*
X86719367Y18916331D01*
X86577864Y18916331D01*
X86576336Y18937390D01*
X86590937Y19067667D01*
X86632157Y19184113D01*
X86696119Y19279634D01*
X86778950Y19347139D01*
X86807922Y19361296D01*
X86913806Y19386932D01*
X87028297Y19384302D01*
G37*
G36*
X93073785Y15859998D02*
G01*
X93153532Y15834058D01*
X93153873Y15833881D01*
X93233532Y15779552D01*
X93283805Y15710441D01*
X93310121Y15617654D01*
X93315344Y15569375D01*
X93317645Y15497003D01*
X93309540Y15439015D01*
X93287098Y15377292D01*
X93262392Y15325451D01*
X93224265Y15260935D01*
X93166867Y15178360D01*
X93098174Y15088653D01*
X93030616Y15007807D01*
X92860487Y14813876D01*
X93099774Y14813876D01*
X93339061Y14813876D01*
X93339061Y14744259D01*
X93339061Y14674643D01*
X93024131Y14674643D01*
X92916004Y14675441D01*
X92822182Y14677643D01*
X92749739Y14680965D01*
X92705745Y14685121D01*
X92695940Y14687903D01*
X92683853Y14712249D01*
X92690211Y14747021D01*
X92717396Y14796359D01*
X92767794Y14864404D01*
X92843788Y14955296D01*
X92861986Y14976257D01*
X92993104Y15139035D01*
X93088063Y15285240D01*
X93146867Y15414878D01*
X93169519Y15527957D01*
X93156021Y15624484D01*
X93142846Y15654193D01*
X93092580Y15708410D01*
X93016675Y15740817D01*
X92923917Y15749538D01*
X92823093Y15732698D01*
X92803974Y15726533D01*
X92756915Y15711876D01*
X92733829Y15716962D01*
X92720991Y15748837D01*
X92715321Y15772046D01*
X92711293Y15808591D01*
X92728205Y15830321D01*
X92773546Y15848624D01*
X92867561Y15867910D01*
X92973051Y15871492D01*
X93073785Y15859998D01*
G37*
G36*
X86550985Y24378680D02*
G01*
X86585436Y24370534D01*
X86590591Y24356280D01*
X86580963Y24332170D01*
X86558463Y24275875D01*
X86524991Y24192145D01*
X86482446Y24085730D01*
X86432728Y23961382D01*
X86377735Y23823852D01*
X86356007Y23769514D01*
X86131313Y23207611D01*
X85996065Y23207611D01*
X85860817Y23207611D01*
X85829409Y23282200D01*
X85814349Y23318423D01*
X85787241Y23384071D01*
X85750520Y23473217D01*
X85706618Y23579934D01*
X85657970Y23698294D01*
X85607009Y23822370D01*
X85556169Y23946234D01*
X85507883Y24063958D01*
X85464584Y24169617D01*
X85428708Y24257281D01*
X85402686Y24321024D01*
X85388953Y24354919D01*
X85388012Y24357294D01*
X85391497Y24371430D01*
X85420367Y24378031D01*
X85480796Y24378156D01*
X85504015Y24377184D01*
X85630151Y24371197D01*
X85752649Y24058860D01*
X85798898Y23939990D01*
X85844962Y23819927D01*
X85886696Y23709591D01*
X85919954Y23619899D01*
X85932017Y23586464D01*
X85959042Y23514110D01*
X85982213Y23458783D01*
X85997800Y23429137D01*
X86000999Y23426405D01*
X86013360Y23443595D01*
X86030448Y23486974D01*
X86038004Y23510939D01*
X86052624Y23555046D01*
X86079011Y23629194D01*
X86114574Y23726326D01*
X86156725Y23839383D01*
X86202872Y23961307D01*
X86213185Y23988308D01*
X86363471Y24381143D01*
X86481977Y24381143D01*
X86550985Y24378680D01*
G37*
G36*
X89201865Y15460313D02*
G01*
X89201865Y15072450D01*
X89271481Y15072450D01*
X89318254Y15069124D01*
X89337438Y15052252D01*
X89341097Y15012779D01*
X89337217Y14972689D01*
X89317532Y14956245D01*
X89271481Y14953108D01*
X89201865Y14953108D01*
X89201865Y14813876D01*
X89201865Y14674643D01*
X89132249Y14674643D01*
X89062632Y14674643D01*
X89062632Y14813876D01*
X89062632Y14953108D01*
X88804058Y14953108D01*
X88545483Y14953108D01*
X88545483Y15004542D01*
X88555406Y15037337D01*
X88576882Y15084642D01*
X88704606Y15084642D01*
X88723015Y15079273D01*
X88772325Y15075110D01*
X88843661Y15072759D01*
X88883619Y15072450D01*
X89062632Y15072450D01*
X89062632Y15380751D01*
X89062146Y15486408D01*
X89060803Y15576462D01*
X89058780Y15644148D01*
X89056251Y15682703D01*
X89054638Y15689052D01*
X89042616Y15672845D01*
X89015019Y15628743D01*
X88975774Y15563525D01*
X88928806Y15483970D01*
X88878042Y15396856D01*
X88827407Y15308963D01*
X88780827Y15227069D01*
X88742227Y15157953D01*
X88715534Y15108394D01*
X88704673Y15085170D01*
X88704606Y15084642D01*
X88576882Y15084642D01*
X88583492Y15099202D01*
X88627216Y15185230D01*
X88684053Y15290513D01*
X88751479Y15410143D01*
X88775706Y15452075D01*
X89005929Y15848175D01*
X89103897Y15848175D01*
X89201865Y15848175D01*
X89201865Y15460313D01*
G37*
G36*
X93893059Y19314071D02*
G01*
X93932481Y19190071D01*
X93970241Y19070943D01*
X94003718Y18964994D01*
X94030284Y18880529D01*
X94047039Y18826757D01*
X94067482Y18766329D01*
X94085001Y18724878D01*
X94094298Y18712388D01*
X94099663Y18717380D01*
X94108198Y18734624D01*
X94121055Y18767516D01*
X94139381Y18819455D01*
X94164326Y18893839D01*
X94197039Y18994067D01*
X94238669Y19123535D01*
X94290365Y19285643D01*
X94324675Y19393633D01*
X94417802Y19687016D01*
X94485088Y19687016D01*
X94530480Y19683134D01*
X94552846Y19673636D01*
X94553299Y19672098D01*
X94547628Y19650116D01*
X94531135Y19595074D01*
X94505314Y19511741D01*
X94471659Y19404881D01*
X94431665Y19279263D01*
X94386828Y19139653D01*
X94369313Y19085415D01*
X94184402Y18513649D01*
X94101042Y18513567D01*
X94047360Y18516757D01*
X94013266Y18524846D01*
X94008716Y18528402D01*
X93999786Y18551635D01*
X93980710Y18606741D01*
X93953362Y18687959D01*
X93919617Y18789526D01*
X93881351Y18905682D01*
X93840438Y19030665D01*
X93798754Y19158714D01*
X93758174Y19284065D01*
X93720573Y19400960D01*
X93687827Y19503635D01*
X93661809Y19586329D01*
X93644396Y19643280D01*
X93637463Y19668728D01*
X93637417Y19669258D01*
X93654888Y19681077D01*
X93697754Y19686891D01*
X93705864Y19687016D01*
X93774311Y19687016D01*
X93893059Y19314071D01*
G37*
G36*
X94293799Y15460313D02*
G01*
X94293799Y15072450D01*
X94363415Y15072450D01*
X94410188Y15069124D01*
X94429372Y15052252D01*
X94433032Y15012779D01*
X94429151Y14972689D01*
X94409466Y14956245D01*
X94363415Y14953108D01*
X94293799Y14953108D01*
X94293799Y14813876D01*
X94293799Y14674643D01*
X94224183Y14674643D01*
X94154567Y14674643D01*
X94154567Y14813876D01*
X94154567Y14953108D01*
X93895992Y14953108D01*
X93637417Y14953108D01*
X93637417Y15003905D01*
X93647253Y15035998D01*
X93668601Y15082933D01*
X93796540Y15082933D01*
X93814949Y15078317D01*
X93864261Y15074738D01*
X93935599Y15072715D01*
X93975553Y15072450D01*
X94154567Y15072450D01*
X94154567Y15380751D01*
X94154059Y15486408D01*
X94152660Y15576462D01*
X94150551Y15644148D01*
X94147915Y15682702D01*
X94146233Y15689052D01*
X94134361Y15672834D01*
X94106935Y15628698D01*
X94067863Y15563418D01*
X94021055Y15483770D01*
X93970418Y15396530D01*
X93919864Y15308473D01*
X93873299Y15226375D01*
X93834634Y15157010D01*
X93807778Y15107154D01*
X93796639Y15083583D01*
X93796540Y15082933D01*
X93668601Y15082933D01*
X93674986Y15096970D01*
X93717951Y15181645D01*
X93773484Y15284846D01*
X93838922Y15401399D01*
X93867760Y15451438D01*
X94098104Y15848175D01*
X94195952Y15848175D01*
X94293799Y15848175D01*
X94293799Y15460313D01*
G37*
G36*
X79336242Y19488712D02*
G01*
X79336242Y19270517D01*
X79408634Y19319643D01*
X79499561Y19359916D01*
X79599667Y19369627D01*
X79698293Y19350652D01*
X79784781Y19304868D01*
X79842834Y19243210D01*
X79864759Y19196434D01*
X79886643Y19128959D01*
X79897291Y19085308D01*
X79908468Y18960742D01*
X79891256Y18845048D01*
X79849761Y18742777D01*
X79788090Y18658479D01*
X79710350Y18596707D01*
X79620647Y18562010D01*
X79523087Y18558940D01*
X79443055Y18581915D01*
X79396573Y18606536D01*
X79368169Y18629563D01*
X79367292Y18630862D01*
X79341310Y18652091D01*
X79320947Y18638219D01*
X79316352Y18612936D01*
X79308565Y18585518D01*
X79278163Y18574456D01*
X79246736Y18573155D01*
X79177119Y18573155D01*
X79177119Y19140031D01*
X79335513Y19140031D01*
X79340850Y18951072D01*
X79346188Y18762114D01*
X79415804Y18727336D01*
X79485288Y18699211D01*
X79543275Y18695244D01*
X79603458Y18711892D01*
X79648036Y18741867D01*
X79689840Y18789637D01*
X79694185Y18796426D01*
X79721914Y18866738D01*
X79733591Y18951733D01*
X79730308Y19040233D01*
X79713161Y19121056D01*
X79683244Y19183021D01*
X79653704Y19210067D01*
X79583404Y19228626D01*
X79500027Y19223458D01*
X79421047Y19196317D01*
X79401752Y19184784D01*
X79335513Y19140031D01*
X79177119Y19140031D01*
X79177119Y19706906D01*
X79256681Y19706906D01*
X79336242Y19706906D01*
X79336242Y19488712D01*
G37*
G36*
X79336242Y17579236D02*
G01*
X79336242Y17361042D01*
X79408634Y17410168D01*
X79499561Y17450441D01*
X79599667Y17460151D01*
X79698293Y17441176D01*
X79784781Y17395392D01*
X79842834Y17333735D01*
X79864759Y17286959D01*
X79886643Y17219484D01*
X79897291Y17175832D01*
X79908468Y17051266D01*
X79891256Y16935572D01*
X79849761Y16833301D01*
X79788090Y16749004D01*
X79710350Y16687232D01*
X79620647Y16652535D01*
X79523087Y16649465D01*
X79443055Y16672439D01*
X79396573Y16697060D01*
X79368169Y16720088D01*
X79367292Y16721387D01*
X79341310Y16742616D01*
X79320947Y16728744D01*
X79316352Y16703461D01*
X79308565Y16676043D01*
X79278163Y16664980D01*
X79246736Y16663680D01*
X79177119Y16663680D01*
X79177119Y17215871D01*
X79334812Y17215871D01*
X79340500Y17034254D01*
X79346188Y16852638D01*
X79415804Y16817861D01*
X79485288Y16789735D01*
X79543275Y16785769D01*
X79603458Y16802417D01*
X79661990Y16844366D01*
X79704402Y16913258D01*
X79729438Y16999134D01*
X79735841Y17092039D01*
X79722351Y17182013D01*
X79687712Y17259098D01*
X79664678Y17287140D01*
X79611236Y17315303D01*
X79539678Y17321057D01*
X79464049Y17305405D01*
X79398394Y17269353D01*
X79396724Y17267966D01*
X79334812Y17215871D01*
X79177119Y17215871D01*
X79177119Y17230555D01*
X79177119Y17797431D01*
X79256681Y17797431D01*
X79336242Y17797431D01*
X79336242Y17579236D01*
G37*
G36*
X83966926Y17546204D02*
G01*
X84051142Y17514539D01*
X84123268Y17471478D01*
X84130076Y17465973D01*
X84205436Y17379381D01*
X84255044Y17273614D01*
X84279487Y17156456D01*
X84279355Y17035689D01*
X84255235Y16919094D01*
X84207718Y16814455D01*
X84137390Y16729553D01*
X84070920Y16683963D01*
X83970371Y16651744D01*
X83858025Y16645887D01*
X83750775Y16666346D01*
X83707102Y16684949D01*
X83621248Y16751398D01*
X83557845Y16843206D01*
X83517444Y16952523D01*
X83500597Y17071497D01*
X83503189Y17114624D01*
X83649685Y17114624D01*
X83660602Y16987256D01*
X83695430Y16885882D01*
X83752289Y16813201D01*
X83829297Y16771912D01*
X83894652Y16763132D01*
X83956255Y16770420D01*
X84006687Y16798109D01*
X84039662Y16828118D01*
X84099815Y16915288D01*
X84132091Y17024507D01*
X84134497Y17147614D01*
X84128233Y17190775D01*
X84098097Y17292716D01*
X84049104Y17363790D01*
X83976483Y17410334D01*
X83957288Y17417760D01*
X83902270Y17433839D01*
X83860226Y17432468D01*
X83809150Y17412256D01*
X83799967Y17407815D01*
X83722528Y17349021D01*
X83672825Y17261759D01*
X83650835Y17145986D01*
X83649685Y17114624D01*
X83503189Y17114624D01*
X83507856Y17192276D01*
X83539773Y17307011D01*
X83596900Y17407849D01*
X83652198Y17465973D01*
X83721521Y17509861D01*
X83805375Y17543297D01*
X83883241Y17558334D01*
X83891137Y17558525D01*
X83966926Y17546204D01*
G37*
G36*
X99301530Y24934061D02*
G01*
X99399672Y24917539D01*
X99476017Y24899321D01*
X99519444Y24880857D01*
X99536246Y24855187D01*
X99532716Y24815350D01*
X99523202Y24780905D01*
X99505841Y24729665D01*
X99487863Y24708332D01*
X99458376Y24708382D01*
X99437034Y24713472D01*
X99385890Y24721470D01*
X99311366Y24727140D01*
X99232002Y24729224D01*
X99154517Y24727723D01*
X99104464Y24720984D01*
X99069536Y24705656D01*
X99037430Y24678387D01*
X99034432Y24675406D01*
X99001431Y24634299D01*
X98982658Y24584931D01*
X98972801Y24512500D01*
X98971950Y24501366D01*
X98963254Y24381143D01*
X99194384Y24381143D01*
X99425514Y24381143D01*
X99425514Y24281691D01*
X99425514Y24182239D01*
X99197128Y24182239D01*
X98968743Y24182239D01*
X98963417Y23699898D01*
X98958090Y23217556D01*
X98847904Y23211716D01*
X98784700Y23210856D01*
X98738593Y23214824D01*
X98723589Y23220003D01*
X98719626Y23243071D01*
X98716092Y23300245D01*
X98713151Y23385853D01*
X98710969Y23494220D01*
X98709708Y23619674D01*
X98709461Y23708185D01*
X98709461Y24182239D01*
X98549248Y24182239D01*
X98389035Y24182239D01*
X98395098Y24276718D01*
X98401160Y24371197D01*
X98553981Y24376983D01*
X98706801Y24382768D01*
X98720234Y24496325D01*
X98753321Y24643253D01*
X98813647Y24761660D01*
X98899923Y24850745D01*
X99010856Y24909707D01*
X99145155Y24937746D01*
X99301530Y24934061D01*
G37*
G36*
X81424731Y15669908D02*
G01*
X81424731Y15551312D01*
X81608717Y15545593D01*
X81792703Y15539874D01*
X81798936Y15475230D01*
X81805168Y15410587D01*
X81613238Y15410587D01*
X81421308Y15410587D01*
X81427992Y15180049D01*
X81431376Y15080493D01*
X81435792Y15012703D01*
X81442909Y14968664D01*
X81454393Y14940368D01*
X81471914Y14919801D01*
X81484402Y14909146D01*
X81517804Y14887221D01*
X81556533Y14876905D01*
X81613398Y14876130D01*
X81666414Y14879787D01*
X81737337Y14884694D01*
X81778334Y14883149D01*
X81799030Y14872982D01*
X81809048Y14852025D01*
X81810348Y14847361D01*
X81819356Y14806884D01*
X81812740Y14784143D01*
X81782345Y14769419D01*
X81734169Y14756566D01*
X81597699Y14736190D01*
X81477734Y14749088D01*
X81413277Y14772008D01*
X81357161Y14804058D01*
X81316780Y14845680D01*
X81289800Y14903324D01*
X81273886Y14983439D01*
X81266702Y15092476D01*
X81265608Y15179881D01*
X81265608Y15410587D01*
X81156211Y15410587D01*
X81093671Y15411589D01*
X81061119Y15418155D01*
X81048764Y15435627D01*
X81046814Y15469345D01*
X81046814Y15470258D01*
X81048732Y15504674D01*
X81061092Y15522400D01*
X81093804Y15528973D01*
X81153609Y15529929D01*
X81260403Y15529929D01*
X81272732Y15604518D01*
X81281243Y15670615D01*
X81285243Y15730295D01*
X81285279Y15733805D01*
X81289900Y15770654D01*
X81311333Y15785757D01*
X81355115Y15788504D01*
X81424731Y15788504D01*
X81424731Y15669908D01*
G37*
G36*
X79853392Y15321080D02*
G01*
X79853392Y14754204D01*
X79783776Y14754204D01*
X79736744Y14757870D01*
X79717482Y14774579D01*
X79714159Y14804943D01*
X79714159Y14855681D01*
X79644416Y14802485D01*
X79562298Y14760366D01*
X79465100Y14740313D01*
X79372576Y14746201D01*
X79366078Y14747879D01*
X79275194Y14792512D01*
X79205657Y14868469D01*
X79159498Y14972293D01*
X79138752Y15100529D01*
X79137775Y15135799D01*
X79137942Y15139328D01*
X79298958Y15139328D01*
X79311113Y15045372D01*
X79345871Y14962475D01*
X79398785Y14904666D01*
X79462050Y14881049D01*
X79538132Y14883319D01*
X79611402Y14909562D01*
X79646498Y14935055D01*
X79669241Y14959788D01*
X79683368Y14988322D01*
X79690897Y15030294D01*
X79693847Y15095341D01*
X79694269Y15163137D01*
X79693582Y15250082D01*
X79690156Y15306244D01*
X79681944Y15340615D01*
X79666898Y15362184D01*
X79645243Y15378464D01*
X79577170Y15404117D01*
X79496566Y15408442D01*
X79422538Y15391464D01*
X79398238Y15378152D01*
X79342508Y15316658D01*
X79309419Y15233403D01*
X79298958Y15139328D01*
X79137942Y15139328D01*
X79142962Y15245226D01*
X79161824Y15327863D01*
X79198068Y15395432D01*
X79233083Y15437225D01*
X79322616Y15507859D01*
X79422072Y15545390D01*
X79523895Y15548426D01*
X79620527Y15515576D01*
X79629625Y15510256D01*
X79694269Y15470842D01*
X79694269Y15679399D01*
X79694269Y15887955D01*
X79773830Y15887955D01*
X79853392Y15887955D01*
X79853392Y15321080D01*
G37*
G36*
X93140158Y24570101D02*
G01*
X93140158Y24381143D01*
X93418623Y24381143D01*
X93697088Y24381143D01*
X93697088Y24281691D01*
X93697088Y24182239D01*
X93416539Y24182239D01*
X93135990Y24182239D01*
X93143754Y23868966D01*
X93148811Y23726902D01*
X93157078Y23619022D01*
X93170173Y23539759D01*
X93189717Y23483546D01*
X93217327Y23444819D01*
X93254622Y23418011D01*
X93278094Y23407051D01*
X93331651Y23395605D01*
X93410028Y23391177D01*
X93498951Y23393410D01*
X93584151Y23401950D01*
X93651035Y23416338D01*
X93679472Y23420384D01*
X93697834Y23403592D01*
X93714041Y23357544D01*
X93717213Y23345973D01*
X93729437Y23289547D01*
X93726516Y23258718D01*
X93713540Y23245185D01*
X93652823Y23221425D01*
X93564469Y23203997D01*
X93460219Y23193576D01*
X93351813Y23190839D01*
X93250992Y23196461D01*
X93169496Y23211121D01*
X93161916Y23213409D01*
X93104730Y23241641D01*
X93044593Y23285744D01*
X93028472Y23300732D01*
X92984091Y23353680D01*
X92950776Y23415848D01*
X92927193Y23493303D01*
X92912005Y23592111D01*
X92903877Y23718341D01*
X92901473Y23877548D01*
X92901473Y24182239D01*
X92742350Y24182239D01*
X92583227Y24182239D01*
X92583227Y24281691D01*
X92583227Y24381143D01*
X92752296Y24381143D01*
X92921364Y24381143D01*
X92921537Y24465677D01*
X92924215Y24538263D01*
X92930766Y24622340D01*
X92934252Y24654635D01*
X92946795Y24759060D01*
X93043476Y24759060D01*
X93140158Y24759060D01*
X93140158Y24570101D01*
G37*
G36*
X98444762Y19110195D02*
G01*
X98491139Y18967212D01*
X98533265Y18836399D01*
X98569619Y18722556D01*
X98598679Y18630481D01*
X98618925Y18564971D01*
X98628834Y18530825D01*
X98629579Y18527201D01*
X98612400Y18518205D01*
X98569552Y18516481D01*
X98558176Y18517256D01*
X98486452Y18523429D01*
X98425396Y18717360D01*
X98364339Y18911291D01*
X98172163Y18911291D01*
X97979987Y18911291D01*
X97921424Y18717360D01*
X97862862Y18523429D01*
X97788902Y18517256D01*
X97741419Y18517085D01*
X97716419Y18524402D01*
X97715271Y18527201D01*
X97721361Y18549473D01*
X97738436Y18604713D01*
X97764959Y18688134D01*
X97799390Y18794945D01*
X97840192Y18920359D01*
X97881487Y19046342D01*
X98033188Y19046342D01*
X98051396Y19038600D01*
X98099311Y19032989D01*
X98166874Y19030646D01*
X98172421Y19030634D01*
X98253159Y19033266D01*
X98298222Y19041616D01*
X98311437Y19055497D01*
X98305525Y19087862D01*
X98290108Y19143488D01*
X98268204Y19213616D01*
X98242828Y19289484D01*
X98216998Y19362330D01*
X98193730Y19423394D01*
X98176040Y19463915D01*
X98166951Y19475142D01*
X98156710Y19449363D01*
X98138475Y19395827D01*
X98115333Y19324435D01*
X98090374Y19245084D01*
X98066684Y19167674D01*
X98047352Y19102102D01*
X98035465Y19058268D01*
X98033188Y19046342D01*
X97881487Y19046342D01*
X97885828Y19059585D01*
X97902494Y19110195D01*
X98089388Y19677071D01*
X98174827Y19677071D01*
X98260265Y19677071D01*
X98444762Y19110195D01*
G37*
G36*
X103164903Y24570101D02*
G01*
X103164903Y24381143D01*
X103443368Y24381143D01*
X103721834Y24381143D01*
X103721834Y24281691D01*
X103721834Y24182239D01*
X103441284Y24182239D01*
X103160735Y24182239D01*
X103168500Y23868966D01*
X103173556Y23726902D01*
X103181823Y23619022D01*
X103194919Y23539759D01*
X103214462Y23483546D01*
X103242072Y23444819D01*
X103279368Y23418011D01*
X103302840Y23407051D01*
X103356397Y23395605D01*
X103434773Y23391177D01*
X103523697Y23393410D01*
X103608896Y23401950D01*
X103675780Y23416338D01*
X103704217Y23420384D01*
X103722580Y23403592D01*
X103738787Y23357544D01*
X103741958Y23345973D01*
X103754183Y23289547D01*
X103751262Y23258718D01*
X103738286Y23245185D01*
X103677568Y23221425D01*
X103589214Y23203997D01*
X103484965Y23193576D01*
X103376559Y23190839D01*
X103275738Y23196461D01*
X103194241Y23211121D01*
X103186661Y23213409D01*
X103129475Y23241641D01*
X103069339Y23285744D01*
X103053217Y23300732D01*
X103008836Y23353680D01*
X102975522Y23415848D01*
X102951939Y23493303D01*
X102936751Y23592111D01*
X102928623Y23718341D01*
X102926219Y23877548D01*
X102926219Y24182239D01*
X102767096Y24182239D01*
X102607973Y24182239D01*
X102607973Y24281691D01*
X102607973Y24381143D01*
X102777041Y24381143D01*
X102946109Y24381143D01*
X102946282Y24465677D01*
X102948961Y24538263D01*
X102955512Y24622340D01*
X102958998Y24654635D01*
X102971541Y24759060D01*
X103068222Y24759060D01*
X103164903Y24759060D01*
X103164903Y24570101D01*
G37*
G36*
X89133139Y19371689D02*
G01*
X89198912Y19334218D01*
X89221094Y19316548D01*
X89297782Y19228281D01*
X89346323Y19121299D01*
X89360988Y19021481D01*
X89360988Y18931182D01*
X89072577Y18931182D01*
X88784167Y18931182D01*
X88784167Y18880663D01*
X88799765Y18806493D01*
X88839959Y18729331D01*
X88894850Y18666001D01*
X88922062Y18646291D01*
X88988866Y18618087D01*
X89068492Y18607302D01*
X89171135Y18612974D01*
X89214394Y18618670D01*
X89274305Y18626161D01*
X89305872Y18623696D01*
X89319983Y18607894D01*
X89325891Y18584063D01*
X89326114Y18547325D01*
X89301826Y18525842D01*
X89273582Y18515689D01*
X89136951Y18488570D01*
X89004134Y18489194D01*
X88937399Y18501814D01*
X88824689Y18551406D01*
X88736649Y18630630D01*
X88675416Y18736335D01*
X88643123Y18865372D01*
X88638470Y18942917D01*
X88650498Y19061108D01*
X88784167Y19061108D01*
X88802725Y19056874D01*
X88853072Y19053446D01*
X88927219Y19051207D01*
X89005117Y19050524D01*
X89226068Y19050524D01*
X89212548Y19105223D01*
X89174968Y19185099D01*
X89112137Y19241909D01*
X89032951Y19268316D01*
X89013611Y19269318D01*
X88921714Y19253443D01*
X88853044Y19205369D01*
X88811902Y19138070D01*
X88793572Y19091543D01*
X88784407Y19063074D01*
X88784167Y19061108D01*
X88650498Y19061108D01*
X88652704Y19082790D01*
X88694181Y19200018D01*
X88760537Y19291387D01*
X88849408Y19353680D01*
X88958429Y19383682D01*
X88962940Y19384142D01*
X89059313Y19387066D01*
X89133139Y19371689D01*
G37*
G36*
X104597010Y24570101D02*
G01*
X104597010Y24381143D01*
X104875475Y24381143D01*
X105153940Y24381143D01*
X105153940Y24281691D01*
X105153940Y24182239D01*
X104873391Y24182239D01*
X104592842Y24182239D01*
X104600606Y23868966D01*
X104605663Y23726902D01*
X104613930Y23619022D01*
X104627025Y23539759D01*
X104646569Y23483546D01*
X104674179Y23444819D01*
X104711474Y23418011D01*
X104734946Y23407051D01*
X104788503Y23395605D01*
X104866880Y23391177D01*
X104955803Y23393410D01*
X105041003Y23401950D01*
X105107887Y23416338D01*
X105136324Y23420384D01*
X105154686Y23403592D01*
X105170893Y23357544D01*
X105174065Y23345973D01*
X105185573Y23293242D01*
X105181067Y23259298D01*
X105154092Y23237061D01*
X105098195Y23219450D01*
X105048537Y23208255D01*
X104955074Y23194855D01*
X104849088Y23189954D01*
X104745008Y23193329D01*
X104657263Y23204760D01*
X104619946Y23214846D01*
X104562808Y23244434D01*
X104502121Y23288595D01*
X104486548Y23302530D01*
X104442036Y23353290D01*
X104408551Y23413496D01*
X104384766Y23489105D01*
X104369353Y23586070D01*
X104360984Y23710346D01*
X104358332Y23867890D01*
X104358325Y23877548D01*
X104358325Y24182239D01*
X104199202Y24182239D01*
X104040079Y24182239D01*
X104040079Y24281691D01*
X104040079Y24381143D01*
X104209148Y24381143D01*
X104378216Y24381143D01*
X104378389Y24465677D01*
X104381067Y24538263D01*
X104387618Y24622340D01*
X104391104Y24654635D01*
X104403647Y24759060D01*
X104500328Y24759060D01*
X104597010Y24759060D01*
X104597010Y24570101D01*
G37*
G36*
X83058830Y17841081D02*
G01*
X83148304Y17823253D01*
X83202100Y17794099D01*
X83218952Y17754068D01*
X83218174Y17746909D01*
X83206385Y17707838D01*
X83182531Y17691439D01*
X83137731Y17695236D01*
X83085158Y17709809D01*
X82981735Y17728986D01*
X82878830Y17726110D01*
X82790728Y17702165D01*
X82763906Y17687619D01*
X82726640Y17651712D01*
X82686947Y17596800D01*
X82673453Y17573373D01*
X82653485Y17530687D01*
X82640411Y17486183D01*
X82632818Y17430049D01*
X82629295Y17352471D01*
X82628443Y17260391D01*
X82629166Y17157348D01*
X82632738Y17083704D01*
X82640719Y17029101D01*
X82654668Y16983178D01*
X82676142Y16935576D01*
X82677824Y16932200D01*
X82737423Y16842819D01*
X82811473Y16789218D01*
X82905225Y16768477D01*
X82968969Y16770189D01*
X83043370Y16782608D01*
X83112579Y16802941D01*
X83135350Y16812882D01*
X83187110Y16832684D01*
X83218958Y16822269D01*
X83240789Y16777764D01*
X83242959Y16770767D01*
X83245080Y16743744D01*
X83227184Y16721676D01*
X83181762Y16697177D01*
X83156974Y16686233D01*
X83039421Y16652189D01*
X82913430Y16643400D01*
X82793542Y16659868D01*
X82721657Y16686120D01*
X82621533Y16757277D01*
X82546441Y16857250D01*
X82509570Y16946221D01*
X82475919Y17102541D01*
X82466430Y17259539D01*
X82479711Y17410517D01*
X82514370Y17548781D01*
X82569014Y17667633D01*
X82642254Y17760377D01*
X82686045Y17795287D01*
X82730054Y17821306D01*
X82773321Y17836893D01*
X82828186Y17844617D01*
X82906994Y17847052D01*
X82934946Y17847135D01*
X83058830Y17841081D01*
G37*
G36*
X87570754Y27256168D02*
G01*
X87702824Y27205251D01*
X87814832Y27125588D01*
X87903725Y27021435D01*
X87966446Y26897045D01*
X87999941Y26756673D01*
X88001155Y26604574D01*
X87981446Y26494508D01*
X87926218Y26346376D01*
X87843650Y26227072D01*
X87733392Y26136198D01*
X87616643Y26080654D01*
X87528003Y26061135D01*
X87420730Y26054686D01*
X87313677Y26061314D01*
X87227101Y26080520D01*
X87096048Y26147302D01*
X86988624Y26243053D01*
X86907873Y26362698D01*
X86856844Y26501163D01*
X86838581Y26653374D01*
X86841637Y26722597D01*
X86841819Y26723494D01*
X87095986Y26723494D01*
X87098335Y26636250D01*
X87098383Y26635241D01*
X87104979Y26544625D01*
X87116671Y26480535D01*
X87136708Y26429757D01*
X87157453Y26395039D01*
X87232618Y26314722D01*
X87326485Y26266099D01*
X87431086Y26251345D01*
X87538453Y26272638D01*
X87564651Y26283781D01*
X87644493Y26338987D01*
X87700121Y26419140D01*
X87733369Y26527812D01*
X87744971Y26635241D01*
X87747373Y26722798D01*
X87743220Y26784656D01*
X87730401Y26834650D01*
X87706804Y26886613D01*
X87706518Y26887168D01*
X87640514Y26981273D01*
X87556892Y27040119D01*
X87453312Y27065178D01*
X87421677Y27066342D01*
X87312318Y27050138D01*
X87223547Y27000543D01*
X87153025Y26916087D01*
X87136836Y26887168D01*
X87113125Y26835119D01*
X87100213Y26785172D01*
X87095986Y26723494D01*
X86841819Y26723494D01*
X86873503Y26879824D01*
X86935780Y27014856D01*
X87025366Y27124746D01*
X87139159Y27206544D01*
X87274057Y27257301D01*
X87421677Y27274086D01*
X87570754Y27256168D01*
G37*
G36*
X90434967Y27256168D02*
G01*
X90567037Y27205251D01*
X90679045Y27125588D01*
X90767938Y27021435D01*
X90830659Y26897045D01*
X90864154Y26756673D01*
X90865368Y26604574D01*
X90845659Y26494508D01*
X90790431Y26346376D01*
X90707863Y26227072D01*
X90597605Y26136198D01*
X90480856Y26080654D01*
X90392216Y26061135D01*
X90284943Y26054686D01*
X90177890Y26061314D01*
X90091314Y26080520D01*
X89960261Y26147302D01*
X89852837Y26243053D01*
X89772086Y26362698D01*
X89721057Y26501163D01*
X89702794Y26653374D01*
X89705850Y26722597D01*
X89706032Y26723494D01*
X89960199Y26723494D01*
X89962548Y26636250D01*
X89962596Y26635241D01*
X89969192Y26544625D01*
X89980884Y26480535D01*
X90000921Y26429757D01*
X90021666Y26395039D01*
X90096831Y26314722D01*
X90190698Y26266099D01*
X90295299Y26251345D01*
X90402666Y26272638D01*
X90428864Y26283781D01*
X90508706Y26338987D01*
X90564334Y26419140D01*
X90597582Y26527812D01*
X90609184Y26635241D01*
X90611586Y26722798D01*
X90607433Y26784656D01*
X90594614Y26834650D01*
X90571017Y26886613D01*
X90570731Y26887168D01*
X90504727Y26981273D01*
X90421105Y27040119D01*
X90317525Y27065178D01*
X90285890Y27066342D01*
X90176531Y27050138D01*
X90087760Y27000543D01*
X90017238Y26916087D01*
X90001049Y26887168D01*
X89977338Y26835119D01*
X89964426Y26785172D01*
X89960199Y26723494D01*
X89706032Y26723494D01*
X89737716Y26879824D01*
X89799993Y27014856D01*
X89889579Y27124746D01*
X90003372Y27206544D01*
X90138270Y27257301D01*
X90285890Y27274086D01*
X90434967Y27256168D01*
G37*
G36*
X91708051Y27434314D02*
G01*
X91708051Y27245356D01*
X91986516Y27245356D01*
X92264982Y27245356D01*
X92264982Y27145904D01*
X92264982Y27046452D01*
X91984432Y27046452D01*
X91703883Y27046452D01*
X91711648Y26733179D01*
X91716619Y26590907D01*
X91724706Y26482920D01*
X91737658Y26403743D01*
X91757226Y26347905D01*
X91785159Y26309931D01*
X91823206Y26284348D01*
X91859761Y26269892D01*
X91924945Y26258457D01*
X92012877Y26255820D01*
X92107631Y26261466D01*
X92193280Y26274877D01*
X92218928Y26281540D01*
X92247577Y26284773D01*
X92266122Y26266967D01*
X92282542Y26219592D01*
X92284879Y26211029D01*
X92296671Y26158202D01*
X92299817Y26123781D01*
X92298182Y26118284D01*
X92264830Y26102033D01*
X92202870Y26085323D01*
X92123399Y26070167D01*
X92037511Y26058581D01*
X91956304Y26052580D01*
X91934089Y26052170D01*
X91845535Y26055370D01*
X91777568Y26068111D01*
X91711357Y26094575D01*
X91686342Y26107211D01*
X91613902Y26151883D01*
X91564432Y26203042D01*
X91529921Y26260731D01*
X91511376Y26299019D01*
X91497813Y26335846D01*
X91488289Y26378484D01*
X91481862Y26434205D01*
X91477592Y26510281D01*
X91474536Y26613984D01*
X91472696Y26702713D01*
X91466081Y27046452D01*
X91308601Y27046452D01*
X91151121Y27046452D01*
X91151121Y27145904D01*
X91151121Y27245356D01*
X91320189Y27245356D01*
X91489257Y27245356D01*
X91489430Y27329890D01*
X91492109Y27402476D01*
X91498660Y27486553D01*
X91502146Y27518848D01*
X91514689Y27623273D01*
X91611370Y27623273D01*
X91708051Y27623273D01*
X91708051Y27434314D01*
G37*
G36*
X97600184Y24389932D02*
G01*
X97734960Y24338540D01*
X97847898Y24256186D01*
X97936147Y24145571D01*
X97996856Y24009396D01*
X98026463Y23858384D01*
X98023591Y23700659D01*
X97986591Y23555234D01*
X97918346Y23426914D01*
X97821737Y23320507D01*
X97699648Y23240816D01*
X97641388Y23216441D01*
X97552748Y23196922D01*
X97445475Y23190473D01*
X97338423Y23197101D01*
X97251847Y23216307D01*
X97120794Y23283089D01*
X97013369Y23378840D01*
X96932619Y23498485D01*
X96881589Y23636950D01*
X96863327Y23789161D01*
X96866382Y23858384D01*
X96866563Y23859281D01*
X97120732Y23859281D01*
X97123081Y23772037D01*
X97123129Y23771028D01*
X97129724Y23680412D01*
X97141416Y23616322D01*
X97161454Y23565544D01*
X97182198Y23530826D01*
X97257363Y23450509D01*
X97351230Y23401886D01*
X97455832Y23387132D01*
X97563199Y23408425D01*
X97589397Y23419568D01*
X97669238Y23474774D01*
X97724867Y23554927D01*
X97758114Y23663599D01*
X97769716Y23771028D01*
X97772118Y23858585D01*
X97767966Y23920443D01*
X97755146Y23970437D01*
X97731550Y24022400D01*
X97731263Y24022955D01*
X97665259Y24117060D01*
X97581637Y24175906D01*
X97478058Y24200965D01*
X97446422Y24202129D01*
X97337064Y24185925D01*
X97248293Y24136330D01*
X97177771Y24051874D01*
X97161582Y24022955D01*
X97137871Y23970906D01*
X97124958Y23920959D01*
X97120732Y23859281D01*
X96866563Y23859281D01*
X96898206Y24016397D01*
X96960286Y24151420D01*
X97049771Y24260755D01*
X97163810Y24341700D01*
X97299551Y24391556D01*
X97446422Y24407663D01*
X97600184Y24389932D01*
G37*
G36*
X88051903Y15857851D02*
G01*
X88145375Y15809731D01*
X88218762Y15728746D01*
X88272517Y15614251D01*
X88307095Y15465605D01*
X88320733Y15331025D01*
X88318943Y15144170D01*
X88290998Y14980968D01*
X88237558Y14844691D01*
X88215205Y14807342D01*
X88149534Y14737789D01*
X88062101Y14685008D01*
X87968613Y14657622D01*
X87938827Y14655626D01*
X87882932Y14664023D01*
X87815971Y14684995D01*
X87795937Y14693409D01*
X87707504Y14755061D01*
X87637825Y14849887D01*
X87587931Y14975447D01*
X87558856Y15129301D01*
X87551275Y15272148D01*
X87551466Y15275189D01*
X87710198Y15275189D01*
X87715293Y15115899D01*
X87731707Y14992181D01*
X87760842Y14901083D01*
X87804100Y14839653D01*
X87862886Y14804938D01*
X87938601Y14793985D01*
X87938827Y14793985D01*
X88006071Y14799777D01*
X88052275Y14821423D01*
X88076771Y14844201D01*
X88111258Y14895962D01*
X88139862Y14963060D01*
X88145437Y14982296D01*
X88156815Y15052877D01*
X88163908Y15149036D01*
X88166712Y15258446D01*
X88165220Y15368781D01*
X88159429Y15467713D01*
X88149332Y15542917D01*
X88145689Y15558197D01*
X88106276Y15646988D01*
X88048635Y15709671D01*
X87979591Y15743517D01*
X87905971Y15745799D01*
X87834601Y15713786D01*
X87809884Y15692457D01*
X87768203Y15639744D01*
X87739109Y15573963D01*
X87720911Y15488039D01*
X87711920Y15374894D01*
X87710198Y15275189D01*
X87551466Y15275189D01*
X87562311Y15447741D01*
X87595543Y15595254D01*
X87649980Y15713146D01*
X87724632Y15799876D01*
X87818509Y15853902D01*
X87930620Y15873684D01*
X87937893Y15873748D01*
X88051903Y15857851D01*
G37*
G36*
X82488626Y15547719D02*
G01*
X82581959Y15515322D01*
X82598465Y15505066D01*
X82684459Y15425749D01*
X82741930Y15328313D01*
X82766920Y15221527D01*
X82762299Y15142301D01*
X82752748Y15092341D01*
X82466657Y15092341D01*
X82339990Y15090908D01*
X82249263Y15086673D01*
X82195782Y15079732D01*
X82180565Y15071463D01*
X82195270Y15020565D01*
X82231867Y14963639D01*
X82279081Y14916622D01*
X82299256Y14903719D01*
X82376918Y14880275D01*
X82471962Y14875132D01*
X82566405Y14888378D01*
X82608524Y14902233D01*
X82655102Y14919187D01*
X82681548Y14916864D01*
X82703649Y14893086D01*
X82706771Y14888670D01*
X82723643Y14849455D01*
X82710389Y14817453D01*
X82663699Y14789070D01*
X82592269Y14764212D01*
X82451769Y14738174D01*
X82324536Y14746568D01*
X82295214Y14754119D01*
X82187901Y14805233D01*
X82103112Y14882761D01*
X82043079Y14979423D01*
X82010031Y15087936D01*
X82006201Y15201020D01*
X82016581Y15242506D01*
X82180565Y15242506D01*
X82199116Y15238113D01*
X82249417Y15234562D01*
X82323440Y15232256D01*
X82399359Y15231573D01*
X82487282Y15232165D01*
X82558336Y15233769D01*
X82604492Y15236130D01*
X82618153Y15238550D01*
X82604172Y15292462D01*
X82570131Y15350951D01*
X82527886Y15394850D01*
X82517533Y15401246D01*
X82446205Y15426710D01*
X82375108Y15423767D01*
X82310535Y15402208D01*
X82262076Y15369810D01*
X82216917Y15320782D01*
X82186696Y15269423D01*
X82180565Y15242506D01*
X82016581Y15242506D01*
X82033818Y15311393D01*
X82094083Y15410554D01*
X82175150Y15480970D01*
X82274846Y15528599D01*
X82382797Y15551497D01*
X82488626Y15547719D01*
G37*
G36*
X85017273Y15850076D02*
G01*
X85103040Y15789625D01*
X85175700Y15692186D01*
X85193805Y15658482D01*
X85221163Y15600077D01*
X85239235Y15547323D01*
X85250385Y15488403D01*
X85256974Y15411504D01*
X85260733Y15323742D01*
X85262170Y15195977D01*
X85255899Y15095047D01*
X85240971Y15008584D01*
X85234559Y14983236D01*
X85185871Y14858704D01*
X85116957Y14761425D01*
X85032067Y14694054D01*
X84935451Y14659245D01*
X84831359Y14659652D01*
X84754174Y14683238D01*
X84658382Y14745748D01*
X84585370Y14840127D01*
X84535009Y14966666D01*
X84507168Y15125657D01*
X84501041Y15251464D01*
X84502527Y15281299D01*
X84656916Y15281299D01*
X84658884Y15148379D01*
X84665733Y15047729D01*
X84678878Y14971987D01*
X84699734Y14913794D01*
X84729717Y14865790D01*
X84739037Y14854242D01*
X84784788Y14811614D01*
X84836921Y14795371D01*
X84868840Y14793985D01*
X84931021Y14799369D01*
X84982018Y14812621D01*
X84988285Y14815577D01*
X85032272Y14859228D01*
X85068918Y14934577D01*
X85096835Y15033990D01*
X85114635Y15149831D01*
X85120928Y15274467D01*
X85114325Y15400261D01*
X85105748Y15461234D01*
X85077110Y15581661D01*
X85037715Y15666728D01*
X84984553Y15720095D01*
X84914614Y15745419D01*
X84869254Y15748723D01*
X84795086Y15732745D01*
X84737299Y15684120D01*
X84695422Y15601808D01*
X84668983Y15484773D01*
X84657511Y15331975D01*
X84656916Y15281299D01*
X84502527Y15281299D01*
X84510203Y15435426D01*
X84540534Y15588265D01*
X84591639Y15709166D01*
X84663127Y15797317D01*
X84754601Y15851903D01*
X84797934Y15864424D01*
X84916278Y15874641D01*
X85017273Y15850076D01*
G37*
G36*
X101816886Y24405928D02*
G01*
X101952925Y24373276D01*
X101997951Y24353825D01*
X102121900Y24272315D01*
X102218385Y24165147D01*
X102285308Y24037308D01*
X102320569Y23893789D01*
X102322067Y23739576D01*
X102302511Y23630295D01*
X102246863Y23481934D01*
X102164340Y23362131D01*
X102056993Y23272499D01*
X101926871Y23214653D01*
X101776024Y23190206D01*
X101742742Y23189467D01*
X101662360Y23194177D01*
X101585205Y23206258D01*
X101547776Y23216441D01*
X101434109Y23271960D01*
X101333856Y23348978D01*
X101268161Y23425760D01*
X101200580Y23561420D01*
X101165705Y23708982D01*
X101163106Y23859281D01*
X101417051Y23859281D01*
X101419400Y23772037D01*
X101419448Y23771028D01*
X101426044Y23680412D01*
X101437736Y23616322D01*
X101457773Y23565544D01*
X101478518Y23530826D01*
X101553683Y23450509D01*
X101647550Y23401886D01*
X101752151Y23387132D01*
X101859518Y23408425D01*
X101885716Y23419568D01*
X101965558Y23474774D01*
X102021186Y23554927D01*
X102054434Y23663599D01*
X102066036Y23771028D01*
X102068438Y23858585D01*
X102064285Y23920443D01*
X102051466Y23970437D01*
X102027869Y24022400D01*
X102027583Y24022955D01*
X101961579Y24117060D01*
X101877957Y24175906D01*
X101774377Y24200965D01*
X101742742Y24202129D01*
X101633383Y24185925D01*
X101544612Y24136330D01*
X101474090Y24051874D01*
X101457901Y24022955D01*
X101434190Y23970906D01*
X101421278Y23920959D01*
X101417051Y23859281D01*
X101163106Y23859281D01*
X101163085Y23860504D01*
X101192271Y24008042D01*
X101252812Y24143651D01*
X101313588Y24227206D01*
X101416018Y24315092D01*
X101539799Y24375239D01*
X101676299Y24406051D01*
X101816886Y24405928D01*
G37*
G36*
X83672343Y19138770D02*
G01*
X83672343Y18570635D01*
X83608481Y18576868D01*
X83559356Y18589749D01*
X83536052Y18621744D01*
X83533042Y18632626D01*
X83520417Y18664104D01*
X83506048Y18657204D01*
X83471845Y18626173D01*
X83414185Y18593876D01*
X83348502Y18567396D01*
X83290236Y18553818D01*
X83279542Y18553265D01*
X83227953Y18562267D01*
X83162771Y18585013D01*
X83134545Y18598018D01*
X83049783Y18659418D01*
X82992837Y18745372D01*
X82962444Y18858418D01*
X82956289Y18955926D01*
X82956874Y18964929D01*
X83118536Y18964929D01*
X83128847Y18873497D01*
X83160127Y18792218D01*
X83211999Y18731396D01*
X83234754Y18716949D01*
X83306819Y18699539D01*
X83386564Y18710343D01*
X83456778Y18746543D01*
X83466346Y18754848D01*
X83488627Y18779277D01*
X83502490Y18807933D01*
X83509897Y18850372D01*
X83512807Y18916149D01*
X83513220Y18983247D01*
X83512390Y19071189D01*
X83508682Y19128268D01*
X83500267Y19163386D01*
X83485319Y19185446D01*
X83469013Y19198574D01*
X83407121Y19222558D01*
X83329255Y19228027D01*
X83254591Y19215093D01*
X83217189Y19197102D01*
X83162330Y19137036D01*
X83129572Y19056210D01*
X83118536Y18964929D01*
X82956874Y18964929D01*
X82963833Y19072080D01*
X82989502Y19162774D01*
X83037849Y19239943D01*
X83082984Y19287923D01*
X83130665Y19328161D01*
X83176938Y19350550D01*
X83238593Y19361798D01*
X83275977Y19365023D01*
X83350323Y19367682D01*
X83400421Y19360536D01*
X83441193Y19340745D01*
X83455212Y19330905D01*
X83513220Y19288017D01*
X83513220Y19497462D01*
X83513220Y19706906D01*
X83592781Y19706906D01*
X83672343Y19706906D01*
X83672343Y19138770D01*
G37*
G36*
X94853882Y27256146D02*
G01*
X94929205Y27232119D01*
X95003781Y27200435D01*
X95068224Y27166076D01*
X95113147Y27134021D01*
X95129195Y27110062D01*
X95117366Y27086623D01*
X95087727Y27046369D01*
X95074496Y27030353D01*
X95019798Y26966030D01*
X94920346Y27017616D01*
X94859140Y27045895D01*
X94803842Y27060403D01*
X94737494Y27064282D01*
X94678148Y27062486D01*
X94597788Y27056552D01*
X94542639Y27044928D01*
X94498150Y27023080D01*
X94459354Y26994304D01*
X94373730Y26908028D01*
X94322127Y26811453D01*
X94300890Y26715208D01*
X94302260Y26584562D01*
X94335930Y26471489D01*
X94397208Y26378935D01*
X94481400Y26309843D01*
X94583813Y26267158D01*
X94699755Y26253826D01*
X94824532Y26272790D01*
X94935284Y26317152D01*
X95062510Y26383467D01*
X95107207Y26315280D01*
X95133315Y26266855D01*
X95143611Y26229710D01*
X95142671Y26223032D01*
X95121558Y26202321D01*
X95074689Y26170456D01*
X95011888Y26134069D01*
X95007001Y26131445D01*
X94936030Y26096275D01*
X94875046Y26074979D01*
X94807799Y26063489D01*
X94718036Y26057739D01*
X94711497Y26057485D01*
X94607500Y26056711D01*
X94527243Y26064816D01*
X94455315Y26083629D01*
X94437574Y26089941D01*
X94304247Y26156049D01*
X94200234Y26246417D01*
X94120202Y26365756D01*
X94115973Y26374088D01*
X94084009Y26443600D01*
X94065569Y26503444D01*
X94057116Y26570152D01*
X94055115Y26658590D01*
X94057189Y26748202D01*
X94065770Y26814677D01*
X94084394Y26874545D01*
X94115973Y26943092D01*
X94198050Y27064858D01*
X94306878Y27161599D01*
X94436359Y27230729D01*
X94580395Y27269659D01*
X94732888Y27275804D01*
X94853882Y27256146D01*
G37*
G36*
X77529091Y27270000D02*
G01*
X77602362Y27255163D01*
X77678081Y27224714D01*
X77691189Y27218396D01*
X77802916Y27147502D01*
X77883586Y27057555D01*
X77935266Y26944865D01*
X77960024Y26805742D01*
X77962934Y26733552D01*
X77963807Y26589720D01*
X77518111Y26584374D01*
X77072415Y26579028D01*
X77098718Y26502554D01*
X77152814Y26402272D01*
X77234742Y26325338D01*
X77338815Y26273674D01*
X77459345Y26249200D01*
X77590645Y26253839D01*
X77727030Y26289514D01*
X77728000Y26289882D01*
X77794480Y26312978D01*
X77835912Y26317511D01*
X77863743Y26300750D01*
X77889418Y26259966D01*
X77894537Y26250168D01*
X77912730Y26208927D01*
X77907880Y26184996D01*
X77879477Y26162944D01*
X77763047Y26106350D01*
X77624775Y26069788D01*
X77478044Y26054800D01*
X77336234Y26062930D01*
X77231940Y26088309D01*
X77093344Y26157457D01*
X76981618Y26253974D01*
X76899355Y26373714D01*
X76849147Y26512533D01*
X76833590Y26666284D01*
X76836572Y26720358D01*
X76850867Y26788516D01*
X77088631Y26788516D01*
X77108235Y26780064D01*
X77166009Y26773769D01*
X77260397Y26769727D01*
X77389841Y26768035D01*
X77419424Y26767987D01*
X77750218Y26767987D01*
X77738189Y26842109D01*
X77704990Y26938125D01*
X77644718Y27011888D01*
X77564528Y27061425D01*
X77471572Y27084761D01*
X77373002Y27079922D01*
X77275970Y27044934D01*
X77200551Y26990488D01*
X77155461Y26937399D01*
X77116573Y26873224D01*
X77092473Y26813458D01*
X77088631Y26788516D01*
X76850867Y26788516D01*
X76869062Y26875274D01*
X76933463Y27009573D01*
X77026147Y27119914D01*
X77143487Y27202955D01*
X77281856Y27255357D01*
X77437421Y27273776D01*
X77529091Y27270000D01*
G37*
G36*
X83257517Y27270000D02*
G01*
X83330788Y27255163D01*
X83406507Y27224714D01*
X83419615Y27218396D01*
X83531342Y27147502D01*
X83612012Y27057555D01*
X83663692Y26944865D01*
X83688450Y26805742D01*
X83691360Y26733552D01*
X83692233Y26589720D01*
X83246537Y26584374D01*
X82800841Y26579028D01*
X82827144Y26502554D01*
X82881240Y26402272D01*
X82963168Y26325338D01*
X83067241Y26273674D01*
X83187771Y26249200D01*
X83319071Y26253839D01*
X83455456Y26289514D01*
X83456426Y26289882D01*
X83522906Y26312978D01*
X83564338Y26317511D01*
X83592169Y26300750D01*
X83617844Y26259966D01*
X83622963Y26250168D01*
X83641156Y26208927D01*
X83636306Y26184996D01*
X83607903Y26162944D01*
X83491473Y26106350D01*
X83353201Y26069788D01*
X83206470Y26054800D01*
X83064660Y26062930D01*
X82960366Y26088309D01*
X82821770Y26157457D01*
X82710044Y26253974D01*
X82627781Y26373714D01*
X82577573Y26512533D01*
X82562016Y26666284D01*
X82564998Y26720358D01*
X82579293Y26788516D01*
X82817057Y26788516D01*
X82836661Y26780064D01*
X82894435Y26773769D01*
X82988823Y26769727D01*
X83118267Y26768035D01*
X83147850Y26767987D01*
X83478644Y26767987D01*
X83466615Y26842109D01*
X83433416Y26938125D01*
X83373144Y27011888D01*
X83292954Y27061425D01*
X83199998Y27084761D01*
X83101428Y27079922D01*
X83004396Y27044934D01*
X82928977Y26990488D01*
X82883887Y26937399D01*
X82844999Y26873224D01*
X82820899Y26813458D01*
X82817057Y26788516D01*
X82579293Y26788516D01*
X82597488Y26875274D01*
X82661889Y27009573D01*
X82754573Y27119914D01*
X82871913Y27202955D01*
X83010282Y27255357D01*
X83165847Y27273776D01*
X83257517Y27270000D01*
G37*
G36*
X80585800Y15544142D02*
G01*
X80674712Y15514344D01*
X80690818Y15504669D01*
X80740337Y15466450D01*
X80776574Y15423248D01*
X80801490Y15368386D01*
X80817047Y15295190D01*
X80825205Y15196981D01*
X80827925Y15067084D01*
X80827989Y15037642D01*
X80828020Y14754204D01*
X80758404Y14754204D01*
X80711276Y14757970D01*
X80691992Y14774704D01*
X80688787Y14802978D01*
X80688787Y14851752D01*
X80590273Y14800640D01*
X80478953Y14756958D01*
X80371850Y14741036D01*
X80278590Y14754016D01*
X80259457Y14761503D01*
X80188764Y14809060D01*
X80136785Y14873896D01*
X80112651Y14943922D01*
X80111967Y14956778D01*
X80116034Y14979537D01*
X80271090Y14979537D01*
X80287913Y14926533D01*
X80333069Y14891353D01*
X80398583Y14875559D01*
X80476483Y14880713D01*
X80558797Y14908378D01*
X80579390Y14919141D01*
X80628612Y14950614D01*
X80653104Y14982622D01*
X80662983Y15031624D01*
X80665031Y15058458D01*
X80671110Y15152836D01*
X80585470Y15140493D01*
X80450160Y15114307D01*
X80353176Y15080100D01*
X80293807Y15037509D01*
X80271340Y14986169D01*
X80271090Y14979537D01*
X80116034Y14979537D01*
X80127120Y15041581D01*
X80173754Y15110911D01*
X80253629Y15166024D01*
X80368506Y15208177D01*
X80503545Y15236112D01*
X80665563Y15261409D01*
X80638877Y15324810D01*
X80594391Y15386417D01*
X80525696Y15416946D01*
X80432495Y15416461D01*
X80331295Y15390876D01*
X80262945Y15368676D01*
X80222013Y15359277D01*
X80198433Y15362163D01*
X80182139Y15376815D01*
X80177503Y15382967D01*
X80157431Y15416499D01*
X80159152Y15441753D01*
X80187567Y15466071D01*
X80247578Y15496796D01*
X80256172Y15500814D01*
X80364650Y15537272D01*
X80478486Y15551750D01*
X80585800Y15544142D01*
G37*
G36*
X92150745Y15843092D02*
G01*
X92242978Y15778779D01*
X92316470Y15683611D01*
X92325381Y15667125D01*
X92368518Y15550345D01*
X92392960Y15411681D01*
X92399250Y15261559D01*
X92387930Y15110402D01*
X92359544Y14968636D01*
X92314636Y14846684D01*
X92279514Y14786695D01*
X92210329Y14721059D01*
X92117484Y14677438D01*
X92012683Y14659630D01*
X91916900Y14669032D01*
X91843478Y14704250D01*
X91771242Y14769414D01*
X91709372Y14855502D01*
X91690731Y14891310D01*
X91669396Y14939688D01*
X91654792Y14983817D01*
X91645658Y15032901D01*
X91640731Y15096146D01*
X91638749Y15182758D01*
X91638473Y15261769D01*
X91783358Y15261769D01*
X91786002Y15148722D01*
X91793805Y15048729D01*
X91806553Y14975685D01*
X91845266Y14881838D01*
X91902058Y14822549D01*
X91979062Y14795933D01*
X92011981Y14793985D01*
X92081315Y14801492D01*
X92128557Y14827617D01*
X92139687Y14838739D01*
X92178167Y14886460D01*
X92205048Y14936589D01*
X92222756Y14998079D01*
X92233719Y15079885D01*
X92240363Y15190963D01*
X92241240Y15213468D01*
X92240577Y15387639D01*
X92224039Y15526257D01*
X92191141Y15630453D01*
X92141400Y15701355D01*
X92074333Y15740095D01*
X92012140Y15748723D01*
X91938761Y15729912D01*
X91873991Y15677678D01*
X91824287Y15598323D01*
X91806416Y15547990D01*
X91793562Y15474527D01*
X91785878Y15374745D01*
X91783358Y15261769D01*
X91638473Y15261769D01*
X91638435Y15272760D01*
X91638830Y15382367D01*
X91640954Y15461302D01*
X91646215Y15518670D01*
X91656021Y15563580D01*
X91671781Y15605138D01*
X91694901Y15652451D01*
X91698106Y15658693D01*
X91757165Y15755246D01*
X91821140Y15819208D01*
X91898007Y15857652D01*
X91933314Y15867281D01*
X92045586Y15873582D01*
X92150745Y15843092D01*
G37*
G36*
X97161927Y19689622D02*
G01*
X97244044Y19670954D01*
X97277287Y19656105D01*
X97360307Y19588383D01*
X97412226Y19505844D01*
X97432716Y19415908D01*
X97421450Y19325994D01*
X97378100Y19243521D01*
X97302339Y19175907D01*
X97298580Y19173586D01*
X97239881Y19137889D01*
X97308814Y19100767D01*
X97386569Y19038399D01*
X97436410Y18955497D01*
X97457568Y18860609D01*
X97449273Y18762279D01*
X97410759Y18669054D01*
X97353833Y18600345D01*
X97249078Y18530489D01*
X97127469Y18491088D01*
X97000999Y18485440D01*
X96959108Y18491777D01*
X96876845Y18514439D01*
X96829782Y18543005D01*
X96813407Y18580987D01*
X96815185Y18603918D01*
X96828437Y18640606D01*
X96854672Y18645974D01*
X96867260Y18642582D01*
X96910562Y18633214D01*
X96975890Y18623726D01*
X97020563Y18618900D01*
X97131920Y18621872D01*
X97217127Y18654254D01*
X97277421Y18716607D01*
X97290679Y18740909D01*
X97313689Y18828407D01*
X97300654Y18909848D01*
X97255308Y18979624D01*
X97181383Y19032126D01*
X97082613Y19061747D01*
X97076545Y19062599D01*
X97017800Y19072095D01*
X96989245Y19084518D01*
X96981453Y19106411D01*
X96982911Y19127581D01*
X96995127Y19165004D01*
X97028316Y19184372D01*
X97058560Y19190811D01*
X97152716Y19219534D01*
X97224618Y19267231D01*
X97271105Y19327713D01*
X97289014Y19394792D01*
X97275185Y19462279D01*
X97228066Y19522617D01*
X97190691Y19550301D01*
X97152513Y19563555D01*
X97098908Y19565677D01*
X97050047Y19562737D01*
X96979854Y19555596D01*
X96922721Y19546516D01*
X96896898Y19539561D01*
X96872685Y19538359D01*
X96859121Y19566925D01*
X96855339Y19588076D01*
X96854324Y19635002D01*
X96875325Y19661274D01*
X96897659Y19672294D01*
X96972755Y19690974D01*
X97066171Y19696522D01*
X97161927Y19689622D01*
G37*
G36*
X87647049Y24382180D02*
G01*
X87718380Y24352987D01*
X87829373Y24282120D01*
X87909536Y24191535D01*
X87960793Y24077780D01*
X87985067Y23937399D01*
X87987679Y23869339D01*
X87988552Y23725507D01*
X87542856Y23720161D01*
X87097160Y23714815D01*
X87123586Y23637984D01*
X87172982Y23544264D01*
X87246922Y23464185D01*
X87326559Y23414010D01*
X87408314Y23393263D01*
X87511999Y23387053D01*
X87622686Y23394950D01*
X87725449Y23416521D01*
X87754627Y23426395D01*
X87812481Y23448060D01*
X87852695Y23462510D01*
X87864530Y23466176D01*
X87877665Y23450992D01*
X87900999Y23414908D01*
X87926065Y23372155D01*
X87944397Y23336963D01*
X87948697Y23324697D01*
X87932027Y23311056D01*
X87888183Y23286858D01*
X87826538Y23257261D01*
X87824457Y23256319D01*
X87715248Y23219813D01*
X87588699Y23197516D01*
X87459404Y23190557D01*
X87341956Y23200063D01*
X87282444Y23214403D01*
X87142105Y23275320D01*
X87032516Y23357134D01*
X86948006Y23464746D01*
X86910574Y23535802D01*
X86876842Y23645248D01*
X86863074Y23773082D01*
X86869166Y23904052D01*
X86873570Y23924303D01*
X87113376Y23924303D01*
X87132980Y23915851D01*
X87190755Y23909556D01*
X87285143Y23905514D01*
X87414587Y23903822D01*
X87444170Y23903774D01*
X87774963Y23903774D01*
X87762935Y23977896D01*
X87729735Y24073912D01*
X87669464Y24147675D01*
X87589274Y24197212D01*
X87496317Y24220548D01*
X87397747Y24215709D01*
X87300716Y24180721D01*
X87225296Y24126275D01*
X87180207Y24073186D01*
X87141319Y24009011D01*
X87117219Y23949245D01*
X87113376Y23924303D01*
X86873570Y23924303D01*
X86895014Y24022909D01*
X86914201Y24070752D01*
X86995138Y24195415D01*
X87101049Y24293955D01*
X87225565Y24364137D01*
X87362317Y24403726D01*
X87504934Y24410485D01*
X87647049Y24382180D01*
G37*
G36*
X88585263Y27455656D02*
G01*
X88585263Y27128916D01*
X88694730Y27194833D01*
X88817150Y27253695D01*
X88934172Y27276882D01*
X89054853Y27265776D01*
X89093688Y27255802D01*
X89212186Y27201489D01*
X89308375Y27115822D01*
X89378101Y27002845D01*
X89393209Y26964311D01*
X89418729Y26854752D01*
X89430022Y26725159D01*
X89427038Y26591742D01*
X89409726Y26470710D01*
X89394934Y26417732D01*
X89334807Y26295748D01*
X89249869Y26194795D01*
X89146489Y26118375D01*
X89031038Y26069991D01*
X88909886Y26053145D01*
X88789403Y26071341D01*
X88774222Y26076427D01*
X88717483Y26102218D01*
X88655067Y26138050D01*
X88645290Y26144473D01*
X88591929Y26178224D01*
X88562226Y26187484D01*
X88548010Y26171620D01*
X88541831Y26136468D01*
X88534232Y26103004D01*
X88514053Y26085719D01*
X88470104Y26077867D01*
X88441058Y26075707D01*
X88346579Y26069644D01*
X88346579Y26536940D01*
X88588056Y26536940D01*
X88590307Y26449752D01*
X88599104Y26388896D01*
X88617087Y26347659D01*
X88646894Y26319326D01*
X88691164Y26297184D01*
X88738097Y26279655D01*
X88836411Y26255126D01*
X88922600Y26260098D01*
X89005431Y26291878D01*
X89060654Y26327998D01*
X89102277Y26378061D01*
X89136314Y26443086D01*
X89162147Y26505176D01*
X89176267Y26559753D01*
X89180996Y26622024D01*
X89178659Y26707191D01*
X89178163Y26716855D01*
X89162732Y26848195D01*
X89130335Y26945597D01*
X89078300Y27012247D01*
X89003952Y27051332D01*
X88904618Y27066038D01*
X88884931Y27066342D01*
X88812794Y27059730D01*
X88747892Y27035517D01*
X88691936Y27001699D01*
X88595209Y26937055D01*
X88589712Y26657175D01*
X88588056Y26536940D01*
X88346579Y26536940D01*
X88346579Y26926020D01*
X88346579Y27782396D01*
X88465921Y27782396D01*
X88585263Y27782396D01*
X88585263Y27455656D01*
G37*
G36*
X80844399Y17456334D02*
G01*
X80871245Y17449168D01*
X80871722Y17448743D01*
X80867948Y17427754D01*
X80850814Y17376117D01*
X80822717Y17299712D01*
X80786052Y17204417D01*
X80743218Y17096111D01*
X80696610Y16980675D01*
X80648626Y16863987D01*
X80601663Y16751926D01*
X80558116Y16650372D01*
X80520384Y16565203D01*
X80490862Y16502299D01*
X80471948Y16467539D01*
X80471366Y16466704D01*
X80400864Y16400412D01*
X80305381Y16358636D01*
X80203440Y16345434D01*
X80146528Y16348048D01*
X80119336Y16358637D01*
X80111993Y16381319D01*
X80111967Y16383588D01*
X80120272Y16444087D01*
X80150232Y16475283D01*
X80209410Y16484637D01*
X80214451Y16484667D01*
X80287918Y16496560D01*
X80340801Y16532679D01*
X80370514Y16565036D01*
X80389981Y16596644D01*
X80398199Y16632817D01*
X80394168Y16678869D01*
X80376884Y16740112D01*
X80345346Y16821861D01*
X80298552Y16929429D01*
X80242871Y17052041D01*
X80191522Y17164986D01*
X80146359Y17265861D01*
X80109854Y17349014D01*
X80084481Y17408793D01*
X80072712Y17439547D01*
X80072186Y17442053D01*
X80089671Y17453482D01*
X80132628Y17459157D01*
X80141344Y17459295D01*
X80172750Y17457822D01*
X80198581Y17450153D01*
X80222047Y17431405D01*
X80246357Y17396701D01*
X80274721Y17341159D01*
X80310349Y17259900D01*
X80356450Y17148044D01*
X80373223Y17106754D01*
X80412193Y17012840D01*
X80446700Y16933667D01*
X80473743Y16875822D01*
X80490324Y16845891D01*
X80493258Y16843206D01*
X80506228Y16860141D01*
X80525681Y16904352D01*
X80540951Y16947118D01*
X80563028Y17010838D01*
X80594699Y17098044D01*
X80631002Y17195198D01*
X80654015Y17255418D01*
X80688870Y17344561D01*
X80714133Y17402999D01*
X80734344Y17437213D01*
X80754048Y17453681D01*
X80777786Y17458884D01*
X80796938Y17459295D01*
X80844399Y17456334D01*
G37*
G36*
X90111749Y17541272D02*
G01*
X90194603Y17520724D01*
X90208619Y17514061D01*
X90248736Y17488048D01*
X90279365Y17454795D01*
X90301936Y17408769D01*
X90317878Y17344437D01*
X90328623Y17256267D01*
X90335601Y17138726D01*
X90339757Y17006789D01*
X90348123Y16663680D01*
X90282198Y16663680D01*
X90237127Y16667400D01*
X90219289Y16686509D01*
X90216274Y16727072D01*
X90216274Y16790465D01*
X90161575Y16738283D01*
X90072765Y16676954D01*
X89973062Y16646726D01*
X89872324Y16649055D01*
X89784928Y16682580D01*
X89735952Y16719976D01*
X89701190Y16759541D01*
X89699132Y16763116D01*
X89679625Y16830062D01*
X89678386Y16890860D01*
X89828411Y16890860D01*
X89834071Y16834974D01*
X89856047Y16802498D01*
X89878137Y16788875D01*
X89929826Y16767791D01*
X89974907Y16766944D01*
X90030993Y16784287D01*
X90116588Y16832793D01*
X90173301Y16899872D01*
X90196151Y16979376D01*
X90196383Y16988523D01*
X90196383Y17067240D01*
X90062296Y17054718D01*
X89956645Y17038190D01*
X89885422Y17009786D01*
X89844262Y16966448D01*
X89828803Y16905120D01*
X89828411Y16890860D01*
X89678386Y16890860D01*
X89677987Y16910450D01*
X89693583Y16984225D01*
X89707003Y17011399D01*
X89740018Y17053817D01*
X89780626Y17086809D01*
X89835513Y17112959D01*
X89911364Y17134850D01*
X90014864Y17155066D01*
X90121794Y17171731D01*
X90170753Y17182151D01*
X90191713Y17201910D01*
X90196365Y17243063D01*
X90196383Y17248665D01*
X90178884Y17325802D01*
X90132349Y17388788D01*
X90065722Y17426451D01*
X90051316Y17429862D01*
X89987570Y17430056D01*
X89902308Y17414014D01*
X89864406Y17403221D01*
X89796580Y17383396D01*
X89757200Y17376627D01*
X89737358Y17382284D01*
X89730146Y17393760D01*
X89720946Y17430931D01*
X89732347Y17457926D01*
X89770864Y17483437D01*
X89811724Y17502541D01*
X89905883Y17531762D01*
X90010700Y17544812D01*
X90111749Y17541272D01*
G37*
G36*
X80435918Y27274906D02*
G01*
X80543035Y27242599D01*
X80643060Y27185541D01*
X80721802Y27112409D01*
X80738188Y27090106D01*
X80796110Y26970677D01*
X80831024Y26829058D01*
X80841969Y26676170D01*
X80827986Y26522935D01*
X80798163Y26407307D01*
X80738117Y26288582D01*
X80650461Y26188205D01*
X80542753Y26111792D01*
X80422549Y26064959D01*
X80320816Y26052565D01*
X80247219Y26060317D01*
X80169348Y26080212D01*
X80100245Y26107698D01*
X80052953Y26138222D01*
X80043630Y26149314D01*
X80025081Y26170549D01*
X80011255Y26164238D01*
X80001636Y26127692D01*
X79995712Y26058225D01*
X79992966Y25953147D01*
X79992624Y25882865D01*
X79992624Y25594455D01*
X79873282Y25594455D01*
X79753940Y25594455D01*
X79753940Y26419905D01*
X79753940Y26536940D01*
X79995417Y26536940D01*
X79997668Y26449752D01*
X80006465Y26388896D01*
X80024448Y26347659D01*
X80054255Y26319326D01*
X80098525Y26297184D01*
X80145458Y26279655D01*
X80235873Y26256046D01*
X80315103Y26258816D01*
X80402431Y26288764D01*
X80406174Y26290451D01*
X80459966Y26320402D01*
X80498415Y26359526D01*
X80533212Y26420721D01*
X80542821Y26441223D01*
X80569056Y26504018D01*
X80583443Y26558657D01*
X80588351Y26620430D01*
X80586148Y26704625D01*
X80585524Y26716855D01*
X80570093Y26848195D01*
X80537696Y26945597D01*
X80485661Y27012247D01*
X80411313Y27051332D01*
X80311979Y27066038D01*
X80292292Y27066342D01*
X80220155Y27059730D01*
X80155253Y27035517D01*
X80099297Y27001699D01*
X80002570Y26937055D01*
X79997073Y26657175D01*
X79995417Y26536940D01*
X79753940Y26536940D01*
X79753940Y27245356D01*
X79853392Y27245356D01*
X79913984Y27242837D01*
X79944157Y27233149D01*
X79953074Y27213094D01*
X79953148Y27210547D01*
X79961348Y27158952D01*
X79986724Y27141060D01*
X80032241Y27155904D01*
X80062727Y27174785D01*
X80162978Y27228253D01*
X80274117Y27264110D01*
X80381053Y27278306D01*
X80435918Y27274906D01*
G37*
G36*
X96175480Y19688215D02*
G01*
X96270034Y19650787D01*
X96344989Y19593386D01*
X96395904Y19520010D01*
X96418337Y19434654D01*
X96407844Y19341316D01*
X96387229Y19289605D01*
X96345720Y19230446D01*
X96291644Y19179880D01*
X96287161Y19176781D01*
X96247826Y19148094D01*
X96239347Y19132091D01*
X96258056Y19121693D01*
X96258539Y19121539D01*
X96293696Y19100799D01*
X96340826Y19061564D01*
X96363611Y19039327D01*
X96401725Y18996482D01*
X96422252Y18958218D01*
X96430556Y18909212D01*
X96432014Y18843995D01*
X96429072Y18767558D01*
X96417129Y18714098D01*
X96391514Y18667049D01*
X96376163Y18646012D01*
X96292726Y18567074D01*
X96186385Y18511444D01*
X96069419Y18483864D01*
X95964590Y18487053D01*
X95909241Y18499524D01*
X95850228Y18516133D01*
X95807026Y18533968D01*
X95793707Y18557700D01*
X95798328Y18589613D01*
X95810960Y18634914D01*
X95828044Y18650451D01*
X95863308Y18643270D01*
X95886981Y18635126D01*
X95975835Y18616388D01*
X96070361Y18615783D01*
X96153695Y18632649D01*
X96184966Y18646870D01*
X96236816Y18693382D01*
X96279231Y18758580D01*
X96301536Y18824894D01*
X96302726Y18840696D01*
X96284413Y18909673D01*
X96235543Y18974358D01*
X96165221Y19027386D01*
X96082553Y19061393D01*
X96019289Y19069978D01*
X95980383Y19075925D01*
X95966093Y19101241D01*
X95964590Y19130085D01*
X95969357Y19172041D01*
X95992073Y19187756D01*
X96025569Y19189757D01*
X96111496Y19205325D01*
X96194209Y19254689D01*
X96218192Y19275271D01*
X96255466Y19333303D01*
X96265852Y19404797D01*
X96249805Y19474848D01*
X96210537Y19526449D01*
X96152357Y19553249D01*
X96071795Y19567165D01*
X95984476Y19567063D01*
X95906021Y19551814D01*
X95898343Y19549064D01*
X95861955Y19540392D01*
X95845242Y19558567D01*
X95839206Y19583759D01*
X95833751Y19625069D01*
X95842451Y19650492D01*
X95873185Y19667708D01*
X95933836Y19684396D01*
X95945343Y19687170D01*
X96065769Y19701675D01*
X96175480Y19688215D01*
G37*
G36*
X75967397Y21615108D02*
G01*
X76000221Y21608363D01*
X76012696Y21591760D01*
X76014551Y21566656D01*
X76011264Y21536986D01*
X75994577Y21522284D01*
X75954251Y21517356D01*
X75916520Y21516930D01*
X75853001Y21514125D01*
X75808806Y21501686D01*
X75780470Y21473573D01*
X75764530Y21423746D01*
X75757520Y21346166D01*
X75755976Y21237044D01*
X75755157Y21138828D01*
X75751847Y21072089D01*
X75744762Y21028540D01*
X75732623Y20999895D01*
X75716195Y20979890D01*
X75678680Y20950317D01*
X75651552Y20939504D01*
X75646448Y20931640D01*
X75666469Y20917141D01*
X75704344Y20892285D01*
X75729856Y20861529D01*
X75745371Y20817011D01*
X75753253Y20750867D01*
X75755866Y20655233D01*
X75755976Y20619482D01*
X75757651Y20509598D01*
X75765029Y20433361D01*
X75781644Y20384698D01*
X75811027Y20357534D01*
X75856709Y20345795D01*
X75916520Y20343398D01*
X75975012Y20341731D01*
X76003996Y20333266D01*
X76013710Y20312811D01*
X76014551Y20293672D01*
X76011919Y20265689D01*
X75997669Y20250928D01*
X75962267Y20245309D01*
X75900181Y20244725D01*
X75823506Y20250206D01*
X75752425Y20263376D01*
X75721016Y20273664D01*
X75673266Y20302788D01*
X75641879Y20345398D01*
X75624832Y20408156D01*
X75620102Y20497724D01*
X75623858Y20593649D01*
X75627636Y20700195D01*
X75621183Y20774246D01*
X75601214Y20822477D01*
X75564447Y20851563D01*
X75507598Y20868179D01*
X75487150Y20871578D01*
X75431155Y20883068D01*
X75404797Y20899695D01*
X75397960Y20928072D01*
X75397949Y20929880D01*
X75405041Y20960540D01*
X75433241Y20978037D01*
X75477791Y20987573D01*
X75539703Y21005536D01*
X75590029Y21033466D01*
X75596633Y21039341D01*
X75614942Y21061772D01*
X75625454Y21090057D01*
X75629306Y21133441D01*
X75627634Y21201167D01*
X75624111Y21262827D01*
X75620583Y21370689D01*
X75624463Y21454081D01*
X75634430Y21502974D01*
X75676729Y21557861D01*
X75751440Y21595649D01*
X75854248Y21614527D01*
X75904515Y21616381D01*
X75967397Y21615108D01*
G37*
G36*
X81540538Y19363093D02*
G01*
X81629450Y19333294D01*
X81645556Y19323620D01*
X81695075Y19285401D01*
X81731312Y19242198D01*
X81756228Y19187337D01*
X81771785Y19114140D01*
X81779943Y19015931D01*
X81782663Y18886035D01*
X81782727Y18856593D01*
X81782758Y18573155D01*
X81713141Y18573155D01*
X81666063Y18576870D01*
X81646790Y18593589D01*
X81643525Y18622881D01*
X81640234Y18660254D01*
X81625120Y18669401D01*
X81590324Y18651657D01*
X81567034Y18635869D01*
X81456994Y18578612D01*
X81345789Y18556968D01*
X81239530Y18571876D01*
X81214195Y18581537D01*
X81135766Y18633413D01*
X81086944Y18702563D01*
X81068543Y18780696D01*
X81072036Y18802140D01*
X81231248Y18802140D01*
X81244517Y18747407D01*
X81256388Y18731477D01*
X81308840Y18700878D01*
X81382350Y18693318D01*
X81465732Y18708531D01*
X81534128Y18738091D01*
X81583451Y18769658D01*
X81607936Y18801796D01*
X81617776Y18851038D01*
X81619752Y18876997D01*
X81620014Y18931800D01*
X81613870Y18965661D01*
X81608487Y18970963D01*
X81558297Y18965624D01*
X81486729Y18952026D01*
X81409293Y18933791D01*
X81341495Y18914545D01*
X81301106Y18899131D01*
X81251107Y18856450D01*
X81231248Y18802140D01*
X81072036Y18802140D01*
X81081381Y18859520D01*
X81126272Y18930744D01*
X81175900Y18970838D01*
X81237636Y18999427D01*
X81323701Y19027566D01*
X81418802Y19051271D01*
X81507642Y19066561D01*
X81557129Y19070120D01*
X81599761Y19073974D01*
X81612617Y19090627D01*
X81608955Y19115168D01*
X81586137Y19172222D01*
X81544807Y19208537D01*
X81486657Y19231212D01*
X81438971Y19241234D01*
X81390578Y19239060D01*
X81327149Y19223160D01*
X81286033Y19209827D01*
X81217682Y19187626D01*
X81176750Y19178228D01*
X81153170Y19181114D01*
X81136876Y19195766D01*
X81132241Y19201918D01*
X81112169Y19235449D01*
X81113890Y19260703D01*
X81142305Y19285022D01*
X81202316Y19315747D01*
X81210910Y19319765D01*
X81319387Y19356223D01*
X81433223Y19370700D01*
X81540538Y19363093D01*
G37*
G36*
X96179432Y27259360D02*
G01*
X96188781Y27257237D01*
X96268797Y27234884D01*
X96352822Y27205531D01*
X96428624Y27174034D01*
X96483968Y27145247D01*
X96499612Y27133874D01*
X96494073Y27114979D01*
X96471040Y27075058D01*
X96454338Y27049964D01*
X96401137Y26973195D01*
X96297233Y27023006D01*
X96194008Y27061360D01*
X96087746Y27081736D01*
X95985915Y27084802D01*
X95895979Y27071225D01*
X95825404Y27041672D01*
X95781655Y26996809D01*
X95773699Y26976216D01*
X95769296Y26933578D01*
X95782500Y26897770D01*
X95817574Y26866101D01*
X95878783Y26835878D01*
X95970392Y26804410D01*
X96096666Y26769006D01*
X96105803Y26766601D01*
X96258007Y26722423D01*
X96374435Y26677802D01*
X96459006Y26629702D01*
X96515640Y26575089D01*
X96548257Y26510927D01*
X96560777Y26434180D01*
X96561227Y26413945D01*
X96543420Y26305138D01*
X96489872Y26213694D01*
X96400697Y26139746D01*
X96277168Y26083814D01*
X96185275Y26063980D01*
X96070529Y26054979D01*
X95948373Y26056875D01*
X95834249Y26069730D01*
X95779437Y26081785D01*
X95709240Y26104670D01*
X95634155Y26134778D01*
X95563499Y26167604D01*
X95506589Y26198644D01*
X95472741Y26223393D01*
X95467331Y26232689D01*
X95476893Y26259788D01*
X95500024Y26301049D01*
X95528393Y26343808D01*
X95553669Y26375398D01*
X95566783Y26383877D01*
X95707241Y26315616D01*
X95849630Y26267598D01*
X95985209Y26241791D01*
X96105240Y26240166D01*
X96160626Y26250065D01*
X96243119Y26283591D01*
X96299101Y26330104D01*
X96322327Y26384174D01*
X96322617Y26390974D01*
X96310812Y26438453D01*
X96272913Y26479692D01*
X96205196Y26516948D01*
X96103934Y26552476D01*
X96016898Y26576078D01*
X95853854Y26622285D01*
X95727497Y26670989D01*
X95634734Y26724443D01*
X95572473Y26784903D01*
X95537621Y26854622D01*
X95527076Y26933070D01*
X95545221Y27032903D01*
X95596584Y27119014D01*
X95676244Y27188992D01*
X95779279Y27240426D01*
X95900770Y27270906D01*
X96035795Y27278021D01*
X96179432Y27259360D01*
G37*
G36*
X75592410Y13969186D02*
G01*
X75678541Y13943320D01*
X75738144Y13903904D01*
X75754375Y13882020D01*
X75763133Y13846350D01*
X75770170Y13780944D01*
X75774661Y13695837D01*
X75775866Y13620746D01*
X75775866Y13399630D01*
X75844844Y13370809D01*
X75901902Y13351400D01*
X75950031Y13342122D01*
X75954241Y13341988D01*
X75986348Y13330066D01*
X75994660Y13294476D01*
X75987432Y13261089D01*
X75958583Y13242231D01*
X75920438Y13233039D01*
X75860062Y13220589D01*
X75819385Y13205212D01*
X75794517Y13179618D01*
X75781568Y13136516D01*
X75776647Y13068616D01*
X75775867Y12968625D01*
X75775866Y12962064D01*
X75774068Y12869044D01*
X75769201Y12787990D01*
X75762059Y12728891D01*
X75755386Y12704395D01*
X75706296Y12653470D01*
X75625540Y12620160D01*
X75517977Y12606326D01*
X75498389Y12606045D01*
X75431909Y12607077D01*
X75395898Y12612739D01*
X75381051Y12626874D01*
X75378064Y12653327D01*
X75378059Y12655771D01*
X75381043Y12684648D01*
X75396597Y12699442D01*
X75434626Y12704825D01*
X75483478Y12705497D01*
X75547698Y12709761D01*
X75596797Y12720673D01*
X75612765Y12729365D01*
X75625291Y12763557D01*
X75633285Y12835444D01*
X75636560Y12943176D01*
X75636634Y12965367D01*
X75637579Y13063302D01*
X75641345Y13130456D01*
X75649332Y13175801D01*
X75662938Y13208311D01*
X75677858Y13229909D01*
X75715687Y13266369D01*
X75750941Y13283011D01*
X75752447Y13283096D01*
X75759327Y13289975D01*
X75734371Y13306034D01*
X75724145Y13310720D01*
X75677786Y13338773D01*
X75650119Y13369876D01*
X75649556Y13371239D01*
X75644253Y13404241D01*
X75640004Y13467188D01*
X75637318Y13550249D01*
X75636634Y13621380D01*
X75635392Y13726630D01*
X75628904Y13798476D01*
X75613028Y13843277D01*
X75583624Y13867396D01*
X75536548Y13877193D01*
X75468873Y13879028D01*
X75413132Y13881021D01*
X75386527Y13890865D01*
X75378465Y13914360D01*
X75378059Y13928754D01*
X75380877Y13957171D01*
X75395802Y13972005D01*
X75432543Y13977642D01*
X75488095Y13978480D01*
X75592410Y13969186D01*
G37*
G36*
X90450091Y24393438D02*
G01*
X90539657Y24370489D01*
X90625840Y24341057D01*
X90698577Y24309286D01*
X90747806Y24279315D01*
X90760971Y24265502D01*
X90756774Y24240591D01*
X90734041Y24197528D01*
X90720630Y24177492D01*
X90669932Y24106238D01*
X90567961Y24157455D01*
X90467546Y24196378D01*
X90362935Y24217373D01*
X90261736Y24221103D01*
X90171563Y24208229D01*
X90100027Y24179413D01*
X90054737Y24135318D01*
X90045273Y24112003D01*
X90040870Y24069365D01*
X90054074Y24033557D01*
X90089148Y24001888D01*
X90150357Y23971665D01*
X90241966Y23940197D01*
X90368240Y23904793D01*
X90377377Y23902388D01*
X90529581Y23858210D01*
X90646009Y23813589D01*
X90730580Y23765489D01*
X90787214Y23710876D01*
X90819831Y23646714D01*
X90832351Y23569967D01*
X90832801Y23549732D01*
X90814461Y23441605D01*
X90760688Y23348953D01*
X90673654Y23274269D01*
X90555527Y23220046D01*
X90542200Y23215879D01*
X90459820Y23199953D01*
X90353913Y23191692D01*
X90240026Y23191294D01*
X90133705Y23198959D01*
X90069452Y23209842D01*
X90010829Y23227761D01*
X89940860Y23255101D01*
X89869120Y23287279D01*
X89805184Y23319713D01*
X89758626Y23347821D01*
X89739022Y23367021D01*
X89738905Y23368029D01*
X89748447Y23395293D01*
X89771540Y23436676D01*
X89799880Y23479520D01*
X89825165Y23511165D01*
X89838357Y23519664D01*
X89944330Y23466879D01*
X90060337Y23421119D01*
X90168059Y23389339D01*
X90197335Y23383337D01*
X90313996Y23372442D01*
X90416469Y23381246D01*
X90499642Y23407488D01*
X90558400Y23448905D01*
X90587633Y23503238D01*
X90586120Y23555306D01*
X90562317Y23596580D01*
X90510474Y23634497D01*
X90427174Y23670752D01*
X90308999Y23707039D01*
X90249067Y23722469D01*
X90087439Y23770026D01*
X89963442Y23824241D01*
X89875283Y23886452D01*
X89821170Y23957995D01*
X89799311Y24040209D01*
X89798650Y24058563D01*
X89816589Y24162997D01*
X89867714Y24252181D01*
X89947607Y24323844D01*
X90051850Y24375714D01*
X90176026Y24405521D01*
X90315717Y24410994D01*
X90450091Y24393438D01*
G37*
G36*
X95141434Y24379771D02*
G01*
X95174583Y24373881D01*
X95183924Y24360813D01*
X95180694Y24346334D01*
X95170571Y24320255D01*
X95147369Y24261736D01*
X95112874Y24175239D01*
X95068868Y24065224D01*
X95017135Y23936153D01*
X94959461Y23792485D01*
X94906502Y23660742D01*
X94826991Y23464519D01*
X94759447Y23301884D01*
X94701842Y23169188D01*
X94652147Y23062780D01*
X94608333Y22979013D01*
X94568373Y22914235D01*
X94530238Y22864798D01*
X94491898Y22827053D01*
X94451327Y22797349D01*
X94414985Y22776441D01*
X94346020Y22747351D01*
X94271581Y22733886D01*
X94196191Y22731812D01*
X94125548Y22733922D01*
X94069985Y22737886D01*
X94043113Y22742443D01*
X94031437Y22762538D01*
X94035345Y22810752D01*
X94041492Y22840325D01*
X94061817Y22929146D01*
X94164921Y22929146D01*
X94255235Y22938380D01*
X94327221Y22969219D01*
X94335308Y22974487D01*
X94386414Y23020180D01*
X94435482Y23082142D01*
X94473607Y23147083D01*
X94491884Y23201710D01*
X94492376Y23208932D01*
X94484395Y23234161D01*
X94461636Y23290798D01*
X94426121Y23374196D01*
X94379876Y23479705D01*
X94324923Y23602677D01*
X94263289Y23738464D01*
X94234128Y23802041D01*
X94170368Y23940903D01*
X94112320Y24067892D01*
X94061989Y24178576D01*
X94021382Y24268522D01*
X93992503Y24333298D01*
X93977357Y24368472D01*
X93975553Y24373516D01*
X93993617Y24377607D01*
X94040677Y24378776D01*
X94097957Y24377119D01*
X94220360Y24371197D01*
X94318891Y24142458D01*
X94368960Y24024939D01*
X94425619Y23889944D01*
X94480729Y23756948D01*
X94513587Y23676554D01*
X94553182Y23580172D01*
X94581231Y23516375D01*
X94600523Y23480640D01*
X94613848Y23468444D01*
X94623996Y23475265D01*
X94630144Y23487596D01*
X94644065Y23523046D01*
X94668515Y23587828D01*
X94700481Y23673867D01*
X94736953Y23773090D01*
X94751984Y23814267D01*
X94793270Y23927456D01*
X94834886Y24041312D01*
X94872504Y24144012D01*
X94901799Y24223734D01*
X94906668Y24236937D01*
X94959904Y24381143D01*
X95076513Y24381143D01*
X95141434Y24379771D01*
G37*
G36*
X106277905Y24380206D02*
G01*
X106387283Y24323840D01*
X106473715Y24240350D01*
X106533447Y24130587D01*
X106535548Y24124758D01*
X106546652Y24083831D01*
X106554897Y24029027D01*
X106560622Y23954774D01*
X106564168Y23855502D01*
X106565873Y23725641D01*
X106566156Y23622808D01*
X106566156Y23207611D01*
X106468453Y23207611D01*
X106370749Y23207611D01*
X106357087Y23288474D01*
X106346870Y23338034D01*
X106335274Y23354768D01*
X106316320Y23345365D01*
X106310586Y23340467D01*
X106214595Y23275881D01*
X106098655Y23228247D01*
X105973895Y23199680D01*
X105851445Y23192300D01*
X105742434Y23208222D01*
X105699362Y23224190D01*
X105606497Y23286825D01*
X105542093Y23369555D01*
X105507507Y23464845D01*
X105504538Y23552160D01*
X105741851Y23552160D01*
X105751843Y23491208D01*
X105780255Y23441769D01*
X105816344Y23410432D01*
X105874923Y23394838D01*
X105954640Y23388805D01*
X106038023Y23392308D01*
X106107602Y23405323D01*
X106122660Y23410855D01*
X106175701Y23437585D01*
X106237953Y23473705D01*
X106252883Y23483114D01*
X106292061Y23509866D01*
X106314358Y23534636D01*
X106324532Y23569243D01*
X106327342Y23625511D01*
X106327472Y23668418D01*
X106327472Y23805692D01*
X106223047Y23793353D01*
X106053537Y23765755D01*
X105920103Y23727478D01*
X105823304Y23678881D01*
X105763701Y23620322D01*
X105741851Y23552160D01*
X105504538Y23552160D01*
X105504096Y23565162D01*
X105533218Y23662974D01*
X105596228Y23750747D01*
X105603284Y23757592D01*
X105671001Y23808972D01*
X105758686Y23852244D01*
X105871017Y23888868D01*
X106012672Y23920299D01*
X106188329Y23947998D01*
X106233063Y23953870D01*
X106289514Y23962561D01*
X106315281Y23974375D01*
X106319255Y23996468D01*
X106314451Y24019373D01*
X106285673Y24093858D01*
X106244016Y24150660D01*
X106211909Y24172916D01*
X106086425Y24205334D01*
X105951629Y24201731D01*
X105804869Y24161891D01*
X105739610Y24134570D01*
X105636151Y24087205D01*
X105593949Y24162293D01*
X105568136Y24210169D01*
X105553216Y24241613D01*
X105551747Y24246646D01*
X105568441Y24258754D01*
X105612549Y24282241D01*
X105675107Y24312385D01*
X105686007Y24317408D01*
X105849631Y24378050D01*
X106005325Y24408163D01*
X106149334Y24408598D01*
X106277905Y24380206D01*
G37*
G36*
X109142118Y24380206D02*
G01*
X109251496Y24323840D01*
X109337928Y24240350D01*
X109397660Y24130587D01*
X109399761Y24124758D01*
X109410865Y24083831D01*
X109419110Y24029027D01*
X109424835Y23954774D01*
X109428381Y23855502D01*
X109430086Y23725641D01*
X109430369Y23622808D01*
X109430369Y23207611D01*
X109332666Y23207611D01*
X109234962Y23207611D01*
X109221300Y23288474D01*
X109211083Y23338034D01*
X109199487Y23354768D01*
X109180533Y23345365D01*
X109174799Y23340467D01*
X109078808Y23275881D01*
X108962868Y23228247D01*
X108838108Y23199680D01*
X108715658Y23192300D01*
X108606647Y23208222D01*
X108563575Y23224190D01*
X108470710Y23286825D01*
X108406306Y23369555D01*
X108371720Y23464845D01*
X108368751Y23552160D01*
X108606064Y23552160D01*
X108616056Y23491208D01*
X108644468Y23441769D01*
X108680557Y23410432D01*
X108739136Y23394838D01*
X108818853Y23388805D01*
X108902236Y23392308D01*
X108971815Y23405323D01*
X108986873Y23410855D01*
X109039914Y23437585D01*
X109102166Y23473705D01*
X109117096Y23483114D01*
X109156274Y23509866D01*
X109178571Y23534636D01*
X109188745Y23569243D01*
X109191555Y23625511D01*
X109191685Y23668418D01*
X109191685Y23805692D01*
X109087260Y23793353D01*
X108917750Y23765755D01*
X108784316Y23727478D01*
X108687517Y23678881D01*
X108627914Y23620322D01*
X108606064Y23552160D01*
X108368751Y23552160D01*
X108368309Y23565162D01*
X108397431Y23662974D01*
X108460441Y23750747D01*
X108467497Y23757592D01*
X108535214Y23808972D01*
X108622899Y23852244D01*
X108735230Y23888868D01*
X108876885Y23920299D01*
X109052542Y23947998D01*
X109097276Y23953870D01*
X109153727Y23962561D01*
X109179494Y23974375D01*
X109183468Y23996468D01*
X109178664Y24019373D01*
X109149886Y24093858D01*
X109108229Y24150660D01*
X109076122Y24172916D01*
X108950638Y24205334D01*
X108815842Y24201731D01*
X108669082Y24161891D01*
X108603823Y24134570D01*
X108500364Y24087205D01*
X108458162Y24162293D01*
X108432349Y24210169D01*
X108417429Y24241613D01*
X108415960Y24246646D01*
X108432654Y24258754D01*
X108476762Y24282241D01*
X108539320Y24312385D01*
X108550220Y24317408D01*
X108713844Y24378050D01*
X108869538Y24408163D01*
X109013547Y24408598D01*
X109142118Y24380206D01*
G37*
G36*
X87729742Y19135058D02*
G01*
X87740663Y19035535D01*
X87751645Y18944083D01*
X87761311Y18871720D01*
X87767523Y18833137D01*
X87774382Y18802469D01*
X87781992Y18791201D01*
X87793841Y18803461D01*
X87813420Y18843375D01*
X87844219Y18915072D01*
X87851610Y18932589D01*
X87922321Y19100250D01*
X87996587Y19100250D01*
X88032247Y19099030D01*
X88057665Y19090686D01*
X88079037Y19068186D01*
X88102560Y19024503D01*
X88134428Y18952606D01*
X88141787Y18935527D01*
X88173476Y18863742D01*
X88199084Y18809106D01*
X88214870Y18779440D01*
X88217900Y18776404D01*
X88221868Y18797226D01*
X88228661Y18849397D01*
X88237275Y18924668D01*
X88245291Y19000798D01*
X88258432Y19129734D01*
X88268931Y19224405D01*
X88278422Y19290097D01*
X88288543Y19332094D01*
X88300928Y19355681D01*
X88317214Y19366144D01*
X88339035Y19368768D01*
X88359174Y19368770D01*
X88404900Y19366239D01*
X88421089Y19350988D01*
X88417962Y19311525D01*
X88416690Y19304126D01*
X88409468Y19259151D01*
X88398552Y19186898D01*
X88385015Y19094901D01*
X88369928Y18990694D01*
X88354363Y18881813D01*
X88339391Y18775793D01*
X88326084Y18680167D01*
X88315513Y18602470D01*
X88308751Y18550238D01*
X88306798Y18531528D01*
X88289573Y18518620D01*
X88249947Y18513484D01*
X88225427Y18515609D01*
X88205136Y18525995D01*
X88185097Y18550657D01*
X88161330Y18595609D01*
X88129857Y18666868D01*
X88097912Y18743344D01*
X88060965Y18828861D01*
X88028413Y18897349D01*
X88003520Y18942420D01*
X87989546Y18957683D01*
X87988719Y18957165D01*
X87976064Y18933263D01*
X87952236Y18880413D01*
X87920748Y18806636D01*
X87888086Y18727306D01*
X87850203Y18635399D01*
X87822463Y18574362D01*
X87800728Y18537939D01*
X87780861Y18519869D01*
X87758723Y18513894D01*
X87746730Y18513484D01*
X87707372Y18519883D01*
X87688211Y18547016D01*
X87681417Y18578128D01*
X87675564Y18616465D01*
X87665787Y18683260D01*
X87653126Y18771156D01*
X87638619Y18872797D01*
X87623305Y18980827D01*
X87608223Y19087889D01*
X87594412Y19186627D01*
X87582910Y19269685D01*
X87574757Y19329706D01*
X87570991Y19359335D01*
X87570855Y19361048D01*
X87588326Y19366227D01*
X87631089Y19368728D01*
X87638097Y19368770D01*
X87705338Y19368770D01*
X87729742Y19135058D01*
G37*
G36*
X108128122Y24379703D02*
G01*
X108161847Y24373630D01*
X108172051Y24360287D01*
X108169870Y24346334D01*
X108163436Y24318061D01*
X108150493Y24256290D01*
X108132164Y24166564D01*
X108109573Y24054426D01*
X108083846Y23925419D01*
X108057934Y23794377D01*
X108030289Y23654608D01*
X108004730Y23526523D01*
X107982380Y23415664D01*
X107964365Y23327574D01*
X107951808Y23267797D01*
X107945998Y23242419D01*
X107934371Y23224037D01*
X107907058Y23213387D01*
X107855511Y23208560D01*
X107790018Y23207611D01*
X107644125Y23207611D01*
X107589557Y23441323D01*
X107563261Y23559081D01*
X107536398Y23687952D01*
X107512816Y23809103D01*
X107501212Y23873938D01*
X107467434Y24072842D01*
X107452960Y23953500D01*
X107444267Y23896709D01*
X107429019Y23811345D01*
X107409172Y23707101D01*
X107386679Y23593669D01*
X107363497Y23480742D01*
X107341582Y23378013D01*
X107322887Y23295176D01*
X107309514Y23242419D01*
X107297991Y23224143D01*
X107270933Y23213502D01*
X107219844Y23208625D01*
X107151582Y23207611D01*
X107080626Y23208722D01*
X107028275Y23211660D01*
X107004297Y23215830D01*
X107003744Y23216608D01*
X106999903Y23238832D01*
X106989202Y23293974D01*
X106972876Y23376002D01*
X106952161Y23478887D01*
X106928289Y23596597D01*
X106902497Y23723102D01*
X106876019Y23852371D01*
X106850090Y23978373D01*
X106825944Y24095076D01*
X106804816Y24196452D01*
X106787941Y24276468D01*
X106776553Y24329093D01*
X106772251Y24347327D01*
X106770454Y24366677D01*
X106784946Y24376628D01*
X106823772Y24379284D01*
X106886424Y24377162D01*
X107011099Y24371197D01*
X107086179Y23973390D01*
X107109330Y23847900D01*
X107129805Y23731548D01*
X107146409Y23631555D01*
X107157950Y23555141D01*
X107163235Y23509527D01*
X107163409Y23505966D01*
X107165786Y23472939D01*
X107170828Y23461211D01*
X107179363Y23473498D01*
X107192220Y23512517D01*
X107210227Y23580985D01*
X107234213Y23681620D01*
X107265006Y23817137D01*
X107283208Y23898801D01*
X107368182Y24281691D01*
X107479432Y24281691D01*
X107590683Y24281691D01*
X107680103Y23874018D01*
X107707239Y23752814D01*
X107732220Y23645940D01*
X107753629Y23559088D01*
X107770047Y23497950D01*
X107780058Y23468218D01*
X107781671Y23466266D01*
X107790514Y23484104D01*
X107800233Y23530023D01*
X107805885Y23570610D01*
X107813438Y23624803D01*
X107826774Y23709267D01*
X107844426Y23815161D01*
X107864928Y23933642D01*
X107881769Y24028089D01*
X107945586Y24381143D01*
X108062771Y24381143D01*
X108128122Y24379703D01*
G37*
G36*
X67538957Y30662161D02*
G01*
X67548013Y30615695D01*
X67548269Y30613951D01*
X67555114Y30557317D01*
X67563108Y30476514D01*
X67570741Y30387067D01*
X67572194Y30368143D01*
X67605273Y30085464D01*
X67659858Y29822636D01*
X67692578Y29708361D01*
X67740340Y29570473D01*
X67793735Y29446966D01*
X67857377Y29330651D01*
X67935880Y29214341D01*
X68033858Y29090846D01*
X68155924Y28952979D01*
X68224678Y28879321D01*
X68387734Y28698030D01*
X68518595Y28531686D01*
X68619646Y28375568D01*
X68693272Y28224956D01*
X68741856Y28075130D01*
X68767785Y27921371D01*
X68773818Y27792341D01*
X68770461Y27701162D01*
X68759500Y27605616D01*
X68739498Y27499043D01*
X68709019Y27374785D01*
X68666625Y27226183D01*
X68617166Y27066342D01*
X68545838Y26835794D01*
X68487813Y26633970D01*
X68441341Y26452774D01*
X68404671Y26284108D01*
X68376053Y26119875D01*
X68353736Y25951978D01*
X68335968Y25772318D01*
X68335051Y25761498D01*
X68324975Y25586333D01*
X68321067Y25384822D01*
X68323012Y25169446D01*
X68330492Y24952689D01*
X68343192Y24747034D01*
X68360795Y24564964D01*
X68366496Y24520375D01*
X68378777Y24438719D01*
X68396094Y24335070D01*
X68417072Y24216571D01*
X68440338Y24090362D01*
X68464516Y23963584D01*
X68488232Y23843379D01*
X68510111Y23736888D01*
X68528777Y23651252D01*
X68542856Y23593611D01*
X68548299Y23576028D01*
X68548326Y23550176D01*
X68539346Y23545747D01*
X68523263Y23563034D01*
X68498412Y23609061D01*
X68469324Y23675075D01*
X68459513Y23699898D01*
X68372518Y23952269D01*
X68292664Y24235643D01*
X68221696Y24541606D01*
X68161360Y24861749D01*
X68113404Y25187658D01*
X68079573Y25510922D01*
X68077097Y25541959D01*
X68060964Y25872874D01*
X68063797Y26212284D01*
X68085945Y26567903D01*
X68127758Y26947442D01*
X68146939Y27086233D01*
X68180362Y27330962D01*
X68203652Y27542813D01*
X68215667Y27727658D01*
X68215267Y27891370D01*
X68201309Y28039821D01*
X68172654Y28178883D01*
X68128159Y28314430D01*
X68066683Y28452334D01*
X67987085Y28598468D01*
X67888224Y28758704D01*
X67794153Y28901507D01*
X67688322Y29064548D01*
X67605344Y29206060D01*
X67541574Y29334184D01*
X67493367Y29457063D01*
X67457080Y29582840D01*
X67429776Y29715580D01*
X67413778Y29840564D01*
X67406079Y29977618D01*
X67406084Y30119599D01*
X67413201Y30259364D01*
X67426837Y30389772D01*
X67446398Y30503681D01*
X67471291Y30593948D01*
X67500923Y30653430D01*
X67508389Y30662048D01*
X67527507Y30675492D01*
X67538957Y30662161D01*
G37*
G36*
X70643880Y31544337D02*
G01*
X70713400Y31499806D01*
X70768251Y31438702D01*
X70793512Y31381719D01*
X70806435Y31322881D01*
X72238269Y31322881D01*
X72557067Y31322588D01*
X72837372Y31321710D01*
X73079012Y31320249D01*
X73281814Y31318209D01*
X73445604Y31315591D01*
X73570210Y31312398D01*
X73655458Y31308632D01*
X73701176Y31304296D01*
X73708576Y31302291D01*
X73723697Y31291223D01*
X73734258Y31272629D01*
X73741067Y31240052D01*
X73744930Y31187034D01*
X73746655Y31107120D01*
X73747049Y30994536D01*
X73747049Y30707372D01*
X74030487Y30701853D01*
X74313924Y30696334D01*
X74313924Y30079733D01*
X74313924Y29463132D01*
X74030487Y29457613D01*
X73747049Y29452094D01*
X73747049Y29163738D01*
X73747049Y28875381D01*
X73696028Y28855983D01*
X73659578Y28849518D01*
X73591167Y28843966D01*
X73498612Y28839717D01*
X73389729Y28837160D01*
X73306505Y28836585D01*
X72968003Y28836585D01*
X73110351Y28682435D01*
X73274742Y28483286D01*
X73399813Y28283961D01*
X73486013Y28083227D01*
X73533789Y27879851D01*
X73543589Y27672599D01*
X73528886Y27529429D01*
X73514981Y27462612D01*
X73490752Y27366639D01*
X73458571Y27250054D01*
X73420811Y27121400D01*
X73379843Y26989221D01*
X73372690Y26966890D01*
X73241417Y26559138D01*
X73230685Y25682011D01*
X73227793Y25463661D01*
X73224846Y25281940D01*
X73221713Y25133699D01*
X73218260Y25015787D01*
X73214358Y24925055D01*
X73209874Y24858350D01*
X73204677Y24812523D01*
X73198635Y24784424D01*
X73192656Y24772027D01*
X73184707Y24759061D01*
X73189651Y24750027D01*
X73212875Y24744222D01*
X73259763Y24740945D01*
X73335704Y24739494D01*
X73444963Y24739169D01*
X73550762Y24737819D01*
X73645978Y24734116D01*
X73721676Y24728586D01*
X73768923Y24721752D01*
X73775590Y24719771D01*
X73826610Y24700373D01*
X73826610Y24007696D01*
X73826215Y23807853D01*
X73824970Y23645054D01*
X73822783Y23516571D01*
X73819564Y23419674D01*
X73815221Y23351634D01*
X73809664Y23309723D01*
X73802803Y23291212D01*
X73802742Y23291150D01*
X73788249Y23286311D01*
X73753727Y23282109D01*
X73697098Y23278510D01*
X73616289Y23275479D01*
X73509224Y23272983D01*
X73373828Y23270987D01*
X73208025Y23269458D01*
X73009740Y23268360D01*
X72776899Y23267661D01*
X72507425Y23267324D01*
X72353181Y23267282D01*
X72074896Y23267382D01*
X71833823Y23267717D01*
X71627394Y23268334D01*
X71453040Y23269284D01*
X71308192Y23270615D01*
X71190283Y23272377D01*
X71096743Y23274619D01*
X71025005Y23277391D01*
X70972501Y23280741D01*
X70936660Y23284719D01*
X70914917Y23289374D01*
X70904700Y23294756D01*
X70904421Y23295076D01*
X70897823Y23315769D01*
X70892711Y23361760D01*
X70889027Y23435528D01*
X70886711Y23539552D01*
X70885704Y23676309D01*
X70885947Y23848277D01*
X70887068Y24021085D01*
X70892781Y24719301D01*
X70545694Y24719290D01*
X70416795Y24718705D01*
X70323708Y24716764D01*
X70262476Y24713176D01*
X70229147Y24707648D01*
X70219764Y24699887D01*
X70222476Y24695410D01*
X70228797Y24669708D01*
X70234224Y24609923D01*
X70238742Y24521741D01*
X70242339Y24410851D01*
X70245000Y24282940D01*
X70246712Y24143696D01*
X70247463Y23998806D01*
X70247238Y23853957D01*
X70246024Y23714837D01*
X70243808Y23587134D01*
X70240577Y23476535D01*
X70236316Y23388728D01*
X70231013Y23329399D01*
X70225754Y23305755D01*
X70204166Y23282009D01*
X70165068Y23270319D01*
X70099902Y23267282D01*
X69994641Y23267282D01*
X69902266Y23461213D01*
X69719561Y23888906D01*
X69568998Y24335615D01*
X69452699Y24794256D01*
X69379749Y25206593D01*
X69362929Y25365584D01*
X69352152Y25553876D01*
X69347423Y25761451D01*
X69348748Y25978290D01*
X69356133Y26194375D01*
X69369582Y26399686D01*
X69379038Y26499467D01*
X69404285Y26806099D01*
X69410742Y27083325D01*
X69397937Y27337055D01*
X69365395Y27573196D01*
X69312643Y27797657D01*
X69262341Y27954065D01*
X69195735Y28140422D01*
X69711553Y28140422D01*
X70227372Y28140422D01*
X70822247Y28140422D01*
X71878236Y28140422D01*
X72934225Y28140422D01*
X72921191Y28185176D01*
X72897070Y28250105D01*
X72858221Y28334649D01*
X72808943Y28431286D01*
X72753534Y28532496D01*
X72696292Y28630758D01*
X72641517Y28718553D01*
X72593506Y28788361D01*
X72556559Y28832660D01*
X72546112Y28841375D01*
X72522051Y28844395D01*
X72462441Y28846985D01*
X72371511Y28849096D01*
X72253490Y28850680D01*
X72112608Y28851689D01*
X71953095Y28852073D01*
X71779181Y28851785D01*
X71678451Y28851320D01*
X70833110Y28846530D01*
X70827678Y28493476D01*
X70822247Y28140422D01*
X70227372Y28140422D01*
X70221940Y28493476D01*
X70216509Y28846530D01*
X69489043Y28851744D01*
X68761577Y28856958D01*
X68563510Y29090429D01*
X68488953Y29178825D01*
X68418461Y29263330D01*
X68358461Y29336171D01*
X68315382Y29389580D01*
X68304557Y29403461D01*
X68159093Y29626208D01*
X68046170Y29871585D01*
X67966011Y30138815D01*
X68067539Y30138815D01*
X68067986Y30017534D01*
X68098654Y29900413D01*
X68159203Y29794281D01*
X68249295Y29705966D01*
X68289628Y29679418D01*
X68421384Y29622216D01*
X68553642Y29603675D01*
X68683364Y29623968D01*
X68754827Y29652887D01*
X68865959Y29729000D01*
X68948722Y29828129D01*
X69001010Y29943625D01*
X69020719Y30068841D01*
X69019953Y30075399D01*
X72017024Y30075399D01*
X72035881Y29939460D01*
X72089402Y29820564D01*
X72174642Y29722789D01*
X72288656Y29650215D01*
X72338465Y29630246D01*
X72420072Y29604871D01*
X72482999Y29595270D01*
X72544857Y29600915D01*
X72623253Y29621280D01*
X72624606Y29621683D01*
X72745693Y29676425D01*
X72842679Y29757345D01*
X72913639Y29858076D01*
X72956645Y29972249D01*
X72969773Y30093495D01*
X72951096Y30215446D01*
X72898689Y30331733D01*
X72856597Y30388871D01*
X72760964Y30478739D01*
X72655427Y30532600D01*
X72531830Y30554191D01*
X72493956Y30554970D01*
X72355216Y30536240D01*
X72234998Y30484638D01*
X72137284Y30404170D01*
X72066057Y30298840D01*
X72025299Y30172653D01*
X72017024Y30075399D01*
X69019953Y30075399D01*
X69005744Y30197129D01*
X68962111Y30307452D01*
X68881807Y30417194D01*
X68780363Y30496904D01*
X68664234Y30545204D01*
X68539874Y30560715D01*
X68413740Y30542058D01*
X68292285Y30487855D01*
X68250910Y30459345D01*
X68158662Y30366548D01*
X68097651Y30257429D01*
X68067539Y30138815D01*
X67966011Y30138815D01*
X67965901Y30139183D01*
X67918397Y30428594D01*
X67903767Y30739411D01*
X67906954Y30865403D01*
X67912646Y30975886D01*
X67919378Y31078839D01*
X67926411Y31164461D01*
X67933004Y31222951D01*
X67934716Y31233374D01*
X67949678Y31312936D01*
X69137792Y31318065D01*
X69386793Y31319227D01*
X69598900Y31320452D01*
X69776999Y31321827D01*
X69923976Y31323440D01*
X70042718Y31325378D01*
X70136112Y31327727D01*
X70207043Y31330575D01*
X70258398Y31334007D01*
X70293063Y31338112D01*
X70313925Y31342977D01*
X70323870Y31348688D01*
X70325906Y31353861D01*
X70344305Y31426809D01*
X70393628Y31490501D01*
X70465058Y31537524D01*
X70549781Y31560462D01*
X70572855Y31561565D01*
X70643880Y31544337D01*
G37*
%TD*%
%LPC*%
D15*
%TO.C,PS1*%
X10716250Y41468750D03*
D16*
X10716250Y33848750D03*
X10716250Y26228750D03*
D17*
X61516250Y26228750D03*
X61516250Y41468750D03*
%TD*%
D18*
%TO.C,J2*%
X2986250Y10333750D03*
X20086250Y10333750D03*
X27986250Y10333750D03*
X45086250Y10333750D03*
X52956250Y10333750D03*
X70056250Y10333750D03*
D19*
X6036250Y16333750D03*
X11536250Y16333750D03*
D20*
X17036250Y16333750D03*
D19*
X31036250Y16333750D03*
X36536250Y16333750D03*
D20*
X42036250Y16333750D03*
D19*
X56006250Y16333750D03*
X61506250Y16333750D03*
D20*
X67006250Y16333750D03*
%TD*%
D21*
%TO.C,J1*%
X86626250Y8093750D03*
D22*
X86626250Y4263750D03*
D21*
X89166250Y8093750D03*
D22*
X89166250Y4263750D03*
D21*
X91706250Y8093750D03*
D22*
X91706250Y4263750D03*
D21*
X94246250Y8093750D03*
D22*
X94246250Y4263750D03*
D21*
X96786250Y8093750D03*
D22*
X96786250Y4263750D03*
D21*
X99326250Y8093750D03*
D22*
X99326250Y4263750D03*
D21*
X101866250Y8093750D03*
D22*
X101866250Y4263750D03*
D21*
X104406250Y8093750D03*
D22*
X104406250Y4263750D03*
D21*
X106946250Y8093750D03*
D22*
X106946250Y4263750D03*
D21*
X109486250Y8093750D03*
D22*
X109486250Y4263750D03*
%TD*%
%LPD*%
M02*
