M48
INCH
T1C0.0157
T2C0.0307
T3C0.0315
T4C0.0551
T5C0.0752
T6C0.1161
%
G90
G05
T1
X0.075Y2.0411
X0.075Y1.9919
X0.075Y1.9427
X0.075Y1.795
X0.075Y1.7458
X0.075Y1.6966
X0.075Y1.3029
X0.075Y1.2537
X0.075Y1.2045
X0.075Y1.1553
X0.075Y1.1061
X0.075Y1.0568
X0.075Y1.0076
X0.075Y0.6139
X0.075Y0.5647
X0.1243Y2.0411
X0.1243Y1.9919
X0.1243Y1.9427
X0.1243Y1.795
X0.1243Y1.7458
X0.1243Y1.2537
X0.1243Y1.2045
X0.1243Y1.1553
X0.1243Y1.1061
X0.1243Y1.0568
X0.1243Y0.5647
X0.1735Y2.0411
X0.1735Y1.9919
X0.1735Y1.795
X0.2227Y2.0411
X0.2719Y1.4505
X0.2719Y1.4013
X0.2719Y1.3521
X0.2719Y1.0076
X0.2719Y0.9584
X0.2719Y0.9092
X0.2719Y0.86
X0.3211Y1.4998
X0.3211Y1.4505
X0.3211Y0.9092
X0.3211Y0.86
X0.3211Y0.8108
X0.3703Y1.4998
X0.3703Y1.2537
X0.3703Y1.2045
X0.3703Y1.1553
X0.3703Y1.1061
X0.4195Y1.4998
X0.4195Y1.2045
X0.4195Y1.1553
X0.5672Y1.795
X0.5672Y1.7458
X0.5672Y1.549
X0.5672Y1.4998
X0.5672Y1.3029
X0.5672Y1.1061
X0.5672Y0.9092
X0.6164Y1.795
X0.6164Y1.7458
X0.6164Y1.549
X0.6164Y1.4998
X0.764Y1.3029
X0.764Y1.1061
X0.764Y0.9092
X0.8132Y0.7124
X0.8132Y0.6631
X0.8132Y0.6139
X0.8132Y0.5647
X0.8625Y0.7124
X0.8625Y0.6631
X0.8625Y0.6139
X0.8625Y0.5647
X0.9117Y0.7124
X0.9117Y0.6631
X0.9117Y0.6139
X0.9117Y0.5647
X1.0593Y1.795
X1.0593Y1.7458
X1.0593Y1.6966
X1.0593Y1.6474
X1.0593Y1.5982
X1.0593Y1.4013
X1.0593Y1.3521
X1.0593Y1.3029
X1.0593Y1.2537
X1.0593Y1.2045
X1.0593Y1.1553
X1.0593Y1.1061
X1.0593Y1.0568
X1.0593Y1.0076
X1.0593Y0.9584
X1.0593Y0.6139
X1.0593Y0.5647
X1.1085Y1.795
X1.1085Y1.7458
X1.1085Y1.6966
X1.1085Y1.3521
X1.1085Y1.3029
X1.1085Y1.2537
X1.1085Y1.2045
X1.1085Y1.1553
X1.1085Y1.1061
X1.1085Y1.0568
X1.1085Y1.0076
X1.1085Y0.5647
X1.1577Y1.795
X1.1577Y1.7458
X1.1577Y1.4998
X1.1577Y1.3029
X1.1577Y1.2537
X1.1577Y1.2045
X1.1577Y1.1553
X1.1577Y1.1061
X1.1577Y1.0568
X1.1577Y0.9092
X1.2069Y1.795
X1.2562Y1.795
X1.3054Y0.8108
X1.3054Y0.7616
X1.3546Y1.6966
X1.3546Y1.4998
X1.3546Y1.3029
X1.3546Y1.1061
X1.3546Y0.86
X1.3546Y0.8108
X1.4038Y0.9092
X1.4038Y0.86
X1.4038Y0.8108
X1.453Y0.9092
X1.453Y0.86
X1.5022Y0.9092
X1.5022Y0.86
X1.5514Y1.4998
X1.5514Y1.3029
X1.5514Y1.1061
X1.5514Y0.86
X1.6006Y1.795
X1.6499Y1.795
X1.6499Y1.7458
X1.6991Y1.795
X1.6991Y1.7458
X1.6991Y1.6966
X1.7483Y2.0411
X1.7483Y1.795
X1.7483Y1.7458
X1.7483Y1.6966
X1.7483Y1.4998
X1.7483Y1.3029
X1.7483Y1.1061
X1.7483Y0.9092
X1.7975Y2.0411
X1.7975Y1.9919
X1.7975Y1.795
X1.7975Y1.7458
X1.7975Y1.6966
X1.8467Y2.0411
X1.8467Y1.9919
X1.8467Y1.795
X1.8467Y1.7458
X1.8467Y1.6966
X1.8959Y2.0411
X1.8959Y1.9919
X1.8959Y1.795
X1.8959Y1.7458
X1.8959Y1.6966
X1.9451Y2.0411
X1.9451Y1.9919
X1.9451Y1.795
X1.9451Y1.7458
X1.9451Y1.6966
X1.9451Y1.4998
X1.9451Y1.3029
X1.9451Y1.1061
X1.9451Y0.9092
X1.9943Y2.0411
X1.9943Y1.9919
X1.9943Y1.795
X1.9943Y1.7458
X2.0436Y2.0411
X2.0436Y1.9919
X2.0436Y1.795
X2.0436Y0.86
X2.0928Y2.0411
X2.0928Y1.9919
X2.0928Y0.9092
X2.0928Y0.86
X2.142Y2.0411
X2.142Y1.9919
X2.142Y1.6966
X2.142Y1.4998
X2.142Y1.3029
X2.142Y0.9584
X2.142Y0.9092
X2.142Y0.86
X2.1912Y2.0411
X2.1912Y1.9919
X2.1912Y1.1061
X2.1912Y1.0568
X2.1912Y1.0076
X2.1912Y0.9584
X2.1912Y0.9092
X2.1912Y0.86
X2.2404Y2.0411
X2.2404Y1.9919
X2.2404Y1.1553
X2.2404Y1.1061
X2.2896Y2.0411
X2.2896Y1.2045
X2.2896Y1.1553
X2.2896Y1.0076
X2.2896Y0.9584
X2.2896Y0.9092
X2.2896Y0.86
X2.2896Y0.8108
X2.3388Y1.4998
X2.3388Y1.2537
X2.3388Y1.2045
X2.3388Y0.9584
X2.3388Y0.9092
X2.3388Y0.86
X2.3388Y0.8108
X2.3388Y0.5155
X2.3388Y0.4663
X2.3388Y0.4171
X2.3388Y0.3679
X2.388Y1.3029
X2.388Y1.2537
X2.388Y0.9092
X2.388Y0.86
X2.388Y0.8108
X2.388Y0.5155
X2.388Y0.4663
X2.388Y0.4171
X2.388Y0.3679
X2.4373Y1.795
X2.4373Y1.3521
X2.4373Y1.3029
X2.4373Y1.1553
X2.4373Y0.5155
X2.4373Y0.4663
X2.4373Y0.4171
X2.4373Y0.3679
X2.4865Y1.795
X2.4865Y1.4013
X2.4865Y1.3521
X2.4865Y1.2045
X2.4865Y1.1553
X2.4865Y0.5155
X2.4865Y0.4663
X2.4865Y0.4171
X2.4865Y0.3679
X2.5357Y1.795
X2.5357Y1.7458
X2.5357Y1.4505
X2.5357Y1.4013
X2.5357Y1.2537
X2.5357Y1.2045
X2.5357Y1.1061
X2.5357Y0.9092
X2.5849Y1.795
X2.5849Y1.7458
X2.5849Y1.6966
X2.5849Y1.6474
X2.5849Y1.5982
X2.5849Y1.549
X2.5849Y1.4998
X2.5849Y1.4505
X2.5849Y1.3029
X2.5849Y1.2537
X2.6341Y1.3521
X2.6341Y1.3029
X2.7325Y1.8935
X2.7325Y1.6966
X2.7325Y1.4998
X2.7325Y1.3029
X2.7325Y1.1061
X2.7325Y0.9092
X2.9294Y1.8935
X2.9294Y1.6966
X2.9294Y1.4998
X2.9294Y1.3029
X2.9294Y1.1061
X2.9294Y0.9092
X2.9294Y0.7124
X2.9294Y0.5155
X3.1262Y1.8935
X3.1262Y1.6966
X3.1262Y1.4998
X3.1262Y1.3029
X3.1262Y1.1061
X3.1262Y0.9092
X3.1262Y0.7124
X3.1262Y0.5155
X3.3231Y1.8935
X3.3231Y1.6966
X3.3231Y1.4998
X3.3231Y1.3029
X3.3231Y1.1061
X3.3231Y0.9092
X3.3231Y0.7124
X3.3231Y0.5155
X3.5199Y1.8935
X3.5199Y1.6966
X3.5199Y1.4998
X3.5199Y1.3029
X3.5199Y1.1061
X3.5199Y0.9092
X3.5199Y0.7124
X3.5199Y0.5155
X3.7168Y1.8935
X3.7168Y1.6966
X3.7168Y1.4998
X3.7168Y1.3029
X3.7168Y1.1061
X3.7168Y0.9092
X3.7168Y0.7124
X3.7168Y0.5155
X3.9136Y1.8935
X3.9136Y1.6966
X3.9136Y1.4998
X3.9136Y1.3029
X3.9136Y1.1061
X3.9136Y0.9092
X3.9136Y0.7124
X3.9136Y0.5155
X4.1105Y2.0411
X4.1105Y1.8935
X4.1105Y1.6966
X4.1105Y1.4998
X4.1105Y1.3029
X4.1105Y1.1061
X4.1105Y0.9092
X4.1105Y0.7124
X4.1105Y0.5155
X4.1597Y2.0411
X4.1597Y1.9919
X4.2089Y2.0411
X4.2089Y1.9919
X4.2089Y1.9427
X4.2581Y2.0411
X4.2581Y1.9919
X4.2581Y1.9427
X4.2581Y1.8935
X4.2581Y0.4663
X4.3073Y2.0411
X4.3073Y1.9919
X4.3073Y1.9427
X4.3073Y1.8935
X4.3073Y1.8442
X4.3073Y1.6966
X4.3073Y1.4998
X4.3073Y1.3029
X4.3073Y1.1061
X4.3073Y0.9092
X4.3073Y0.7124
X4.3073Y0.5155
X4.3073Y0.4663
X4.3073Y0.4171
X4.3565Y2.0411
X4.3565Y1.9919
X4.3565Y1.9427
X4.3565Y1.8935
X4.3565Y1.8442
X4.3565Y1.795
X4.3565Y0.5647
X4.3565Y0.5155
X4.3565Y0.4663
X4.3565Y0.4171
T2
X3.4105Y0.3187
X3.5105Y0.3187
X3.6105Y0.3187
X3.7105Y0.3187
X3.8105Y0.3187
X3.9105Y0.3187
X4.0105Y0.3187
X4.1105Y0.3187
X4.2105Y0.3187
X4.3105Y0.3187
T4
X0.4219Y1.6326
X0.4219Y1.3326
X0.4219Y1.0326
T5
X2.4219Y1.6326
X2.4219Y1.0326
T6
X0.2376Y0.6431
X0.4542Y0.6431
X0.6707Y0.6431
X1.2219Y0.6431
X1.4384Y0.6431
X1.655Y0.6431
X2.205Y0.6431
X2.4215Y0.6431
X2.638Y0.6431
T3
G00X0.1176Y0.4285
M15
G01X0.1176Y0.3852
M16
G05
G00X0.7908Y0.4285
M15
G01X0.7908Y0.3852
M16
G05
G00X1.1018Y0.4285
M15
G01X1.1018Y0.3852
M16
G05
G00X1.775Y0.4285
M15
G01X1.775Y0.3852
M16
G05
G00X2.0849Y0.4285
M15
G01X2.0849Y0.3852
M16
G05
G00X2.7581Y0.4285
M15
G01X2.7581Y0.3852
M16
G05
M30
