%TF.GenerationSoftware,KiCad,Pcbnew,8.0.1*%
%TF.CreationDate,2024-04-06T13:43:38-04:00*%
%TF.ProjectId,template-card with ESCs,74656d70-6c61-4746-952d-636172642077,rev?*%
%TF.SameCoordinates,Original*%
%TF.FileFunction,Profile,NP*%
%FSLAX46Y46*%
G04 Gerber Fmt 4.6, Leading zero omitted, Abs format (unit mm)*
G04 Created by KiCad (PCBNEW 8.0.1) date 2024-04-06 13:43:38*
%MOMM*%
%LPD*%
G01*
G04 APERTURE LIST*
%TA.AperFunction,Profile*%
%ADD10C,0.100000*%
%TD*%
G04 APERTURE END LIST*
D10*
X127756000Y-47420000D02*
X127756000Y-75360000D01*
X105756000Y-75360000D02*
X105656000Y-75360000D01*
X88384000Y-75360000D02*
X88384000Y-47420000D01*
X88384000Y-47420000D02*
X105756000Y-47420000D01*
X116500000Y-75360000D02*
X116500000Y-76500000D01*
X105756000Y-47420000D02*
X105756000Y-75360000D01*
X132384000Y-47420000D02*
X149756000Y-47420000D01*
X138500000Y-75360000D02*
X138500000Y-76500000D01*
X127756000Y-75360000D02*
X119000000Y-75360000D01*
X97000000Y-75360000D02*
X97000000Y-76500000D01*
X110384000Y-75360000D02*
X110384000Y-47420000D01*
X197500000Y-108042000D02*
X169860000Y-108042000D01*
X197500000Y-108042000D02*
X197500000Y-100000000D01*
X149756000Y-75360000D02*
X141000000Y-75360000D01*
X94500000Y-75360000D02*
X88384000Y-75360000D01*
X110384000Y-47420000D02*
X127756000Y-47420000D01*
X85680000Y-100000000D02*
X85680000Y-25000000D01*
X97000000Y-76500000D02*
X94500000Y-76500000D01*
X141000000Y-76500000D02*
X138500000Y-76500000D01*
X85680000Y-25000000D02*
X197500000Y-25000000D01*
X141000000Y-75360000D02*
X141000000Y-76500000D01*
X119000000Y-75360000D02*
X119000000Y-76500000D01*
X132384000Y-75360000D02*
X132384000Y-47420000D01*
X149756000Y-47420000D02*
X149756000Y-75360000D01*
X105656000Y-75360000D02*
X97000000Y-75360000D01*
X116500000Y-75360000D02*
X110384000Y-75360000D01*
X119000000Y-76500000D02*
X116500000Y-76500000D01*
X138500000Y-75360000D02*
X132384000Y-75360000D01*
X169860000Y-100000000D02*
X85680000Y-100000000D01*
X197500000Y-100000000D02*
X197500000Y-25000000D01*
X94500000Y-75360000D02*
X94500000Y-76500000D01*
X169860000Y-108042000D02*
X169860000Y-100000000D01*
M02*
