M48
; DRILL file {KiCad 8.0.1} date 2024-04-06T11:37:13-0400
; FORMAT={-:-/ absolute / inch / decimal}
; #@! TF.CreationDate,2024-04-06T11:37:13-04:00
; #@! TF.GenerationSoftware,Kicad,Pcbnew,8.0.1
; #@! TF.FileFunction,Plated,1,2,PTH
FMAT,2
INCH
; #@! TA.AperFunction,Plated,PTH,ViaDrill
T1C0.0118
; #@! TA.AperFunction,Plated,PTH,ViaDrill
T2C0.0157
; #@! TA.AperFunction,Plated,PTH,ViaDrill
T3C0.0300
; #@! TA.AperFunction,Plated,PTH,ComponentDrill
T4C0.0300
; #@! TA.AperFunction,Plated,PTH,ComponentDrill
T5C0.0307
; #@! TA.AperFunction,Plated,PTH,ComponentDrill
T6C0.0315
; #@! TA.AperFunction,Plated,PTH,ComponentDrill
T7C0.0394
; #@! TA.AperFunction,Plated,PTH,ComponentDrill
T8C0.0445
; #@! TA.AperFunction,Plated,PTH,ComponentDrill
T9C0.1161
%
G90
G05
T1
X7.1069Y-2.4606
T2
X3.4094Y-3.0039
X3.4094Y-3.0512
X3.4094Y-3.0945
X3.4094Y-3.3661
X3.4094Y-3.4134
X3.4094Y-3.4606
X3.4252Y-2.1024
X3.4252Y-2.2992
X3.4252Y-2.5
X3.4252Y-2.7205
X3.4252Y-2.9016
X3.4291Y-1.8583
X3.4331Y-1.3307
X3.4331Y-1.5984
X3.437Y-1.0669
X3.4528Y-3.0039
X3.4528Y-3.0512
X3.4528Y-3.0945
X3.4567Y-3.4134
X3.4567Y-3.4606
X3.5039Y-3.4606
X3.5157Y-3.2008
X3.5157Y-3.252
X3.563Y-1.6142
X3.563Y-1.6535
X3.5709Y-3.2008
X3.5709Y-3.252
X3.6024Y-1.6142
X3.6024Y-1.6535
X3.626Y-3.2008
X3.626Y-3.252
X3.626Y-3.4606
X3.6417Y-1.6142
X3.6417Y-1.6535
X3.6732Y-3.4134
X3.6732Y-3.4606
X3.7795Y-1.6142
X3.7795Y-1.6535
X3.811Y-1.0709
X3.8189Y-1.6142
X3.8189Y-1.6535
X3.8583Y-1.6142
X3.8583Y-1.6535
X3.8898Y-2.9921
X3.9606Y-3.0433
X3.9606Y-3.0866
X3.9606Y-3.1299
X3.9961Y-1.6142
X3.9961Y-1.6535
X4.0354Y-1.6142
X4.0354Y-1.6535
X4.0748Y-1.6142
X4.0748Y-1.6535
X4.1929Y-2.8465
X4.1929Y-2.8898
X4.1929Y-2.9331
X4.1929Y-3.0433
X4.1929Y-3.0866
X4.1929Y-3.1299
X4.2362Y-2.8465
X4.2362Y-2.8898
X4.2362Y-2.9331
X4.2362Y-3.0433
X4.2362Y-3.0866
X4.2362Y-3.1299
X4.252Y-2.315
X4.252Y-2.5236
X4.2559Y-1.0709
X4.2559Y-1.3189
X4.2559Y-1.5866
X4.2559Y-2.1339
X4.2559Y-2.7441
X4.2598Y-1.8543
X4.2795Y-2.8465
X4.2795Y-2.8898
X4.2795Y-2.9331
X4.2795Y-3.0433
X4.2795Y-3.0866
X4.2795Y-3.1299
X4.3228Y-2.8465
X4.3228Y-2.8898
X4.4291Y-1.6142
X4.4291Y-1.6535
X4.4409Y-3.2205
X4.4685Y-1.6142
X4.4685Y-1.6535
X4.4921Y-3.2205
X4.4921Y-3.2756
X4.5079Y-1.6142
X4.5079Y-1.6535
X4.5433Y-3.2205
X4.5433Y-3.2756
X4.5945Y-3.2756
X4.6457Y-1.6142
X4.6457Y-1.6535
X4.6811Y-1.0787
X4.685Y-1.6142
X4.685Y-1.6535
X4.7244Y-1.6142
X4.7244Y-1.6535
X4.7323Y-2.9961
X4.7441Y-3.4252
X4.7441Y-3.4724
X4.7795Y-3.2047
X4.8071Y-3.4252
X4.8071Y-3.4724
X4.815Y-3.0551
X4.815Y-3.1063
X4.8307Y-3.2047
X4.8307Y-3.252
X4.8622Y-1.6142
X4.8622Y-1.6535
X4.8701Y-3.4252
X4.8701Y-3.4724
X4.878Y-3.252
X4.878Y-3.2992
X4.9016Y-1.6142
X4.9016Y-1.6535
X4.9409Y-1.6142
X4.9409Y-1.6535
X5.0512Y-3.0551
X5.0512Y-3.1063
X5.0551Y-2.8386
X5.0551Y-2.8819
X5.0551Y-2.9252
X5.0984Y-2.8386
X5.0984Y-2.8819
X5.0984Y-2.9252
X5.122Y-2.315
X5.122Y-2.5354
X5.122Y-2.748
X5.126Y-1.0787
X5.126Y-1.3071
X5.126Y-1.5787
X5.126Y-2.126
X5.1299Y-1.8543
X5.1417Y-2.8386
X5.1417Y-2.8819
X5.1417Y-2.9252
X5.185Y-2.8386
X5.185Y-2.8819
X5.185Y-2.9252
X5.185Y-3.061
X5.185Y-3.1004
X5.248Y-3.2008
X5.248Y-3.2441
X5.248Y-3.2874
X5.2913Y-3.2008
X5.2913Y-3.2441
X5.2913Y-3.2874
X5.2953Y-1.6142
X5.2953Y-1.6535
X5.3346Y-1.6142
X5.3346Y-1.6535
X5.3346Y-3.2008
X5.3346Y-3.2441
X5.3346Y-3.2874
X5.374Y-1.6142
X5.374Y-1.6535
X5.374Y-3.2008
X5.374Y-3.2441
X5.374Y-3.2874
X5.5118Y-1.6142
X5.5118Y-1.6535
X5.5413Y-3.181
X5.5472Y-1.0787
X5.5512Y-1.6142
X5.5512Y-1.6535
X5.5906Y-1.6142
X5.5906Y-1.6535
X5.5984Y-2.9961
X5.7283Y-1.6142
X5.7283Y-1.6535
X5.7677Y-1.6142
X5.7677Y-1.6535
X5.8071Y-1.6142
X5.8071Y-1.6535
X5.9213Y-2.8346
X5.9213Y-2.8819
X5.9213Y-2.9291
X5.9528Y-2.7598
X5.9567Y-2.1417
X5.9567Y-2.3386
X5.9567Y-2.5591
X5.9606Y-1.5709
X5.9606Y-1.8504
X5.9646Y-1.0787
X5.9646Y-1.2953
X5.9685Y-2.8346
X5.9685Y-2.8819
X5.9685Y-2.9291
X6.0679Y-2.4291
X6.0709Y-1.9764
X6.0709Y-2.0787
X6.0709Y-2.185
X6.0876Y-2.4648
X6.1Y-1.2
X6.1Y-1.55
X6.1Y-1.85
X6.1Y-3.1
X6.1Y-3.25
X6.1053Y-2.502
X6.2Y-3.4
X6.3Y-3.4
X6.3Y-3.5
X6.3Y-3.85
X6.35Y-1.05
X6.4Y-3.85
X6.45Y-1.8
X6.45Y-2.2
X6.45Y-2.55
X6.45Y-2.9
X6.5Y-3.85
X6.6Y-3.85
X6.7Y-3.55
X6.8Y-1.8
X6.8Y-2.2
X6.8Y-2.55
X6.8Y-2.9
X6.8954Y-3.125
X6.9Y-1.05
X6.9Y-3.525
X6.9465Y-3.725
X7.0722Y-3.5465
X7.1Y-3.575
X7.1059Y-3.3405
X7.1181Y-1.2205
X7.1181Y-1.315
X7.1181Y-1.4055
X7.1299Y-1.7008
X7.1299Y-1.7992
X7.1299Y-1.9055
X7.1327Y-2.4
X7.1407Y-2.315
X7.15Y-2.225
X7.2035Y-3.725
X7.2252Y-2.9008
X7.6Y-1.05
X7.7Y-1.05
X7.7Y-1.15
X7.7Y-1.25
X7.7Y-1.35
X7.7Y-1.6
X7.7Y-1.7
X7.7Y-1.8
X7.7Y-1.9
X7.7Y-2.1
X7.7Y-2.2
X7.7Y-2.3
X7.7Y-2.4
X7.7Y-2.95
X7.7Y-3.2
T3
X6.5354Y-2.9528
X6.6181Y-2.6811
T4
X6.2667Y-1.14
X6.2667Y-1.24
X6.2667Y-1.34
X6.2667Y-1.44
X6.2667Y-1.54
X6.2667Y-1.64
X6.2667Y-1.74
X6.2667Y-1.84
X6.2667Y-1.94
X6.2667Y-2.04
X6.2667Y-2.14
X6.2667Y-2.24
X6.2667Y-2.34
X6.2667Y-2.44
X6.2667Y-2.54
X6.2667Y-2.64
X6.2667Y-2.74
X6.2667Y-2.84
X6.2667Y-2.94
X6.2667Y-3.04
X6.9667Y-1.14
X6.9667Y-1.24
X6.9667Y-1.34
X6.9667Y-1.44
X6.9667Y-1.54
X6.9667Y-1.64
X6.9667Y-1.74
X6.9667Y-1.84
X6.9667Y-1.94
X6.9667Y-2.04
X6.9667Y-2.14
X6.9667Y-2.24
X6.9667Y-2.34
X6.9667Y-2.44
X6.9667Y-2.54
X6.9667Y-2.64
X6.9667Y-2.74
X6.9667Y-2.84
X6.9667Y-2.94
X6.9667Y-3.04
T5
X6.78Y-3.9292
X6.88Y-3.9292
X6.98Y-3.9292
X7.08Y-3.9292
X7.18Y-3.9292
X7.28Y-3.9292
X7.38Y-3.9292
X7.48Y-3.9292
X7.58Y-3.9292
X7.68Y-3.9292
T7
X7.3656Y-1.0967
X7.3656Y-1.1967
X7.3656Y-1.2967
X7.3656Y-1.3967
X7.3656Y-1.5789
X7.3656Y-1.6789
X7.3656Y-1.7789
X7.3656Y-1.8789
X7.3656Y-2.0612
X7.3656Y-2.1612
X7.3656Y-2.2612
X7.3656Y-2.3612
T8
X3.7769Y-3.1003
X3.8686Y-3.1003
X4.643Y-3.1003
X4.7348Y-3.1003
X5.5092Y-3.1003
X5.6009Y-3.1003
T9
X3.5985Y-1.4562
X3.6075Y-3.6126
X3.815Y-1.4562
X3.824Y-3.6126
X4.0315Y-1.4562
X4.0406Y-3.6126
X4.4685Y-1.4562
X4.5917Y-3.6126
X4.685Y-1.4562
X4.8083Y-3.6126
X4.9015Y-1.4562
X5.0248Y-3.6126
X5.3385Y-1.4562
X5.555Y-1.4562
X5.5748Y-3.6126
X5.7715Y-1.4562
X5.7913Y-3.6126
X6.0079Y-3.6126
T6
G00X3.4784Y-1.2417
M15
G01X3.4784Y-1.1983
M16
G05
G00X3.4874Y-3.8272
M15
G01X3.4874Y-3.8705
M16
G05
G00X4.1516Y-1.2417
M15
G01X4.1516Y-1.1983
M16
G05
G00X4.1606Y-3.8272
M15
G01X4.1606Y-3.8705
M16
G05
G00X4.3484Y-1.2417
M15
G01X4.3484Y-1.1983
M16
G05
G00X4.4717Y-3.8272
M15
G01X4.4717Y-3.8705
M16
G05
G00X5.0216Y-1.2417
M15
G01X5.0216Y-1.1983
M16
G05
G00X5.1449Y-3.8272
M15
G01X5.1449Y-3.8705
M16
G05
G00X5.2184Y-1.2417
M15
G01X5.2184Y-1.1983
M16
G05
G00X5.4547Y-3.8272
M15
G01X5.4547Y-3.8705
M16
G05
G00X5.8916Y-1.2417
M15
G01X5.8916Y-1.1983
M16
G05
G00X6.128Y-3.8272
M15
G01X6.128Y-3.8705
M16
G05
M30
