%TF.GenerationSoftware,KiCad,Pcbnew,8.0.1*%
%TF.CreationDate,2024-04-06T11:37:36-04:00*%
%TF.ProjectId,template-card with ESCs,74656d70-6c61-4746-952d-636172642077,rev?*%
%TF.SameCoordinates,Original*%
%TF.FileFunction,Legend,Bot*%
%TF.FilePolarity,Positive*%
%FSLAX46Y46*%
G04 Gerber Fmt 4.6, Leading zero omitted, Abs format (unit mm)*
G04 Created by KiCad (PCBNEW 8.0.1) date 2024-04-06 11:37:36*
%MOMM*%
%LPD*%
G01*
G04 APERTURE LIST*
%ADD10C,0.150000*%
%ADD11C,0.127000*%
%ADD12C,0.100000*%
G04 APERTURE END LIST*
D10*
X129109523Y-75962295D02*
X129109523Y-76609914D01*
X129109523Y-76609914D02*
X129071428Y-76686104D01*
X129071428Y-76686104D02*
X129033333Y-76724200D01*
X129033333Y-76724200D02*
X128957142Y-76762295D01*
X128957142Y-76762295D02*
X128804761Y-76762295D01*
X128804761Y-76762295D02*
X128728571Y-76724200D01*
X128728571Y-76724200D02*
X128690476Y-76686104D01*
X128690476Y-76686104D02*
X128652380Y-76609914D01*
X128652380Y-76609914D02*
X128652380Y-75962295D01*
X127928571Y-76228961D02*
X127928571Y-76762295D01*
X128119047Y-75924200D02*
X128309524Y-76495628D01*
X128309524Y-76495628D02*
X127814285Y-76495628D01*
X151609523Y-75762295D02*
X151609523Y-76409914D01*
X151609523Y-76409914D02*
X151571428Y-76486104D01*
X151571428Y-76486104D02*
X151533333Y-76524200D01*
X151533333Y-76524200D02*
X151457142Y-76562295D01*
X151457142Y-76562295D02*
X151304761Y-76562295D01*
X151304761Y-76562295D02*
X151228571Y-76524200D01*
X151228571Y-76524200D02*
X151190476Y-76486104D01*
X151190476Y-76486104D02*
X151152380Y-76409914D01*
X151152380Y-76409914D02*
X151152380Y-75762295D01*
X150428571Y-75762295D02*
X150580952Y-75762295D01*
X150580952Y-75762295D02*
X150657143Y-75800390D01*
X150657143Y-75800390D02*
X150695238Y-75838485D01*
X150695238Y-75838485D02*
X150771428Y-75952771D01*
X150771428Y-75952771D02*
X150809524Y-76105152D01*
X150809524Y-76105152D02*
X150809524Y-76409914D01*
X150809524Y-76409914D02*
X150771428Y-76486104D01*
X150771428Y-76486104D02*
X150733333Y-76524200D01*
X150733333Y-76524200D02*
X150657143Y-76562295D01*
X150657143Y-76562295D02*
X150504762Y-76562295D01*
X150504762Y-76562295D02*
X150428571Y-76524200D01*
X150428571Y-76524200D02*
X150390476Y-76486104D01*
X150390476Y-76486104D02*
X150352381Y-76409914D01*
X150352381Y-76409914D02*
X150352381Y-76219438D01*
X150352381Y-76219438D02*
X150390476Y-76143247D01*
X150390476Y-76143247D02*
X150428571Y-76105152D01*
X150428571Y-76105152D02*
X150504762Y-76067057D01*
X150504762Y-76067057D02*
X150657143Y-76067057D01*
X150657143Y-76067057D02*
X150733333Y-76105152D01*
X150733333Y-76105152D02*
X150771428Y-76143247D01*
X150771428Y-76143247D02*
X150809524Y-76219438D01*
X107109523Y-75462295D02*
X107109523Y-76109914D01*
X107109523Y-76109914D02*
X107071428Y-76186104D01*
X107071428Y-76186104D02*
X107033333Y-76224200D01*
X107033333Y-76224200D02*
X106957142Y-76262295D01*
X106957142Y-76262295D02*
X106804761Y-76262295D01*
X106804761Y-76262295D02*
X106728571Y-76224200D01*
X106728571Y-76224200D02*
X106690476Y-76186104D01*
X106690476Y-76186104D02*
X106652380Y-76109914D01*
X106652380Y-76109914D02*
X106652380Y-75462295D01*
X106309524Y-75538485D02*
X106271428Y-75500390D01*
X106271428Y-75500390D02*
X106195238Y-75462295D01*
X106195238Y-75462295D02*
X106004762Y-75462295D01*
X106004762Y-75462295D02*
X105928571Y-75500390D01*
X105928571Y-75500390D02*
X105890476Y-75538485D01*
X105890476Y-75538485D02*
X105852381Y-75614676D01*
X105852381Y-75614676D02*
X105852381Y-75690866D01*
X105852381Y-75690866D02*
X105890476Y-75805152D01*
X105890476Y-75805152D02*
X106347619Y-76262295D01*
X106347619Y-76262295D02*
X105852381Y-76262295D01*
D11*
%TO.C,U4*%
X110693250Y-47146750D02*
X110693250Y-79146750D01*
X111413250Y-44666750D02*
X111413250Y-47146750D01*
X111413250Y-47146750D02*
X110693250Y-47146750D01*
D12*
X114793250Y-77646750D02*
X114793250Y-79146750D01*
D11*
X114793250Y-79146750D02*
X116493250Y-79146750D01*
X115653250Y-47146750D02*
X115653250Y-44666750D01*
X116963250Y-44666750D02*
X116963250Y-47146750D01*
X116963250Y-47146750D02*
X115653250Y-47146750D01*
X121213250Y-47146750D02*
X121213250Y-44666750D01*
X121693250Y-79146750D02*
X123293250Y-79146750D01*
X122523250Y-44666750D02*
X122523250Y-47146750D01*
X122523250Y-47146750D02*
X121213250Y-47146750D01*
D12*
X123293250Y-77646750D02*
X123293250Y-79146750D01*
D11*
X126773250Y-47146750D02*
X126773250Y-44666750D01*
X127493250Y-47146750D02*
X126773250Y-47146750D01*
X127493250Y-79146750D02*
X127493250Y-47146750D01*
D12*
X121693249Y-79146749D02*
G75*
G02*
X116493251Y-79146749I-2599999J3305555D01*
G01*
D11*
%TO.C,U6*%
X132693250Y-47146750D02*
X132693250Y-79146750D01*
X133413250Y-44666750D02*
X133413250Y-47146750D01*
X133413250Y-47146750D02*
X132693250Y-47146750D01*
D12*
X136793250Y-77646750D02*
X136793250Y-79146750D01*
D11*
X136793250Y-79146750D02*
X138493250Y-79146750D01*
X137653250Y-47146750D02*
X137653250Y-44666750D01*
X138963250Y-44666750D02*
X138963250Y-47146750D01*
X138963250Y-47146750D02*
X137653250Y-47146750D01*
X143213250Y-47146750D02*
X143213250Y-44666750D01*
X143693250Y-79146750D02*
X145293250Y-79146750D01*
X144523250Y-44666750D02*
X144523250Y-47146750D01*
X144523250Y-47146750D02*
X143213250Y-47146750D01*
D12*
X145293250Y-77646750D02*
X145293250Y-79146750D01*
D11*
X148773250Y-47146750D02*
X148773250Y-44666750D01*
X149493250Y-47146750D02*
X148773250Y-47146750D01*
X149493250Y-79146750D02*
X149493250Y-47146750D01*
D12*
X143693249Y-79146749D02*
G75*
G02*
X138493251Y-79146749I-2599999J3305555D01*
G01*
D11*
%TO.C,U2*%
X88693250Y-47146750D02*
X88693250Y-79146750D01*
X89413250Y-44666750D02*
X89413250Y-47146750D01*
X89413250Y-47146750D02*
X88693250Y-47146750D01*
D12*
X92793250Y-77646750D02*
X92793250Y-79146750D01*
D11*
X92793250Y-79146750D02*
X94493250Y-79146750D01*
X93653250Y-47146750D02*
X93653250Y-44666750D01*
X94963250Y-44666750D02*
X94963250Y-47146750D01*
X94963250Y-47146750D02*
X93653250Y-47146750D01*
X99213250Y-47146750D02*
X99213250Y-44666750D01*
X99693250Y-79146750D02*
X101293250Y-79146750D01*
X100523250Y-44666750D02*
X100523250Y-47146750D01*
X100523250Y-47146750D02*
X99213250Y-47146750D01*
D12*
X101293250Y-77646750D02*
X101293250Y-79146750D01*
D11*
X104773250Y-47146750D02*
X104773250Y-44666750D01*
X105493250Y-47146750D02*
X104773250Y-47146750D01*
X105493250Y-79146750D02*
X105493250Y-47146750D01*
D12*
X99693249Y-79146749D02*
G75*
G02*
X94493251Y-79146749I-2599999J3305555D01*
G01*
%TD*%
M02*
