%TF.GenerationSoftware,KiCad,Pcbnew,8.0.1*%
%TF.CreationDate,2024-04-06T13:43:37-04:00*%
%TF.ProjectId,template-card with ESCs,74656d70-6c61-4746-952d-636172642077,rev?*%
%TF.SameCoordinates,Original*%
%TF.FileFunction,Copper,L1,Top*%
%TF.FilePolarity,Positive*%
%FSLAX46Y46*%
G04 Gerber Fmt 4.6, Leading zero omitted, Abs format (unit mm)*
G04 Created by KiCad (PCBNEW 8.0.1) date 2024-04-06 13:43:37*
%MOMM*%
%LPD*%
G01*
G04 APERTURE LIST*
G04 Aperture macros list*
%AMFreePoly0*
4,1,6,1.000000,0.000000,0.500000,-0.750000,-0.500000,-0.750000,-0.500000,0.750000,0.500000,0.750000,1.000000,0.000000,1.000000,0.000000,$1*%
%AMFreePoly1*
4,1,7,0.700000,0.000000,1.200000,-0.750000,-1.200000,-0.750000,-0.700000,0.000000,-1.200000,0.750000,1.200000,0.750000,0.700000,0.000000,0.700000,0.000000,$1*%
G04 Aperture macros list end*
%TA.AperFunction,SMDPad,CuDef*%
%ADD10R,1.500000X1.000000*%
%TD*%
%TA.AperFunction,ComponentPad*%
%ADD11O,2.800000X3.900000*%
%TD*%
%TA.AperFunction,ComponentPad*%
%ADD12C,4.750000*%
%TD*%
%TA.AperFunction,ComponentPad*%
%ADD13R,4.750000X4.750000*%
%TD*%
%TA.AperFunction,SMDPad,CuDef*%
%ADD14FreePoly0,0.000000*%
%TD*%
%TA.AperFunction,SMDPad,CuDef*%
%ADD15FreePoly1,0.000000*%
%TD*%
%TA.AperFunction,SMDPad,CuDef*%
%ADD16FreePoly0,180.000000*%
%TD*%
%TA.AperFunction,ComponentPad*%
%ADD17R,1.700000X1.700000*%
%TD*%
%TA.AperFunction,ComponentPad*%
%ADD18O,1.700000X1.700000*%
%TD*%
%TA.AperFunction,SMDPad,CuDef*%
%ADD19R,2.540000X1.524000*%
%TD*%
%TA.AperFunction,ComponentPad*%
%ADD20C,1.524000*%
%TD*%
%TA.AperFunction,ComponentPad*%
%ADD21O,2.800000X3.800000*%
%TD*%
%TA.AperFunction,ComponentPad*%
%ADD22C,1.780000*%
%TD*%
%TA.AperFunction,SMDPad,CuDef*%
%ADD23R,1.780000X7.700000*%
%TD*%
%TA.AperFunction,ComponentPad*%
%ADD24C,2.000000*%
%TD*%
%TA.AperFunction,ViaPad*%
%ADD25C,0.800000*%
%TD*%
%TA.AperFunction,ViaPad*%
%ADD26C,1.524000*%
%TD*%
%TA.AperFunction,ViaPad*%
%ADD27C,0.600000*%
%TD*%
%TA.AperFunction,Conductor*%
%ADD28C,0.750000*%
%TD*%
%TA.AperFunction,Conductor*%
%ADD29C,0.250000*%
%TD*%
G04 APERTURE END LIST*
D10*
%TO.P,JP2,1,A*%
%TO.N,Net-(J1-RX2{slash}SCL2)*%
X193040000Y-93980000D03*
%TO.P,JP2,2,B*%
%TO.N,SCL0*%
X193040000Y-92680000D03*
%TD*%
D11*
%TO.P,J7,*%
%TO.N,*%
X105451000Y-30988000D03*
X88351000Y-30988000D03*
D12*
%TO.P,J7,1,A*%
%TO.N,Net-(J7-A)*%
X102401000Y-36988000D03*
%TO.P,J7,2,B*%
%TO.N,Net-(J7-B)*%
X96901000Y-36988000D03*
D13*
%TO.P,J7,3,C*%
%TO.N,Net-(J7-C)*%
X91401000Y-36988000D03*
%TD*%
D14*
%TO.P,JP5,1,A*%
%TO.N,SDA0*%
X169990000Y-92710000D03*
D15*
%TO.P,JP5,2,C*%
%TO.N,TX0{slash}SDA0*%
X171990000Y-92710000D03*
D16*
%TO.P,JP5,3,B*%
%TO.N,TX0*%
X173990000Y-92710000D03*
%TD*%
D17*
%TO.P,J3,1,Pin_1*%
%TO.N,sGND*%
X187085000Y-27855000D03*
D18*
%TO.P,J3,2,Pin_2*%
%TO.N,Net-(J3-Pin_2)*%
X187085000Y-30395000D03*
%TO.P,J3,3,Pin_3*%
%TO.N,Net-(J3-Pin_3)*%
X187085000Y-32935000D03*
%TO.P,J3,4,Pin_4*%
%TO.N,Net-(J3-Pin_4)*%
X187085000Y-35475000D03*
%TD*%
D19*
%TO.P,U7,1,GP0*%
%TO.N,TX0*%
X157905000Y-28956000D03*
D20*
X159175000Y-28956000D03*
D19*
%TO.P,U7,2,GP1*%
%TO.N,RX0*%
X157905000Y-31496000D03*
D20*
X159175000Y-31496000D03*
D19*
%TO.P,U7,3,GND*%
%TO.N,sGND*%
X157905000Y-34036000D03*
D20*
X159175000Y-34036000D03*
D19*
%TO.P,U7,4,GP2*%
%TO.N,unconnected-(U7-GP2-Pad4)*%
X157905000Y-36576000D03*
D20*
%TO.N,unconnected-(U7-GP2-Pad4)_0*%
X159175000Y-36576000D03*
D19*
%TO.P,U7,5,GP3*%
%TO.N,Net-(J3-Pin_4)*%
X157905000Y-39116000D03*
D20*
X159175000Y-39116000D03*
D19*
%TO.P,U7,6,GP4*%
%TO.N,Net-(J3-Pin_3)*%
X157905000Y-41656000D03*
D20*
X159175000Y-41656000D03*
D19*
%TO.P,U7,7,GP5*%
%TO.N,Net-(J3-Pin_2)*%
X157905000Y-44196000D03*
D20*
X159175000Y-44196000D03*
D19*
%TO.P,U7,8,GND*%
%TO.N,sGND*%
X157905000Y-46736000D03*
D20*
X159175000Y-46736000D03*
D19*
%TO.P,U7,9,GP6*%
%TO.N,/sGP6*%
X157905000Y-49276000D03*
D20*
X159175000Y-49276000D03*
D19*
%TO.P,U7,10,GP7*%
%TO.N,/sGP7*%
X157905000Y-51816000D03*
D20*
X159175000Y-51816000D03*
D19*
%TO.P,U7,11,GP8*%
%TO.N,/sGP8*%
X157905000Y-54356000D03*
D20*
X159175000Y-54356000D03*
D19*
%TO.P,U7,12,GP9*%
%TO.N,unconnected-(U7-GP9-Pad12)*%
X157905000Y-56896000D03*
D20*
%TO.N,unconnected-(U7-GP9-Pad12)_0*%
X159175000Y-56896000D03*
D19*
%TO.P,U7,13,GND*%
%TO.N,sGND*%
X157905000Y-59436000D03*
D20*
X159175000Y-59436000D03*
D19*
%TO.P,U7,14,GP10*%
%TO.N,unconnected-(U7-GP10-Pad14)*%
X157905000Y-61976000D03*
D20*
%TO.N,unconnected-(U7-GP10-Pad14)_0*%
X159175000Y-61976000D03*
D19*
%TO.P,U7,15,GP11*%
%TO.N,unconnected-(U7-GP11-Pad15)*%
X157905000Y-64516000D03*
D20*
%TO.N,unconnected-(U7-GP11-Pad15)_0*%
X159175000Y-64516000D03*
D19*
%TO.P,U7,16,GP12*%
%TO.N,unconnected-(U7-GP12-Pad16)*%
X157905000Y-67056000D03*
D20*
%TO.N,unconnected-(U7-GP12-Pad16)_0*%
X159175000Y-67056000D03*
D19*
%TO.P,U7,17,GP13*%
%TO.N,unconnected-(U7-GP13-Pad17)_0*%
X157905000Y-69596000D03*
D20*
%TO.N,unconnected-(U7-GP13-Pad17)*%
X159175000Y-69596000D03*
D19*
%TO.P,U7,18,GND*%
%TO.N,GND*%
X157905000Y-72136000D03*
D20*
X159175000Y-72136000D03*
D19*
%TO.P,U7,19,GP14*%
%TO.N,unconnected-(U7-GP14-Pad19)*%
X157905000Y-74676000D03*
D20*
%TO.N,unconnected-(U7-GP14-Pad19)_0*%
X159175000Y-74676000D03*
D19*
%TO.P,U7,20,GP15*%
%TO.N,unconnected-(U7-GP15-Pad20)_0*%
X157905000Y-77216000D03*
D20*
%TO.N,unconnected-(U7-GP15-Pad20)*%
X159175000Y-77216000D03*
%TO.P,U7,21,GP16*%
%TO.N,Net-(J5-Pin_2)*%
X176955000Y-77216000D03*
D19*
X178225000Y-77216000D03*
D20*
%TO.P,U7,22,GP17*%
%TO.N,Net-(J5-Pin_3)*%
X176955000Y-74676000D03*
D19*
X178225000Y-74676000D03*
D20*
%TO.P,U7,23,GND*%
%TO.N,sGND*%
X176955000Y-72136000D03*
D19*
X178225000Y-72136000D03*
D20*
%TO.P,U7,24,GP18*%
%TO.N,Net-(J5-Pin_4)*%
X176955000Y-69596000D03*
D19*
X178225000Y-69596000D03*
D20*
%TO.P,U7,25,GP19*%
%TO.N,unconnected-(U7-GP19-Pad25)_0*%
X176955000Y-67056000D03*
D19*
%TO.N,unconnected-(U7-GP19-Pad25)*%
X178225000Y-67056000D03*
D20*
%TO.P,U7,26,GP20*%
%TO.N,SDA0*%
X176955000Y-64516000D03*
D19*
X178225000Y-64516000D03*
D20*
%TO.P,U7,27,GP21*%
%TO.N,SCL0*%
X176955000Y-61976000D03*
D19*
X178225000Y-61976000D03*
D20*
%TO.P,U7,28,GND*%
%TO.N,sGND*%
X176955000Y-59436000D03*
D19*
X178225000Y-59436000D03*
D20*
%TO.P,U7,29,GP22*%
%TO.N,unconnected-(U7-GP22-Pad29)*%
X176955000Y-56896000D03*
D19*
%TO.N,unconnected-(U7-GP22-Pad29)_0*%
X178225000Y-56896000D03*
D20*
%TO.P,U7,30,RUN*%
%TO.N,unconnected-(U7-RUN-Pad30)_0*%
X176955000Y-54356000D03*
D19*
%TO.N,unconnected-(U7-RUN-Pad30)*%
X178225000Y-54356000D03*
D20*
%TO.P,U7,31,GP26*%
%TO.N,SDA0*%
X176955000Y-51816000D03*
D19*
X178225000Y-51816000D03*
D20*
%TO.P,U7,32,GP27*%
%TO.N,SCL0*%
X176955000Y-49276000D03*
D19*
X178225000Y-49276000D03*
D20*
%TO.P,U7,33,GND*%
%TO.N,sGND*%
X176955000Y-46736000D03*
D19*
X178225000Y-46736000D03*
D20*
%TO.P,U7,34,GP28*%
%TO.N,unconnected-(U7-GP28-Pad34)_0*%
X176955000Y-44196000D03*
D19*
%TO.N,unconnected-(U7-GP28-Pad34)*%
X178225000Y-44196000D03*
D20*
%TO.P,U7,35,ADC_VREF*%
%TO.N,unconnected-(U7-ADC_VREF-Pad35)*%
X176955000Y-41656000D03*
D19*
%TO.N,unconnected-(U7-ADC_VREF-Pad35)_0*%
X178225000Y-41656000D03*
D20*
%TO.P,U7,36,3V3_Out*%
%TO.N,unconnected-(U7-3V3_Out-Pad36)_0*%
X176955000Y-39116000D03*
D19*
%TO.N,unconnected-(U7-3V3_Out-Pad36)*%
X178225000Y-39116000D03*
D20*
%TO.P,U7,37,3V3_EN*%
%TO.N,unconnected-(U7-3V3_EN-Pad37)*%
X176955000Y-36576000D03*
D19*
%TO.N,unconnected-(U7-3V3_EN-Pad37)_0*%
X178225000Y-36576000D03*
D20*
%TO.P,U7,38,GND*%
%TO.N,sGND*%
X176955000Y-34036000D03*
D19*
X178225000Y-34036000D03*
D20*
%TO.P,U7,39,VSYS*%
%TO.N,/5v*%
X176955000Y-31496000D03*
D19*
X178225000Y-31496000D03*
D20*
%TO.P,U7,40,VBUS*%
%TO.N,unconnected-(U7-VBUS-Pad40)_0*%
X176955000Y-28956000D03*
D19*
%TO.N,unconnected-(U7-VBUS-Pad40)*%
X178225000Y-28956000D03*
%TD*%
D14*
%TO.P,JP7,1,A*%
%TO.N,SDA0*%
X180245000Y-92710000D03*
D15*
%TO.P,JP7,2,C*%
%TO.N,TX1{slash}SDA1*%
X182245000Y-92710000D03*
D16*
%TO.P,JP7,3,B*%
%TO.N,TX0*%
X184245000Y-92710000D03*
%TD*%
D14*
%TO.P,JP6,1,A*%
%TO.N,SCL0*%
X175165000Y-87630000D03*
D15*
%TO.P,JP6,2,C*%
%TO.N,RX0{slash}SCL0*%
X177165000Y-87630000D03*
D16*
%TO.P,JP6,3,B*%
%TO.N,RX0*%
X179165000Y-87630000D03*
%TD*%
D12*
%TO.P,J2,1,48V*%
%TO.N,unconnected-(J2A-48V-Pad1)*%
X91630000Y-91760000D03*
%TO.P,J2,2,GND*%
%TO.N,GND*%
X97130000Y-91760000D03*
D13*
%TO.P,J2,3,GND*%
X102630000Y-91760000D03*
D12*
%TO.P,J2,4,12V*%
%TO.N,/12v1*%
X116630000Y-91760000D03*
%TO.P,J2,5,12V*%
%TO.N,/12v2*%
X122130000Y-91760000D03*
D13*
%TO.P,J2,6,12V*%
%TO.N,/12v3*%
X127630000Y-91760000D03*
D12*
%TO.P,J2,7,24V*%
%TO.N,unconnected-(J2C-24V-Pad7)*%
X141600000Y-91760000D03*
%TO.P,J2,8,GND*%
%TO.N,GND*%
X147100000Y-91760000D03*
D13*
%TO.P,J2,9,5V*%
%TO.N,/5v*%
X152600000Y-91760000D03*
D21*
%TO.P,J2,10,Mount*%
%TO.N,GND*%
X88580000Y-97760000D03*
X105680000Y-97760000D03*
X113580000Y-97760000D03*
X130680000Y-97760000D03*
X138550000Y-97760000D03*
X155650000Y-97760000D03*
%TD*%
D22*
%TO.P,J1,1,sGND*%
%TO.N,sGND*%
X172212000Y-99802000D03*
D23*
X172212000Y-103632000D03*
D22*
%TO.P,J1,2,TX0/SDA0*%
%TO.N,TX0{slash}SDA0*%
X174752000Y-99802000D03*
D23*
X174752000Y-103632000D03*
D22*
%TO.P,J1,3,RX0/SCL0*%
%TO.N,RX0{slash}SCL0*%
X177292000Y-99802000D03*
D23*
X177292000Y-103632000D03*
D22*
%TO.P,J1,4,sGND*%
%TO.N,sGND*%
X179832000Y-99802000D03*
D23*
X179832000Y-103632000D03*
D22*
%TO.P,J1,5,TX1/SDA1*%
%TO.N,TX1{slash}SDA1*%
X182372000Y-99802000D03*
D23*
X182372000Y-103632000D03*
D22*
%TO.P,J1,6,RX1/SCL1*%
%TO.N,RX1{slash}SCL1*%
X184912000Y-99802000D03*
D23*
X184912000Y-103632000D03*
D22*
%TO.P,J1,7,sGND*%
%TO.N,sGND*%
X187452000Y-99802000D03*
D23*
X187452000Y-103632000D03*
D22*
%TO.P,J1,8,TX2/SDA2*%
%TO.N,Net-(J1-TX2{slash}SDA2)*%
X189992000Y-99802000D03*
D23*
X189992000Y-103632000D03*
D22*
%TO.P,J1,9,RX2/SCL2*%
%TO.N,Net-(J1-RX2{slash}SCL2)*%
X192532000Y-99802000D03*
D23*
X192532000Y-103632000D03*
D22*
%TO.P,J1,10,sGND*%
%TO.N,sGND*%
X195072000Y-99802000D03*
D23*
X195072000Y-103632000D03*
%TD*%
D10*
%TO.P,JP1,1,A*%
%TO.N,Net-(J1-TX2{slash}SDA2)*%
X190500000Y-93980000D03*
%TO.P,JP1,2,B*%
%TO.N,SDA0*%
X190500000Y-92680000D03*
%TD*%
D14*
%TO.P,JP8,1,A*%
%TO.N,SCL0*%
X185255000Y-87630000D03*
D15*
%TO.P,JP8,2,C*%
%TO.N,RX1{slash}SCL1*%
X187255000Y-87630000D03*
D16*
%TO.P,JP8,3,B*%
%TO.N,RX0*%
X189255000Y-87630000D03*
%TD*%
D17*
%TO.P,J5,1,Pin_1*%
%TO.N,sGND*%
X187085000Y-52355000D03*
D18*
%TO.P,J5,2,Pin_2*%
%TO.N,Net-(J5-Pin_2)*%
X187085000Y-54895000D03*
%TO.P,J5,3,Pin_3*%
%TO.N,Net-(J5-Pin_3)*%
X187085000Y-57435000D03*
%TO.P,J5,4,Pin_4*%
%TO.N,Net-(J5-Pin_4)*%
X187085000Y-59975000D03*
%TD*%
D17*
%TO.P,J4,1,Pin_1*%
%TO.N,sGND*%
X187085000Y-40105000D03*
D18*
%TO.P,J4,2,Pin_2*%
%TO.N,/sGP6*%
X187085000Y-42645000D03*
%TO.P,J4,3,Pin_3*%
%TO.N,/sGP7*%
X187085000Y-45185000D03*
%TO.P,J4,4,Pin_4*%
%TO.N,/sGP8*%
X187085000Y-47725000D03*
%TD*%
D11*
%TO.P,J6,*%
%TO.N,*%
X127549000Y-30988000D03*
X110449000Y-30988000D03*
D12*
%TO.P,J6,1,A*%
%TO.N,Net-(J6-A)*%
X124499000Y-36988000D03*
%TO.P,J6,2,B*%
%TO.N,Net-(J6-B)*%
X118999000Y-36988000D03*
D13*
%TO.P,J6,3,C*%
%TO.N,Net-(J6-C)*%
X113499000Y-36988000D03*
%TD*%
D11*
%TO.P,J8,*%
%TO.N,*%
X149647000Y-30988000D03*
X132547000Y-30988000D03*
D12*
%TO.P,J8,1,A*%
%TO.N,Net-(J8-A)*%
X146597000Y-36988000D03*
%TO.P,J8,2,B*%
%TO.N,Net-(J8-B)*%
X141097000Y-36988000D03*
D13*
%TO.P,J8,3,C*%
%TO.N,Net-(J8-C)*%
X135597000Y-36988000D03*
%TD*%
D24*
%TO.P,U4,G,G*%
%TO.N,sGND*%
X120263250Y-78746750D03*
%TO.P,U4,S,S*%
%TO.N,/sGP7*%
X117933250Y-78746750D03*
%TD*%
%TO.P,U6,G,G*%
%TO.N,sGND*%
X142263250Y-78746750D03*
%TO.P,U6,S,S*%
%TO.N,/sGP6*%
X139933250Y-78746750D03*
%TD*%
%TO.P,U2,G,G*%
%TO.N,sGND*%
X98263250Y-78746750D03*
%TO.P,U2,S,S*%
%TO.N,/sGP8*%
X95933250Y-78746750D03*
%TD*%
D25*
%TO.N,/12v1*%
X89000000Y-87900000D03*
X92100000Y-81300000D03*
X90700000Y-81300000D03*
X86600000Y-76300000D03*
X92100000Y-87900000D03*
X86600000Y-78600000D03*
X93300000Y-86700000D03*
X87700000Y-78600000D03*
X90700000Y-82600000D03*
X86600000Y-77500000D03*
X86600000Y-85500000D03*
X87700000Y-77500000D03*
X89300000Y-81300000D03*
X87700000Y-76300000D03*
X86600000Y-87900000D03*
X89300000Y-82600000D03*
X87800000Y-87900000D03*
X87800000Y-86700000D03*
X86600000Y-86700000D03*
X93300000Y-87900000D03*
X92100000Y-82600000D03*
D26*
%TO.N,/5v*%
X166000000Y-75000000D03*
X168100000Y-68100000D03*
D25*
%TO.N,/12v2*%
X121400000Y-81400000D03*
X115400000Y-83200000D03*
X123700000Y-88200000D03*
X120500000Y-87000000D03*
X122700000Y-81400000D03*
X123900000Y-83800000D03*
X116700000Y-83200000D03*
X122100000Y-87000000D03*
X114100000Y-83200000D03*
X112800000Y-81800000D03*
X120500000Y-88200000D03*
X123700000Y-87000000D03*
X122700000Y-82600000D03*
X115400000Y-81800000D03*
X122100000Y-88200000D03*
X123900000Y-82600000D03*
X114100000Y-81800000D03*
%TO.N,/12v3*%
X136500000Y-83500000D03*
X133300000Y-83500000D03*
X135500000Y-81300000D03*
X134400000Y-81300000D03*
X136500000Y-82400000D03*
X135500000Y-83500000D03*
X133300000Y-81300000D03*
X133300000Y-82400000D03*
X134400000Y-82400000D03*
X136500000Y-81300000D03*
X131700000Y-77750000D03*
X134400000Y-83500000D03*
X135500000Y-82400000D03*
X131700000Y-78750000D03*
%TO.N,Net-(J3-Pin_2)*%
X180800000Y-31000000D03*
%TO.N,Net-(J3-Pin_3)*%
X180800000Y-33400000D03*
%TO.N,Net-(J3-Pin_4)*%
X180800000Y-35700000D03*
%TO.N,/sGP6*%
X181100000Y-43200000D03*
X140750000Y-80796750D03*
X154200000Y-50200000D03*
X155075000Y-63550463D03*
%TO.N,/sGP7*%
X154625000Y-62605462D03*
X154200000Y-52800000D03*
X181100000Y-45700000D03*
%TO.N,/sGP8*%
X154125000Y-61700000D03*
X181100000Y-48400000D03*
X154200000Y-55500000D03*
%TO.N,Net-(J5-Pin_2)*%
X181610000Y-56515000D03*
%TO.N,Net-(J5-Pin_3)*%
X181375000Y-58800000D03*
%TO.N,Net-(J5-Pin_4)*%
X181170000Y-60960000D03*
%TO.N,GND*%
X128300000Y-77600000D03*
X107600000Y-72300000D03*
X106500000Y-79500000D03*
X151600000Y-74400000D03*
X107600000Y-77300000D03*
X131700000Y-74300000D03*
X130600000Y-73200000D03*
X151300000Y-59400000D03*
X106500000Y-72300000D03*
X151600000Y-72000000D03*
X130600000Y-72100000D03*
X106500000Y-78400000D03*
X87200000Y-33800000D03*
X128400000Y-72100000D03*
X109800000Y-73400000D03*
X87100000Y-47200000D03*
X108700000Y-73400000D03*
X108200000Y-47100000D03*
X140900000Y-27400000D03*
X130100000Y-64400000D03*
X87300000Y-27100000D03*
X122300000Y-78900000D03*
X106500000Y-73400000D03*
X108100000Y-33500000D03*
X107600000Y-73400000D03*
X130100000Y-69800000D03*
X87000000Y-73700000D03*
X100600000Y-79500000D03*
X106500000Y-77300000D03*
X108100000Y-69700000D03*
X108700000Y-72300000D03*
X108000000Y-58800000D03*
X151200000Y-70100000D03*
X109800000Y-72300000D03*
X151600000Y-73200000D03*
X87000000Y-58400000D03*
X108100000Y-54200000D03*
X108700000Y-79500000D03*
X130600000Y-74300000D03*
X130200000Y-40100000D03*
X131700000Y-73200000D03*
X130100000Y-58800000D03*
X130300000Y-47100000D03*
X151400000Y-39900000D03*
X130200000Y-33200000D03*
X150400000Y-72000000D03*
X130200000Y-54000000D03*
X108700000Y-78400000D03*
X96800000Y-27200000D03*
X107600000Y-78400000D03*
X151500000Y-32900000D03*
X150400000Y-73200000D03*
X122300000Y-77600000D03*
X107600000Y-79500000D03*
X107600000Y-74500000D03*
X151300000Y-65000000D03*
X118900000Y-27400000D03*
X108100000Y-27200000D03*
X100600000Y-77300000D03*
X129500000Y-72100000D03*
X150400000Y-74400000D03*
X87000000Y-69100000D03*
X87000000Y-53400000D03*
X129500000Y-73200000D03*
X128400000Y-73200000D03*
X100600000Y-78400000D03*
X151300000Y-54400000D03*
X108000000Y-64100000D03*
X87000000Y-63500000D03*
X151400000Y-47000000D03*
X106500000Y-74500000D03*
X108700000Y-77300000D03*
X87200000Y-40600000D03*
X151500000Y-27400000D03*
X128400000Y-74300000D03*
X128300000Y-78900000D03*
X108700000Y-74500000D03*
X129500000Y-74300000D03*
X130200000Y-27400000D03*
X131700000Y-72100000D03*
X108100000Y-40300000D03*
%TO.N,TX0*%
X182970000Y-94615000D03*
X176440000Y-94615000D03*
%TO.N,SDA0*%
X170180000Y-90170000D03*
X180490153Y-84849847D03*
X180340000Y-90805000D03*
%TO.N,SCL0*%
X175260000Y-89535000D03*
X179632891Y-90080000D03*
D27*
X180515000Y-62500000D03*
D25*
X175143000Y-79375000D03*
%TO.N,sGND*%
X183520000Y-73680000D03*
X195580000Y-55880000D03*
X160020000Y-97790000D03*
X154940000Y-39370000D03*
X172720000Y-64770000D03*
X195580000Y-43180000D03*
X195580000Y-58420000D03*
X175260000Y-26670000D03*
X154940000Y-82550000D03*
X162560000Y-97790000D03*
X195580000Y-60960000D03*
X193040000Y-26670000D03*
X195580000Y-29210000D03*
X154940000Y-46990000D03*
X167640000Y-97790000D03*
X172720000Y-73660000D03*
X195580000Y-40640000D03*
X195580000Y-81280000D03*
X160020000Y-88900000D03*
X172720000Y-45720000D03*
X195580000Y-34290000D03*
X195580000Y-31750000D03*
X195580000Y-45720000D03*
X165100000Y-97790000D03*
X163830000Y-64770000D03*
X172720000Y-55880000D03*
X98800000Y-76000000D03*
X195580000Y-74930000D03*
X154940000Y-30480000D03*
X157480000Y-86360000D03*
X161290000Y-26670000D03*
X195580000Y-48260000D03*
X160020000Y-86360000D03*
X142200000Y-76100000D03*
X195580000Y-53340000D03*
X163830000Y-45720000D03*
X163830000Y-73660000D03*
X163830000Y-55880000D03*
X120200000Y-76100000D03*
X195580000Y-26670000D03*
X154940000Y-78740000D03*
%TO.N,Net-(J7-A)*%
X101500000Y-42000000D03*
X101500000Y-41000000D03*
X102500000Y-41000000D03*
X103500000Y-41000000D03*
X103500000Y-42000000D03*
X102500000Y-42000000D03*
%TO.N,Net-(J7-B)*%
X96000000Y-41000000D03*
X98000000Y-42000000D03*
X97000000Y-42000000D03*
X98000000Y-41000000D03*
X96000000Y-42000000D03*
X97000000Y-41000000D03*
%TO.N,Net-(J7-C)*%
X90500000Y-42000000D03*
X92500000Y-41000000D03*
X91500000Y-41000000D03*
X92500000Y-42000000D03*
X90500000Y-41000000D03*
X91500000Y-42000000D03*
%TO.N,Net-(J6-A)*%
X124500000Y-42000000D03*
X125500000Y-41000000D03*
X124500000Y-41000000D03*
X125500000Y-42000000D03*
X123500000Y-42000000D03*
X123500000Y-41000000D03*
%TO.N,Net-(J6-B)*%
X118000000Y-42000000D03*
X118000000Y-41000000D03*
X120000000Y-42000000D03*
X119000000Y-42000000D03*
X119000000Y-41000000D03*
X120000000Y-41000000D03*
%TO.N,Net-(J6-C)*%
X114500000Y-42000000D03*
X113500000Y-41000000D03*
X113500000Y-42000000D03*
X114500000Y-41000000D03*
X112500000Y-41000000D03*
X112500000Y-42000000D03*
%TO.N,Net-(J8-A)*%
X146500000Y-42000000D03*
X146500000Y-41000000D03*
X145500000Y-42000000D03*
X147500000Y-42000000D03*
X147500000Y-41000000D03*
X145500000Y-41000000D03*
%TO.N,Net-(J8-B)*%
X140000000Y-42000000D03*
X140000000Y-41000000D03*
X141000000Y-41000000D03*
X141000000Y-42000000D03*
X142000000Y-41000000D03*
X142000000Y-42000000D03*
%TO.N,Net-(J8-C)*%
X135500000Y-41000000D03*
X134500000Y-42000000D03*
X136500000Y-42000000D03*
X136500000Y-41000000D03*
X135500000Y-42000000D03*
X134500000Y-41000000D03*
%TD*%
D28*
%TO.N,/5v*%
X152600000Y-91760000D02*
X152600000Y-88400000D01*
X168100000Y-68100000D02*
X168100000Y-36100000D01*
X168100000Y-36100000D02*
X172704000Y-31496000D01*
X152600000Y-88400000D02*
X166000000Y-75000000D01*
X172704000Y-31496000D02*
X176955000Y-31496000D01*
D29*
%TO.N,Net-(J3-Pin_2)*%
X180800000Y-31000000D02*
X181405000Y-30395000D01*
X181405000Y-30395000D02*
X187085000Y-30395000D01*
%TO.N,Net-(J3-Pin_3)*%
X180800000Y-33400000D02*
X181265000Y-32935000D01*
X181265000Y-32935000D02*
X187085000Y-32935000D01*
%TO.N,Net-(J3-Pin_4)*%
X181025000Y-35475000D02*
X187085000Y-35475000D01*
X180800000Y-35700000D02*
X181025000Y-35475000D01*
%TO.N,/sGP6*%
X154800000Y-63825463D02*
X154800000Y-75109188D01*
X181100000Y-43200000D02*
X181655000Y-42645000D01*
X144500000Y-77500000D02*
X144850000Y-77150000D01*
X144500000Y-79020229D02*
X144500000Y-77500000D01*
X155124000Y-49276000D02*
X157905000Y-49276000D01*
X154200000Y-50200000D02*
X155124000Y-49276000D01*
X140750000Y-80796750D02*
X142723479Y-80796750D01*
X142723479Y-80796750D02*
X144500000Y-79020229D01*
X144850000Y-77150000D02*
X152759188Y-77150000D01*
X155075000Y-63550463D02*
X154800000Y-63825463D01*
X181655000Y-42645000D02*
X187085000Y-42645000D01*
X154800000Y-75109188D02*
X152759188Y-77150000D01*
%TO.N,/sGP7*%
X181615000Y-45185000D02*
X187085000Y-45185000D01*
X144000000Y-78883833D02*
X144000000Y-77200000D01*
X139384417Y-80071750D02*
X142812083Y-80071750D01*
X130500000Y-77000000D02*
X136312667Y-77000000D01*
X136312667Y-77000000D02*
X139384417Y-80071750D01*
X117933250Y-78746750D02*
X119258250Y-80071750D01*
X119258250Y-80071750D02*
X128428250Y-80071750D01*
X130000000Y-77500000D02*
X130500000Y-77000000D01*
X152572792Y-76700000D02*
X144500000Y-76700000D01*
X142812083Y-80071750D02*
X144000000Y-78883833D01*
X154350000Y-62880462D02*
X154350000Y-74922792D01*
X144000000Y-77200000D02*
X144500000Y-76700000D01*
X155184000Y-51816000D02*
X157905000Y-51816000D01*
X130000000Y-78500000D02*
X130000000Y-77500000D01*
X128428250Y-80071750D02*
X130000000Y-78500000D01*
X154350000Y-74922792D02*
X152572792Y-76700000D01*
X181100000Y-45700000D02*
X181615000Y-45185000D01*
X154200000Y-52800000D02*
X155184000Y-51816000D01*
X154625000Y-62605462D02*
X154350000Y-62880462D01*
%TO.N,/sGP8*%
X115727576Y-77363972D02*
X120186028Y-77363972D01*
X120186028Y-77363972D02*
X121000000Y-76550000D01*
X96500000Y-77000000D02*
X99036396Y-77000000D01*
X114863604Y-76500000D02*
X115727576Y-77363972D01*
X181775000Y-47725000D02*
X187085000Y-47725000D01*
X143300000Y-76250000D02*
X152386396Y-76250000D01*
X95933250Y-78746750D02*
X95933250Y-77566750D01*
X99036396Y-77000000D02*
X99036396Y-76963604D01*
X99036396Y-76963604D02*
X99500000Y-76500000D01*
X121000000Y-76550000D02*
X137413604Y-76550000D01*
X95933250Y-77566750D02*
X96500000Y-77000000D01*
X155344000Y-54356000D02*
X157905000Y-54356000D01*
X137413604Y-76550000D02*
X138229360Y-77365756D01*
X138229360Y-77365756D02*
X142184244Y-77365756D01*
X142184244Y-77365756D02*
X143300000Y-76250000D01*
X153900000Y-74736396D02*
X152386396Y-76250000D01*
X181100000Y-48400000D02*
X181775000Y-47725000D01*
X153900000Y-61925000D02*
X153900000Y-74736396D01*
X99500000Y-76500000D02*
X114863604Y-76500000D01*
X154125000Y-61700000D02*
X153900000Y-61925000D01*
X154200000Y-55500000D02*
X155344000Y-54356000D01*
%TO.N,Net-(J5-Pin_2)*%
X181610000Y-56515000D02*
X183230000Y-54895000D01*
X183230000Y-54895000D02*
X187085000Y-54895000D01*
%TO.N,Net-(J5-Pin_3)*%
X181375000Y-58800000D02*
X182740000Y-57435000D01*
X182740000Y-57435000D02*
X187085000Y-57435000D01*
%TO.N,Net-(J5-Pin_4)*%
X182155000Y-59975000D02*
X187085000Y-59975000D01*
X181170000Y-60960000D02*
X182155000Y-59975000D01*
%TO.N,TX0*%
X157905000Y-28956000D02*
X157397000Y-28956000D01*
X156310000Y-30043000D02*
X156310000Y-32583000D01*
X159812393Y-32769789D02*
X160840000Y-33797396D01*
X157397000Y-28956000D02*
X156310000Y-30043000D01*
X182970000Y-94615000D02*
X184245000Y-93340000D01*
X156496789Y-32769789D02*
X159812393Y-32769789D01*
X156310000Y-32583000D02*
X156496789Y-32769789D01*
X184245000Y-93340000D02*
X184245000Y-92710000D01*
X173990000Y-92710000D02*
X175895000Y-94615000D01*
X160840000Y-66861396D02*
X173990000Y-80011396D01*
X175895000Y-94615000D02*
X176440000Y-94615000D01*
X160840000Y-33797396D02*
X160840000Y-66861396D01*
X173990000Y-80011396D02*
X173990000Y-92710000D01*
%TO.N,RX0*%
X189255000Y-87020000D02*
X189255000Y-87630000D01*
X179070000Y-84455000D02*
X180340000Y-85725000D01*
X180340000Y-85725000D02*
X187960000Y-85725000D01*
X179165000Y-84550000D02*
X179165000Y-87630000D01*
X161290000Y-66675000D02*
X179070000Y-84455000D01*
X187960000Y-85725000D02*
X189255000Y-87020000D01*
X179070000Y-84455000D02*
X179165000Y-84550000D01*
X159175000Y-31496000D02*
X161290000Y-33611000D01*
X161290000Y-33611000D02*
X161290000Y-66675000D01*
%TO.N,SDA0*%
X176955000Y-64516000D02*
X175868000Y-65603000D01*
X178733000Y-51816000D02*
X179890000Y-52973000D01*
X175868000Y-65603000D02*
X175868000Y-80227694D01*
X175868000Y-80227694D02*
X180490153Y-84849847D01*
X180340000Y-90805000D02*
X180340000Y-92615000D01*
X179890000Y-52973000D02*
X179890000Y-65591396D01*
X179890000Y-65591396D02*
X178814604Y-64516000D01*
X179890000Y-65591396D02*
X192590000Y-78291396D01*
X192590000Y-78291396D02*
X192590000Y-88900000D01*
X178225000Y-51816000D02*
X178733000Y-51816000D01*
X180340000Y-92615000D02*
X180245000Y-92710000D01*
X190500000Y-90990000D02*
X190500000Y-92680000D01*
X178814604Y-64516000D02*
X176955000Y-64516000D01*
X169990000Y-90360000D02*
X169990000Y-92710000D01*
X192590000Y-88900000D02*
X190500000Y-90990000D01*
X170180000Y-90170000D02*
X169990000Y-90360000D01*
%TO.N,SCL0*%
X180340000Y-62500000D02*
X180515000Y-62500000D01*
X175143000Y-63788000D02*
X176955000Y-61976000D01*
X180340000Y-51391000D02*
X180340000Y-62500000D01*
X180340000Y-62500000D02*
X180340000Y-65405000D01*
X175143000Y-79375000D02*
X175143000Y-63788000D01*
X185255000Y-87630000D02*
X184180000Y-88705000D01*
X178225000Y-49276000D02*
X180340000Y-51391000D01*
X175260000Y-89535000D02*
X175260000Y-87725000D01*
X175260000Y-87725000D02*
X175165000Y-87630000D01*
X184180000Y-88705000D02*
X181007891Y-88705000D01*
X181007891Y-88705000D02*
X179632891Y-90080000D01*
X193040000Y-78105000D02*
X193040000Y-92680000D01*
X180340000Y-65405000D02*
X193040000Y-78105000D01*
%TO.N,sGND*%
X153400000Y-61200000D02*
X155164000Y-59436000D01*
X159175000Y-34036000D02*
X157126604Y-34036000D01*
X181976000Y-72136000D02*
X183520000Y-73680000D01*
X141384244Y-76915756D02*
X142200000Y-76100000D01*
X142500000Y-75800000D02*
X152200000Y-75800000D01*
X152200000Y-75800000D02*
X153400000Y-74600000D01*
X120200000Y-76100000D02*
X137600000Y-76100000D01*
X142200000Y-76100000D02*
X142500000Y-75800000D01*
X155164000Y-59436000D02*
X157905000Y-59436000D01*
X119386028Y-76913972D02*
X120200000Y-76100000D01*
X157126604Y-34036000D02*
X154940000Y-31849396D01*
X98800000Y-76000000D02*
X115000000Y-76000000D01*
X153400000Y-74600000D02*
X153400000Y-61200000D01*
X115913972Y-76913972D02*
X119386028Y-76913972D01*
X115000000Y-76000000D02*
X115913972Y-76913972D01*
X138415756Y-76915756D02*
X141384244Y-76915756D01*
X155194000Y-46736000D02*
X154940000Y-46990000D01*
X159175000Y-46736000D02*
X155194000Y-46736000D01*
X137600000Y-76100000D02*
X138415756Y-76915756D01*
X176955000Y-72136000D02*
X181976000Y-72136000D01*
X154940000Y-31849396D02*
X154940000Y-30480000D01*
%TO.N,TX0{slash}SDA0*%
X171990000Y-92710000D02*
X171990000Y-94520000D01*
X171990000Y-94520000D02*
X174760000Y-97290000D01*
X174800000Y-99960000D02*
X174760000Y-100000000D01*
X174760000Y-97290000D02*
X174760000Y-100000000D01*
%TO.N,RX0{slash}SCL0*%
X177165000Y-87630000D02*
X177165000Y-99865000D01*
X177165000Y-99865000D02*
X177300000Y-100000000D01*
%TO.N,TX1{slash}SDA1*%
X182245000Y-92710000D02*
X182245000Y-99865000D01*
X182245000Y-99865000D02*
X182380000Y-100000000D01*
%TO.N,RX1{slash}SCL1*%
X184920000Y-97020000D02*
X184920000Y-100000000D01*
X187255000Y-94685000D02*
X184920000Y-97020000D01*
X187255000Y-87630000D02*
X187255000Y-94685000D01*
%TO.N,Net-(J1-TX2{slash}SDA2)*%
X191135000Y-94615000D02*
X191135000Y-98865000D01*
X191135000Y-98865000D02*
X190000000Y-100000000D01*
X190500000Y-93980000D02*
X191135000Y-94615000D01*
%TO.N,Net-(J1-RX2{slash}SCL2)*%
X193074792Y-100000000D02*
X192540000Y-100000000D01*
X193040000Y-93980000D02*
X192405000Y-93980000D01*
X191770000Y-94615000D02*
X191770000Y-99230000D01*
X191770000Y-99230000D02*
X192540000Y-100000000D01*
X192540000Y-100000000D02*
X192532000Y-99992000D01*
X192405000Y-93980000D02*
X191770000Y-94615000D01*
%TD*%
%TA.AperFunction,Conductor*%
%TO.N,/12v2*%
G36*
X114620191Y-77145185D02*
G01*
X114640833Y-77161819D01*
X115238592Y-77759578D01*
X115238621Y-77759609D01*
X115328840Y-77849828D01*
X115328843Y-77849830D01*
X115405766Y-77901228D01*
X115431286Y-77918281D01*
X115431288Y-77918282D01*
X115431291Y-77918284D01*
X115497972Y-77945903D01*
X115497974Y-77945905D01*
X115538216Y-77962573D01*
X115545124Y-77965435D01*
X115605547Y-77977453D01*
X115665969Y-77989472D01*
X115665970Y-77989472D01*
X116176000Y-77989472D01*
X116243039Y-78009157D01*
X116288794Y-78061961D01*
X116300000Y-78113472D01*
X116300000Y-80600000D01*
X118885345Y-80600000D01*
X118952384Y-80619685D01*
X118954236Y-80620898D01*
X118961962Y-80626060D01*
X118961965Y-80626062D01*
X119028646Y-80653681D01*
X119028648Y-80653683D01*
X119068890Y-80670351D01*
X119075798Y-80673213D01*
X119136221Y-80685231D01*
X119196643Y-80697250D01*
X124676000Y-80697250D01*
X124743039Y-80716935D01*
X124788794Y-80769739D01*
X124800000Y-80821250D01*
X124800000Y-89150336D01*
X124792182Y-89193669D01*
X124760908Y-89277517D01*
X124754501Y-89337116D01*
X124754500Y-89337135D01*
X124754500Y-94182870D01*
X124754501Y-94182876D01*
X124760908Y-94242483D01*
X124792182Y-94326330D01*
X124800000Y-94369663D01*
X124800000Y-95176000D01*
X124780315Y-95243039D01*
X124727511Y-95288794D01*
X124676000Y-95300000D01*
X119524000Y-95300000D01*
X119456961Y-95280315D01*
X119411206Y-95227511D01*
X119400000Y-95176000D01*
X119400000Y-92551756D01*
X119405209Y-92516193D01*
X119432732Y-92424260D01*
X119490897Y-92094391D01*
X119510373Y-91760000D01*
X119490897Y-91425609D01*
X119432732Y-91095740D01*
X119405208Y-91003806D01*
X119400000Y-90968243D01*
X119400000Y-87300000D01*
X109859878Y-81536176D01*
X109812677Y-81484660D01*
X109800000Y-81430042D01*
X109800000Y-77249500D01*
X109819685Y-77182461D01*
X109872489Y-77136706D01*
X109924000Y-77125500D01*
X114553152Y-77125500D01*
X114620191Y-77145185D01*
G37*
%TD.AperFunction*%
%TD*%
%TA.AperFunction,Conductor*%
%TO.N,sGND*%
G36*
X167242060Y-74149128D02*
G01*
X167252319Y-74158306D01*
X173328181Y-80234167D01*
X173361666Y-80295490D01*
X173364500Y-80321848D01*
X173364500Y-91336485D01*
X173344815Y-91403524D01*
X173292011Y-91449279D01*
X173222856Y-91459223D01*
X173190005Y-91454500D01*
X173190000Y-91454500D01*
X170790000Y-91454500D01*
X170789998Y-91454500D01*
X170789975Y-91454501D01*
X170749384Y-91457747D01*
X170680989Y-91443469D01*
X170631171Y-91394481D01*
X170615500Y-91334142D01*
X170615500Y-91029850D01*
X170635185Y-90962811D01*
X170666615Y-90929532D01*
X170785871Y-90842888D01*
X170912533Y-90702216D01*
X171007179Y-90538284D01*
X171065674Y-90358256D01*
X171085460Y-90170000D01*
X171065674Y-89981744D01*
X171007179Y-89801716D01*
X170912533Y-89637784D01*
X170785871Y-89497112D01*
X170785870Y-89497111D01*
X170632734Y-89385851D01*
X170632729Y-89385848D01*
X170459807Y-89308857D01*
X170459802Y-89308855D01*
X170312363Y-89277517D01*
X170274646Y-89269500D01*
X170085354Y-89269500D01*
X170052897Y-89276398D01*
X169900197Y-89308855D01*
X169900192Y-89308857D01*
X169727270Y-89385848D01*
X169727265Y-89385851D01*
X169574129Y-89497111D01*
X169447466Y-89637785D01*
X169352821Y-89801715D01*
X169352818Y-89801722D01*
X169294327Y-89981740D01*
X169294326Y-89981744D01*
X169274540Y-90170000D01*
X169294326Y-90358256D01*
X169294327Y-90358259D01*
X169352818Y-90538277D01*
X169353777Y-90540430D01*
X169354267Y-90542735D01*
X169354829Y-90544465D01*
X169354647Y-90544524D01*
X169364500Y-90590872D01*
X169364500Y-91382546D01*
X169344815Y-91449585D01*
X169292011Y-91495340D01*
X169284350Y-91498198D01*
X169280004Y-91500183D01*
X169158969Y-91577967D01*
X169158965Y-91577971D01*
X169064750Y-91686700D01*
X169064744Y-91686709D01*
X169004976Y-91817580D01*
X169004975Y-91817585D01*
X168984500Y-91959999D01*
X168984500Y-93460002D01*
X168989644Y-93531940D01*
X169018338Y-93629660D01*
X169026524Y-93657539D01*
X169030182Y-93669994D01*
X169107967Y-93791030D01*
X169107971Y-93791034D01*
X169216700Y-93885249D01*
X169216706Y-93885254D01*
X169257174Y-93903735D01*
X169347580Y-93945023D01*
X169347583Y-93945023D01*
X169347584Y-93945024D01*
X169490000Y-93965500D01*
X169490003Y-93965500D01*
X170489984Y-93965500D01*
X170490000Y-93965500D01*
X170553522Y-93961493D01*
X170553526Y-93961492D01*
X170553527Y-93961492D01*
X170573755Y-93955919D01*
X170600104Y-93948660D01*
X170650680Y-93945469D01*
X170790000Y-93965500D01*
X171240500Y-93965500D01*
X171307539Y-93985185D01*
X171353294Y-94037989D01*
X171364500Y-94089500D01*
X171364500Y-94581611D01*
X171388535Y-94702444D01*
X171388540Y-94702461D01*
X171435685Y-94816281D01*
X171435689Y-94816288D01*
X171449891Y-94837541D01*
X171449892Y-94837546D01*
X171449894Y-94837546D01*
X171504140Y-94918731D01*
X171504141Y-94918732D01*
X171504142Y-94918733D01*
X171591267Y-95005858D01*
X171591268Y-95005858D01*
X171598335Y-95012925D01*
X171598334Y-95012925D01*
X171598338Y-95012928D01*
X174098181Y-97512771D01*
X174131666Y-97574094D01*
X174134500Y-97600452D01*
X174134500Y-98481225D01*
X174114815Y-98548264D01*
X174069519Y-98590279D01*
X173988864Y-98633928D01*
X173988853Y-98633935D01*
X173807018Y-98775463D01*
X173807015Y-98775466D01*
X173650935Y-98945014D01*
X173585508Y-99045157D01*
X173532362Y-99090514D01*
X173463130Y-99099937D01*
X173399795Y-99070434D01*
X173377891Y-99045156D01*
X173355961Y-99011589D01*
X172799551Y-99568000D01*
X172527232Y-99568000D01*
X172524077Y-99562535D01*
X172451465Y-99489923D01*
X172362534Y-99438578D01*
X172263344Y-99412000D01*
X172248447Y-99412000D01*
X173003672Y-98656774D01*
X173003671Y-98656772D01*
X172974866Y-98634352D01*
X172974860Y-98634347D01*
X172772276Y-98524715D01*
X172772262Y-98524709D01*
X172554396Y-98449915D01*
X172327179Y-98412000D01*
X172096821Y-98412000D01*
X171869603Y-98449915D01*
X171651737Y-98524709D01*
X171651723Y-98524715D01*
X171449141Y-98634346D01*
X171449139Y-98634347D01*
X171420327Y-98656773D01*
X172175554Y-99412000D01*
X172160656Y-99412000D01*
X172061466Y-99438578D01*
X171972535Y-99489923D01*
X171899923Y-99562535D01*
X171896768Y-99568000D01*
X171624447Y-99568000D01*
X171068037Y-99011590D01*
X170985341Y-99138166D01*
X170892808Y-99349120D01*
X170861073Y-99474440D01*
X170825533Y-99534596D01*
X170763113Y-99565988D01*
X170740867Y-99568000D01*
X170145980Y-99568000D01*
X170083980Y-99551387D01*
X170053188Y-99533609D01*
X170053187Y-99533608D01*
X170053186Y-99533608D01*
X169925892Y-99499500D01*
X169925891Y-99499500D01*
X158620000Y-99499500D01*
X158552961Y-99479815D01*
X158507206Y-99427011D01*
X158496000Y-99375500D01*
X158496000Y-88392000D01*
X154145506Y-88392000D01*
X154078467Y-88372315D01*
X154032712Y-88319511D01*
X154022768Y-88250353D01*
X154051793Y-88186797D01*
X154057825Y-88180319D01*
X156999004Y-85239140D01*
X165936110Y-76302032D01*
X165997431Y-76268549D01*
X166012978Y-76266187D01*
X166220068Y-76248070D01*
X166433450Y-76190894D01*
X166633662Y-76097534D01*
X166814620Y-75970826D01*
X166970826Y-75814620D01*
X167097534Y-75633662D01*
X167190894Y-75433450D01*
X167198391Y-75405473D01*
X167229142Y-75290707D01*
X167248070Y-75220068D01*
X167267323Y-75000000D01*
X167248070Y-74779932D01*
X167190894Y-74566550D01*
X167097534Y-74366339D01*
X167063061Y-74317107D01*
X167040736Y-74250904D01*
X167057746Y-74183137D01*
X167108694Y-74135324D01*
X167177404Y-74122646D01*
X167242060Y-74149128D01*
G37*
%TD.AperFunction*%
%TA.AperFunction,Conductor*%
G36*
X178665000Y-88885500D02*
G01*
X178665003Y-88885500D01*
X179643439Y-88885500D01*
X179710478Y-88905185D01*
X179756233Y-88957989D01*
X179766177Y-89027147D01*
X179737152Y-89090703D01*
X179731120Y-89097181D01*
X179685120Y-89143181D01*
X179623797Y-89176666D01*
X179597439Y-89179500D01*
X179538245Y-89179500D01*
X179505788Y-89186398D01*
X179353088Y-89218855D01*
X179353083Y-89218857D01*
X179180161Y-89295848D01*
X179180156Y-89295851D01*
X179027020Y-89407111D01*
X178900357Y-89547785D01*
X178805712Y-89711715D01*
X178805709Y-89711722D01*
X178747218Y-89891740D01*
X178747217Y-89891744D01*
X178727431Y-90080000D01*
X178747217Y-90268256D01*
X178747218Y-90268259D01*
X178805709Y-90448277D01*
X178805712Y-90448284D01*
X178900358Y-90612216D01*
X178973742Y-90693717D01*
X179027020Y-90752888D01*
X179180156Y-90864148D01*
X179180161Y-90864151D01*
X179353082Y-90941142D01*
X179353084Y-90941142D01*
X179353088Y-90941144D01*
X179373621Y-90945508D01*
X179435102Y-90978699D01*
X179465771Y-91028480D01*
X179512818Y-91173277D01*
X179512821Y-91173284D01*
X179598602Y-91321862D01*
X179615075Y-91389763D01*
X179592222Y-91455789D01*
X179542725Y-91496657D01*
X179535006Y-91500181D01*
X179413969Y-91577967D01*
X179413965Y-91577971D01*
X179319750Y-91686700D01*
X179319744Y-91686709D01*
X179259976Y-91817580D01*
X179259975Y-91817585D01*
X179239500Y-91959999D01*
X179239500Y-93460002D01*
X179244644Y-93531940D01*
X179273338Y-93629660D01*
X179281524Y-93657539D01*
X179285182Y-93669994D01*
X179362967Y-93791030D01*
X179362971Y-93791034D01*
X179471700Y-93885249D01*
X179471706Y-93885254D01*
X179512174Y-93903735D01*
X179602580Y-93945023D01*
X179602583Y-93945023D01*
X179602584Y-93945024D01*
X179745000Y-93965500D01*
X179745003Y-93965500D01*
X180744984Y-93965500D01*
X180745000Y-93965500D01*
X180808522Y-93961493D01*
X180808526Y-93961492D01*
X180808527Y-93961492D01*
X180828755Y-93955919D01*
X180855104Y-93948660D01*
X180905680Y-93945469D01*
X181045000Y-93965500D01*
X181495500Y-93965500D01*
X181562539Y-93985185D01*
X181608294Y-94037989D01*
X181619500Y-94089500D01*
X181619500Y-98565029D01*
X181599815Y-98632068D01*
X181571663Y-98662882D01*
X181427014Y-98775467D01*
X181270935Y-98945014D01*
X181205508Y-99045157D01*
X181152362Y-99090514D01*
X181083130Y-99099937D01*
X181019795Y-99070434D01*
X180997891Y-99045156D01*
X180975961Y-99011589D01*
X180419551Y-99568000D01*
X180147232Y-99568000D01*
X180144077Y-99562535D01*
X180071465Y-99489923D01*
X179982534Y-99438578D01*
X179883344Y-99412000D01*
X179868447Y-99412000D01*
X180623672Y-98656774D01*
X180623671Y-98656772D01*
X180594866Y-98634352D01*
X180594860Y-98634347D01*
X180392276Y-98524715D01*
X180392262Y-98524709D01*
X180174396Y-98449915D01*
X179947179Y-98412000D01*
X179716821Y-98412000D01*
X179489603Y-98449915D01*
X179271737Y-98524709D01*
X179271723Y-98524715D01*
X179069141Y-98634346D01*
X179069139Y-98634347D01*
X179040327Y-98656773D01*
X179795554Y-99412000D01*
X179780656Y-99412000D01*
X179681466Y-99438578D01*
X179592535Y-99489923D01*
X179519923Y-99562535D01*
X179516768Y-99568000D01*
X179244447Y-99568000D01*
X178688036Y-99011589D01*
X178666106Y-99045156D01*
X178612960Y-99090513D01*
X178543728Y-99099936D01*
X178480393Y-99070434D01*
X178458489Y-99045155D01*
X178393063Y-98945012D01*
X178326041Y-98872207D01*
X178236988Y-98775469D01*
X178236983Y-98775465D01*
X178236981Y-98775463D01*
X178055146Y-98633935D01*
X178055135Y-98633928D01*
X177855483Y-98525882D01*
X177805892Y-98476662D01*
X177790500Y-98416827D01*
X177790500Y-89009500D01*
X177810185Y-88942461D01*
X177862989Y-88896706D01*
X177914500Y-88885500D01*
X178364998Y-88885500D01*
X178365000Y-88885500D01*
X178365002Y-88885499D01*
X178365021Y-88885499D01*
X178445326Y-88879076D01*
X178445326Y-88879075D01*
X178445338Y-88879075D01*
X178473740Y-88870213D01*
X178528316Y-88865848D01*
X178665000Y-88885500D01*
G37*
%TD.AperFunction*%
%TA.AperFunction,Conductor*%
G36*
X180200702Y-66787134D02*
G01*
X180207180Y-66793166D01*
X191928181Y-78514167D01*
X191961666Y-78575490D01*
X191964500Y-78601848D01*
X191964500Y-88589547D01*
X191944815Y-88656586D01*
X191928181Y-88677228D01*
X190101269Y-90504140D01*
X190101267Y-90504142D01*
X190067132Y-90538277D01*
X190014141Y-90591267D01*
X189997117Y-90616744D01*
X189997118Y-90616745D01*
X189945686Y-90693717D01*
X189945685Y-90693718D01*
X189922070Y-90750732D01*
X189922070Y-90750734D01*
X189898537Y-90807548D01*
X189898536Y-90807552D01*
X189898536Y-90807553D01*
X189898535Y-90807556D01*
X189874500Y-90928389D01*
X189874500Y-91555500D01*
X189854815Y-91622539D01*
X189802011Y-91668294D01*
X189750502Y-91679500D01*
X189702131Y-91679500D01*
X189702123Y-91679501D01*
X189642516Y-91685908D01*
X189507671Y-91736202D01*
X189507664Y-91736206D01*
X189392455Y-91822452D01*
X189392452Y-91822455D01*
X189306206Y-91937664D01*
X189306202Y-91937671D01*
X189255908Y-92072517D01*
X189249501Y-92132116D01*
X189249501Y-92132123D01*
X189249500Y-92132135D01*
X189249500Y-93227870D01*
X189249501Y-93227876D01*
X189255908Y-93287479D01*
X189257692Y-93295026D01*
X189256229Y-93295371D01*
X189260585Y-93356371D01*
X189256173Y-93371396D01*
X189255908Y-93372517D01*
X189249501Y-93432116D01*
X189249501Y-93432123D01*
X189249500Y-93432135D01*
X189249500Y-94527870D01*
X189249501Y-94527876D01*
X189255908Y-94587483D01*
X189306202Y-94722328D01*
X189306206Y-94722335D01*
X189392452Y-94837544D01*
X189392454Y-94837546D01*
X189507664Y-94923793D01*
X189507671Y-94923797D01*
X189642517Y-94974091D01*
X189642516Y-94974091D01*
X189649444Y-94974835D01*
X189702127Y-94980500D01*
X190385500Y-94980499D01*
X190452539Y-95000183D01*
X190498294Y-95052987D01*
X190509500Y-95104499D01*
X190509500Y-98335827D01*
X190489815Y-98402866D01*
X190437011Y-98448621D01*
X190367853Y-98458565D01*
X190345239Y-98453109D01*
X190334519Y-98449429D01*
X190107220Y-98411500D01*
X189876780Y-98411500D01*
X189649479Y-98449429D01*
X189431535Y-98524250D01*
X189431521Y-98524256D01*
X189228864Y-98633928D01*
X189228853Y-98633935D01*
X189047018Y-98775463D01*
X189047015Y-98775466D01*
X188890935Y-98945014D01*
X188825508Y-99045157D01*
X188772362Y-99090514D01*
X188703130Y-99099937D01*
X188639795Y-99070434D01*
X188617891Y-99045156D01*
X188595961Y-99011589D01*
X188039551Y-99568000D01*
X187767232Y-99568000D01*
X187764077Y-99562535D01*
X187691465Y-99489923D01*
X187602534Y-99438578D01*
X187503344Y-99412000D01*
X187488447Y-99412000D01*
X188243672Y-98656774D01*
X188243671Y-98656772D01*
X188214866Y-98634352D01*
X188214860Y-98634347D01*
X188012276Y-98524715D01*
X188012262Y-98524709D01*
X187794396Y-98449915D01*
X187567179Y-98412000D01*
X187336821Y-98412000D01*
X187109603Y-98449915D01*
X186891737Y-98524709D01*
X186891723Y-98524715D01*
X186689141Y-98634346D01*
X186689139Y-98634347D01*
X186660327Y-98656773D01*
X187415554Y-99412000D01*
X187400656Y-99412000D01*
X187301466Y-99438578D01*
X187212535Y-99489923D01*
X187139923Y-99562535D01*
X187136768Y-99568000D01*
X186864447Y-99568000D01*
X186308036Y-99011589D01*
X186286106Y-99045156D01*
X186232960Y-99090513D01*
X186163728Y-99099936D01*
X186100393Y-99070434D01*
X186078489Y-99045155D01*
X186013063Y-98945012D01*
X185946041Y-98872207D01*
X185856988Y-98775469D01*
X185856983Y-98775465D01*
X185856981Y-98775463D01*
X185675146Y-98633935D01*
X185675135Y-98633928D01*
X185610481Y-98598938D01*
X185560891Y-98549718D01*
X185545500Y-98489884D01*
X185545500Y-97330452D01*
X185565185Y-97263413D01*
X185581819Y-97242771D01*
X187740855Y-95083736D01*
X187740855Y-95083735D01*
X187740858Y-95083733D01*
X187809312Y-94981285D01*
X187856463Y-94867451D01*
X187880501Y-94746606D01*
X187880501Y-94623393D01*
X187880501Y-94618283D01*
X187880500Y-94618257D01*
X187880500Y-89009500D01*
X187900185Y-88942461D01*
X187952989Y-88896706D01*
X188004500Y-88885500D01*
X188454998Y-88885500D01*
X188455000Y-88885500D01*
X188455002Y-88885499D01*
X188455021Y-88885499D01*
X188535326Y-88879076D01*
X188535326Y-88879075D01*
X188535338Y-88879075D01*
X188563740Y-88870213D01*
X188618316Y-88865848D01*
X188755000Y-88885500D01*
X188755003Y-88885500D01*
X189755000Y-88885500D01*
X189826940Y-88880355D01*
X189964992Y-88839819D01*
X190086032Y-88762031D01*
X190180254Y-88653294D01*
X190240024Y-88522416D01*
X190260500Y-88380000D01*
X190260500Y-86880000D01*
X190255355Y-86808060D01*
X190214819Y-86670008D01*
X190146267Y-86563339D01*
X190137032Y-86548969D01*
X190137028Y-86548965D01*
X190028299Y-86454750D01*
X190028297Y-86454748D01*
X190028294Y-86454746D01*
X190028290Y-86454744D01*
X189897419Y-86394976D01*
X189897414Y-86394975D01*
X189755000Y-86374500D01*
X189545453Y-86374500D01*
X189478414Y-86354815D01*
X189457772Y-86338181D01*
X188452928Y-85333338D01*
X188452925Y-85333334D01*
X188452925Y-85333335D01*
X188445858Y-85326268D01*
X188445858Y-85326267D01*
X188358733Y-85239142D01*
X188358732Y-85239141D01*
X188358731Y-85239140D01*
X188307509Y-85204915D01*
X188256287Y-85170689D01*
X188256286Y-85170688D01*
X188256283Y-85170686D01*
X188256280Y-85170685D01*
X188175792Y-85137347D01*
X188142453Y-85123537D01*
X188132427Y-85121543D01*
X188082029Y-85111518D01*
X188021610Y-85099500D01*
X188021607Y-85099500D01*
X188021606Y-85099500D01*
X181507089Y-85099500D01*
X181440050Y-85079815D01*
X181394295Y-85027011D01*
X181383768Y-84962541D01*
X181395613Y-84849847D01*
X181375827Y-84661591D01*
X181317332Y-84481563D01*
X181222686Y-84317631D01*
X181096024Y-84176959D01*
X181096023Y-84176958D01*
X180942887Y-84065698D01*
X180942882Y-84065695D01*
X180769960Y-83988704D01*
X180769955Y-83988702D01*
X180624154Y-83957712D01*
X180584799Y-83949347D01*
X180584798Y-83949347D01*
X180525606Y-83949347D01*
X180458567Y-83929662D01*
X180437925Y-83913028D01*
X176529819Y-80004922D01*
X176496334Y-79943599D01*
X176493500Y-79917241D01*
X176493500Y-78560977D01*
X176513185Y-78493938D01*
X176565989Y-78448183D01*
X176635147Y-78438239D01*
X176649581Y-78441200D01*
X176734932Y-78464070D01*
X176918322Y-78480114D01*
X176954999Y-78483323D01*
X176955000Y-78483323D01*
X177004735Y-78478970D01*
X177015543Y-78478499D01*
X179542871Y-78478499D01*
X179542872Y-78478499D01*
X179602483Y-78472091D01*
X179737331Y-78421796D01*
X179852546Y-78335546D01*
X179938796Y-78220331D01*
X179989091Y-78085483D01*
X179995500Y-78025873D01*
X179995499Y-76406128D01*
X179989091Y-76346517D01*
X179952372Y-76248069D01*
X179938797Y-76211671D01*
X179938793Y-76211664D01*
X179887123Y-76142643D01*
X179852546Y-76096454D01*
X179784166Y-76045265D01*
X179742297Y-75989333D01*
X179737313Y-75919641D01*
X179770798Y-75858318D01*
X179784161Y-75846738D01*
X179852546Y-75795546D01*
X179938796Y-75680331D01*
X179989091Y-75545483D01*
X179995500Y-75485873D01*
X179995499Y-73866128D01*
X179989091Y-73806517D01*
X179968731Y-73751930D01*
X179938797Y-73671671D01*
X179938793Y-73671664D01*
X179852547Y-73556455D01*
X179783750Y-73504953D01*
X179741880Y-73449019D01*
X179736896Y-73379327D01*
X179770382Y-73318005D01*
X179783752Y-73306420D01*
X179852189Y-73255188D01*
X179852190Y-73255187D01*
X179938350Y-73140093D01*
X179938354Y-73140086D01*
X179988596Y-73005379D01*
X179988598Y-73005372D01*
X179994999Y-72945844D01*
X179995000Y-72945827D01*
X179995000Y-72386000D01*
X178099000Y-72386000D01*
X178031961Y-72366315D01*
X177986206Y-72313511D01*
X177975000Y-72262000D01*
X177975000Y-72010000D01*
X177994685Y-71942961D01*
X178047489Y-71897206D01*
X178099000Y-71886000D01*
X179995000Y-71886000D01*
X179995000Y-71326172D01*
X179994999Y-71326155D01*
X179988598Y-71266627D01*
X179988596Y-71266620D01*
X179938354Y-71131913D01*
X179938350Y-71131906D01*
X179852190Y-71016813D01*
X179783751Y-70965579D01*
X179741880Y-70909645D01*
X179736896Y-70839953D01*
X179770381Y-70778630D01*
X179783742Y-70767052D01*
X179852546Y-70715546D01*
X179938796Y-70600331D01*
X179989091Y-70465483D01*
X179995500Y-70405873D01*
X179995499Y-68786128D01*
X179990299Y-68737757D01*
X179989091Y-68726516D01*
X179938797Y-68591671D01*
X179938793Y-68591664D01*
X179887123Y-68522643D01*
X179852546Y-68476454D01*
X179784166Y-68425265D01*
X179742297Y-68369333D01*
X179737313Y-68299641D01*
X179770798Y-68238318D01*
X179784161Y-68226738D01*
X179852546Y-68175546D01*
X179938796Y-68060331D01*
X179989091Y-67925483D01*
X179995500Y-67865873D01*
X179995499Y-66880846D01*
X180015183Y-66813808D01*
X180067987Y-66768053D01*
X180137146Y-66758109D01*
X180200702Y-66787134D01*
G37*
%TD.AperFunction*%
%TA.AperFunction,Conductor*%
G36*
X196942539Y-25520185D02*
G01*
X196988294Y-25572989D01*
X196999500Y-25624500D01*
X196999500Y-99444000D01*
X196979815Y-99511039D01*
X196927011Y-99556794D01*
X196875500Y-99568000D01*
X196543133Y-99568000D01*
X196476094Y-99548315D01*
X196430339Y-99495511D01*
X196422927Y-99474440D01*
X196391191Y-99349120D01*
X196298658Y-99138166D01*
X196215961Y-99011589D01*
X195659551Y-99568000D01*
X195387232Y-99568000D01*
X195384077Y-99562535D01*
X195311465Y-99489923D01*
X195222534Y-99438578D01*
X195123344Y-99412000D01*
X195108447Y-99412000D01*
X195863672Y-98656774D01*
X195863671Y-98656772D01*
X195834866Y-98634352D01*
X195834860Y-98634347D01*
X195632276Y-98524715D01*
X195632262Y-98524709D01*
X195414396Y-98449915D01*
X195187179Y-98412000D01*
X194956821Y-98412000D01*
X194729603Y-98449915D01*
X194511737Y-98524709D01*
X194511723Y-98524715D01*
X194309141Y-98634346D01*
X194309139Y-98634347D01*
X194280327Y-98656773D01*
X195035554Y-99412000D01*
X195020656Y-99412000D01*
X194921466Y-99438578D01*
X194832535Y-99489923D01*
X194759923Y-99562535D01*
X194756768Y-99568000D01*
X194484447Y-99568000D01*
X193928036Y-99011589D01*
X193906106Y-99045156D01*
X193852960Y-99090513D01*
X193783728Y-99099936D01*
X193720393Y-99070434D01*
X193698489Y-99045155D01*
X193633063Y-98945012D01*
X193566041Y-98872207D01*
X193476988Y-98775469D01*
X193476983Y-98775465D01*
X193476981Y-98775463D01*
X193295146Y-98633935D01*
X193295135Y-98633928D01*
X193092478Y-98524256D01*
X193092475Y-98524255D01*
X193092472Y-98524253D01*
X193092466Y-98524251D01*
X193092464Y-98524250D01*
X192874520Y-98449429D01*
X192647220Y-98411500D01*
X192519500Y-98411500D01*
X192452461Y-98391815D01*
X192406706Y-98339011D01*
X192395500Y-98287500D01*
X192395500Y-95104499D01*
X192415185Y-95037460D01*
X192467989Y-94991705D01*
X192519500Y-94980499D01*
X193837871Y-94980499D01*
X193837872Y-94980499D01*
X193897483Y-94974091D01*
X194032331Y-94923796D01*
X194147546Y-94837546D01*
X194233796Y-94722331D01*
X194284091Y-94587483D01*
X194290500Y-94527873D01*
X194290499Y-93432128D01*
X194284091Y-93372517D01*
X194284090Y-93372515D01*
X194284090Y-93372512D01*
X194282308Y-93364969D01*
X194283773Y-93364622D01*
X194279409Y-93303651D01*
X194283819Y-93288633D01*
X194284089Y-93287488D01*
X194284091Y-93287483D01*
X194290500Y-93227873D01*
X194290499Y-92132128D01*
X194284091Y-92072517D01*
X194233796Y-91937669D01*
X194233795Y-91937668D01*
X194233793Y-91937664D01*
X194147547Y-91822455D01*
X194147544Y-91822452D01*
X194032335Y-91736206D01*
X194032328Y-91736202D01*
X193897482Y-91685908D01*
X193897483Y-91685908D01*
X193837883Y-91679501D01*
X193837881Y-91679500D01*
X193837873Y-91679500D01*
X193837865Y-91679500D01*
X193789500Y-91679500D01*
X193722461Y-91659815D01*
X193676706Y-91607011D01*
X193665500Y-91555500D01*
X193665500Y-78043393D01*
X193665499Y-78043389D01*
X193641464Y-77922555D01*
X193641463Y-77922548D01*
X193594311Y-77808714D01*
X193594310Y-77808713D01*
X193594307Y-77808707D01*
X193525858Y-77706267D01*
X193525855Y-77706263D01*
X193435637Y-77616045D01*
X193435606Y-77616016D01*
X181001819Y-65182229D01*
X180968334Y-65120906D01*
X180965500Y-65094548D01*
X180965500Y-63230809D01*
X180985185Y-63163770D01*
X181012191Y-63133859D01*
X181017252Y-63129821D01*
X181017262Y-63129816D01*
X181144816Y-63002262D01*
X181240789Y-62849522D01*
X181300368Y-62679255D01*
X181300369Y-62679249D01*
X181320565Y-62500003D01*
X181320565Y-62499996D01*
X181300369Y-62320750D01*
X181300368Y-62320745D01*
X181240788Y-62150475D01*
X181177220Y-62049309D01*
X181158219Y-61982072D01*
X181178586Y-61915237D01*
X181231854Y-61870022D01*
X181258510Y-61862890D01*
X181258289Y-61861851D01*
X181264645Y-61860500D01*
X181264646Y-61860500D01*
X181449803Y-61821144D01*
X181622730Y-61744151D01*
X181775871Y-61632888D01*
X181902533Y-61492216D01*
X181997179Y-61328284D01*
X182055674Y-61148256D01*
X182073321Y-60980344D01*
X182099904Y-60915734D01*
X182108941Y-60905648D01*
X182377773Y-60636816D01*
X182439095Y-60603334D01*
X182465453Y-60600500D01*
X185809773Y-60600500D01*
X185876812Y-60620185D01*
X185911348Y-60653377D01*
X186046500Y-60846395D01*
X186046505Y-60846401D01*
X186213599Y-61013495D01*
X186270631Y-61053429D01*
X186407165Y-61149032D01*
X186407167Y-61149033D01*
X186407170Y-61149035D01*
X186621337Y-61248903D01*
X186621343Y-61248904D01*
X186621344Y-61248905D01*
X186676285Y-61263626D01*
X186849592Y-61310063D01*
X187037918Y-61326539D01*
X187084999Y-61330659D01*
X187085000Y-61330659D01*
X187085001Y-61330659D01*
X187124234Y-61327226D01*
X187320408Y-61310063D01*
X187548663Y-61248903D01*
X187762830Y-61149035D01*
X187956401Y-61013495D01*
X188123495Y-60846401D01*
X188259035Y-60652830D01*
X188358903Y-60438663D01*
X188420063Y-60210408D01*
X188440659Y-59975000D01*
X188420063Y-59739592D01*
X188358903Y-59511337D01*
X188259035Y-59297171D01*
X188258652Y-59296623D01*
X188123494Y-59103597D01*
X187956402Y-58936506D01*
X187956396Y-58936501D01*
X187770842Y-58806575D01*
X187727217Y-58751998D01*
X187720023Y-58682500D01*
X187751546Y-58620145D01*
X187770842Y-58603425D01*
X187823405Y-58566620D01*
X187956401Y-58473495D01*
X188123495Y-58306401D01*
X188259035Y-58112830D01*
X188358903Y-57898663D01*
X188420063Y-57670408D01*
X188440659Y-57435000D01*
X188437875Y-57403185D01*
X188420063Y-57199596D01*
X188420063Y-57199592D01*
X188358903Y-56971337D01*
X188259035Y-56757171D01*
X188258652Y-56756623D01*
X188123494Y-56563597D01*
X187956402Y-56396506D01*
X187956396Y-56396501D01*
X187770842Y-56266575D01*
X187727217Y-56211998D01*
X187720023Y-56142500D01*
X187751546Y-56080145D01*
X187770842Y-56063425D01*
X187899369Y-55973429D01*
X187956401Y-55933495D01*
X188123495Y-55766401D01*
X188259035Y-55572830D01*
X188358903Y-55358663D01*
X188420063Y-55130408D01*
X188440659Y-54895000D01*
X188420063Y-54659592D01*
X188358903Y-54431337D01*
X188259035Y-54217171D01*
X188258651Y-54216623D01*
X188123496Y-54023600D01*
X188123495Y-54023599D01*
X188001179Y-53901283D01*
X187967696Y-53839963D01*
X187972680Y-53770271D01*
X188014551Y-53714337D01*
X188045529Y-53697422D01*
X188177086Y-53648354D01*
X188177093Y-53648350D01*
X188292187Y-53562190D01*
X188292190Y-53562187D01*
X188378350Y-53447093D01*
X188378354Y-53447086D01*
X188428596Y-53312379D01*
X188428598Y-53312372D01*
X188434999Y-53252844D01*
X188435000Y-53252827D01*
X188435000Y-52605000D01*
X187518012Y-52605000D01*
X187550925Y-52547993D01*
X187585000Y-52420826D01*
X187585000Y-52289174D01*
X187550925Y-52162007D01*
X187518012Y-52105000D01*
X188435000Y-52105000D01*
X188435000Y-51457172D01*
X188434999Y-51457155D01*
X188428598Y-51397627D01*
X188428596Y-51397620D01*
X188378354Y-51262913D01*
X188378350Y-51262906D01*
X188292190Y-51147812D01*
X188292187Y-51147809D01*
X188177093Y-51061649D01*
X188177086Y-51061645D01*
X188042379Y-51011403D01*
X188042372Y-51011401D01*
X187982844Y-51005000D01*
X187335000Y-51005000D01*
X187335000Y-51921988D01*
X187277993Y-51889075D01*
X187150826Y-51855000D01*
X187019174Y-51855000D01*
X186892007Y-51889075D01*
X186835000Y-51921988D01*
X186835000Y-51005000D01*
X186187155Y-51005000D01*
X186127627Y-51011401D01*
X186127620Y-51011403D01*
X185992913Y-51061645D01*
X185992906Y-51061649D01*
X185877812Y-51147809D01*
X185877809Y-51147812D01*
X185791649Y-51262906D01*
X185791645Y-51262913D01*
X185741403Y-51397620D01*
X185741401Y-51397627D01*
X185735000Y-51457155D01*
X185735000Y-52105000D01*
X186651988Y-52105000D01*
X186619075Y-52162007D01*
X186585000Y-52289174D01*
X186585000Y-52420826D01*
X186619075Y-52547993D01*
X186651988Y-52605000D01*
X185735000Y-52605000D01*
X185735000Y-53252844D01*
X185741401Y-53312372D01*
X185741403Y-53312379D01*
X185791645Y-53447086D01*
X185791649Y-53447093D01*
X185877809Y-53562187D01*
X185877812Y-53562190D01*
X185992906Y-53648350D01*
X185992913Y-53648354D01*
X186124470Y-53697421D01*
X186180403Y-53739292D01*
X186204821Y-53804756D01*
X186189970Y-53873029D01*
X186168819Y-53901284D01*
X186046503Y-54023600D01*
X185911348Y-54216623D01*
X185856771Y-54260248D01*
X185809773Y-54269500D01*
X183168389Y-54269500D01*
X183107971Y-54281518D01*
X183047548Y-54293537D01*
X183047543Y-54293538D01*
X183013546Y-54307620D01*
X183000397Y-54313067D01*
X182933718Y-54340685D01*
X182914571Y-54353479D01*
X182908190Y-54357743D01*
X182908189Y-54357744D01*
X182908188Y-54357743D01*
X182831266Y-54409142D01*
X182831265Y-54409143D01*
X182809074Y-54431335D01*
X182744142Y-54496267D01*
X182744139Y-54496270D01*
X182186421Y-55053989D01*
X181662229Y-55578181D01*
X181600906Y-55611666D01*
X181574548Y-55614500D01*
X181515354Y-55614500D01*
X181482897Y-55621398D01*
X181330197Y-55653855D01*
X181330192Y-55653857D01*
X181157270Y-55730848D01*
X181151637Y-55734101D01*
X181150145Y-55731517D01*
X181096483Y-55750617D01*
X181028441Y-55734739D01*
X180979785Y-55684595D01*
X180965500Y-55626814D01*
X180965500Y-51458741D01*
X180965501Y-51458720D01*
X180965501Y-51329391D01*
X180941464Y-51208555D01*
X180941463Y-51208549D01*
X180894312Y-51094715D01*
X180825858Y-50992267D01*
X180825855Y-50992263D01*
X180030068Y-50196478D01*
X179996583Y-50135155D01*
X179994460Y-50095543D01*
X179995500Y-50085873D01*
X179995499Y-48697680D01*
X180015184Y-48630642D01*
X180067987Y-48584887D01*
X180137146Y-48574943D01*
X180200702Y-48603968D01*
X180237430Y-48659363D01*
X180272818Y-48768277D01*
X180272821Y-48768284D01*
X180367467Y-48932216D01*
X180482581Y-49060063D01*
X180494129Y-49072888D01*
X180647265Y-49184148D01*
X180647270Y-49184151D01*
X180820192Y-49261142D01*
X180820197Y-49261144D01*
X181005354Y-49300500D01*
X181005355Y-49300500D01*
X181194644Y-49300500D01*
X181194646Y-49300500D01*
X181379803Y-49261144D01*
X181552730Y-49184151D01*
X181705871Y-49072888D01*
X181832533Y-48932216D01*
X181927179Y-48768284D01*
X181985674Y-48588256D01*
X181998992Y-48461537D01*
X182025577Y-48396924D01*
X182082874Y-48356939D01*
X182122313Y-48350500D01*
X185809773Y-48350500D01*
X185876812Y-48370185D01*
X185911348Y-48403377D01*
X186046500Y-48596395D01*
X186046505Y-48596401D01*
X186213599Y-48763495D01*
X186310384Y-48831265D01*
X186407165Y-48899032D01*
X186407167Y-48899033D01*
X186407170Y-48899035D01*
X186621337Y-48998903D01*
X186849592Y-49060063D01*
X187037918Y-49076539D01*
X187084999Y-49080659D01*
X187085000Y-49080659D01*
X187085001Y-49080659D01*
X187124234Y-49077226D01*
X187320408Y-49060063D01*
X187548663Y-48998903D01*
X187762830Y-48899035D01*
X187956401Y-48763495D01*
X188123495Y-48596401D01*
X188259035Y-48402830D01*
X188358903Y-48188663D01*
X188420063Y-47960408D01*
X188440659Y-47725000D01*
X188420063Y-47489592D01*
X188358903Y-47261337D01*
X188259035Y-47047171D01*
X188258652Y-47046623D01*
X188123494Y-46853597D01*
X187956402Y-46686506D01*
X187956396Y-46686501D01*
X187770842Y-46556575D01*
X187727217Y-46501998D01*
X187720023Y-46432500D01*
X187751546Y-46370145D01*
X187770842Y-46353425D01*
X187843256Y-46302720D01*
X187956401Y-46223495D01*
X188123495Y-46056401D01*
X188259035Y-45862830D01*
X188358903Y-45648663D01*
X188420063Y-45420408D01*
X188440659Y-45185000D01*
X188420063Y-44949592D01*
X188358903Y-44721337D01*
X188259035Y-44507171D01*
X188258652Y-44506623D01*
X188123494Y-44313597D01*
X187956402Y-44146506D01*
X187956396Y-44146501D01*
X187770842Y-44016575D01*
X187727217Y-43961998D01*
X187720023Y-43892500D01*
X187751546Y-43830145D01*
X187770842Y-43813425D01*
X187886823Y-43732214D01*
X187956401Y-43683495D01*
X188123495Y-43516401D01*
X188259035Y-43322830D01*
X188358903Y-43108663D01*
X188420063Y-42880408D01*
X188440659Y-42645000D01*
X188420063Y-42409592D01*
X188358903Y-42181337D01*
X188259035Y-41967171D01*
X188258651Y-41966623D01*
X188123496Y-41773600D01*
X188123495Y-41773599D01*
X188001179Y-41651283D01*
X187967696Y-41589963D01*
X187972680Y-41520271D01*
X188014551Y-41464337D01*
X188045529Y-41447422D01*
X188177086Y-41398354D01*
X188177093Y-41398350D01*
X188292187Y-41312190D01*
X188292190Y-41312187D01*
X188378350Y-41197093D01*
X188378354Y-41197086D01*
X188428596Y-41062379D01*
X188428598Y-41062372D01*
X188434999Y-41002844D01*
X188435000Y-41002827D01*
X188435000Y-40355000D01*
X187518012Y-40355000D01*
X187550925Y-40297993D01*
X187585000Y-40170826D01*
X187585000Y-40039174D01*
X187550925Y-39912007D01*
X187518012Y-39855000D01*
X188435000Y-39855000D01*
X188435000Y-39207172D01*
X188434999Y-39207155D01*
X188428598Y-39147627D01*
X188428596Y-39147620D01*
X188378354Y-39012913D01*
X188378350Y-39012906D01*
X188292190Y-38897812D01*
X188292187Y-38897809D01*
X188177093Y-38811649D01*
X188177086Y-38811645D01*
X188042379Y-38761403D01*
X188042372Y-38761401D01*
X187982844Y-38755000D01*
X187335000Y-38755000D01*
X187335000Y-39671988D01*
X187277993Y-39639075D01*
X187150826Y-39605000D01*
X187019174Y-39605000D01*
X186892007Y-39639075D01*
X186835000Y-39671988D01*
X186835000Y-38755000D01*
X186187155Y-38755000D01*
X186127627Y-38761401D01*
X186127620Y-38761403D01*
X185992913Y-38811645D01*
X185992906Y-38811649D01*
X185877812Y-38897809D01*
X185877809Y-38897812D01*
X185791649Y-39012906D01*
X185791645Y-39012913D01*
X185741403Y-39147620D01*
X185741401Y-39147627D01*
X185735000Y-39207155D01*
X185735000Y-39855000D01*
X186651988Y-39855000D01*
X186619075Y-39912007D01*
X186585000Y-40039174D01*
X186585000Y-40170826D01*
X186619075Y-40297993D01*
X186651988Y-40355000D01*
X185735000Y-40355000D01*
X185735000Y-41002844D01*
X185741401Y-41062372D01*
X185741403Y-41062379D01*
X185791645Y-41197086D01*
X185791649Y-41197093D01*
X185877809Y-41312187D01*
X185877812Y-41312190D01*
X185992906Y-41398350D01*
X185992913Y-41398354D01*
X186124470Y-41447421D01*
X186180403Y-41489292D01*
X186204821Y-41554756D01*
X186189970Y-41623029D01*
X186168819Y-41651284D01*
X186046503Y-41773600D01*
X185911348Y-41966623D01*
X185856771Y-42010248D01*
X185809773Y-42019500D01*
X181722741Y-42019500D01*
X181722721Y-42019499D01*
X181716607Y-42019499D01*
X181593394Y-42019499D01*
X181492597Y-42039548D01*
X181492592Y-42039548D01*
X181472549Y-42043536D01*
X181472547Y-42043536D01*
X181425397Y-42063067D01*
X181358719Y-42090685D01*
X181358717Y-42090686D01*
X181256268Y-42159140D01*
X181204248Y-42211160D01*
X181152226Y-42263182D01*
X181090906Y-42296666D01*
X181064547Y-42299500D01*
X181005354Y-42299500D01*
X180972897Y-42306398D01*
X180820197Y-42338855D01*
X180820192Y-42338857D01*
X180647270Y-42415848D01*
X180647265Y-42415851D01*
X180494129Y-42527111D01*
X180367466Y-42667785D01*
X180272821Y-42831715D01*
X180272818Y-42831722D01*
X180220673Y-42992210D01*
X180214326Y-43011744D01*
X180195416Y-43191664D01*
X180194143Y-43203777D01*
X180167558Y-43268391D01*
X180110261Y-43308376D01*
X180040442Y-43311036D01*
X179980268Y-43275526D01*
X179954640Y-43234148D01*
X179938797Y-43191671D01*
X179938793Y-43191664D01*
X179876652Y-43108655D01*
X179852546Y-43076454D01*
X179784166Y-43025265D01*
X179742297Y-42969333D01*
X179737313Y-42899641D01*
X179770798Y-42838318D01*
X179784161Y-42826738D01*
X179852546Y-42775546D01*
X179938796Y-42660331D01*
X179989091Y-42525483D01*
X179995500Y-42465873D01*
X179995499Y-40846128D01*
X179989091Y-40786517D01*
X179969290Y-40733429D01*
X179938797Y-40651671D01*
X179938793Y-40651664D01*
X179878351Y-40570925D01*
X179852546Y-40536454D01*
X179784166Y-40485265D01*
X179742297Y-40429333D01*
X179737313Y-40359641D01*
X179770798Y-40298318D01*
X179784161Y-40286738D01*
X179852546Y-40235546D01*
X179938796Y-40120331D01*
X179989091Y-39985483D01*
X179995500Y-39925873D01*
X179995499Y-38306128D01*
X179989091Y-38246517D01*
X179969290Y-38193429D01*
X179938797Y-38111671D01*
X179938793Y-38111664D01*
X179887123Y-38042643D01*
X179852546Y-37996454D01*
X179784166Y-37945265D01*
X179742297Y-37889333D01*
X179737313Y-37819641D01*
X179770798Y-37758318D01*
X179784161Y-37746738D01*
X179852546Y-37695546D01*
X179938796Y-37580331D01*
X179989091Y-37445483D01*
X179995500Y-37385873D01*
X179995499Y-36471937D01*
X180015183Y-36404899D01*
X180067987Y-36359144D01*
X180137146Y-36349200D01*
X180192384Y-36371620D01*
X180347265Y-36484148D01*
X180347270Y-36484151D01*
X180520192Y-36561142D01*
X180520197Y-36561144D01*
X180705354Y-36600500D01*
X180705355Y-36600500D01*
X180894644Y-36600500D01*
X180894646Y-36600500D01*
X181079803Y-36561144D01*
X181252730Y-36484151D01*
X181405871Y-36372888D01*
X181532533Y-36232216D01*
X181540889Y-36217742D01*
X181572784Y-36162500D01*
X181623351Y-36114284D01*
X181680171Y-36100500D01*
X185809773Y-36100500D01*
X185876812Y-36120185D01*
X185911348Y-36153377D01*
X186046500Y-36346395D01*
X186046505Y-36346401D01*
X186213599Y-36513495D01*
X186214329Y-36514006D01*
X186407165Y-36649032D01*
X186407167Y-36649033D01*
X186407170Y-36649035D01*
X186621337Y-36748903D01*
X186849592Y-36810063D01*
X187037918Y-36826539D01*
X187084999Y-36830659D01*
X187085000Y-36830659D01*
X187085001Y-36830659D01*
X187124234Y-36827226D01*
X187320408Y-36810063D01*
X187548663Y-36748903D01*
X187762830Y-36649035D01*
X187956401Y-36513495D01*
X188123495Y-36346401D01*
X188259035Y-36152830D01*
X188358903Y-35938663D01*
X188420063Y-35710408D01*
X188440659Y-35475000D01*
X188439036Y-35456455D01*
X188435681Y-35418105D01*
X188420063Y-35239592D01*
X188358903Y-35011337D01*
X188259035Y-34797171D01*
X188258652Y-34796623D01*
X188123494Y-34603597D01*
X187956402Y-34436506D01*
X187956396Y-34436501D01*
X187770842Y-34306575D01*
X187727217Y-34251998D01*
X187720023Y-34182500D01*
X187751546Y-34120145D01*
X187770842Y-34103425D01*
X187814453Y-34072888D01*
X187956401Y-33973495D01*
X188123495Y-33806401D01*
X188259035Y-33612830D01*
X188358903Y-33398663D01*
X188420063Y-33170408D01*
X188440659Y-32935000D01*
X188420063Y-32699592D01*
X188358903Y-32471337D01*
X188259035Y-32257171D01*
X188258652Y-32256623D01*
X188123494Y-32063597D01*
X187956402Y-31896506D01*
X187956396Y-31896501D01*
X187770842Y-31766575D01*
X187727217Y-31711998D01*
X187720023Y-31642500D01*
X187751546Y-31580145D01*
X187770842Y-31563425D01*
X187867132Y-31496002D01*
X187956401Y-31433495D01*
X188123495Y-31266401D01*
X188259035Y-31072830D01*
X188358903Y-30858663D01*
X188420063Y-30630408D01*
X188440659Y-30395000D01*
X188420063Y-30159592D01*
X188358903Y-29931337D01*
X188259035Y-29717171D01*
X188258651Y-29716623D01*
X188123496Y-29523600D01*
X188123495Y-29523599D01*
X188001179Y-29401283D01*
X187967696Y-29339963D01*
X187972680Y-29270271D01*
X188014551Y-29214337D01*
X188045529Y-29197422D01*
X188177086Y-29148354D01*
X188177093Y-29148350D01*
X188292187Y-29062190D01*
X188292190Y-29062187D01*
X188378350Y-28947093D01*
X188378354Y-28947086D01*
X188428596Y-28812379D01*
X188428598Y-28812372D01*
X188434999Y-28752844D01*
X188435000Y-28752827D01*
X188435000Y-28105000D01*
X187518012Y-28105000D01*
X187550925Y-28047993D01*
X187585000Y-27920826D01*
X187585000Y-27789174D01*
X187550925Y-27662007D01*
X187518012Y-27605000D01*
X188435000Y-27605000D01*
X188435000Y-26957172D01*
X188434999Y-26957155D01*
X188428598Y-26897627D01*
X188428596Y-26897620D01*
X188378354Y-26762913D01*
X188378350Y-26762906D01*
X188292190Y-26647812D01*
X188292187Y-26647809D01*
X188177093Y-26561649D01*
X188177086Y-26561645D01*
X188042379Y-26511403D01*
X188042372Y-26511401D01*
X187982844Y-26505000D01*
X187335000Y-26505000D01*
X187335000Y-27421988D01*
X187277993Y-27389075D01*
X187150826Y-27355000D01*
X187019174Y-27355000D01*
X186892007Y-27389075D01*
X186835000Y-27421988D01*
X186835000Y-26505000D01*
X186187155Y-26505000D01*
X186127627Y-26511401D01*
X186127620Y-26511403D01*
X185992913Y-26561645D01*
X185992906Y-26561649D01*
X185877812Y-26647809D01*
X185877809Y-26647812D01*
X185791649Y-26762906D01*
X185791645Y-26762913D01*
X185741403Y-26897620D01*
X185741401Y-26897627D01*
X185735000Y-26957155D01*
X185735000Y-27605000D01*
X186651988Y-27605000D01*
X186619075Y-27662007D01*
X186585000Y-27789174D01*
X186585000Y-27920826D01*
X186619075Y-28047993D01*
X186651988Y-28105000D01*
X185735000Y-28105000D01*
X185735000Y-28752844D01*
X185741401Y-28812372D01*
X185741403Y-28812379D01*
X185791645Y-28947086D01*
X185791649Y-28947093D01*
X185877809Y-29062187D01*
X185877812Y-29062190D01*
X185992906Y-29148350D01*
X185992913Y-29148354D01*
X186124470Y-29197421D01*
X186180403Y-29239292D01*
X186204821Y-29304756D01*
X186189970Y-29373029D01*
X186168819Y-29401284D01*
X186046503Y-29523600D01*
X185911348Y-29716623D01*
X185856771Y-29760248D01*
X185809773Y-29769500D01*
X181343389Y-29769500D01*
X181282971Y-29781518D01*
X181239743Y-29790116D01*
X181222546Y-29793537D01*
X181108716Y-29840687D01*
X181108707Y-29840692D01*
X181006268Y-29909140D01*
X180984074Y-29931335D01*
X180919142Y-29996267D01*
X180852228Y-30063181D01*
X180790905Y-30096666D01*
X180764547Y-30099500D01*
X180705354Y-30099500D01*
X180672897Y-30106398D01*
X180520197Y-30138855D01*
X180520192Y-30138857D01*
X180347270Y-30215848D01*
X180347265Y-30215851D01*
X180194132Y-30327109D01*
X180194129Y-30327111D01*
X180194129Y-30327112D01*
X180129880Y-30398468D01*
X180088424Y-30444509D01*
X180028937Y-30481157D01*
X179959080Y-30479826D01*
X179901032Y-30440939D01*
X179897018Y-30435861D01*
X179852546Y-30376454D01*
X179784166Y-30325265D01*
X179742297Y-30269333D01*
X179737313Y-30199641D01*
X179770798Y-30138318D01*
X179784161Y-30126738D01*
X179852546Y-30075546D01*
X179938796Y-29960331D01*
X179989091Y-29825483D01*
X179995500Y-29765873D01*
X179995499Y-28146128D01*
X179989091Y-28086517D01*
X179974722Y-28047993D01*
X179938797Y-27951671D01*
X179938793Y-27951664D01*
X179852547Y-27836455D01*
X179852544Y-27836452D01*
X179737335Y-27750206D01*
X179737328Y-27750202D01*
X179602482Y-27699908D01*
X179602483Y-27699908D01*
X179542883Y-27693501D01*
X179542881Y-27693500D01*
X179542873Y-27693500D01*
X179542865Y-27693500D01*
X177015548Y-27693500D01*
X177004743Y-27693028D01*
X176989847Y-27691725D01*
X176955002Y-27688677D01*
X176954998Y-27688677D01*
X176734937Y-27707929D01*
X176734929Y-27707930D01*
X176521554Y-27765104D01*
X176521548Y-27765107D01*
X176321340Y-27858465D01*
X176321338Y-27858466D01*
X176140377Y-27985175D01*
X175984175Y-28141377D01*
X175857466Y-28322338D01*
X175857465Y-28322340D01*
X175764107Y-28522548D01*
X175764104Y-28522554D01*
X175706930Y-28735929D01*
X175706929Y-28735937D01*
X175687677Y-28955997D01*
X175687677Y-28956002D01*
X175706929Y-29176062D01*
X175706930Y-29176070D01*
X175764104Y-29389445D01*
X175764105Y-29389447D01*
X175764106Y-29389450D01*
X175826661Y-29523600D01*
X175857466Y-29589662D01*
X175857468Y-29589666D01*
X175984170Y-29770615D01*
X175984175Y-29770621D01*
X176140378Y-29926824D01*
X176140384Y-29926829D01*
X176321333Y-30053531D01*
X176321335Y-30053532D01*
X176321338Y-30053534D01*
X176419913Y-30099500D01*
X176450189Y-30113618D01*
X176502628Y-30159790D01*
X176521780Y-30226984D01*
X176501564Y-30293865D01*
X176450189Y-30338382D01*
X176321340Y-30398465D01*
X176321338Y-30398466D01*
X176140381Y-30525172D01*
X176110877Y-30554676D01*
X176081371Y-30584182D01*
X176020051Y-30617666D01*
X175993692Y-30620500D01*
X172617768Y-30620500D01*
X172448633Y-30654143D01*
X172448621Y-30654146D01*
X172289301Y-30720138D01*
X172289288Y-30720145D01*
X172145901Y-30815954D01*
X172145897Y-30815957D01*
X168691916Y-34269940D01*
X167541901Y-35419955D01*
X167505402Y-35456454D01*
X167419953Y-35541902D01*
X167324145Y-35685288D01*
X167324138Y-35685301D01*
X167258146Y-35844621D01*
X167258143Y-35844633D01*
X167224500Y-36013766D01*
X167224500Y-67138691D01*
X167204815Y-67205730D01*
X167188181Y-67226372D01*
X167129175Y-67285377D01*
X167002466Y-67466338D01*
X167002465Y-67466340D01*
X166909107Y-67666548D01*
X166909104Y-67666554D01*
X166851930Y-67879929D01*
X166851929Y-67879937D01*
X166832677Y-68099997D01*
X166832677Y-68100002D01*
X166851929Y-68320062D01*
X166851930Y-68320070D01*
X166909104Y-68533445D01*
X166909105Y-68533447D01*
X166909106Y-68533450D01*
X166999134Y-68726516D01*
X167002466Y-68733662D01*
X167002468Y-68733666D01*
X167129170Y-68914615D01*
X167129175Y-68914621D01*
X167285378Y-69070824D01*
X167285384Y-69070829D01*
X167466333Y-69197531D01*
X167466335Y-69197532D01*
X167466338Y-69197534D01*
X167666550Y-69290894D01*
X167879932Y-69348070D01*
X168037123Y-69361822D01*
X168099998Y-69367323D01*
X168100000Y-69367323D01*
X168100002Y-69367323D01*
X168155017Y-69362509D01*
X168320068Y-69348070D01*
X168533450Y-69290894D01*
X168733662Y-69197534D01*
X168914620Y-69070826D01*
X169070826Y-68914620D01*
X169197534Y-68733662D01*
X169290894Y-68533450D01*
X169348070Y-68320068D01*
X169367323Y-68100000D01*
X169363852Y-68060331D01*
X169348070Y-67879937D01*
X169348070Y-67879932D01*
X169290894Y-67666550D01*
X169197534Y-67466339D01*
X169070826Y-67285380D01*
X169070824Y-67285377D01*
X169011819Y-67226372D01*
X168978334Y-67165049D01*
X168975500Y-67138691D01*
X168975500Y-36514006D01*
X168995185Y-36446967D01*
X169011819Y-36426325D01*
X173030325Y-32407819D01*
X173091648Y-32374334D01*
X173118006Y-32371500D01*
X175993692Y-32371500D01*
X176060731Y-32391185D01*
X176081373Y-32407819D01*
X176140378Y-32466824D01*
X176140384Y-32466829D01*
X176321333Y-32593531D01*
X176321335Y-32593532D01*
X176321338Y-32593534D01*
X176430863Y-32644606D01*
X176450781Y-32653894D01*
X176503220Y-32700066D01*
X176522372Y-32767260D01*
X176502156Y-32834141D01*
X176450781Y-32878658D01*
X176321590Y-32938901D01*
X176256811Y-32984258D01*
X176927553Y-33655000D01*
X176904840Y-33655000D01*
X176807939Y-33680964D01*
X176721060Y-33731124D01*
X176650124Y-33802060D01*
X176599964Y-33888939D01*
X176574000Y-33985840D01*
X176574000Y-34008553D01*
X175903258Y-33337811D01*
X175857901Y-33402590D01*
X175764579Y-33602720D01*
X175764575Y-33602729D01*
X175707426Y-33816013D01*
X175707424Y-33816023D01*
X175688179Y-34035999D01*
X175688179Y-34036000D01*
X175707424Y-34255976D01*
X175707426Y-34255986D01*
X175764575Y-34469270D01*
X175764580Y-34469284D01*
X175857898Y-34669405D01*
X175857901Y-34669411D01*
X175903258Y-34734187D01*
X175903259Y-34734188D01*
X176574000Y-34063447D01*
X176574000Y-34086160D01*
X176599964Y-34183061D01*
X176650124Y-34269940D01*
X176721060Y-34340876D01*
X176807939Y-34391036D01*
X176904840Y-34417000D01*
X176927551Y-34417000D01*
X176256810Y-35087740D01*
X176321589Y-35133098D01*
X176450781Y-35193342D01*
X176503220Y-35239514D01*
X176522372Y-35306708D01*
X176502156Y-35373589D01*
X176450781Y-35418106D01*
X176321340Y-35478465D01*
X176321338Y-35478466D01*
X176140377Y-35605175D01*
X175984175Y-35761377D01*
X175857466Y-35942338D01*
X175857465Y-35942340D01*
X175764107Y-36142548D01*
X175764104Y-36142554D01*
X175706930Y-36355929D01*
X175706929Y-36355937D01*
X175687677Y-36575997D01*
X175687677Y-36576002D01*
X175706929Y-36796062D01*
X175706930Y-36796070D01*
X175764104Y-37009445D01*
X175764105Y-37009447D01*
X175764106Y-37009450D01*
X175857466Y-37209662D01*
X175857468Y-37209666D01*
X175984170Y-37390615D01*
X175984175Y-37390621D01*
X176140378Y-37546824D01*
X176140384Y-37546829D01*
X176321333Y-37673531D01*
X176321335Y-37673532D01*
X176321338Y-37673534D01*
X176440748Y-37729215D01*
X176450189Y-37733618D01*
X176502628Y-37779790D01*
X176521780Y-37846984D01*
X176501564Y-37913865D01*
X176450189Y-37958382D01*
X176321340Y-38018465D01*
X176321338Y-38018466D01*
X176140377Y-38145175D01*
X175984175Y-38301377D01*
X175857466Y-38482338D01*
X175857465Y-38482340D01*
X175764107Y-38682548D01*
X175764104Y-38682554D01*
X175706930Y-38895929D01*
X175706929Y-38895937D01*
X175687677Y-39115997D01*
X175687677Y-39116002D01*
X175706929Y-39336062D01*
X175706930Y-39336070D01*
X175764104Y-39549445D01*
X175764105Y-39549447D01*
X175764106Y-39549450D01*
X175805899Y-39639075D01*
X175857466Y-39749662D01*
X175857468Y-39749666D01*
X175984170Y-39930615D01*
X175984175Y-39930621D01*
X176140378Y-40086824D01*
X176140384Y-40086829D01*
X176321333Y-40213531D01*
X176321335Y-40213532D01*
X176321338Y-40213534D01*
X176440748Y-40269215D01*
X176450189Y-40273618D01*
X176502628Y-40319790D01*
X176521780Y-40386984D01*
X176501564Y-40453865D01*
X176450189Y-40498382D01*
X176321340Y-40558465D01*
X176321338Y-40558466D01*
X176140377Y-40685175D01*
X175984175Y-40841377D01*
X175857466Y-41022338D01*
X175857465Y-41022340D01*
X175764107Y-41222548D01*
X175764104Y-41222554D01*
X175706930Y-41435929D01*
X175706929Y-41435937D01*
X175687677Y-41655997D01*
X175687677Y-41656002D01*
X175706929Y-41876062D01*
X175706930Y-41876070D01*
X175764104Y-42089445D01*
X175764105Y-42089447D01*
X175764106Y-42089450D01*
X175806957Y-42181344D01*
X175857466Y-42289662D01*
X175857468Y-42289666D01*
X175984170Y-42470615D01*
X175984175Y-42470621D01*
X176140378Y-42626824D01*
X176140384Y-42626829D01*
X176321333Y-42753531D01*
X176321335Y-42753532D01*
X176321338Y-42753534D01*
X176440748Y-42809215D01*
X176450189Y-42813618D01*
X176502628Y-42859790D01*
X176521780Y-42926984D01*
X176501564Y-42993865D01*
X176450189Y-43038382D01*
X176321340Y-43098465D01*
X176321338Y-43098466D01*
X176140377Y-43225175D01*
X175984175Y-43381377D01*
X175857466Y-43562338D01*
X175857465Y-43562340D01*
X175764107Y-43762548D01*
X175764104Y-43762554D01*
X175706930Y-43975929D01*
X175706929Y-43975937D01*
X175687677Y-44195997D01*
X175687677Y-44196002D01*
X175706929Y-44416062D01*
X175706930Y-44416070D01*
X175764104Y-44629445D01*
X175764105Y-44629447D01*
X175764106Y-44629450D01*
X175806957Y-44721344D01*
X175857466Y-44829662D01*
X175857468Y-44829666D01*
X175984170Y-45010615D01*
X175984175Y-45010621D01*
X176140378Y-45166824D01*
X176140384Y-45166829D01*
X176321333Y-45293531D01*
X176321335Y-45293532D01*
X176321338Y-45293534D01*
X176403218Y-45331715D01*
X176450781Y-45353894D01*
X176503220Y-45400066D01*
X176522372Y-45467260D01*
X176502156Y-45534141D01*
X176450781Y-45578658D01*
X176321590Y-45638901D01*
X176256811Y-45684258D01*
X176927553Y-46355000D01*
X176904840Y-46355000D01*
X176807939Y-46380964D01*
X176721060Y-46431124D01*
X176650124Y-46502060D01*
X176599964Y-46588939D01*
X176574000Y-46685840D01*
X176574000Y-46708553D01*
X175903258Y-46037811D01*
X175857901Y-46102590D01*
X175764579Y-46302720D01*
X175764575Y-46302729D01*
X175707426Y-46516013D01*
X175707424Y-46516023D01*
X175688179Y-46735999D01*
X175688179Y-46736000D01*
X175707424Y-46955976D01*
X175707426Y-46955986D01*
X175764575Y-47169270D01*
X175764580Y-47169284D01*
X175857898Y-47369405D01*
X175857901Y-47369411D01*
X175903258Y-47434187D01*
X175903259Y-47434188D01*
X176574000Y-46763447D01*
X176574000Y-46786160D01*
X176599964Y-46883061D01*
X176650124Y-46969940D01*
X176721060Y-47040876D01*
X176807939Y-47091036D01*
X176904840Y-47117000D01*
X176927551Y-47117000D01*
X176256810Y-47787740D01*
X176321589Y-47833098D01*
X176450781Y-47893342D01*
X176503220Y-47939514D01*
X176522372Y-48006708D01*
X176502156Y-48073589D01*
X176450781Y-48118106D01*
X176321340Y-48178465D01*
X176321338Y-48178466D01*
X176140377Y-48305175D01*
X175984175Y-48461377D01*
X175857466Y-48642338D01*
X175857465Y-48642340D01*
X175764107Y-48842548D01*
X175764104Y-48842554D01*
X175706930Y-49055929D01*
X175706929Y-49055937D01*
X175687677Y-49275997D01*
X175687677Y-49276002D01*
X175706929Y-49496062D01*
X175706930Y-49496070D01*
X175764104Y-49709445D01*
X175764105Y-49709447D01*
X175764106Y-49709450D01*
X175821122Y-49831722D01*
X175857466Y-49909662D01*
X175857468Y-49909666D01*
X175984170Y-50090615D01*
X175984175Y-50090621D01*
X176140378Y-50246824D01*
X176140384Y-50246829D01*
X176321333Y-50373531D01*
X176321335Y-50373532D01*
X176321338Y-50373534D01*
X176440748Y-50429215D01*
X176450189Y-50433618D01*
X176502628Y-50479790D01*
X176521780Y-50546984D01*
X176501564Y-50613865D01*
X176450189Y-50658382D01*
X176321340Y-50718465D01*
X176321338Y-50718466D01*
X176140377Y-50845175D01*
X175984175Y-51001377D01*
X175857466Y-51182338D01*
X175857465Y-51182340D01*
X175764107Y-51382548D01*
X175764104Y-51382554D01*
X175706930Y-51595929D01*
X175706929Y-51595937D01*
X175687677Y-51815997D01*
X175687677Y-51816002D01*
X175706929Y-52036062D01*
X175706930Y-52036070D01*
X175764104Y-52249445D01*
X175764105Y-52249447D01*
X175764106Y-52249450D01*
X175853660Y-52441500D01*
X175857466Y-52449662D01*
X175857468Y-52449666D01*
X175984170Y-52630615D01*
X175984175Y-52630621D01*
X176140378Y-52786824D01*
X176140384Y-52786829D01*
X176321333Y-52913531D01*
X176321335Y-52913532D01*
X176321338Y-52913534D01*
X176440748Y-52969215D01*
X176450189Y-52973618D01*
X176502628Y-53019790D01*
X176521780Y-53086984D01*
X176501564Y-53153865D01*
X176450189Y-53198382D01*
X176321340Y-53258465D01*
X176321338Y-53258466D01*
X176140377Y-53385175D01*
X175984175Y-53541377D01*
X175857466Y-53722338D01*
X175857465Y-53722340D01*
X175764107Y-53922548D01*
X175764104Y-53922554D01*
X175706930Y-54135929D01*
X175706929Y-54135937D01*
X175687677Y-54355997D01*
X175687677Y-54356002D01*
X175706929Y-54576062D01*
X175706930Y-54576070D01*
X175764104Y-54789445D01*
X175764105Y-54789447D01*
X175764106Y-54789450D01*
X175781668Y-54827111D01*
X175857466Y-54989662D01*
X175857468Y-54989666D01*
X175984170Y-55170615D01*
X175984175Y-55170621D01*
X176140378Y-55326824D01*
X176140384Y-55326829D01*
X176321333Y-55453531D01*
X176321335Y-55453532D01*
X176321338Y-55453534D01*
X176380484Y-55481114D01*
X176450189Y-55513618D01*
X176502628Y-55559790D01*
X176521780Y-55626984D01*
X176501564Y-55693865D01*
X176450189Y-55738382D01*
X176321340Y-55798465D01*
X176321338Y-55798466D01*
X176140377Y-55925175D01*
X175984175Y-56081377D01*
X175857466Y-56262338D01*
X175857465Y-56262340D01*
X175764107Y-56462548D01*
X175764104Y-56462554D01*
X175706930Y-56675929D01*
X175706929Y-56675937D01*
X175687677Y-56895997D01*
X175687677Y-56896002D01*
X175706929Y-57116062D01*
X175706930Y-57116070D01*
X175764104Y-57329445D01*
X175764105Y-57329447D01*
X175764106Y-57329450D01*
X175776725Y-57356511D01*
X175857466Y-57529662D01*
X175857468Y-57529666D01*
X175984170Y-57710615D01*
X175984175Y-57710621D01*
X176140378Y-57866824D01*
X176140384Y-57866829D01*
X176321333Y-57993531D01*
X176321335Y-57993532D01*
X176321338Y-57993534D01*
X176450781Y-58053894D01*
X176503220Y-58100066D01*
X176522372Y-58167260D01*
X176502156Y-58234141D01*
X176450781Y-58278658D01*
X176321590Y-58338901D01*
X176256811Y-58384258D01*
X176927553Y-59055000D01*
X176904840Y-59055000D01*
X176807939Y-59080964D01*
X176721060Y-59131124D01*
X176650124Y-59202060D01*
X176599964Y-59288939D01*
X176574000Y-59385840D01*
X176574000Y-59408553D01*
X175903258Y-58737811D01*
X175857901Y-58802590D01*
X175764579Y-59002720D01*
X175764575Y-59002729D01*
X175707426Y-59216013D01*
X175707424Y-59216023D01*
X175688179Y-59435999D01*
X175688179Y-59436000D01*
X175707424Y-59655976D01*
X175707426Y-59655986D01*
X175764575Y-59869270D01*
X175764580Y-59869284D01*
X175857898Y-60069405D01*
X175857901Y-60069411D01*
X175903258Y-60134187D01*
X175903259Y-60134188D01*
X176574000Y-59463447D01*
X176574000Y-59486160D01*
X176599964Y-59583061D01*
X176650124Y-59669940D01*
X176721060Y-59740876D01*
X176807939Y-59791036D01*
X176904840Y-59817000D01*
X176927551Y-59817000D01*
X176256810Y-60487740D01*
X176321589Y-60533098D01*
X176450781Y-60593342D01*
X176503220Y-60639514D01*
X176522372Y-60706708D01*
X176502156Y-60773589D01*
X176450781Y-60818106D01*
X176321340Y-60878465D01*
X176321338Y-60878466D01*
X176140377Y-61005175D01*
X175984175Y-61161377D01*
X175857466Y-61342338D01*
X175857465Y-61342340D01*
X175764107Y-61542548D01*
X175764104Y-61542554D01*
X175706930Y-61755929D01*
X175706929Y-61755937D01*
X175687677Y-61975997D01*
X175687677Y-61976002D01*
X175696185Y-62073246D01*
X175702941Y-62150478D01*
X175706930Y-62196066D01*
X175706930Y-62196070D01*
X175718707Y-62240021D01*
X175717044Y-62309871D01*
X175686613Y-62359795D01*
X175200926Y-62845483D01*
X174744270Y-63302139D01*
X174744267Y-63302142D01*
X174721303Y-63325106D01*
X174657140Y-63389268D01*
X174637634Y-63418463D01*
X174637632Y-63418466D01*
X174637631Y-63418468D01*
X174588688Y-63491712D01*
X174580425Y-63511665D01*
X174580423Y-63511669D01*
X174541538Y-63605545D01*
X174541535Y-63605555D01*
X174517500Y-63726389D01*
X174517500Y-78676312D01*
X174497815Y-78743351D01*
X174485651Y-78759283D01*
X174465640Y-78781508D01*
X174406154Y-78818157D01*
X174336297Y-78816828D01*
X174285808Y-78786218D01*
X161951819Y-66452229D01*
X161918334Y-66390906D01*
X161915500Y-66364548D01*
X161915500Y-33678741D01*
X161915501Y-33678720D01*
X161915501Y-33549391D01*
X161891465Y-33428557D01*
X161891463Y-33428553D01*
X161891463Y-33428549D01*
X161888277Y-33420858D01*
X161867730Y-33371252D01*
X161844312Y-33314715D01*
X161775858Y-33212267D01*
X161775855Y-33212263D01*
X160443386Y-31879795D01*
X160409901Y-31818472D01*
X160411293Y-31760018D01*
X160414017Y-31749855D01*
X160423070Y-31716068D01*
X160442323Y-31496000D01*
X160436854Y-31433493D01*
X160434586Y-31407564D01*
X160423070Y-31275932D01*
X160365894Y-31062550D01*
X160272534Y-30862339D01*
X160209180Y-30771859D01*
X160145827Y-30681381D01*
X160077001Y-30612555D01*
X159989620Y-30525174D01*
X159989616Y-30525171D01*
X159989615Y-30525170D01*
X159808666Y-30398468D01*
X159808658Y-30398464D01*
X159679811Y-30338382D01*
X159627371Y-30292210D01*
X159608219Y-30225017D01*
X159628435Y-30158135D01*
X159679811Y-30113618D01*
X159710087Y-30099500D01*
X159808662Y-30053534D01*
X159989620Y-29926826D01*
X160145826Y-29770620D01*
X160272534Y-29589662D01*
X160365894Y-29389450D01*
X160423070Y-29176068D01*
X160442323Y-28956000D01*
X160423070Y-28735932D01*
X160365894Y-28522550D01*
X160272534Y-28322339D01*
X160160269Y-28162007D01*
X160145827Y-28141381D01*
X160090962Y-28086516D01*
X159989620Y-27985174D01*
X159989616Y-27985171D01*
X159989615Y-27985170D01*
X159808666Y-27858468D01*
X159808662Y-27858466D01*
X159761457Y-27836454D01*
X159608450Y-27765106D01*
X159608447Y-27765105D01*
X159608445Y-27765104D01*
X159395070Y-27707930D01*
X159395062Y-27707929D01*
X159175002Y-27688677D01*
X159174998Y-27688677D01*
X159125265Y-27693028D01*
X159114458Y-27693500D01*
X156587129Y-27693500D01*
X156587123Y-27693501D01*
X156527516Y-27699908D01*
X156392671Y-27750202D01*
X156392664Y-27750206D01*
X156277455Y-27836452D01*
X156277452Y-27836455D01*
X156191206Y-27951664D01*
X156191202Y-27951671D01*
X156140908Y-28086517D01*
X156135010Y-28141380D01*
X156134501Y-28146123D01*
X156134500Y-28146135D01*
X156134500Y-29282547D01*
X156114815Y-29349586D01*
X156098181Y-29370228D01*
X155824144Y-29644264D01*
X155824138Y-29644272D01*
X155755690Y-29746708D01*
X155755688Y-29746713D01*
X155708540Y-29860538D01*
X155708537Y-29860546D01*
X155698872Y-29909140D01*
X155688690Y-29960331D01*
X155684500Y-29981394D01*
X155684500Y-32644606D01*
X155705879Y-32752091D01*
X155705880Y-32752094D01*
X155705879Y-32752094D01*
X155708535Y-32765447D01*
X155708537Y-32765453D01*
X155755685Y-32879280D01*
X155755687Y-32879283D01*
X155755688Y-32879286D01*
X155783613Y-32921078D01*
X155789914Y-32930507D01*
X155789915Y-32930509D01*
X155824140Y-32981731D01*
X155824141Y-32981732D01*
X155824142Y-32981733D01*
X155911267Y-33068858D01*
X155911268Y-33068858D01*
X155918335Y-33075925D01*
X155918334Y-33075925D01*
X155918338Y-33075928D01*
X156098681Y-33256272D01*
X156132166Y-33317595D01*
X156135000Y-33343953D01*
X156135000Y-33786000D01*
X158031000Y-33786000D01*
X158098039Y-33805685D01*
X158143794Y-33858489D01*
X158155000Y-33910000D01*
X158155000Y-34162000D01*
X158135315Y-34229039D01*
X158082511Y-34274794D01*
X158031000Y-34286000D01*
X156135000Y-34286000D01*
X156135000Y-34845844D01*
X156141401Y-34905372D01*
X156141403Y-34905379D01*
X156191645Y-35040086D01*
X156191649Y-35040093D01*
X156277808Y-35155186D01*
X156346248Y-35206420D01*
X156388119Y-35262354D01*
X156393103Y-35332046D01*
X156359618Y-35393369D01*
X156346249Y-35404953D01*
X156277452Y-35456455D01*
X156191206Y-35571664D01*
X156191202Y-35571671D01*
X156140908Y-35706517D01*
X156134501Y-35766116D01*
X156134500Y-35766135D01*
X156134500Y-37385870D01*
X156134501Y-37385876D01*
X156140908Y-37445483D01*
X156191202Y-37580328D01*
X156191206Y-37580335D01*
X156277452Y-37695544D01*
X156277453Y-37695544D01*
X156277454Y-37695546D01*
X156326447Y-37732222D01*
X156345832Y-37746734D01*
X156387702Y-37802668D01*
X156392686Y-37872360D01*
X156359200Y-37933682D01*
X156345832Y-37945266D01*
X156277452Y-37996455D01*
X156191206Y-38111664D01*
X156191202Y-38111671D01*
X156140908Y-38246517D01*
X156135010Y-38301380D01*
X156134501Y-38306123D01*
X156134500Y-38306135D01*
X156134500Y-39925870D01*
X156134501Y-39925876D01*
X156140908Y-39985483D01*
X156191202Y-40120328D01*
X156191206Y-40120335D01*
X156277452Y-40235544D01*
X156277453Y-40235544D01*
X156277454Y-40235546D01*
X156326447Y-40272222D01*
X156345832Y-40286734D01*
X156387702Y-40342668D01*
X156392686Y-40412360D01*
X156359200Y-40473682D01*
X156345832Y-40485266D01*
X156277452Y-40536455D01*
X156191206Y-40651664D01*
X156191202Y-40651671D01*
X156140908Y-40786517D01*
X156135010Y-40841380D01*
X156134501Y-40846123D01*
X156134500Y-40846135D01*
X156134500Y-42465870D01*
X156134501Y-42465876D01*
X156140908Y-42525483D01*
X156191202Y-42660328D01*
X156191206Y-42660335D01*
X156277452Y-42775544D01*
X156277453Y-42775544D01*
X156277454Y-42775546D01*
X156326447Y-42812222D01*
X156345832Y-42826734D01*
X156387702Y-42882668D01*
X156392686Y-42952360D01*
X156359200Y-43013682D01*
X156345832Y-43025266D01*
X156277452Y-43076455D01*
X156191206Y-43191664D01*
X156191202Y-43191671D01*
X156140908Y-43326517D01*
X156134501Y-43386116D01*
X156134500Y-43386135D01*
X156134500Y-45005870D01*
X156134501Y-45005876D01*
X156140908Y-45065483D01*
X156191202Y-45200328D01*
X156191206Y-45200335D01*
X156277452Y-45315544D01*
X156277455Y-45315547D01*
X156346248Y-45367046D01*
X156388119Y-45422980D01*
X156393103Y-45492671D01*
X156359617Y-45553994D01*
X156346249Y-45565578D01*
X156277809Y-45616812D01*
X156191649Y-45731906D01*
X156191645Y-45731913D01*
X156141403Y-45866620D01*
X156141401Y-45866627D01*
X156135000Y-45926155D01*
X156135000Y-46486000D01*
X158031000Y-46486000D01*
X158098039Y-46505685D01*
X158143794Y-46558489D01*
X158155000Y-46610000D01*
X158155000Y-46862000D01*
X158135315Y-46929039D01*
X158082511Y-46974794D01*
X158031000Y-46986000D01*
X156135000Y-46986000D01*
X156135000Y-47545844D01*
X156141401Y-47605372D01*
X156141403Y-47605379D01*
X156191645Y-47740086D01*
X156191649Y-47740093D01*
X156277808Y-47855186D01*
X156346248Y-47906420D01*
X156388119Y-47962354D01*
X156393103Y-48032046D01*
X156359618Y-48093369D01*
X156346249Y-48104953D01*
X156277452Y-48156455D01*
X156191206Y-48271664D01*
X156191202Y-48271671D01*
X156140908Y-48406517D01*
X156134501Y-48466116D01*
X156134500Y-48466135D01*
X156134500Y-48526500D01*
X156114815Y-48593539D01*
X156062011Y-48639294D01*
X156010500Y-48650500D01*
X155062389Y-48650500D01*
X155001971Y-48662518D01*
X154958743Y-48671116D01*
X154941546Y-48674537D01*
X154889042Y-48696286D01*
X154827715Y-48721687D01*
X154725265Y-48790142D01*
X154725262Y-48790145D01*
X154252229Y-49263181D01*
X154190906Y-49296666D01*
X154164548Y-49299500D01*
X154105354Y-49299500D01*
X154072897Y-49306398D01*
X153920197Y-49338855D01*
X153920192Y-49338857D01*
X153747270Y-49415848D01*
X153747265Y-49415851D01*
X153594129Y-49527111D01*
X153467466Y-49667785D01*
X153372821Y-49831715D01*
X153372818Y-49831722D01*
X153314327Y-50011740D01*
X153314326Y-50011744D01*
X153294540Y-50200000D01*
X153314326Y-50388256D01*
X153314327Y-50388259D01*
X153372818Y-50568277D01*
X153372821Y-50568284D01*
X153467467Y-50732216D01*
X153569175Y-50845174D01*
X153594129Y-50872888D01*
X153747265Y-50984148D01*
X153747270Y-50984151D01*
X153920192Y-51061142D01*
X153920197Y-51061144D01*
X154105354Y-51100500D01*
X154105355Y-51100500D01*
X154294644Y-51100500D01*
X154294646Y-51100500D01*
X154479803Y-51061144D01*
X154652730Y-50984151D01*
X154805871Y-50872888D01*
X154932533Y-50732216D01*
X155027179Y-50568284D01*
X155085674Y-50388256D01*
X155103321Y-50220344D01*
X155129904Y-50155734D01*
X155138941Y-50145648D01*
X155346773Y-49937816D01*
X155408095Y-49904334D01*
X155434453Y-49901500D01*
X156010501Y-49901500D01*
X156077540Y-49921185D01*
X156123295Y-49973989D01*
X156134501Y-50025500D01*
X156134501Y-50085876D01*
X156140908Y-50145483D01*
X156191202Y-50280328D01*
X156191206Y-50280335D01*
X156277452Y-50395544D01*
X156277453Y-50395544D01*
X156277454Y-50395546D01*
X156326447Y-50432222D01*
X156345832Y-50446734D01*
X156387702Y-50502668D01*
X156392686Y-50572360D01*
X156359200Y-50633682D01*
X156345832Y-50645266D01*
X156277452Y-50696455D01*
X156191206Y-50811664D01*
X156191202Y-50811671D01*
X156140908Y-50946517D01*
X156134501Y-51006116D01*
X156134500Y-51006135D01*
X156134500Y-51066500D01*
X156114815Y-51133539D01*
X156062011Y-51179294D01*
X156010500Y-51190500D01*
X155122389Y-51190500D01*
X155061971Y-51202518D01*
X155024259Y-51210019D01*
X155001550Y-51214536D01*
X155001548Y-51214537D01*
X154968207Y-51228347D01*
X154887719Y-51261684D01*
X154887705Y-51261692D01*
X154785272Y-51330138D01*
X154785264Y-51330144D01*
X154698139Y-51417270D01*
X154252229Y-51863181D01*
X154190906Y-51896666D01*
X154164548Y-51899500D01*
X154105354Y-51899500D01*
X154072897Y-51906398D01*
X153920197Y-51938855D01*
X153920192Y-51938857D01*
X153747270Y-52015848D01*
X153747265Y-52015851D01*
X153594129Y-52127111D01*
X153467466Y-52267785D01*
X153372821Y-52431715D01*
X153372818Y-52431722D01*
X153316517Y-52605000D01*
X153314326Y-52611744D01*
X153294540Y-52800000D01*
X153314326Y-52988256D01*
X153314327Y-52988259D01*
X153372818Y-53168277D01*
X153372821Y-53168284D01*
X153467467Y-53332216D01*
X153515151Y-53385174D01*
X153594129Y-53472888D01*
X153747265Y-53584148D01*
X153747270Y-53584151D01*
X153920192Y-53661142D01*
X153920197Y-53661144D01*
X154105354Y-53700500D01*
X154105355Y-53700500D01*
X154294644Y-53700500D01*
X154294646Y-53700500D01*
X154479803Y-53661144D01*
X154652730Y-53584151D01*
X154805871Y-53472888D01*
X154932533Y-53332216D01*
X155027179Y-53168284D01*
X155085674Y-52988256D01*
X155103321Y-52820346D01*
X155129905Y-52755733D01*
X155138961Y-52745628D01*
X155406771Y-52477819D01*
X155468094Y-52444334D01*
X155494452Y-52441500D01*
X156010501Y-52441500D01*
X156077540Y-52461185D01*
X156123295Y-52513989D01*
X156134501Y-52565500D01*
X156134501Y-52625876D01*
X156140908Y-52685483D01*
X156191202Y-52820328D01*
X156191206Y-52820335D01*
X156277452Y-52935544D01*
X156277453Y-52935544D01*
X156277454Y-52935546D01*
X156326447Y-52972222D01*
X156345832Y-52986734D01*
X156387702Y-53042668D01*
X156392686Y-53112360D01*
X156359200Y-53173682D01*
X156345832Y-53185266D01*
X156277452Y-53236455D01*
X156191206Y-53351664D01*
X156191202Y-53351671D01*
X156140908Y-53486517D01*
X156134501Y-53546116D01*
X156134500Y-53546135D01*
X156134500Y-53606500D01*
X156114815Y-53673539D01*
X156062011Y-53719294D01*
X156010500Y-53730500D01*
X155282389Y-53730500D01*
X155221971Y-53742518D01*
X155178743Y-53751116D01*
X155161546Y-53754537D01*
X155047716Y-53801687D01*
X155047707Y-53801692D01*
X154945268Y-53870140D01*
X154914125Y-53901284D01*
X154858142Y-53957267D01*
X154858139Y-53957270D01*
X154545910Y-54269500D01*
X154252229Y-54563181D01*
X154190906Y-54596666D01*
X154164548Y-54599500D01*
X154105354Y-54599500D01*
X154072897Y-54606398D01*
X153920197Y-54638855D01*
X153920192Y-54638857D01*
X153747270Y-54715848D01*
X153747265Y-54715851D01*
X153594129Y-54827111D01*
X153467466Y-54967785D01*
X153372821Y-55131715D01*
X153372818Y-55131722D01*
X153314327Y-55311740D01*
X153314326Y-55311744D01*
X153294540Y-55500000D01*
X153314326Y-55688256D01*
X153314327Y-55688259D01*
X153372818Y-55868277D01*
X153372821Y-55868284D01*
X153467467Y-56032216D01*
X153587027Y-56165000D01*
X153594129Y-56172888D01*
X153747265Y-56284148D01*
X153747270Y-56284151D01*
X153920192Y-56361142D01*
X153920197Y-56361144D01*
X154105354Y-56400500D01*
X154105355Y-56400500D01*
X154294644Y-56400500D01*
X154294646Y-56400500D01*
X154479803Y-56361144D01*
X154652730Y-56284151D01*
X154805871Y-56172888D01*
X154932533Y-56032216D01*
X155027179Y-55868284D01*
X155085674Y-55688256D01*
X155103321Y-55520346D01*
X155129905Y-55455733D01*
X155138961Y-55445628D01*
X155566771Y-55017819D01*
X155628094Y-54984334D01*
X155654452Y-54981500D01*
X156010501Y-54981500D01*
X156077540Y-55001185D01*
X156123295Y-55053989D01*
X156134501Y-55105500D01*
X156134501Y-55165876D01*
X156140908Y-55225483D01*
X156191202Y-55360328D01*
X156191206Y-55360335D01*
X156277452Y-55475544D01*
X156277453Y-55475544D01*
X156277454Y-55475546D01*
X156326447Y-55512222D01*
X156345832Y-55526734D01*
X156387702Y-55582668D01*
X156392686Y-55652360D01*
X156359200Y-55713682D01*
X156345832Y-55725266D01*
X156277452Y-55776455D01*
X156191206Y-55891664D01*
X156191202Y-55891671D01*
X156140908Y-56026517D01*
X156134501Y-56086116D01*
X156134500Y-56086135D01*
X156134500Y-57705870D01*
X156134501Y-57705876D01*
X156140908Y-57765483D01*
X156191202Y-57900328D01*
X156191206Y-57900335D01*
X156277452Y-58015544D01*
X156277455Y-58015547D01*
X156346248Y-58067046D01*
X156388119Y-58122980D01*
X156393103Y-58192671D01*
X156359617Y-58253994D01*
X156346249Y-58265578D01*
X156277809Y-58316812D01*
X156191649Y-58431906D01*
X156191645Y-58431913D01*
X156141403Y-58566620D01*
X156141401Y-58566627D01*
X156135000Y-58626155D01*
X156135000Y-59186000D01*
X158031000Y-59186000D01*
X158098039Y-59205685D01*
X158143794Y-59258489D01*
X158155000Y-59310000D01*
X158155000Y-59562000D01*
X158135315Y-59629039D01*
X158082511Y-59674794D01*
X158031000Y-59686000D01*
X156135000Y-59686000D01*
X156135000Y-60245844D01*
X156141401Y-60305372D01*
X156141403Y-60305379D01*
X156191645Y-60440086D01*
X156191649Y-60440093D01*
X156277808Y-60555186D01*
X156346248Y-60606420D01*
X156388119Y-60662354D01*
X156393103Y-60732046D01*
X156359618Y-60793369D01*
X156346249Y-60804953D01*
X156277452Y-60856455D01*
X156191206Y-60971664D01*
X156191202Y-60971671D01*
X156140908Y-61106517D01*
X156134501Y-61166116D01*
X156134500Y-61166135D01*
X156134500Y-62785870D01*
X156134501Y-62785876D01*
X156140908Y-62845483D01*
X156191202Y-62980328D01*
X156191206Y-62980335D01*
X156277452Y-63095544D01*
X156277453Y-63095544D01*
X156277454Y-63095546D01*
X156323227Y-63129812D01*
X156345832Y-63146734D01*
X156387702Y-63202668D01*
X156392686Y-63272360D01*
X156359200Y-63333682D01*
X156345832Y-63345266D01*
X156277454Y-63396454D01*
X156192358Y-63510126D01*
X156136424Y-63551996D01*
X156066732Y-63556980D01*
X156005409Y-63523494D01*
X155971925Y-63462170D01*
X155969774Y-63448797D01*
X155960674Y-63362207D01*
X155957438Y-63352249D01*
X155902181Y-63182185D01*
X155902180Y-63182184D01*
X155902179Y-63182179D01*
X155807533Y-63018247D01*
X155680871Y-62877575D01*
X155642259Y-62849522D01*
X155572478Y-62798823D01*
X155529812Y-62743493D01*
X155522042Y-62685547D01*
X155530460Y-62605462D01*
X155510674Y-62417206D01*
X155452179Y-62237178D01*
X155357533Y-62073246D01*
X155230871Y-61932574D01*
X155131669Y-61860500D01*
X155079886Y-61822877D01*
X155037221Y-61767547D01*
X155029451Y-61709597D01*
X155030460Y-61700000D01*
X155010674Y-61511744D01*
X154952179Y-61331716D01*
X154857533Y-61167784D01*
X154730871Y-61027112D01*
X154712126Y-61013493D01*
X154577734Y-60915851D01*
X154577729Y-60915848D01*
X154404807Y-60838857D01*
X154404802Y-60838855D01*
X154259001Y-60807865D01*
X154219646Y-60799500D01*
X154030354Y-60799500D01*
X153997897Y-60806398D01*
X153845197Y-60838855D01*
X153845192Y-60838857D01*
X153672270Y-60915848D01*
X153672265Y-60915851D01*
X153519129Y-61027111D01*
X153392466Y-61167785D01*
X153297821Y-61331715D01*
X153297818Y-61331722D01*
X153245671Y-61492216D01*
X153239326Y-61511744D01*
X153219540Y-61700000D01*
X153239326Y-61888256D01*
X153239327Y-61888259D01*
X153268431Y-61977831D01*
X153274500Y-62016149D01*
X153274500Y-74425944D01*
X153254815Y-74492983D01*
X153238181Y-74513625D01*
X153119681Y-74632125D01*
X153058358Y-74665610D01*
X152988666Y-74660626D01*
X152932733Y-74618754D01*
X152908316Y-74553290D01*
X152908000Y-74544444D01*
X152908000Y-25624500D01*
X152927685Y-25557461D01*
X152980489Y-25511706D01*
X153032000Y-25500500D01*
X196875500Y-25500500D01*
X196942539Y-25520185D01*
G37*
%TD.AperFunction*%
%TA.AperFunction,Conductor*%
G36*
X186055000Y-88885500D02*
G01*
X186505500Y-88885500D01*
X186572539Y-88905185D01*
X186618294Y-88957989D01*
X186629500Y-89009500D01*
X186629500Y-94374547D01*
X186609815Y-94441586D01*
X186593181Y-94462228D01*
X184521269Y-96534140D01*
X184521267Y-96534142D01*
X184477703Y-96577705D01*
X184434140Y-96621268D01*
X184416420Y-96647790D01*
X184416418Y-96647793D01*
X184365688Y-96723714D01*
X184365686Y-96723717D01*
X184340943Y-96783452D01*
X184340944Y-96783453D01*
X184318536Y-96837549D01*
X184318535Y-96837555D01*
X184294500Y-96958389D01*
X184294500Y-98481225D01*
X184274815Y-98548264D01*
X184229519Y-98590279D01*
X184148864Y-98633928D01*
X184148853Y-98633935D01*
X183967018Y-98775463D01*
X183967015Y-98775466D01*
X183810939Y-98945010D01*
X183745809Y-99044699D01*
X183692662Y-99090055D01*
X183623431Y-99099479D01*
X183560095Y-99069977D01*
X183538191Y-99044699D01*
X183516559Y-99011589D01*
X183473061Y-98945010D01*
X183316988Y-98775469D01*
X183316983Y-98775465D01*
X183316981Y-98775463D01*
X183135146Y-98633935D01*
X183135135Y-98633928D01*
X182935483Y-98525882D01*
X182885892Y-98476662D01*
X182870500Y-98416827D01*
X182870500Y-95639500D01*
X182890185Y-95572461D01*
X182942989Y-95526706D01*
X182994500Y-95515500D01*
X183064644Y-95515500D01*
X183064646Y-95515500D01*
X183249803Y-95476144D01*
X183422730Y-95399151D01*
X183575871Y-95287888D01*
X183702533Y-95147216D01*
X183797179Y-94983284D01*
X183855674Y-94803256D01*
X183873321Y-94635345D01*
X183899905Y-94570732D01*
X183908951Y-94560637D01*
X184467771Y-94001819D01*
X184529094Y-93968334D01*
X184555452Y-93965500D01*
X184745000Y-93965500D01*
X184816940Y-93960355D01*
X184954992Y-93919819D01*
X185076032Y-93842031D01*
X185170254Y-93733294D01*
X185230024Y-93602416D01*
X185250500Y-93460000D01*
X185250500Y-91960000D01*
X185245355Y-91888060D01*
X185204819Y-91750008D01*
X185159506Y-91679500D01*
X185127032Y-91628969D01*
X185127028Y-91628965D01*
X185018299Y-91534750D01*
X185018297Y-91534748D01*
X185018294Y-91534746D01*
X185018290Y-91534744D01*
X184887419Y-91474976D01*
X184887414Y-91474975D01*
X184745000Y-91454500D01*
X183745000Y-91454500D01*
X183744984Y-91454500D01*
X183681481Y-91458506D01*
X183672947Y-91460857D01*
X183634889Y-91471340D01*
X183584316Y-91474530D01*
X183445000Y-91454500D01*
X181219593Y-91454500D01*
X181152554Y-91434815D01*
X181106799Y-91382011D01*
X181096855Y-91312853D01*
X181112206Y-91268500D01*
X181123412Y-91249090D01*
X181167179Y-91173284D01*
X181225674Y-90993256D01*
X181245460Y-90805000D01*
X181225674Y-90616744D01*
X181167179Y-90436716D01*
X181072533Y-90272784D01*
X180945871Y-90132112D01*
X180874145Y-90080000D01*
X180787473Y-90017029D01*
X180788741Y-90015282D01*
X180747451Y-89971961D01*
X180734242Y-89903352D01*
X180760222Y-89838492D01*
X180769977Y-89827502D01*
X181230664Y-89366816D01*
X181291986Y-89333334D01*
X181318344Y-89330500D01*
X184241607Y-89330500D01*
X184302029Y-89318481D01*
X184362452Y-89306463D01*
X184362455Y-89306461D01*
X184362458Y-89306461D01*
X184395787Y-89292654D01*
X184395786Y-89292654D01*
X184395792Y-89292652D01*
X184476286Y-89259312D01*
X184536831Y-89218856D01*
X184578733Y-89190858D01*
X184665858Y-89103733D01*
X184665859Y-89103730D01*
X184847772Y-88921816D01*
X184909095Y-88888334D01*
X184935452Y-88885500D01*
X185754984Y-88885500D01*
X185755000Y-88885500D01*
X185818522Y-88881493D01*
X185818526Y-88881492D01*
X185818527Y-88881492D01*
X185845472Y-88874069D01*
X185865104Y-88868660D01*
X185915680Y-88865469D01*
X186055000Y-88885500D01*
G37*
%TD.AperFunction*%
%TA.AperFunction,Conductor*%
G36*
X174820703Y-81090739D02*
G01*
X174827181Y-81096771D01*
X178503181Y-84772771D01*
X178536666Y-84834094D01*
X178539500Y-84860452D01*
X178539500Y-86256485D01*
X178519815Y-86323524D01*
X178467011Y-86369279D01*
X178397856Y-86379223D01*
X178365005Y-86374500D01*
X178365000Y-86374500D01*
X175965000Y-86374500D01*
X175964978Y-86374500D01*
X175884669Y-86380923D01*
X175884658Y-86380925D01*
X175856253Y-86389787D01*
X175801680Y-86394151D01*
X175665000Y-86374500D01*
X174739500Y-86374500D01*
X174672461Y-86354815D01*
X174626706Y-86302011D01*
X174615500Y-86250500D01*
X174615500Y-81184452D01*
X174635185Y-81117413D01*
X174687989Y-81071658D01*
X174757147Y-81061714D01*
X174820703Y-81090739D01*
G37*
%TD.AperFunction*%
%TA.AperFunction,Conductor*%
G36*
X160178181Y-60085628D02*
G01*
X160211666Y-60146951D01*
X160214500Y-60173309D01*
X160214500Y-60930691D01*
X160194815Y-60997730D01*
X160142011Y-61043485D01*
X160072853Y-61053429D01*
X160009297Y-61024404D01*
X160002821Y-61018375D01*
X159997939Y-61013493D01*
X159989620Y-61005174D01*
X159989616Y-61005171D01*
X159989615Y-61005170D01*
X159808666Y-60878468D01*
X159808662Y-60878466D01*
X159679218Y-60818105D01*
X159626779Y-60771932D01*
X159607627Y-60704739D01*
X159627843Y-60637858D01*
X159679219Y-60593340D01*
X159808416Y-60533095D01*
X159808417Y-60533094D01*
X159873188Y-60487741D01*
X159202447Y-59817000D01*
X159225160Y-59817000D01*
X159322061Y-59791036D01*
X159408940Y-59740876D01*
X159479876Y-59669940D01*
X159530036Y-59583061D01*
X159556000Y-59486160D01*
X159556000Y-59463447D01*
X160178181Y-60085628D01*
G37*
%TD.AperFunction*%
%TA.AperFunction,Conductor*%
G36*
X160133834Y-57825126D02*
G01*
X160189767Y-57866998D01*
X160214184Y-57932462D01*
X160214500Y-57941308D01*
X160214500Y-58698691D01*
X160194815Y-58765730D01*
X160178181Y-58786372D01*
X159556000Y-59408553D01*
X159556000Y-59385840D01*
X159530036Y-59288939D01*
X159479876Y-59202060D01*
X159408940Y-59131124D01*
X159322061Y-59080964D01*
X159225160Y-59055000D01*
X159202447Y-59055000D01*
X159873188Y-58384258D01*
X159808411Y-58338901D01*
X159808405Y-58338898D01*
X159679219Y-58278658D01*
X159626779Y-58232486D01*
X159607627Y-58165293D01*
X159627843Y-58098411D01*
X159679219Y-58053894D01*
X159808662Y-57993534D01*
X159989620Y-57866826D01*
X160002819Y-57853627D01*
X160064142Y-57820142D01*
X160133834Y-57825126D01*
G37*
%TD.AperFunction*%
%TA.AperFunction,Conductor*%
G36*
X185876812Y-45830185D02*
G01*
X185911348Y-45863377D01*
X186046501Y-46056396D01*
X186046506Y-46056402D01*
X186213597Y-46223493D01*
X186213603Y-46223498D01*
X186399158Y-46353425D01*
X186442783Y-46408002D01*
X186449977Y-46477500D01*
X186418454Y-46539855D01*
X186399158Y-46556575D01*
X186213597Y-46686505D01*
X186046505Y-46853597D01*
X185911348Y-47046623D01*
X185856771Y-47090248D01*
X185809773Y-47099500D01*
X181713389Y-47099500D01*
X181652971Y-47111518D01*
X181615259Y-47119019D01*
X181592550Y-47123536D01*
X181592548Y-47123537D01*
X181559207Y-47137347D01*
X181478719Y-47170684D01*
X181478705Y-47170692D01*
X181376272Y-47239138D01*
X181376264Y-47239144D01*
X181289139Y-47326269D01*
X181289139Y-47326270D01*
X181152227Y-47463182D01*
X181090907Y-47496666D01*
X181064548Y-47499500D01*
X181005354Y-47499500D01*
X180972897Y-47506398D01*
X180820197Y-47538855D01*
X180820192Y-47538857D01*
X180647270Y-47615848D01*
X180647265Y-47615851D01*
X180494129Y-47727111D01*
X180367466Y-47867785D01*
X180272821Y-48031715D01*
X180272818Y-48031722D01*
X180221825Y-48188664D01*
X180214326Y-48211744D01*
X180212335Y-48230691D01*
X180203982Y-48310160D01*
X180177397Y-48374774D01*
X180120099Y-48414758D01*
X180050280Y-48417418D01*
X179990107Y-48381908D01*
X179964479Y-48340529D01*
X179938798Y-48271673D01*
X179938793Y-48271664D01*
X179852547Y-48156455D01*
X179783750Y-48104953D01*
X179741880Y-48049019D01*
X179736896Y-47979327D01*
X179770382Y-47918005D01*
X179783752Y-47906420D01*
X179852189Y-47855188D01*
X179852190Y-47855187D01*
X179938350Y-47740093D01*
X179938354Y-47740086D01*
X179988596Y-47605379D01*
X179988598Y-47605372D01*
X179994999Y-47545844D01*
X179995000Y-47545827D01*
X179995000Y-46986000D01*
X178099000Y-46986000D01*
X178031961Y-46966315D01*
X177986206Y-46913511D01*
X177975000Y-46862000D01*
X177975000Y-46610000D01*
X177994685Y-46542961D01*
X178047489Y-46497206D01*
X178099000Y-46486000D01*
X179995000Y-46486000D01*
X179995000Y-45996144D01*
X180014685Y-45929105D01*
X180067489Y-45883350D01*
X180136647Y-45873406D01*
X180200203Y-45902431D01*
X180236931Y-45957826D01*
X180272818Y-46068278D01*
X180272821Y-46068284D01*
X180367467Y-46232216D01*
X180476604Y-46353425D01*
X180494129Y-46372888D01*
X180647265Y-46484148D01*
X180647270Y-46484151D01*
X180820192Y-46561142D01*
X180820197Y-46561144D01*
X181005354Y-46600500D01*
X181005355Y-46600500D01*
X181194644Y-46600500D01*
X181194646Y-46600500D01*
X181379803Y-46561144D01*
X181552730Y-46484151D01*
X181705871Y-46372888D01*
X181832533Y-46232216D01*
X181927179Y-46068284D01*
X181973360Y-45926155D01*
X181983099Y-45896182D01*
X182022537Y-45838506D01*
X182086895Y-45811308D01*
X182101030Y-45810500D01*
X185809773Y-45810500D01*
X185876812Y-45830185D01*
G37*
%TD.AperFunction*%
%TA.AperFunction,Conductor*%
G36*
X160133834Y-45125126D02*
G01*
X160189767Y-45166998D01*
X160214184Y-45232462D01*
X160214500Y-45241308D01*
X160214500Y-45998691D01*
X160194815Y-46065730D01*
X160178181Y-46086372D01*
X159556000Y-46708553D01*
X159556000Y-46685840D01*
X159530036Y-46588939D01*
X159479876Y-46502060D01*
X159408940Y-46431124D01*
X159322061Y-46380964D01*
X159225160Y-46355000D01*
X159202447Y-46355000D01*
X159873188Y-45684258D01*
X159808411Y-45638901D01*
X159808405Y-45638898D01*
X159679219Y-45578658D01*
X159626779Y-45532486D01*
X159607627Y-45465293D01*
X159627843Y-45398411D01*
X159679219Y-45353894D01*
X159726767Y-45331722D01*
X159808662Y-45293534D01*
X159989620Y-45166826D01*
X160002819Y-45153627D01*
X160064142Y-45120142D01*
X160133834Y-45125126D01*
G37*
%TD.AperFunction*%
%TA.AperFunction,Conductor*%
G36*
X160178181Y-34685628D02*
G01*
X160211666Y-34746951D01*
X160214500Y-34773309D01*
X160214500Y-35530691D01*
X160194815Y-35597730D01*
X160142011Y-35643485D01*
X160072853Y-35653429D01*
X160009297Y-35624404D01*
X160002821Y-35618375D01*
X159989620Y-35605174D01*
X159989616Y-35605171D01*
X159989615Y-35605170D01*
X159808666Y-35478468D01*
X159808662Y-35478466D01*
X159679218Y-35418105D01*
X159626779Y-35371932D01*
X159607627Y-35304739D01*
X159627843Y-35237858D01*
X159679219Y-35193340D01*
X159808416Y-35133095D01*
X159808417Y-35133094D01*
X159873188Y-35087741D01*
X159202447Y-34417000D01*
X159225160Y-34417000D01*
X159322061Y-34391036D01*
X159408940Y-34340876D01*
X159479876Y-34269940D01*
X159530036Y-34183061D01*
X159556000Y-34086160D01*
X159556000Y-34063447D01*
X160178181Y-34685628D01*
G37*
%TD.AperFunction*%
%TD*%
%TA.AperFunction,NonConductor*%
G36*
X160178181Y-47385628D02*
G01*
X160211666Y-47446951D01*
X160214500Y-47473309D01*
X160214500Y-48230691D01*
X160194815Y-48297730D01*
X160142011Y-48343485D01*
X160072853Y-48353429D01*
X160009297Y-48324404D01*
X160002821Y-48318375D01*
X159989620Y-48305174D01*
X159989616Y-48305171D01*
X159989615Y-48305170D01*
X159808666Y-48178468D01*
X159808662Y-48178466D01*
X159679218Y-48118105D01*
X159626779Y-48071932D01*
X159607627Y-48004739D01*
X159627843Y-47937858D01*
X159679219Y-47893340D01*
X159808416Y-47833095D01*
X159808417Y-47833094D01*
X159873188Y-47787741D01*
X159202447Y-47117000D01*
X159225160Y-47117000D01*
X159322061Y-47091036D01*
X159408940Y-47040876D01*
X159479876Y-46969940D01*
X159530036Y-46883061D01*
X159556000Y-46786160D01*
X159556000Y-46763447D01*
X160178181Y-47385628D01*
G37*
%TD.AperFunction*%
%TA.AperFunction,NonConductor*%
G36*
X156087151Y-63881657D02*
G01*
X156127680Y-63938571D01*
X156134500Y-63979128D01*
X156134500Y-65325870D01*
X156134501Y-65325876D01*
X156140908Y-65385483D01*
X156191202Y-65520328D01*
X156191206Y-65520335D01*
X156277452Y-65635544D01*
X156277453Y-65635544D01*
X156277454Y-65635546D01*
X156326447Y-65672222D01*
X156345832Y-65686734D01*
X156387702Y-65742668D01*
X156392686Y-65812360D01*
X156359200Y-65873682D01*
X156345832Y-65885266D01*
X156277452Y-65936455D01*
X156191206Y-66051664D01*
X156191202Y-66051671D01*
X156140908Y-66186517D01*
X156134501Y-66246116D01*
X156134500Y-66246135D01*
X156134500Y-67865870D01*
X156134501Y-67865876D01*
X156140908Y-67925483D01*
X156191202Y-68060328D01*
X156191206Y-68060335D01*
X156277452Y-68175544D01*
X156277453Y-68175544D01*
X156277454Y-68175546D01*
X156326447Y-68212222D01*
X156345832Y-68226734D01*
X156387702Y-68282668D01*
X156392686Y-68352360D01*
X156359200Y-68413682D01*
X156345832Y-68425266D01*
X156277452Y-68476455D01*
X156191206Y-68591664D01*
X156191202Y-68591671D01*
X156140908Y-68726517D01*
X156135010Y-68781380D01*
X156134501Y-68786123D01*
X156134500Y-68786135D01*
X156134500Y-70405870D01*
X156134501Y-70405876D01*
X156140908Y-70465483D01*
X156191202Y-70600328D01*
X156191206Y-70600335D01*
X156277452Y-70715544D01*
X156277453Y-70715544D01*
X156277454Y-70715546D01*
X156326447Y-70752222D01*
X156345832Y-70766734D01*
X156387702Y-70822668D01*
X156392686Y-70892360D01*
X156359200Y-70953682D01*
X156345832Y-70965266D01*
X156277452Y-71016455D01*
X156191206Y-71131664D01*
X156191202Y-71131671D01*
X156140908Y-71266517D01*
X156134501Y-71326116D01*
X156134500Y-71326135D01*
X156134500Y-72945870D01*
X156134501Y-72945876D01*
X156140908Y-73005483D01*
X156191202Y-73140328D01*
X156191206Y-73140335D01*
X156277452Y-73255544D01*
X156277453Y-73255544D01*
X156277454Y-73255546D01*
X156326447Y-73292222D01*
X156345832Y-73306734D01*
X156387702Y-73362668D01*
X156392686Y-73432360D01*
X156359200Y-73493682D01*
X156345832Y-73505266D01*
X156277452Y-73556455D01*
X156191206Y-73671664D01*
X156191202Y-73671671D01*
X156140908Y-73806517D01*
X156135010Y-73861380D01*
X156134501Y-73866123D01*
X156134500Y-73866135D01*
X156134500Y-75485870D01*
X156134501Y-75485876D01*
X156140908Y-75545483D01*
X156191202Y-75680328D01*
X156191206Y-75680335D01*
X156277452Y-75795544D01*
X156277453Y-75795544D01*
X156277454Y-75795546D01*
X156302927Y-75814615D01*
X156345832Y-75846734D01*
X156387702Y-75902668D01*
X156392686Y-75972360D01*
X156359200Y-76033682D01*
X156345832Y-76045266D01*
X156277452Y-76096455D01*
X156191206Y-76211664D01*
X156191202Y-76211671D01*
X156140908Y-76346517D01*
X156135010Y-76401380D01*
X156134501Y-76406123D01*
X156134500Y-76406135D01*
X156134500Y-78025870D01*
X156134501Y-78025876D01*
X156140908Y-78085483D01*
X156191202Y-78220328D01*
X156191206Y-78220335D01*
X156277452Y-78335544D01*
X156277455Y-78335547D01*
X156392664Y-78421793D01*
X156392671Y-78421797D01*
X156527517Y-78472091D01*
X156527516Y-78472091D01*
X156534444Y-78472835D01*
X156587127Y-78478500D01*
X159114447Y-78478499D01*
X159125254Y-78478971D01*
X159174998Y-78483323D01*
X159175000Y-78483323D01*
X159175002Y-78483323D01*
X159230151Y-78478498D01*
X159395068Y-78464070D01*
X159608450Y-78406894D01*
X159808662Y-78313534D01*
X159989620Y-78186826D01*
X160145826Y-78030620D01*
X160272534Y-77849662D01*
X160365894Y-77649450D01*
X160423070Y-77436068D01*
X160442323Y-77216000D01*
X160423070Y-76995932D01*
X160365894Y-76782550D01*
X160272534Y-76582339D01*
X160167583Y-76432452D01*
X160145827Y-76401381D01*
X160090962Y-76346516D01*
X159989620Y-76245174D01*
X159989616Y-76245171D01*
X159989615Y-76245170D01*
X159808666Y-76118468D01*
X159808658Y-76118464D01*
X159679811Y-76058382D01*
X159627371Y-76012210D01*
X159608219Y-75945017D01*
X159628435Y-75878135D01*
X159679811Y-75833618D01*
X159720563Y-75814615D01*
X159808662Y-75773534D01*
X159989620Y-75646826D01*
X160145826Y-75490620D01*
X160272534Y-75309662D01*
X160365894Y-75109450D01*
X160423070Y-74896068D01*
X160442323Y-74676000D01*
X160423070Y-74455932D01*
X160365894Y-74242550D01*
X160272534Y-74042339D01*
X160157947Y-73878691D01*
X160145827Y-73861381D01*
X160090962Y-73806516D01*
X159989620Y-73705174D01*
X159989616Y-73705171D01*
X159989615Y-73705170D01*
X159808666Y-73578468D01*
X159808658Y-73578464D01*
X159679811Y-73518382D01*
X159627371Y-73472210D01*
X159608219Y-73405017D01*
X159628435Y-73338135D01*
X159679811Y-73293618D01*
X159685802Y-73290824D01*
X159808662Y-73233534D01*
X159989620Y-73106826D01*
X160145826Y-72950620D01*
X160272534Y-72769662D01*
X160365894Y-72569450D01*
X160423070Y-72356068D01*
X160442323Y-72136000D01*
X160423070Y-71915932D01*
X160365894Y-71702550D01*
X160272534Y-71502339D01*
X160209180Y-71411859D01*
X160145827Y-71321381D01*
X160090963Y-71266517D01*
X159989620Y-71165174D01*
X159989616Y-71165171D01*
X159989615Y-71165170D01*
X159808666Y-71038468D01*
X159808658Y-71038464D01*
X159679811Y-70978382D01*
X159627371Y-70932210D01*
X159608219Y-70865017D01*
X159628435Y-70798135D01*
X159679811Y-70753618D01*
X159685802Y-70750824D01*
X159808662Y-70693534D01*
X159989620Y-70566826D01*
X160145826Y-70410620D01*
X160272534Y-70229662D01*
X160365894Y-70029450D01*
X160423070Y-69816068D01*
X160442323Y-69596000D01*
X160423070Y-69375932D01*
X160365894Y-69162550D01*
X160272534Y-68962339D01*
X160209180Y-68871859D01*
X160145827Y-68781381D01*
X160090962Y-68726516D01*
X159989620Y-68625174D01*
X159989616Y-68625171D01*
X159989615Y-68625170D01*
X159808666Y-68498468D01*
X159808658Y-68498464D01*
X159679811Y-68438382D01*
X159627371Y-68392210D01*
X159608219Y-68325017D01*
X159628435Y-68258135D01*
X159679811Y-68213618D01*
X159685802Y-68210824D01*
X159808662Y-68153534D01*
X159989620Y-68026826D01*
X160145826Y-67870620D01*
X160272534Y-67689662D01*
X160360243Y-67501566D01*
X160406414Y-67449129D01*
X160473607Y-67429977D01*
X160540488Y-67450192D01*
X160560305Y-67466292D01*
X166841690Y-73747677D01*
X166875175Y-73808999D01*
X166870191Y-73878691D01*
X166828319Y-73934624D01*
X166762855Y-73959041D01*
X166694582Y-73944189D01*
X166682886Y-73936933D01*
X166679588Y-73934624D01*
X166633662Y-73902466D01*
X166433450Y-73809106D01*
X166433447Y-73809105D01*
X166433445Y-73809104D01*
X166220070Y-73751930D01*
X166220062Y-73751929D01*
X166000002Y-73732677D01*
X165999998Y-73732677D01*
X165779937Y-73751929D01*
X165779929Y-73751930D01*
X165566554Y-73809104D01*
X165566548Y-73809107D01*
X165366340Y-73902465D01*
X165366338Y-73902466D01*
X165185377Y-74029175D01*
X165029175Y-74185377D01*
X164902466Y-74366338D01*
X164902465Y-74366340D01*
X164809107Y-74566548D01*
X164809104Y-74566554D01*
X164751930Y-74779929D01*
X164751929Y-74779936D01*
X164733812Y-74987016D01*
X164708359Y-75052084D01*
X164697965Y-75063889D01*
X153119681Y-86642174D01*
X153058358Y-86675659D01*
X152988666Y-86670675D01*
X152932733Y-86628803D01*
X152908316Y-86563339D01*
X152908000Y-86554493D01*
X152908000Y-77848250D01*
X152927685Y-77781211D01*
X152980489Y-77735456D01*
X152984484Y-77733715D01*
X153055474Y-77704312D01*
X153112966Y-77665896D01*
X153157921Y-77635858D01*
X153245046Y-77548733D01*
X153245047Y-77548730D01*
X153252113Y-77541665D01*
X153252116Y-77541661D01*
X155198729Y-75595048D01*
X155198733Y-75595046D01*
X155285858Y-75507921D01*
X155335618Y-75433450D01*
X155354312Y-75405474D01*
X155401463Y-75291639D01*
X155401649Y-75290707D01*
X155425500Y-75170794D01*
X155425500Y-64460656D01*
X155445185Y-64393617D01*
X155497989Y-64347862D01*
X155499064Y-64347377D01*
X155527730Y-64334614D01*
X155680871Y-64223351D01*
X155807533Y-64082679D01*
X155902179Y-63918747D01*
X155902179Y-63918746D01*
X155903113Y-63917129D01*
X155953679Y-63868913D01*
X156022286Y-63855689D01*
X156087151Y-63881657D01*
G37*
%TD.AperFunction*%
%TA.AperFunction,Conductor*%
%TO.N,GND*%
G36*
X152345539Y-77795185D02*
G01*
X152391294Y-77847989D01*
X152402500Y-77899500D01*
X152402500Y-86554512D01*
X152402820Y-86572494D01*
X152403139Y-86581410D01*
X152404103Y-86599396D01*
X152404105Y-86599411D01*
X152434686Y-86739987D01*
X152434688Y-86739994D01*
X152438909Y-86751310D01*
X152459105Y-86805459D01*
X152459107Y-86805463D01*
X152528056Y-86931733D01*
X152528057Y-86931734D01*
X152591408Y-86995088D01*
X152624892Y-87056412D01*
X152619906Y-87126103D01*
X152591406Y-87170448D01*
X152062309Y-87699547D01*
X152041901Y-87719955D01*
X151980927Y-87780929D01*
X151919953Y-87841902D01*
X151824145Y-87985288D01*
X151824138Y-87985301D01*
X151758146Y-88144621D01*
X151758143Y-88144633D01*
X151724500Y-88313766D01*
X151724500Y-88760500D01*
X151704815Y-88827539D01*
X151652011Y-88873294D01*
X151600500Y-88884500D01*
X150177129Y-88884500D01*
X150177123Y-88884501D01*
X150117516Y-88890908D01*
X149982671Y-88941202D01*
X149982664Y-88941206D01*
X149867455Y-89027452D01*
X149867452Y-89027455D01*
X149781206Y-89142664D01*
X149781202Y-89142671D01*
X149730908Y-89277517D01*
X149725884Y-89324251D01*
X149724501Y-89337123D01*
X149724500Y-89337135D01*
X149724500Y-94182870D01*
X149724501Y-94182876D01*
X149730908Y-94242483D01*
X149781202Y-94377328D01*
X149781206Y-94377335D01*
X149867452Y-94492544D01*
X149867455Y-94492547D01*
X149982664Y-94578793D01*
X149982671Y-94578797D01*
X150117517Y-94629091D01*
X150117516Y-94629091D01*
X150124444Y-94629835D01*
X150177127Y-94635500D01*
X155022872Y-94635499D01*
X155082483Y-94629091D01*
X155217331Y-94578796D01*
X155332546Y-94492546D01*
X155418796Y-94377331D01*
X155469091Y-94242483D01*
X155475500Y-94182873D01*
X155475499Y-89337128D01*
X155469091Y-89277517D01*
X155464618Y-89265525D01*
X155427995Y-89167333D01*
X155423011Y-89097642D01*
X155456496Y-89036319D01*
X155517819Y-89002834D01*
X155544177Y-89000000D01*
X157676000Y-89000000D01*
X157743039Y-89019685D01*
X157788794Y-89072489D01*
X157800000Y-89124000D01*
X157800000Y-99375500D01*
X157780315Y-99442539D01*
X157727511Y-99488294D01*
X157676000Y-99499500D01*
X86304500Y-99499500D01*
X86237461Y-99479815D01*
X86191706Y-99427011D01*
X86180500Y-99375500D01*
X86180500Y-89429500D01*
X86200185Y-89362461D01*
X86252989Y-89316706D01*
X86304500Y-89305500D01*
X89740988Y-89305500D01*
X89808027Y-89325185D01*
X89853782Y-89377989D01*
X89863726Y-89447147D01*
X89834701Y-89510703D01*
X89820694Y-89524489D01*
X89653376Y-89664885D01*
X89653366Y-89664895D01*
X89423507Y-89908529D01*
X89423502Y-89908535D01*
X89223486Y-90177203D01*
X89056007Y-90467286D01*
X89056001Y-90467299D01*
X88923334Y-90774854D01*
X88827267Y-91095743D01*
X88827264Y-91095757D01*
X88769104Y-91425597D01*
X88769103Y-91425608D01*
X88749627Y-91759996D01*
X88749627Y-91760003D01*
X88769103Y-92094391D01*
X88769104Y-92094402D01*
X88827264Y-92424242D01*
X88827267Y-92424256D01*
X88827268Y-92424260D01*
X88837348Y-92457928D01*
X88923334Y-92745145D01*
X89056001Y-93052700D01*
X89056007Y-93052713D01*
X89223486Y-93342796D01*
X89423502Y-93611464D01*
X89423507Y-93611470D01*
X89538090Y-93732920D01*
X89653368Y-93855107D01*
X89653374Y-93855112D01*
X89653376Y-93855114D01*
X89909958Y-94070412D01*
X89909966Y-94070418D01*
X90189809Y-94254474D01*
X90189813Y-94254476D01*
X90489143Y-94404805D01*
X90803900Y-94519367D01*
X90803906Y-94519368D01*
X90803908Y-94519369D01*
X91129812Y-94596611D01*
X91129819Y-94596612D01*
X91129828Y-94596614D01*
X91462521Y-94635500D01*
X91462528Y-94635500D01*
X91797472Y-94635500D01*
X91797479Y-94635500D01*
X92130172Y-94596614D01*
X92130181Y-94596611D01*
X92130187Y-94596611D01*
X92403561Y-94531819D01*
X92456100Y-94519367D01*
X92770857Y-94404805D01*
X93070187Y-94254476D01*
X93179058Y-94182870D01*
X93350033Y-94070418D01*
X93350033Y-94070417D01*
X93350039Y-94070414D01*
X93606632Y-93855107D01*
X93836494Y-93611468D01*
X94036517Y-93342791D01*
X94203995Y-93052709D01*
X94336665Y-92745146D01*
X94432732Y-92424260D01*
X94490897Y-92094391D01*
X94508885Y-91785555D01*
X94510373Y-91760003D01*
X94510373Y-91759996D01*
X94504721Y-91662956D01*
X94490897Y-91425609D01*
X94432732Y-91095740D01*
X94336665Y-90774854D01*
X94203995Y-90467291D01*
X94036517Y-90177209D01*
X94036513Y-90177203D01*
X93836497Y-89908535D01*
X93836492Y-89908529D01*
X93673751Y-89736035D01*
X93606632Y-89664893D01*
X93606625Y-89664887D01*
X93606623Y-89664885D01*
X93439306Y-89524489D01*
X93400604Y-89466318D01*
X93399496Y-89396457D01*
X93436333Y-89337087D01*
X93499420Y-89307058D01*
X93519012Y-89305500D01*
X106170500Y-89305500D01*
X106237539Y-89325185D01*
X106283294Y-89377989D01*
X106294500Y-89429500D01*
X106294500Y-95176000D01*
X106294501Y-95176009D01*
X106306052Y-95283450D01*
X106306054Y-95283462D01*
X106317260Y-95334972D01*
X106351383Y-95437497D01*
X106351386Y-95437503D01*
X106429171Y-95558537D01*
X106429179Y-95558548D01*
X106474923Y-95611340D01*
X106474926Y-95611343D01*
X106474930Y-95611347D01*
X106583664Y-95705567D01*
X106583667Y-95705568D01*
X106583668Y-95705569D01*
X106677925Y-95748616D01*
X106714541Y-95765338D01*
X106781580Y-95785023D01*
X106781584Y-95785024D01*
X106924000Y-95805500D01*
X106924003Y-95805500D01*
X118770490Y-95805500D01*
X118770500Y-95805500D01*
X118877956Y-95793947D01*
X118929467Y-95782741D01*
X119032004Y-95748613D01*
X119077198Y-95719567D01*
X119144236Y-95699882D01*
X119195751Y-95711088D01*
X119314534Y-95765335D01*
X119314541Y-95765338D01*
X119381580Y-95785023D01*
X119381584Y-95785024D01*
X119524000Y-95805500D01*
X119524003Y-95805500D01*
X124675990Y-95805500D01*
X124676000Y-95805500D01*
X124783456Y-95793947D01*
X124834967Y-95782741D01*
X124937504Y-95748613D01*
X124982698Y-95719567D01*
X125049736Y-95699882D01*
X125101251Y-95711088D01*
X125220034Y-95765335D01*
X125220041Y-95765338D01*
X125287080Y-95785023D01*
X125287084Y-95785024D01*
X125429500Y-95805500D01*
X125429503Y-95805500D01*
X137275990Y-95805500D01*
X137276000Y-95805500D01*
X137383456Y-95793947D01*
X137434967Y-95782741D01*
X137469197Y-95771347D01*
X137537497Y-95748616D01*
X137537501Y-95748613D01*
X137537504Y-95748613D01*
X137658543Y-95670825D01*
X137711347Y-95625070D01*
X137805567Y-95516336D01*
X137865338Y-95385459D01*
X137885023Y-95318420D01*
X137885024Y-95318416D01*
X137905500Y-95176000D01*
X137905500Y-91760003D01*
X138719627Y-91760003D01*
X138739103Y-92094391D01*
X138739104Y-92094402D01*
X138797264Y-92424242D01*
X138797267Y-92424256D01*
X138797268Y-92424260D01*
X138807348Y-92457928D01*
X138893334Y-92745145D01*
X139026001Y-93052700D01*
X139026007Y-93052713D01*
X139193486Y-93342796D01*
X139393502Y-93611464D01*
X139393507Y-93611470D01*
X139508090Y-93732920D01*
X139623368Y-93855107D01*
X139623374Y-93855112D01*
X139623376Y-93855114D01*
X139879958Y-94070412D01*
X139879966Y-94070418D01*
X140159809Y-94254474D01*
X140159813Y-94254476D01*
X140459143Y-94404805D01*
X140773900Y-94519367D01*
X140773906Y-94519368D01*
X140773908Y-94519369D01*
X141099812Y-94596611D01*
X141099819Y-94596612D01*
X141099828Y-94596614D01*
X141432521Y-94635500D01*
X141432528Y-94635500D01*
X141767472Y-94635500D01*
X141767479Y-94635500D01*
X142100172Y-94596614D01*
X142100181Y-94596611D01*
X142100187Y-94596611D01*
X142373561Y-94531819D01*
X142426100Y-94519367D01*
X142740857Y-94404805D01*
X143040187Y-94254476D01*
X143149058Y-94182870D01*
X143320033Y-94070418D01*
X143320033Y-94070417D01*
X143320039Y-94070414D01*
X143576632Y-93855107D01*
X143806494Y-93611468D01*
X144006517Y-93342791D01*
X144173995Y-93052709D01*
X144306665Y-92745146D01*
X144402732Y-92424260D01*
X144460897Y-92094391D01*
X144478885Y-91785555D01*
X144480373Y-91760003D01*
X144480373Y-91759996D01*
X144474721Y-91662956D01*
X144460897Y-91425609D01*
X144402732Y-91095740D01*
X144306665Y-90774854D01*
X144173995Y-90467291D01*
X144006517Y-90177209D01*
X144006513Y-90177203D01*
X143806497Y-89908535D01*
X143806492Y-89908529D01*
X143643751Y-89736035D01*
X143576632Y-89664893D01*
X143576625Y-89664887D01*
X143576623Y-89664885D01*
X143320041Y-89449587D01*
X143320033Y-89449581D01*
X143040190Y-89265525D01*
X142740864Y-89115198D01*
X142740858Y-89115195D01*
X142426112Y-89000637D01*
X142426091Y-89000630D01*
X142100187Y-88923388D01*
X142100172Y-88923386D01*
X142098084Y-88923142D01*
X141767479Y-88884500D01*
X141432521Y-88884500D01*
X141141414Y-88918525D01*
X141099827Y-88923386D01*
X141099812Y-88923388D01*
X140773908Y-89000630D01*
X140773887Y-89000637D01*
X140459141Y-89115195D01*
X140459135Y-89115198D01*
X140159809Y-89265525D01*
X139879966Y-89449581D01*
X139879958Y-89449587D01*
X139623376Y-89664885D01*
X139623366Y-89664895D01*
X139393507Y-89908529D01*
X139393502Y-89908535D01*
X139193486Y-90177203D01*
X139026007Y-90467286D01*
X139026001Y-90467299D01*
X138893334Y-90774854D01*
X138797267Y-91095743D01*
X138797264Y-91095757D01*
X138739104Y-91425597D01*
X138739103Y-91425608D01*
X138719627Y-91759996D01*
X138719627Y-91760003D01*
X137905500Y-91760003D01*
X137905500Y-79776785D01*
X137925185Y-79709746D01*
X137977989Y-79663991D01*
X138047147Y-79654047D01*
X138110703Y-79683072D01*
X138117181Y-79689104D01*
X138985680Y-80557605D01*
X138985684Y-80557608D01*
X139088129Y-80626060D01*
X139088128Y-80626060D01*
X139088130Y-80626061D01*
X139088132Y-80626062D01*
X139122287Y-80640209D01*
X139122288Y-80640210D01*
X139122289Y-80640210D01*
X139201965Y-80673213D01*
X139222014Y-80677201D01*
X139255613Y-80683884D01*
X139322809Y-80697251D01*
X139322811Y-80697251D01*
X139452138Y-80697251D01*
X139452158Y-80697250D01*
X139722432Y-80697250D01*
X139789471Y-80716935D01*
X139835226Y-80769739D01*
X139845752Y-80808285D01*
X139864326Y-80985006D01*
X139864327Y-80985009D01*
X139922818Y-81165027D01*
X139922821Y-81165034D01*
X140017467Y-81328966D01*
X140138401Y-81463276D01*
X140144129Y-81469638D01*
X140297265Y-81580898D01*
X140297270Y-81580901D01*
X140470192Y-81657892D01*
X140470197Y-81657894D01*
X140655354Y-81697250D01*
X140655355Y-81697250D01*
X140844644Y-81697250D01*
X140844646Y-81697250D01*
X141029803Y-81657894D01*
X141202730Y-81580901D01*
X141355871Y-81469638D01*
X141358788Y-81466397D01*
X141361600Y-81463276D01*
X141421087Y-81426629D01*
X141453748Y-81422250D01*
X142785086Y-81422250D01*
X142845508Y-81410231D01*
X142905931Y-81398213D01*
X142955975Y-81377484D01*
X143019765Y-81351062D01*
X143070988Y-81316834D01*
X143122212Y-81282608D01*
X143209337Y-81195483D01*
X143209338Y-81195481D01*
X143216404Y-81188415D01*
X143216407Y-81188411D01*
X144898729Y-79506089D01*
X144898733Y-79506087D01*
X144985858Y-79418962D01*
X145033131Y-79348213D01*
X145054312Y-79316515D01*
X145095147Y-79217929D01*
X145101463Y-79202681D01*
X145121596Y-79101463D01*
X145125500Y-79081836D01*
X145125500Y-78958622D01*
X145125500Y-77899500D01*
X145145185Y-77832461D01*
X145197989Y-77786706D01*
X145249500Y-77775500D01*
X152278500Y-77775500D01*
X152345539Y-77795185D01*
G37*
%TD.AperFunction*%
%TA.AperFunction,Conductor*%
G36*
X109237539Y-77145185D02*
G01*
X109283294Y-77197989D01*
X109294500Y-77249500D01*
X109294500Y-80610870D01*
X109274815Y-80677909D01*
X109222011Y-80723664D01*
X109152853Y-80733608D01*
X109106422Y-80717030D01*
X108390789Y-80285072D01*
X108390774Y-80285064D01*
X108265133Y-80230859D01*
X108265116Y-80230853D01*
X108236064Y-80222766D01*
X108235975Y-80222741D01*
X108201054Y-80213020D01*
X108065485Y-80194500D01*
X108065478Y-80194500D01*
X99207346Y-80194500D01*
X99140307Y-80174815D01*
X99094552Y-80122011D01*
X99084608Y-80052853D01*
X99113633Y-79989297D01*
X99131184Y-79972647D01*
X99254425Y-79876724D01*
X99282994Y-79854488D01*
X99451414Y-79671535D01*
X99587423Y-79463357D01*
X99687313Y-79235631D01*
X99748358Y-78994571D01*
X99751337Y-78958622D01*
X99768893Y-78746755D01*
X99768893Y-78746744D01*
X99748359Y-78498937D01*
X99748357Y-78498925D01*
X99687313Y-78257868D01*
X99587423Y-78030143D01*
X99451416Y-77821967D01*
X99408640Y-77775500D01*
X99351764Y-77713716D01*
X99320843Y-77651064D01*
X99328703Y-77581637D01*
X99372850Y-77527482D01*
X99373995Y-77526705D01*
X99435129Y-77485858D01*
X99522254Y-77398733D01*
X99588767Y-77299188D01*
X99604176Y-77280412D01*
X99722772Y-77161818D01*
X99784096Y-77128334D01*
X99810453Y-77125500D01*
X109170500Y-77125500D01*
X109237539Y-77145185D01*
G37*
%TD.AperFunction*%
%TA.AperFunction,Conductor*%
G36*
X129028721Y-77195185D02*
G01*
X129074476Y-77247989D01*
X129084420Y-77317147D01*
X129055395Y-77380703D01*
X129009953Y-77413719D01*
X128975227Y-77428394D01*
X128975225Y-77428395D01*
X128852018Y-77502692D01*
X128754732Y-77608691D01*
X128715289Y-77666375D01*
X128702794Y-77691789D01*
X128698905Y-77699075D01*
X128611583Y-77850320D01*
X128605718Y-77859519D01*
X128594431Y-77875612D01*
X128534664Y-78006480D01*
X128534662Y-78006487D01*
X128514977Y-78073526D01*
X128514976Y-78073530D01*
X128494500Y-78215946D01*
X128494500Y-78284053D01*
X128496154Y-78324914D01*
X128496155Y-78324936D01*
X128497772Y-78344878D01*
X128502721Y-78385462D01*
X128545871Y-78522713D01*
X128545877Y-78522728D01*
X128553928Y-78539506D01*
X128553963Y-78539725D01*
X128576491Y-78586527D01*
X128576556Y-78586661D01*
X128589688Y-78614029D01*
X128597261Y-78625509D01*
X128598947Y-78631008D01*
X128617120Y-78656025D01*
X128617130Y-78656039D01*
X128626618Y-78669102D01*
X128627719Y-78670642D01*
X128634655Y-78680505D01*
X128638116Y-78684931D01*
X128644852Y-78694205D01*
X128654725Y-78703644D01*
X128674055Y-78725115D01*
X128679034Y-78726864D01*
X128694342Y-78739875D01*
X128697271Y-78742805D01*
X128730746Y-78804134D01*
X128725749Y-78873824D01*
X128697256Y-78918152D01*
X128205479Y-79409931D01*
X128144156Y-79443416D01*
X128117798Y-79446250D01*
X121784723Y-79446250D01*
X121717684Y-79426565D01*
X121671929Y-79373761D01*
X121661985Y-79304603D01*
X121671166Y-79272442D01*
X121687313Y-79235631D01*
X121748358Y-78994571D01*
X121751337Y-78958622D01*
X121768893Y-78746755D01*
X121768893Y-78746744D01*
X121748359Y-78498937D01*
X121748357Y-78498925D01*
X121687313Y-78257868D01*
X121587423Y-78030143D01*
X121451416Y-77821967D01*
X121408640Y-77775500D01*
X121282994Y-77639012D01*
X121282989Y-77639008D01*
X121282987Y-77639006D01*
X121119715Y-77511926D01*
X121078902Y-77455216D01*
X121075227Y-77385443D01*
X121108195Y-77326394D01*
X121222772Y-77211818D01*
X121284095Y-77178334D01*
X121310452Y-77175500D01*
X128961682Y-77175500D01*
X129028721Y-77195185D01*
G37*
%TD.AperFunction*%
%TA.AperFunction,Conductor*%
G36*
X152345539Y-25520185D02*
G01*
X152391294Y-25572989D01*
X152402500Y-25624500D01*
X152402500Y-74544463D01*
X152402820Y-74562445D01*
X152402822Y-74562490D01*
X152403138Y-74571336D01*
X152404104Y-74589353D01*
X152411501Y-74623356D01*
X152406515Y-74693047D01*
X152378015Y-74737393D01*
X151977229Y-75138181D01*
X151915906Y-75171666D01*
X151889548Y-75174500D01*
X150380500Y-75174500D01*
X150313461Y-75154815D01*
X150267706Y-75102011D01*
X150256500Y-75050500D01*
X150256500Y-47354110D01*
X150256500Y-47354108D01*
X150222392Y-47226814D01*
X150156500Y-47112686D01*
X150063314Y-47019500D01*
X149960538Y-46960162D01*
X149912323Y-46909594D01*
X149899101Y-46840987D01*
X149899798Y-46835152D01*
X149905500Y-46795500D01*
X149905500Y-33880000D01*
X149893947Y-33772544D01*
X149882741Y-33721033D01*
X149868002Y-33676750D01*
X149848616Y-33618502D01*
X149848612Y-33618494D01*
X149841642Y-33607648D01*
X149821958Y-33540608D01*
X149841643Y-33473569D01*
X149894448Y-33427815D01*
X149929770Y-33417671D01*
X150018565Y-33405982D01*
X150259207Y-33341502D01*
X150489373Y-33246164D01*
X150705127Y-33121599D01*
X150902776Y-32969938D01*
X151078938Y-32793776D01*
X151230599Y-32596127D01*
X151355164Y-32380373D01*
X151450502Y-32150207D01*
X151514982Y-31909565D01*
X151547500Y-31662565D01*
X151547500Y-30313435D01*
X151514982Y-30066435D01*
X151450502Y-29825793D01*
X151379956Y-29655479D01*
X151355169Y-29595638D01*
X151355162Y-29595623D01*
X151230599Y-29379873D01*
X151078939Y-29182225D01*
X151078933Y-29182218D01*
X150902781Y-29006066D01*
X150902774Y-29006060D01*
X150705126Y-28854400D01*
X150489376Y-28729837D01*
X150489361Y-28729830D01*
X150259207Y-28634498D01*
X150018561Y-28570017D01*
X149771575Y-28537501D01*
X149771570Y-28537500D01*
X149771565Y-28537500D01*
X149522435Y-28537500D01*
X149522429Y-28537500D01*
X149522424Y-28537501D01*
X149275438Y-28570017D01*
X149034792Y-28634498D01*
X148804638Y-28729830D01*
X148804623Y-28729837D01*
X148588873Y-28854400D01*
X148391225Y-29006060D01*
X148391218Y-29006066D01*
X148215066Y-29182218D01*
X148215060Y-29182225D01*
X148063400Y-29379873D01*
X147938837Y-29595623D01*
X147938830Y-29595638D01*
X147843498Y-29825792D01*
X147779017Y-30066438D01*
X147746501Y-30313424D01*
X147746500Y-30313441D01*
X147746500Y-31662558D01*
X147746501Y-31662575D01*
X147778231Y-31903591D01*
X147779018Y-31909565D01*
X147816749Y-32050377D01*
X147843498Y-32150207D01*
X147938830Y-32380361D01*
X147938837Y-32380376D01*
X148063400Y-32596126D01*
X148215060Y-32793774D01*
X148215066Y-32793781D01*
X148391218Y-32969933D01*
X148391225Y-32969939D01*
X148467053Y-33028124D01*
X148508256Y-33084552D01*
X148512411Y-33154298D01*
X148478199Y-33215218D01*
X148416482Y-33247971D01*
X148391567Y-33250500D01*
X144329500Y-33250500D01*
X144329491Y-33250500D01*
X144329490Y-33250501D01*
X144222049Y-33262052D01*
X144222037Y-33262054D01*
X144170527Y-33273260D01*
X144067999Y-33307385D01*
X144022797Y-33336434D01*
X143955757Y-33356117D01*
X143904247Y-33344911D01*
X143785465Y-33290664D01*
X143785460Y-33290662D01*
X143785459Y-33290662D01*
X143718420Y-33270977D01*
X143718422Y-33270977D01*
X143718417Y-33270976D01*
X143650706Y-33261241D01*
X143576000Y-33250500D01*
X138424000Y-33250500D01*
X138423991Y-33250500D01*
X138423990Y-33250501D01*
X138316549Y-33262052D01*
X138316537Y-33262054D01*
X138265027Y-33273260D01*
X138162499Y-33307385D01*
X138117297Y-33336434D01*
X138050257Y-33356117D01*
X137998747Y-33344911D01*
X137879965Y-33290664D01*
X137879960Y-33290662D01*
X137879959Y-33290662D01*
X137812920Y-33270977D01*
X137812922Y-33270977D01*
X137812917Y-33270976D01*
X137745206Y-33261241D01*
X137670500Y-33250500D01*
X137670498Y-33250500D01*
X133802433Y-33250500D01*
X133735394Y-33230815D01*
X133689639Y-33178011D01*
X133679695Y-33108853D01*
X133708720Y-33045297D01*
X133726947Y-33028124D01*
X133764551Y-32999269D01*
X133802776Y-32969938D01*
X133978938Y-32793776D01*
X134130599Y-32596127D01*
X134255164Y-32380373D01*
X134350502Y-32150207D01*
X134414982Y-31909565D01*
X134447500Y-31662565D01*
X134447500Y-30313435D01*
X134414982Y-30066435D01*
X134350502Y-29825793D01*
X134279956Y-29655479D01*
X134255169Y-29595638D01*
X134255162Y-29595623D01*
X134130599Y-29379873D01*
X133978939Y-29182225D01*
X133978933Y-29182218D01*
X133802781Y-29006066D01*
X133802774Y-29006060D01*
X133605126Y-28854400D01*
X133389376Y-28729837D01*
X133389361Y-28729830D01*
X133159207Y-28634498D01*
X132918561Y-28570017D01*
X132671575Y-28537501D01*
X132671570Y-28537500D01*
X132671565Y-28537500D01*
X132422435Y-28537500D01*
X132422429Y-28537500D01*
X132422424Y-28537501D01*
X132175438Y-28570017D01*
X131934792Y-28634498D01*
X131704638Y-28729830D01*
X131704623Y-28729837D01*
X131488873Y-28854400D01*
X131291225Y-29006060D01*
X131291218Y-29006066D01*
X131115066Y-29182218D01*
X131115060Y-29182225D01*
X130963400Y-29379873D01*
X130838837Y-29595623D01*
X130838830Y-29595638D01*
X130743498Y-29825792D01*
X130679017Y-30066438D01*
X130646501Y-30313424D01*
X130646500Y-30313441D01*
X130646500Y-31662558D01*
X130646501Y-31662575D01*
X130678231Y-31903591D01*
X130679018Y-31909565D01*
X130716749Y-32050377D01*
X130743498Y-32150207D01*
X130838830Y-32380361D01*
X130838837Y-32380376D01*
X130963400Y-32596126D01*
X131115060Y-32793774D01*
X131115066Y-32793781D01*
X131291218Y-32969933D01*
X131291225Y-32969939D01*
X131488873Y-33121599D01*
X131704623Y-33246162D01*
X131704638Y-33246169D01*
X131812059Y-33290664D01*
X131934793Y-33341502D01*
X132105159Y-33387151D01*
X132164818Y-33423515D01*
X132195347Y-33486362D01*
X132187052Y-33555737D01*
X132185858Y-33558437D01*
X132134664Y-33670534D01*
X132114976Y-33737582D01*
X132109949Y-33772549D01*
X132094500Y-33880000D01*
X132094500Y-46795500D01*
X132094501Y-46795505D01*
X132094501Y-46795509D01*
X132106052Y-46902950D01*
X132106054Y-46902965D01*
X132107238Y-46908407D01*
X132102247Y-46978098D01*
X132073751Y-47022433D01*
X131983503Y-47112682D01*
X131983500Y-47112686D01*
X131917608Y-47226812D01*
X131883500Y-47354108D01*
X131883500Y-75350500D01*
X131863815Y-75417539D01*
X131811011Y-75463294D01*
X131759500Y-75474500D01*
X128380500Y-75474500D01*
X128313461Y-75454815D01*
X128267706Y-75402011D01*
X128256500Y-75350500D01*
X128256500Y-47354110D01*
X128256500Y-47354108D01*
X128222392Y-47226814D01*
X128156500Y-47112686D01*
X128063314Y-47019500D01*
X127960538Y-46960162D01*
X127912323Y-46909594D01*
X127899101Y-46840987D01*
X127899798Y-46835152D01*
X127905500Y-46795500D01*
X127905500Y-33880000D01*
X127893947Y-33772544D01*
X127882741Y-33721033D01*
X127868002Y-33676750D01*
X127848616Y-33618502D01*
X127848613Y-33618496D01*
X127833998Y-33595755D01*
X127814313Y-33528716D01*
X127833997Y-33461676D01*
X127886801Y-33415921D01*
X127916694Y-33407336D01*
X127916583Y-33406774D01*
X127920557Y-33405983D01*
X127920556Y-33405983D01*
X127920565Y-33405982D01*
X128161207Y-33341502D01*
X128391373Y-33246164D01*
X128607127Y-33121599D01*
X128804776Y-32969938D01*
X128980938Y-32793776D01*
X129132599Y-32596127D01*
X129257164Y-32380373D01*
X129352502Y-32150207D01*
X129416982Y-31909565D01*
X129449500Y-31662565D01*
X129449500Y-30313435D01*
X129416982Y-30066435D01*
X129352502Y-29825793D01*
X129281956Y-29655479D01*
X129257169Y-29595638D01*
X129257162Y-29595623D01*
X129132599Y-29379873D01*
X128980939Y-29182225D01*
X128980933Y-29182218D01*
X128804781Y-29006066D01*
X128804774Y-29006060D01*
X128607126Y-28854400D01*
X128391376Y-28729837D01*
X128391361Y-28729830D01*
X128161207Y-28634498D01*
X127920561Y-28570017D01*
X127673575Y-28537501D01*
X127673570Y-28537500D01*
X127673565Y-28537500D01*
X127424435Y-28537500D01*
X127424429Y-28537500D01*
X127424424Y-28537501D01*
X127177438Y-28570017D01*
X126936792Y-28634498D01*
X126706638Y-28729830D01*
X126706623Y-28729837D01*
X126490873Y-28854400D01*
X126293225Y-29006060D01*
X126293218Y-29006066D01*
X126117066Y-29182218D01*
X126117060Y-29182225D01*
X125965400Y-29379873D01*
X125840837Y-29595623D01*
X125840830Y-29595638D01*
X125745498Y-29825792D01*
X125681017Y-30066438D01*
X125648501Y-30313424D01*
X125648500Y-30313441D01*
X125648500Y-31662558D01*
X125648501Y-31662575D01*
X125680231Y-31903591D01*
X125681018Y-31909565D01*
X125718749Y-32050377D01*
X125745498Y-32150207D01*
X125840830Y-32380361D01*
X125840837Y-32380376D01*
X125965400Y-32596126D01*
X126117060Y-32793774D01*
X126117066Y-32793781D01*
X126293218Y-32969933D01*
X126293225Y-32969939D01*
X126369053Y-33028124D01*
X126410256Y-33084552D01*
X126414411Y-33154298D01*
X126380199Y-33215218D01*
X126318482Y-33247971D01*
X126293567Y-33250500D01*
X122329500Y-33250500D01*
X122329491Y-33250500D01*
X122329490Y-33250501D01*
X122222049Y-33262052D01*
X122222037Y-33262054D01*
X122170527Y-33273260D01*
X122067999Y-33307385D01*
X122022797Y-33336434D01*
X121955757Y-33356117D01*
X121904247Y-33344911D01*
X121785465Y-33290664D01*
X121785460Y-33290662D01*
X121785459Y-33290662D01*
X121718420Y-33270977D01*
X121718422Y-33270977D01*
X121718417Y-33270976D01*
X121650706Y-33261241D01*
X121576000Y-33250500D01*
X116424000Y-33250500D01*
X116423991Y-33250500D01*
X116423990Y-33250501D01*
X116316549Y-33262052D01*
X116316537Y-33262054D01*
X116265027Y-33273260D01*
X116162499Y-33307385D01*
X116117297Y-33336434D01*
X116050257Y-33356117D01*
X115998747Y-33344911D01*
X115879965Y-33290664D01*
X115879960Y-33290662D01*
X115879959Y-33290662D01*
X115812920Y-33270977D01*
X115812922Y-33270977D01*
X115812917Y-33270976D01*
X115745206Y-33261241D01*
X115670500Y-33250500D01*
X115670498Y-33250500D01*
X111704433Y-33250500D01*
X111637394Y-33230815D01*
X111591639Y-33178011D01*
X111581695Y-33108853D01*
X111610720Y-33045297D01*
X111628947Y-33028124D01*
X111666551Y-32999269D01*
X111704776Y-32969938D01*
X111880938Y-32793776D01*
X112032599Y-32596127D01*
X112157164Y-32380373D01*
X112252502Y-32150207D01*
X112316982Y-31909565D01*
X112349500Y-31662565D01*
X112349500Y-30313435D01*
X112316982Y-30066435D01*
X112252502Y-29825793D01*
X112181956Y-29655479D01*
X112157169Y-29595638D01*
X112157162Y-29595623D01*
X112032599Y-29379873D01*
X111880939Y-29182225D01*
X111880933Y-29182218D01*
X111704781Y-29006066D01*
X111704774Y-29006060D01*
X111507126Y-28854400D01*
X111291376Y-28729837D01*
X111291361Y-28729830D01*
X111061207Y-28634498D01*
X110820561Y-28570017D01*
X110573575Y-28537501D01*
X110573570Y-28537500D01*
X110573565Y-28537500D01*
X110324435Y-28537500D01*
X110324429Y-28537500D01*
X110324424Y-28537501D01*
X110077438Y-28570017D01*
X109836792Y-28634498D01*
X109606638Y-28729830D01*
X109606623Y-28729837D01*
X109390873Y-28854400D01*
X109193225Y-29006060D01*
X109193218Y-29006066D01*
X109017066Y-29182218D01*
X109017060Y-29182225D01*
X108865400Y-29379873D01*
X108740837Y-29595623D01*
X108740830Y-29595638D01*
X108645498Y-29825792D01*
X108581017Y-30066438D01*
X108548501Y-30313424D01*
X108548500Y-30313441D01*
X108548500Y-31662558D01*
X108548501Y-31662575D01*
X108580231Y-31903591D01*
X108581018Y-31909565D01*
X108618749Y-32050377D01*
X108645498Y-32150207D01*
X108740830Y-32380361D01*
X108740837Y-32380376D01*
X108865400Y-32596126D01*
X109017060Y-32793774D01*
X109017066Y-32793781D01*
X109193218Y-32969933D01*
X109193225Y-32969939D01*
X109390873Y-33121599D01*
X109606623Y-33246162D01*
X109606638Y-33246169D01*
X109672040Y-33273259D01*
X109836793Y-33341502D01*
X110077435Y-33405982D01*
X110079094Y-33406200D01*
X110079552Y-33406403D01*
X110081417Y-33406774D01*
X110081334Y-33407190D01*
X110142991Y-33434459D01*
X110181468Y-33492779D01*
X110182307Y-33562644D01*
X110175713Y-33580652D01*
X110134664Y-33670534D01*
X110114976Y-33737582D01*
X110109949Y-33772549D01*
X110094500Y-33880000D01*
X110094500Y-46795500D01*
X110094501Y-46795505D01*
X110094501Y-46795509D01*
X110106052Y-46902950D01*
X110106054Y-46902965D01*
X110107238Y-46908407D01*
X110102247Y-46978098D01*
X110073751Y-47022433D01*
X109983503Y-47112682D01*
X109983500Y-47112686D01*
X109917608Y-47226812D01*
X109883500Y-47354108D01*
X109883500Y-75250500D01*
X109863815Y-75317539D01*
X109811011Y-75363294D01*
X109759500Y-75374500D01*
X106380500Y-75374500D01*
X106313461Y-75354815D01*
X106267706Y-75302011D01*
X106256500Y-75250500D01*
X106256500Y-47354110D01*
X106256500Y-47354108D01*
X106222392Y-47226814D01*
X106156500Y-47112686D01*
X106063314Y-47019500D01*
X105960538Y-46960162D01*
X105912323Y-46909594D01*
X105899101Y-46840987D01*
X105899798Y-46835152D01*
X105905500Y-46795500D01*
X105905500Y-33880000D01*
X105893947Y-33772544D01*
X105882741Y-33721033D01*
X105868002Y-33676750D01*
X105848616Y-33618502D01*
X105848613Y-33618496D01*
X105838569Y-33602867D01*
X105820085Y-33574107D01*
X105800401Y-33507069D01*
X105820085Y-33440029D01*
X105872889Y-33394274D01*
X105892293Y-33387298D01*
X106063207Y-33341502D01*
X106293373Y-33246164D01*
X106509127Y-33121599D01*
X106706776Y-32969938D01*
X106882938Y-32793776D01*
X107034599Y-32596127D01*
X107159164Y-32380373D01*
X107254502Y-32150207D01*
X107318982Y-31909565D01*
X107351500Y-31662565D01*
X107351500Y-30313435D01*
X107318982Y-30066435D01*
X107254502Y-29825793D01*
X107183956Y-29655479D01*
X107159169Y-29595638D01*
X107159162Y-29595623D01*
X107034599Y-29379873D01*
X106882939Y-29182225D01*
X106882933Y-29182218D01*
X106706781Y-29006066D01*
X106706774Y-29006060D01*
X106509126Y-28854400D01*
X106293376Y-28729837D01*
X106293361Y-28729830D01*
X106063207Y-28634498D01*
X105822561Y-28570017D01*
X105575575Y-28537501D01*
X105575570Y-28537500D01*
X105575565Y-28537500D01*
X105326435Y-28537500D01*
X105326429Y-28537500D01*
X105326424Y-28537501D01*
X105079438Y-28570017D01*
X104838792Y-28634498D01*
X104608638Y-28729830D01*
X104608623Y-28729837D01*
X104392873Y-28854400D01*
X104195225Y-29006060D01*
X104195218Y-29006066D01*
X104019066Y-29182218D01*
X104019060Y-29182225D01*
X103867400Y-29379873D01*
X103742837Y-29595623D01*
X103742830Y-29595638D01*
X103647498Y-29825792D01*
X103583017Y-30066438D01*
X103550501Y-30313424D01*
X103550500Y-30313441D01*
X103550500Y-31662558D01*
X103550501Y-31662575D01*
X103582231Y-31903591D01*
X103583018Y-31909565D01*
X103620749Y-32050377D01*
X103647498Y-32150207D01*
X103742830Y-32380361D01*
X103742837Y-32380376D01*
X103867400Y-32596126D01*
X104019060Y-32793774D01*
X104019066Y-32793781D01*
X104195218Y-32969933D01*
X104195225Y-32969939D01*
X104271053Y-33028124D01*
X104312256Y-33084552D01*
X104316411Y-33154298D01*
X104282199Y-33215218D01*
X104220482Y-33247971D01*
X104195567Y-33250500D01*
X100329500Y-33250500D01*
X100329491Y-33250500D01*
X100329490Y-33250501D01*
X100222049Y-33262052D01*
X100222037Y-33262054D01*
X100170527Y-33273260D01*
X100067999Y-33307385D01*
X100022797Y-33336434D01*
X99955757Y-33356117D01*
X99904247Y-33344911D01*
X99785465Y-33290664D01*
X99785460Y-33290662D01*
X99785459Y-33290662D01*
X99718420Y-33270977D01*
X99718422Y-33270977D01*
X99718417Y-33270976D01*
X99650706Y-33261241D01*
X99576000Y-33250500D01*
X94424000Y-33250500D01*
X94423991Y-33250500D01*
X94423990Y-33250501D01*
X94316549Y-33262052D01*
X94316537Y-33262054D01*
X94265027Y-33273260D01*
X94162502Y-33307383D01*
X94162498Y-33307385D01*
X94110008Y-33341119D01*
X94042968Y-33360803D01*
X93993481Y-33350499D01*
X93869402Y-33296490D01*
X93869399Y-33296489D01*
X93836300Y-33287409D01*
X93805248Y-33278890D01*
X93803254Y-33278284D01*
X93802024Y-33278005D01*
X93659265Y-33260075D01*
X93659264Y-33260075D01*
X93551839Y-33261993D01*
X89499332Y-33334359D01*
X89431952Y-33315875D01*
X89385261Y-33263896D01*
X89374085Y-33194926D01*
X89401970Y-33130862D01*
X89421628Y-33112006D01*
X89606776Y-32969938D01*
X89782938Y-32793776D01*
X89934599Y-32596127D01*
X90059164Y-32380373D01*
X90154502Y-32150207D01*
X90218982Y-31909565D01*
X90251500Y-31662565D01*
X90251500Y-30313435D01*
X90218982Y-30066435D01*
X90154502Y-29825793D01*
X90083956Y-29655479D01*
X90059169Y-29595638D01*
X90059162Y-29595623D01*
X89934599Y-29379873D01*
X89782939Y-29182225D01*
X89782933Y-29182218D01*
X89606781Y-29006066D01*
X89606774Y-29006060D01*
X89409126Y-28854400D01*
X89193376Y-28729837D01*
X89193361Y-28729830D01*
X88963207Y-28634498D01*
X88722561Y-28570017D01*
X88475575Y-28537501D01*
X88475570Y-28537500D01*
X88475565Y-28537500D01*
X88226435Y-28537500D01*
X88226429Y-28537500D01*
X88226424Y-28537501D01*
X87979438Y-28570017D01*
X87738792Y-28634498D01*
X87508638Y-28729830D01*
X87508623Y-28729837D01*
X87292873Y-28854400D01*
X87095225Y-29006060D01*
X87095218Y-29006066D01*
X86919066Y-29182218D01*
X86919060Y-29182225D01*
X86767400Y-29379873D01*
X86642837Y-29595623D01*
X86642830Y-29595638D01*
X86547498Y-29825792D01*
X86483017Y-30066438D01*
X86450501Y-30313424D01*
X86450500Y-30313441D01*
X86450500Y-31662558D01*
X86450501Y-31662575D01*
X86482231Y-31903591D01*
X86483018Y-31909565D01*
X86520749Y-32050377D01*
X86547498Y-32150207D01*
X86642830Y-32380361D01*
X86642837Y-32380376D01*
X86767400Y-32596126D01*
X86919060Y-32793774D01*
X86919066Y-32793781D01*
X87095218Y-32969933D01*
X87095225Y-32969939D01*
X87292873Y-33121599D01*
X87508623Y-33246162D01*
X87508638Y-33246169D01*
X87574040Y-33273259D01*
X87738793Y-33341502D01*
X87979435Y-33405982D01*
X88102806Y-33422224D01*
X88124097Y-33425027D01*
X88187994Y-33453293D01*
X88226465Y-33511618D01*
X88227296Y-33581483D01*
X88201626Y-33629168D01*
X88194433Y-33637469D01*
X88194430Y-33637473D01*
X88134664Y-33768339D01*
X88114976Y-33835387D01*
X88106825Y-33892081D01*
X88094500Y-33977805D01*
X88094500Y-46795500D01*
X88094501Y-46795505D01*
X88094501Y-46795509D01*
X88106052Y-46902950D01*
X88106054Y-46902965D01*
X88107238Y-46908407D01*
X88102247Y-46978098D01*
X88073751Y-47022433D01*
X87983503Y-47112682D01*
X87983500Y-47112686D01*
X87917608Y-47226812D01*
X87883500Y-47354108D01*
X87883500Y-74670500D01*
X87863815Y-74737539D01*
X87811011Y-74783294D01*
X87759500Y-74794500D01*
X86304500Y-74794500D01*
X86237461Y-74774815D01*
X86191706Y-74722011D01*
X86180500Y-74670500D01*
X86180500Y-25624500D01*
X86200185Y-25557461D01*
X86252989Y-25511706D01*
X86304500Y-25500500D01*
X152278500Y-25500500D01*
X152345539Y-25520185D01*
G37*
%TD.AperFunction*%
%TD*%
%TA.AperFunction,Conductor*%
%TO.N,/12v1*%
G36*
X87826539Y-75319685D02*
G01*
X87872294Y-75372489D01*
X87882165Y-75417867D01*
X87882439Y-75417832D01*
X87882869Y-75421102D01*
X87883500Y-75424000D01*
X87883500Y-75425891D01*
X87917608Y-75553187D01*
X87950554Y-75610250D01*
X87983500Y-75667314D01*
X88076686Y-75760500D01*
X88190814Y-75826392D01*
X88318108Y-75860500D01*
X93875500Y-75860500D01*
X93942539Y-75880185D01*
X93988294Y-75932989D01*
X93999500Y-75984500D01*
X93999500Y-76565891D01*
X94033608Y-76693187D01*
X94066554Y-76750250D01*
X94099500Y-76807314D01*
X94099502Y-76807316D01*
X94163681Y-76871495D01*
X94197166Y-76932818D01*
X94200000Y-76959176D01*
X94200000Y-80700000D01*
X108065478Y-80700000D01*
X108100000Y-80709611D01*
X108100000Y-87500000D01*
X118596971Y-87405432D01*
X118834623Y-87549013D01*
X118881823Y-87600528D01*
X118894500Y-87655146D01*
X118894500Y-90968255D01*
X118899833Y-91041472D01*
X118905043Y-91077053D01*
X118920943Y-91148784D01*
X118937954Y-91205601D01*
X118941280Y-91219634D01*
X118986708Y-91477275D01*
X118988382Y-91491596D01*
X119003596Y-91752788D01*
X119003596Y-91767210D01*
X118988382Y-92028402D01*
X118986708Y-92042723D01*
X118941279Y-92300367D01*
X118937954Y-92314398D01*
X118920946Y-92371209D01*
X118920943Y-92371220D01*
X118905047Y-92442927D01*
X118899839Y-92478481D01*
X118899836Y-92478503D01*
X118894500Y-92551749D01*
X118894500Y-95176000D01*
X118874815Y-95243039D01*
X118822011Y-95288794D01*
X118770500Y-95300000D01*
X106924000Y-95300000D01*
X106856961Y-95280315D01*
X106811206Y-95227511D01*
X106800000Y-95176000D01*
X106800000Y-88800000D01*
X86304500Y-88800000D01*
X86237461Y-88780315D01*
X86191706Y-88727511D01*
X86180500Y-88676000D01*
X86180500Y-75424000D01*
X86200185Y-75356961D01*
X86252989Y-75311206D01*
X86304500Y-75300000D01*
X87759500Y-75300000D01*
X87826539Y-75319685D01*
G37*
%TD.AperFunction*%
%TD*%
%TA.AperFunction,Conductor*%
%TO.N,/12v1*%
G36*
X108129555Y-80717839D02*
G01*
X109241208Y-81388837D01*
X109288429Y-81440332D01*
X109300322Y-81480884D01*
X109307590Y-81544333D01*
X109320264Y-81598939D01*
X109320269Y-81598958D01*
X109358852Y-81707313D01*
X109439961Y-81826146D01*
X109487154Y-81877655D01*
X109487161Y-81877662D01*
X109487167Y-81877668D01*
X109487169Y-81877670D01*
X109598476Y-81968841D01*
X118596971Y-87405432D01*
X108100000Y-87500000D01*
X108100000Y-80709611D01*
X108129555Y-80717839D01*
G37*
%TD.AperFunction*%
%TD*%
%TA.AperFunction,Conductor*%
%TO.N,/12v3*%
G36*
X136069254Y-77645185D02*
G01*
X136089896Y-77661819D01*
X137363681Y-78935604D01*
X137397166Y-78996927D01*
X137400000Y-79023285D01*
X137400000Y-95176000D01*
X137380315Y-95243039D01*
X137327511Y-95288794D01*
X137276000Y-95300000D01*
X125429500Y-95300000D01*
X125362461Y-95280315D01*
X125316706Y-95227511D01*
X125305500Y-95176000D01*
X125305500Y-94369658D01*
X125297469Y-94279920D01*
X125297469Y-94279918D01*
X125289651Y-94236584D01*
X125289650Y-94236578D01*
X125265809Y-94149672D01*
X125265806Y-94149666D01*
X125265076Y-94147002D01*
X125265468Y-94146894D01*
X125260000Y-94112159D01*
X125260000Y-89407842D01*
X125265469Y-89373101D01*
X125265078Y-89372994D01*
X125289651Y-89283417D01*
X125297469Y-89240080D01*
X125297469Y-89240078D01*
X125305500Y-89150340D01*
X125305500Y-80821250D01*
X125325185Y-80754211D01*
X125377989Y-80708456D01*
X125429500Y-80697250D01*
X128489857Y-80697250D01*
X128550279Y-80685231D01*
X128610702Y-80673213D01*
X128610705Y-80673211D01*
X128610708Y-80673211D01*
X128644037Y-80659404D01*
X128644036Y-80659404D01*
X128644042Y-80659402D01*
X128724536Y-80626062D01*
X128724539Y-80626060D01*
X128732262Y-80620900D01*
X128798938Y-80600020D01*
X128801156Y-80600000D01*
X129000000Y-80600000D01*
X129000000Y-80435951D01*
X129019685Y-80368912D01*
X129036319Y-80348270D01*
X129711572Y-79673017D01*
X130398729Y-78985860D01*
X130398733Y-78985858D01*
X130485858Y-78898733D01*
X130554311Y-78796286D01*
X130601463Y-78682452D01*
X130625500Y-78561606D01*
X130625500Y-77810452D01*
X130645185Y-77743413D01*
X130661819Y-77722771D01*
X130722771Y-77661819D01*
X130784094Y-77628334D01*
X130810452Y-77625500D01*
X136002215Y-77625500D01*
X136069254Y-77645185D01*
G37*
%TD.AperFunction*%
%TD*%
%TA.AperFunction,Conductor*%
%TO.N,Net-(J8-B)*%
G36*
X143643039Y-33775685D02*
G01*
X143688794Y-33828489D01*
X143700000Y-33880000D01*
X143700000Y-46795500D01*
X143680315Y-46862539D01*
X143627511Y-46908294D01*
X143576000Y-46919500D01*
X138424000Y-46919500D01*
X138356961Y-46899815D01*
X138311206Y-46847011D01*
X138300000Y-46795500D01*
X138300000Y-39801286D01*
X138319685Y-39734247D01*
X138324733Y-39726975D01*
X138329546Y-39720546D01*
X138415796Y-39605331D01*
X138466091Y-39470483D01*
X138472500Y-39410873D01*
X138472499Y-34565128D01*
X138466091Y-34505517D01*
X138415796Y-34370669D01*
X138329546Y-34255454D01*
X138329545Y-34255453D01*
X138324733Y-34249025D01*
X138300316Y-34183561D01*
X138300000Y-34174714D01*
X138300000Y-33880000D01*
X138319685Y-33812961D01*
X138372489Y-33767206D01*
X138424000Y-33756000D01*
X143576000Y-33756000D01*
X143643039Y-33775685D01*
G37*
%TD.AperFunction*%
%TD*%
%TA.AperFunction,Conductor*%
%TO.N,Net-(J8-C)*%
G36*
X137737539Y-33775685D02*
G01*
X137783294Y-33828489D01*
X137794500Y-33880000D01*
X137794500Y-34174733D01*
X137794820Y-34192713D01*
X137795139Y-34201634D01*
X137796104Y-34219624D01*
X137826688Y-34360216D01*
X137846639Y-34413708D01*
X137850344Y-34423640D01*
X137850890Y-34425187D01*
X137851109Y-34425691D01*
X137920056Y-34551953D01*
X137920060Y-34551959D01*
X137920062Y-34551963D01*
X137942265Y-34581623D01*
X137966683Y-34647085D01*
X137966999Y-34655933D01*
X137966999Y-39320064D01*
X137947314Y-39387103D01*
X137942267Y-39394374D01*
X137920052Y-39424049D01*
X137909469Y-39438727D01*
X137904439Y-39445974D01*
X137894436Y-39460944D01*
X137894434Y-39460948D01*
X137834663Y-39591823D01*
X137814976Y-39658868D01*
X137794500Y-39801287D01*
X137794500Y-46795500D01*
X137774815Y-46862539D01*
X137722011Y-46908294D01*
X137670500Y-46919500D01*
X132724000Y-46919500D01*
X132656961Y-46899815D01*
X132611206Y-46847011D01*
X132600000Y-46795500D01*
X132600000Y-33880000D01*
X132619685Y-33812961D01*
X132672489Y-33767206D01*
X132724000Y-33756000D01*
X137670500Y-33756000D01*
X137737539Y-33775685D01*
G37*
%TD.AperFunction*%
%TD*%
%TA.AperFunction,Conductor*%
%TO.N,Net-(J6-A)*%
G36*
X127343039Y-33775685D02*
G01*
X127388794Y-33828489D01*
X127400000Y-33880000D01*
X127400000Y-46795500D01*
X127380315Y-46862539D01*
X127327511Y-46908294D01*
X127276000Y-46919500D01*
X122329500Y-46919500D01*
X122262461Y-46899815D01*
X122216706Y-46847011D01*
X122205500Y-46795500D01*
X122205500Y-37682513D01*
X122205500Y-37682500D01*
X122203150Y-37642192D01*
X122203864Y-37639105D01*
X122202296Y-37625677D01*
X122202272Y-37625448D01*
X122202077Y-37623784D01*
X122202077Y-37623776D01*
X122200476Y-37610089D01*
X122201288Y-37605331D01*
X122197847Y-37585815D01*
X122196802Y-37578682D01*
X122195133Y-37564411D01*
X122191786Y-37551434D01*
X122142291Y-37270734D01*
X122140617Y-37256413D01*
X122125402Y-36995194D01*
X122125402Y-36980807D01*
X122140616Y-36719598D01*
X122142290Y-36705280D01*
X122191792Y-36424537D01*
X122194189Y-36419698D01*
X122196808Y-36397296D01*
X122197854Y-36390156D01*
X122200013Y-36377910D01*
X122200471Y-36365959D01*
X122202082Y-36352180D01*
X122202082Y-36352169D01*
X122202271Y-36350558D01*
X122202301Y-36350260D01*
X122203312Y-36341595D01*
X122203156Y-36333738D01*
X122205500Y-36293498D01*
X122205500Y-33880000D01*
X122225185Y-33812961D01*
X122277989Y-33767206D01*
X122329500Y-33756000D01*
X127276000Y-33756000D01*
X127343039Y-33775685D01*
G37*
%TD.AperFunction*%
%TD*%
%TA.AperFunction,Conductor*%
%TO.N,Net-(J7-A)*%
G36*
X105343039Y-33775685D02*
G01*
X105388794Y-33828489D01*
X105400000Y-33880000D01*
X105400000Y-46795500D01*
X105380315Y-46862539D01*
X105327511Y-46908294D01*
X105276000Y-46919500D01*
X100329500Y-46919500D01*
X100262461Y-46899815D01*
X100216706Y-46847011D01*
X100205500Y-46795500D01*
X100205500Y-38010234D01*
X100205499Y-38010225D01*
X100200163Y-37936972D01*
X100194954Y-37901409D01*
X100179055Y-37829690D01*
X100093039Y-37542379D01*
X100089719Y-37528369D01*
X100044291Y-37270731D01*
X100042617Y-37256410D01*
X100027402Y-36995194D01*
X100027402Y-36980807D01*
X100042616Y-36719591D01*
X100044290Y-36705272D01*
X100089718Y-36447631D01*
X100093034Y-36433637D01*
X100179055Y-36146309D01*
X100194954Y-36074591D01*
X100200163Y-36039028D01*
X100205500Y-35965768D01*
X100205500Y-33880000D01*
X100225185Y-33812961D01*
X100277989Y-33767206D01*
X100329500Y-33756000D01*
X105276000Y-33756000D01*
X105343039Y-33775685D01*
G37*
%TD.AperFunction*%
%TD*%
%TA.AperFunction,Conductor*%
%TO.N,Net-(J7-C)*%
G36*
X93735666Y-33783978D02*
G01*
X93782357Y-33835957D01*
X93794500Y-33889474D01*
X93794500Y-46795500D01*
X93774815Y-46862539D01*
X93722011Y-46908294D01*
X93670500Y-46919500D01*
X88724000Y-46919500D01*
X88656961Y-46899815D01*
X88611206Y-46847011D01*
X88600000Y-46795500D01*
X88600000Y-33977805D01*
X88619685Y-33910766D01*
X88672489Y-33865011D01*
X88721784Y-33853825D01*
X93668289Y-33765494D01*
X93735666Y-33783978D01*
G37*
%TD.AperFunction*%
%TD*%
%TA.AperFunction,Conductor*%
%TO.N,Net-(J6-B)*%
G36*
X121643039Y-33775685D02*
G01*
X121688794Y-33828489D01*
X121700000Y-33880000D01*
X121700000Y-36293498D01*
X121696881Y-36320184D01*
X121696894Y-36320187D01*
X121696856Y-36320401D01*
X121696659Y-36322089D01*
X121696266Y-36323744D01*
X121638104Y-36653597D01*
X121638103Y-36653608D01*
X121618627Y-36987996D01*
X121618627Y-36988003D01*
X121638103Y-37322391D01*
X121638104Y-37322402D01*
X121696265Y-37652251D01*
X121696655Y-37653893D01*
X121696851Y-37655571D01*
X121696894Y-37655814D01*
X121696879Y-37655816D01*
X121700000Y-37682500D01*
X121700000Y-46795500D01*
X121680315Y-46862539D01*
X121627511Y-46908294D01*
X121576000Y-46919500D01*
X116424000Y-46919500D01*
X116356961Y-46899815D01*
X116311206Y-46847011D01*
X116300000Y-46795500D01*
X116300000Y-39669570D01*
X116315172Y-39610136D01*
X116317797Y-39605329D01*
X116368091Y-39470482D01*
X116374500Y-39410873D01*
X116374499Y-34565128D01*
X116368091Y-34505517D01*
X116317796Y-34370669D01*
X116317796Y-34370668D01*
X116315168Y-34365856D01*
X116300000Y-34306429D01*
X116300000Y-33880000D01*
X116319685Y-33812961D01*
X116372489Y-33767206D01*
X116424000Y-33756000D01*
X121576000Y-33756000D01*
X121643039Y-33775685D01*
G37*
%TD.AperFunction*%
%TD*%
%TA.AperFunction,Conductor*%
%TO.N,Net-(J6-C)*%
G36*
X115737539Y-33775685D02*
G01*
X115783294Y-33828489D01*
X115794500Y-33880000D01*
X115794500Y-34306432D01*
X115810203Y-34431446D01*
X115825370Y-34490871D01*
X115825372Y-34490877D01*
X115826724Y-34494313D01*
X115827458Y-34502519D01*
X115861181Y-34592935D01*
X115868999Y-34636268D01*
X115868999Y-39339725D01*
X115861182Y-39383055D01*
X115832402Y-39460224D01*
X115826719Y-39481699D01*
X115825379Y-39485105D01*
X115825377Y-39485110D01*
X115810207Y-39544534D01*
X115794500Y-39669570D01*
X115794500Y-46795500D01*
X115774815Y-46862539D01*
X115722011Y-46908294D01*
X115670500Y-46919500D01*
X110724000Y-46919500D01*
X110656961Y-46899815D01*
X110611206Y-46847011D01*
X110600000Y-46795500D01*
X110600000Y-33880000D01*
X110619685Y-33812961D01*
X110672489Y-33767206D01*
X110724000Y-33756000D01*
X115670500Y-33756000D01*
X115737539Y-33775685D01*
G37*
%TD.AperFunction*%
%TD*%
%TA.AperFunction,Conductor*%
%TO.N,Net-(J8-A)*%
G36*
X149343039Y-33775685D02*
G01*
X149388794Y-33828489D01*
X149400000Y-33880000D01*
X149400000Y-46795500D01*
X149380315Y-46862539D01*
X149327511Y-46908294D01*
X149276000Y-46919500D01*
X144329500Y-46919500D01*
X144262461Y-46899815D01*
X144216706Y-46847011D01*
X144205500Y-46795500D01*
X144205500Y-33880000D01*
X144225185Y-33812961D01*
X144277989Y-33767206D01*
X144329500Y-33756000D01*
X149276000Y-33756000D01*
X149343039Y-33775685D01*
G37*
%TD.AperFunction*%
%TD*%
%TA.AperFunction,Conductor*%
%TO.N,Net-(J7-B)*%
G36*
X99643039Y-33775685D02*
G01*
X99688794Y-33828489D01*
X99700000Y-33880000D01*
X99700000Y-35965768D01*
X99694791Y-36001331D01*
X99598267Y-36323743D01*
X99598264Y-36323757D01*
X99540104Y-36653597D01*
X99540103Y-36653608D01*
X99520627Y-36987996D01*
X99520627Y-36988003D01*
X99540103Y-37322391D01*
X99540104Y-37322402D01*
X99598264Y-37652242D01*
X99598267Y-37652256D01*
X99694791Y-37974669D01*
X99700000Y-38010232D01*
X99700000Y-46795500D01*
X99680315Y-46862539D01*
X99627511Y-46908294D01*
X99576000Y-46919500D01*
X94424000Y-46919500D01*
X94356961Y-46899815D01*
X94311206Y-46847011D01*
X94300000Y-46795500D01*
X94300000Y-33880000D01*
X94319685Y-33812961D01*
X94372489Y-33767206D01*
X94424000Y-33756000D01*
X99576000Y-33756000D01*
X99643039Y-33775685D01*
G37*
%TD.AperFunction*%
%TD*%
M02*
