%TF.GenerationSoftware,KiCad,Pcbnew,8.0.1*%
%TF.CreationDate,2024-04-06T11:37:36-04:00*%
%TF.ProjectId,template-card with ESCs,74656d70-6c61-4746-952d-636172642077,rev?*%
%TF.SameCoordinates,Original*%
%TF.FileFunction,Copper,L2,Bot*%
%TF.FilePolarity,Positive*%
%FSLAX46Y46*%
G04 Gerber Fmt 4.6, Leading zero omitted, Abs format (unit mm)*
G04 Created by KiCad (PCBNEW 8.0.1) date 2024-04-06 11:37:36*
%MOMM*%
%LPD*%
G01*
G04 APERTURE LIST*
%TA.AperFunction,ComponentPad*%
%ADD10O,2.800000X3.900000*%
%TD*%
%TA.AperFunction,ComponentPad*%
%ADD11C,4.750000*%
%TD*%
%TA.AperFunction,ComponentPad*%
%ADD12R,4.750000X4.750000*%
%TD*%
%TA.AperFunction,ComponentPad*%
%ADD13R,1.700000X1.700000*%
%TD*%
%TA.AperFunction,ComponentPad*%
%ADD14O,1.700000X1.700000*%
%TD*%
%TA.AperFunction,ComponentPad*%
%ADD15C,1.524000*%
%TD*%
%TA.AperFunction,ComponentPad*%
%ADD16O,2.800000X3.800000*%
%TD*%
%TA.AperFunction,ComponentPad*%
%ADD17C,1.780000*%
%TD*%
%TA.AperFunction,SMDPad,CuDef*%
%ADD18R,1.780000X7.700000*%
%TD*%
%TA.AperFunction,SMDPad,CuDef*%
%ADD19R,4.000000X4.900000*%
%TD*%
%TA.AperFunction,SMDPad,CuDef*%
%ADD20R,4.100000X4.900000*%
%TD*%
%TA.AperFunction,SMDPad,CuDef*%
%ADD21R,3.780000X4.000000*%
%TD*%
%TA.AperFunction,ComponentPad*%
%ADD22C,2.000000*%
%TD*%
%TA.AperFunction,SMDPad,CuDef*%
%ADD23R,1.130000X1.660000*%
%TD*%
%TA.AperFunction,ViaPad*%
%ADD24C,0.800000*%
%TD*%
%TA.AperFunction,ViaPad*%
%ADD25C,1.524000*%
%TD*%
%TA.AperFunction,ViaPad*%
%ADD26C,0.600000*%
%TD*%
%TA.AperFunction,Conductor*%
%ADD27C,0.750000*%
%TD*%
%TA.AperFunction,Conductor*%
%ADD28C,0.250000*%
%TD*%
G04 APERTURE END LIST*
D10*
%TO.P,J7,*%
%TO.N,*%
X105451000Y-30988000D03*
X88351000Y-30988000D03*
D11*
%TO.P,J7,1,A*%
%TO.N,Net-(J7-A)*%
X102401000Y-36988000D03*
%TO.P,J7,2,B*%
%TO.N,Net-(J7-B)*%
X96901000Y-36988000D03*
D12*
%TO.P,J7,3,C*%
%TO.N,Net-(J7-C)*%
X91401000Y-36988000D03*
%TD*%
D13*
%TO.P,J3,1,Pin_1*%
%TO.N,sGND*%
X187085000Y-27855000D03*
D14*
%TO.P,J3,2,Pin_2*%
%TO.N,Net-(J3-Pin_2)*%
X187085000Y-30395000D03*
%TO.P,J3,3,Pin_3*%
%TO.N,Net-(J3-Pin_3)*%
X187085000Y-32935000D03*
%TO.P,J3,4,Pin_4*%
%TO.N,Net-(J3-Pin_4)*%
X187085000Y-35475000D03*
%TD*%
D15*
%TO.P,U7,1,GP0*%
%TO.N,TX0*%
X159175000Y-28956000D03*
%TO.P,U7,2,GP1*%
%TO.N,RX0*%
X159175000Y-31496000D03*
%TO.P,U7,3,GND*%
%TO.N,sGND*%
X159175000Y-34036000D03*
%TO.P,U7,4,GP2*%
%TO.N,unconnected-(U7-GP2-Pad4)_0*%
X159175000Y-36576000D03*
%TO.P,U7,5,GP3*%
%TO.N,Net-(J3-Pin_4)*%
X159175000Y-39116000D03*
%TO.P,U7,6,GP4*%
%TO.N,Net-(J3-Pin_3)*%
X159175000Y-41656000D03*
%TO.P,U7,7,GP5*%
%TO.N,Net-(J3-Pin_2)*%
X159175000Y-44196000D03*
%TO.P,U7,8,GND*%
%TO.N,sGND*%
X159175000Y-46736000D03*
%TO.P,U7,9,GP6*%
%TO.N,/sGP6*%
X159175000Y-49276000D03*
%TO.P,U7,10,GP7*%
%TO.N,/sGP7*%
X159175000Y-51816000D03*
%TO.P,U7,11,GP8*%
%TO.N,/sGP8*%
X159175000Y-54356000D03*
%TO.P,U7,12,GP9*%
%TO.N,unconnected-(U7-GP9-Pad12)_0*%
X159175000Y-56896000D03*
%TO.P,U7,13,GND*%
%TO.N,sGND*%
X159175000Y-59436000D03*
%TO.P,U7,14,GP10*%
%TO.N,unconnected-(U7-GP10-Pad14)_0*%
X159175000Y-61976000D03*
%TO.P,U7,15,GP11*%
%TO.N,unconnected-(U7-GP11-Pad15)_0*%
X159175000Y-64516000D03*
%TO.P,U7,16,GP12*%
%TO.N,unconnected-(U7-GP12-Pad16)_0*%
X159175000Y-67056000D03*
%TO.P,U7,17,GP13*%
%TO.N,unconnected-(U7-GP13-Pad17)*%
X159175000Y-69596000D03*
%TO.P,U7,18,GND*%
%TO.N,GND*%
X159175000Y-72136000D03*
%TO.P,U7,19,GP14*%
%TO.N,unconnected-(U7-GP14-Pad19)_0*%
X159175000Y-74676000D03*
%TO.P,U7,20,GP15*%
%TO.N,unconnected-(U7-GP15-Pad20)*%
X159175000Y-77216000D03*
%TO.P,U7,21,GP16*%
%TO.N,Net-(J5-Pin_2)*%
X176955000Y-77216000D03*
%TO.P,U7,22,GP17*%
%TO.N,Net-(J5-Pin_3)*%
X176955000Y-74676000D03*
%TO.P,U7,23,GND*%
%TO.N,sGND*%
X176955000Y-72136000D03*
%TO.P,U7,24,GP18*%
%TO.N,Net-(J5-Pin_4)*%
X176955000Y-69596000D03*
%TO.P,U7,25,GP19*%
%TO.N,unconnected-(U7-GP19-Pad25)_0*%
X176955000Y-67056000D03*
%TO.P,U7,26,GP20*%
%TO.N,SDA0*%
X176955000Y-64516000D03*
%TO.P,U7,27,GP21*%
%TO.N,SCL0*%
X176955000Y-61976000D03*
%TO.P,U7,28,GND*%
%TO.N,sGND*%
X176955000Y-59436000D03*
%TO.P,U7,29,GP22*%
%TO.N,unconnected-(U7-GP22-Pad29)*%
X176955000Y-56896000D03*
%TO.P,U7,30,RUN*%
%TO.N,unconnected-(U7-RUN-Pad30)_0*%
X176955000Y-54356000D03*
%TO.P,U7,31,GP26*%
%TO.N,SDA0*%
X176955000Y-51816000D03*
%TO.P,U7,32,GP27*%
%TO.N,SCL0*%
X176955000Y-49276000D03*
%TO.P,U7,33,GND*%
%TO.N,sGND*%
X176955000Y-46736000D03*
%TO.P,U7,34,GP28*%
%TO.N,unconnected-(U7-GP28-Pad34)_0*%
X176955000Y-44196000D03*
%TO.P,U7,35,ADC_VREF*%
%TO.N,unconnected-(U7-ADC_VREF-Pad35)*%
X176955000Y-41656000D03*
%TO.P,U7,36,3V3_Out*%
%TO.N,unconnected-(U7-3V3_Out-Pad36)_0*%
X176955000Y-39116000D03*
%TO.P,U7,37,3V3_EN*%
%TO.N,unconnected-(U7-3V3_EN-Pad37)*%
X176955000Y-36576000D03*
%TO.P,U7,38,GND*%
%TO.N,sGND*%
X176955000Y-34036000D03*
%TO.P,U7,39,VSYS*%
%TO.N,/5v*%
X176955000Y-31496000D03*
%TO.P,U7,40,VBUS*%
%TO.N,unconnected-(U7-VBUS-Pad40)_0*%
X176955000Y-28956000D03*
%TD*%
D11*
%TO.P,J2,1,48V*%
%TO.N,unconnected-(J2A-48V-Pad1)*%
X91630000Y-91760000D03*
%TO.P,J2,2,GND*%
%TO.N,GND*%
X97130000Y-91760000D03*
D12*
%TO.P,J2,3,GND*%
X102630000Y-91760000D03*
D11*
%TO.P,J2,4,12V*%
%TO.N,/12v1*%
X116630000Y-91760000D03*
%TO.P,J2,5,12V*%
%TO.N,/12v2*%
X122130000Y-91760000D03*
D12*
%TO.P,J2,6,12V*%
%TO.N,/12v3*%
X127630000Y-91760000D03*
D11*
%TO.P,J2,7,24V*%
%TO.N,unconnected-(J2C-24V-Pad7)*%
X141600000Y-91760000D03*
%TO.P,J2,8,GND*%
%TO.N,GND*%
X147100000Y-91760000D03*
D12*
%TO.P,J2,9,5V*%
%TO.N,/5v*%
X152600000Y-91760000D03*
D16*
%TO.P,J2,10,Mount*%
%TO.N,GND*%
X88580000Y-97760000D03*
X105680000Y-97760000D03*
X113580000Y-97760000D03*
X130680000Y-97760000D03*
X138550000Y-97760000D03*
X155650000Y-97760000D03*
%TD*%
D17*
%TO.P,J1,1,sGND*%
%TO.N,sGND*%
X172212000Y-99802000D03*
D18*
X172212000Y-103632000D03*
D17*
%TO.P,J1,2,TX0/SDA0*%
%TO.N,TX0{slash}SDA0*%
X174752000Y-99802000D03*
D18*
X174752000Y-103632000D03*
D17*
%TO.P,J1,3,RX0/SCL0*%
%TO.N,RX0{slash}SCL0*%
X177292000Y-99802000D03*
D18*
X177292000Y-103632000D03*
D17*
%TO.P,J1,4,sGND*%
%TO.N,sGND*%
X179832000Y-99802000D03*
D18*
X179832000Y-103632000D03*
D17*
%TO.P,J1,5,TX1/SDA1*%
%TO.N,TX1{slash}SDA1*%
X182372000Y-99802000D03*
D18*
X182372000Y-103632000D03*
D17*
%TO.P,J1,6,RX1/SCL1*%
%TO.N,RX1{slash}SCL1*%
X184912000Y-99802000D03*
D18*
X184912000Y-103632000D03*
D17*
%TO.P,J1,7,sGND*%
%TO.N,sGND*%
X187452000Y-99802000D03*
D18*
X187452000Y-103632000D03*
D17*
%TO.P,J1,8,TX2/SDA2*%
%TO.N,Net-(J1-TX2{slash}SDA2)*%
X189992000Y-99802000D03*
D18*
X189992000Y-103632000D03*
D17*
%TO.P,J1,9,RX2/SCL2*%
%TO.N,Net-(J1-RX2{slash}SCL2)*%
X192532000Y-99802000D03*
D18*
X192532000Y-103632000D03*
D17*
%TO.P,J1,10,sGND*%
%TO.N,sGND*%
X195072000Y-99802000D03*
D18*
X195072000Y-103632000D03*
%TD*%
D13*
%TO.P,J5,1,Pin_1*%
%TO.N,sGND*%
X187085000Y-52355000D03*
D14*
%TO.P,J5,2,Pin_2*%
%TO.N,Net-(J5-Pin_2)*%
X187085000Y-54895000D03*
%TO.P,J5,3,Pin_3*%
%TO.N,Net-(J5-Pin_3)*%
X187085000Y-57435000D03*
%TO.P,J5,4,Pin_4*%
%TO.N,Net-(J5-Pin_4)*%
X187085000Y-59975000D03*
%TD*%
D13*
%TO.P,J4,1,Pin_1*%
%TO.N,sGND*%
X187085000Y-40105000D03*
D14*
%TO.P,J4,2,Pin_2*%
%TO.N,/sGP6*%
X187085000Y-42645000D03*
%TO.P,J4,3,Pin_3*%
%TO.N,/sGP7*%
X187085000Y-45185000D03*
%TO.P,J4,4,Pin_4*%
%TO.N,/sGP8*%
X187085000Y-47725000D03*
%TD*%
D10*
%TO.P,J6,*%
%TO.N,*%
X127549000Y-30988000D03*
X110449000Y-30988000D03*
D11*
%TO.P,J6,1,A*%
%TO.N,Net-(J6-A)*%
X124499000Y-36988000D03*
%TO.P,J6,2,B*%
%TO.N,Net-(J6-B)*%
X118999000Y-36988000D03*
D12*
%TO.P,J6,3,C*%
%TO.N,Net-(J6-C)*%
X113499000Y-36988000D03*
%TD*%
D10*
%TO.P,J8,*%
%TO.N,*%
X149647000Y-30988000D03*
X132547000Y-30988000D03*
D11*
%TO.P,J8,1,A*%
%TO.N,Net-(J8-A)*%
X146597000Y-36988000D03*
%TO.P,J8,2,B*%
%TO.N,Net-(J8-B)*%
X141097000Y-36988000D03*
D12*
%TO.P,J8,3,C*%
%TO.N,Net-(J8-C)*%
X135597000Y-36988000D03*
%TD*%
D19*
%TO.P,U4,+,+*%
%TO.N,/12v2*%
X112693250Y-78196750D03*
D20*
%TO.P,U4,-,-*%
%TO.N,GND*%
X125443250Y-78196750D03*
D21*
%TO.P,U4,1,1*%
%TO.N,Net-(J6-A)*%
X124663250Y-45146750D03*
%TO.P,U4,2,2*%
%TO.N,Net-(J6-B)*%
X119093250Y-45146750D03*
%TO.P,U4,3,3*%
%TO.N,Net-(J6-C)*%
X113543250Y-45146750D03*
D22*
%TO.P,U4,G,G*%
%TO.N,sGND*%
X120263250Y-78746750D03*
D23*
X120263250Y-77706750D03*
D22*
%TO.P,U4,S,S*%
%TO.N,/sGP7*%
X117933250Y-78746750D03*
D23*
X117933250Y-77706750D03*
%TD*%
D19*
%TO.P,U6,+,+*%
%TO.N,/12v3*%
X134693250Y-78196750D03*
D20*
%TO.P,U6,-,-*%
%TO.N,GND*%
X147443250Y-78196750D03*
D21*
%TO.P,U6,1,1*%
%TO.N,Net-(J8-A)*%
X146663250Y-45146750D03*
%TO.P,U6,2,2*%
%TO.N,Net-(J8-B)*%
X141093250Y-45146750D03*
%TO.P,U6,3,3*%
%TO.N,Net-(J8-C)*%
X135543250Y-45146750D03*
D22*
%TO.P,U6,G,G*%
%TO.N,sGND*%
X142263250Y-78746750D03*
D23*
X142263250Y-77706750D03*
D22*
%TO.P,U6,S,S*%
%TO.N,/sGP6*%
X139933250Y-78746750D03*
D23*
X139933250Y-77706750D03*
%TD*%
D19*
%TO.P,U2,+,+*%
%TO.N,/12v1*%
X90693250Y-78196750D03*
D20*
%TO.P,U2,-,-*%
%TO.N,GND*%
X103443250Y-78196750D03*
D21*
%TO.P,U2,1,1*%
%TO.N,Net-(J7-A)*%
X102663250Y-45146750D03*
%TO.P,U2,2,2*%
%TO.N,Net-(J7-B)*%
X97093250Y-45146750D03*
%TO.P,U2,3,3*%
%TO.N,Net-(J7-C)*%
X91543250Y-45146750D03*
D22*
%TO.P,U2,G,G*%
%TO.N,sGND*%
X98263250Y-78746750D03*
D23*
X98263250Y-77706750D03*
D22*
%TO.P,U2,S,S*%
%TO.N,/sGP8*%
X95933250Y-78746750D03*
D23*
X95933250Y-77706750D03*
%TD*%
D24*
%TO.N,/12v1*%
X89000000Y-87900000D03*
X92100000Y-81300000D03*
X90700000Y-81300000D03*
X86600000Y-76300000D03*
X92100000Y-87900000D03*
X86600000Y-78600000D03*
X93300000Y-86700000D03*
X87700000Y-78600000D03*
X90700000Y-82600000D03*
X86600000Y-77500000D03*
X86600000Y-85500000D03*
X87700000Y-77500000D03*
X89300000Y-81300000D03*
X87700000Y-76300000D03*
X86600000Y-87900000D03*
X89300000Y-82600000D03*
X87800000Y-87900000D03*
X87800000Y-86700000D03*
X86600000Y-86700000D03*
X93300000Y-87900000D03*
X92100000Y-82600000D03*
D25*
%TO.N,/5v*%
X166000000Y-75000000D03*
X168100000Y-68100000D03*
D24*
%TO.N,/12v2*%
X121400000Y-81400000D03*
X115400000Y-83200000D03*
X123700000Y-88200000D03*
X120500000Y-87000000D03*
X122700000Y-81400000D03*
X123900000Y-83800000D03*
X116700000Y-83200000D03*
X122100000Y-87000000D03*
X114100000Y-83200000D03*
X112800000Y-81800000D03*
X120500000Y-88200000D03*
X123700000Y-87000000D03*
X122700000Y-82600000D03*
X115400000Y-81800000D03*
X122100000Y-88200000D03*
X123900000Y-82600000D03*
X114100000Y-81800000D03*
%TO.N,/12v3*%
X136500000Y-83500000D03*
X133300000Y-83500000D03*
X135500000Y-81300000D03*
X134400000Y-81300000D03*
X136500000Y-82400000D03*
X135500000Y-83500000D03*
X133300000Y-81300000D03*
X133300000Y-82400000D03*
X134400000Y-82400000D03*
X136500000Y-81300000D03*
X131700000Y-77750000D03*
X134400000Y-83500000D03*
X135500000Y-82400000D03*
X131700000Y-78750000D03*
%TO.N,Net-(J3-Pin_2)*%
X180800000Y-31000000D03*
%TO.N,Net-(J3-Pin_3)*%
X180800000Y-33400000D03*
%TO.N,Net-(J3-Pin_4)*%
X180800000Y-35700000D03*
%TO.N,/sGP6*%
X181100000Y-43200000D03*
X140750000Y-80796750D03*
X154200000Y-50200000D03*
X155075000Y-63550463D03*
%TO.N,/sGP7*%
X154625000Y-62605462D03*
X154200000Y-52800000D03*
X181100000Y-45700000D03*
%TO.N,/sGP8*%
X154125000Y-61700000D03*
X181100000Y-48400000D03*
X154200000Y-55500000D03*
%TO.N,Net-(J5-Pin_2)*%
X181610000Y-56515000D03*
%TO.N,Net-(J5-Pin_3)*%
X181375000Y-58800000D03*
%TO.N,Net-(J5-Pin_4)*%
X181170000Y-60960000D03*
%TO.N,GND*%
X128300000Y-77600000D03*
X107600000Y-72300000D03*
X106500000Y-79500000D03*
X151600000Y-74400000D03*
X107600000Y-77300000D03*
X131700000Y-74300000D03*
X130600000Y-73200000D03*
X151300000Y-59400000D03*
X106500000Y-72300000D03*
X151600000Y-72000000D03*
X130600000Y-72100000D03*
X106500000Y-78400000D03*
X87200000Y-33800000D03*
X128400000Y-72100000D03*
X109800000Y-73400000D03*
X87100000Y-47200000D03*
X108700000Y-73400000D03*
X108200000Y-47100000D03*
X140900000Y-27400000D03*
X130100000Y-64400000D03*
X87300000Y-27100000D03*
X122300000Y-78900000D03*
X106500000Y-73400000D03*
X108100000Y-33500000D03*
X107600000Y-73400000D03*
X130100000Y-69800000D03*
X87000000Y-73700000D03*
X100600000Y-79500000D03*
X106500000Y-77300000D03*
X108100000Y-69700000D03*
X108700000Y-72300000D03*
X108000000Y-58800000D03*
X151200000Y-70100000D03*
X109800000Y-72300000D03*
X151600000Y-73200000D03*
X87000000Y-58400000D03*
X108100000Y-54200000D03*
X108700000Y-79500000D03*
X130600000Y-74300000D03*
X130200000Y-40100000D03*
X131700000Y-73200000D03*
X130100000Y-58800000D03*
X130300000Y-47100000D03*
X151400000Y-39900000D03*
X130200000Y-33200000D03*
X150400000Y-72000000D03*
X130200000Y-54000000D03*
X108700000Y-78400000D03*
X96800000Y-27200000D03*
X107600000Y-78400000D03*
X151500000Y-32900000D03*
X150400000Y-73200000D03*
X122300000Y-77600000D03*
X107600000Y-79500000D03*
X107600000Y-74500000D03*
X151300000Y-65000000D03*
X118900000Y-27400000D03*
X108100000Y-27200000D03*
X100600000Y-77300000D03*
X129500000Y-72100000D03*
X150400000Y-74400000D03*
X87000000Y-69100000D03*
X87000000Y-53400000D03*
X129500000Y-73200000D03*
X128400000Y-73200000D03*
X100600000Y-78400000D03*
X151300000Y-54400000D03*
X108000000Y-64100000D03*
X87000000Y-63500000D03*
X151400000Y-47000000D03*
X106500000Y-74500000D03*
X108700000Y-77300000D03*
X87200000Y-40600000D03*
X151500000Y-27400000D03*
X128400000Y-74300000D03*
X128300000Y-78900000D03*
X108700000Y-74500000D03*
X129500000Y-74300000D03*
X130200000Y-27400000D03*
X131700000Y-72100000D03*
X108100000Y-40300000D03*
%TO.N,TX0*%
X182970000Y-94615000D03*
X176440000Y-94615000D03*
%TO.N,SDA0*%
X170180000Y-90170000D03*
X180490153Y-84849847D03*
X180340000Y-90805000D03*
%TO.N,SCL0*%
X175260000Y-89535000D03*
X179632891Y-90080000D03*
D26*
X180515000Y-62500000D03*
D24*
X175143000Y-79375000D03*
%TO.N,sGND*%
X183520000Y-73680000D03*
X195580000Y-55880000D03*
X160020000Y-97790000D03*
X154940000Y-39370000D03*
X172720000Y-64770000D03*
X195580000Y-43180000D03*
X195580000Y-58420000D03*
X175260000Y-26670000D03*
X154940000Y-82550000D03*
X162560000Y-97790000D03*
X195580000Y-60960000D03*
X193040000Y-26670000D03*
X195580000Y-29210000D03*
X154940000Y-46990000D03*
X167640000Y-97790000D03*
X172720000Y-73660000D03*
X195580000Y-40640000D03*
X195580000Y-81280000D03*
X160020000Y-88900000D03*
X172720000Y-45720000D03*
X195580000Y-34290000D03*
X195580000Y-31750000D03*
X195580000Y-45720000D03*
X165100000Y-97790000D03*
X163830000Y-64770000D03*
X172720000Y-55880000D03*
X98800000Y-76000000D03*
X195580000Y-74930000D03*
X154940000Y-30480000D03*
X157480000Y-86360000D03*
X161290000Y-26670000D03*
X195580000Y-48260000D03*
X160020000Y-86360000D03*
X142200000Y-76100000D03*
X195580000Y-53340000D03*
X163830000Y-45720000D03*
X163830000Y-73660000D03*
X163830000Y-55880000D03*
X120200000Y-76100000D03*
X195580000Y-26670000D03*
X154940000Y-78740000D03*
%TO.N,Net-(J7-A)*%
X101500000Y-42000000D03*
X101500000Y-41000000D03*
X102500000Y-41000000D03*
X103500000Y-41000000D03*
X103500000Y-42000000D03*
X102500000Y-42000000D03*
%TO.N,Net-(J7-B)*%
X96000000Y-41000000D03*
X98000000Y-42000000D03*
X97000000Y-42000000D03*
X98000000Y-41000000D03*
X96000000Y-42000000D03*
X97000000Y-41000000D03*
%TO.N,Net-(J7-C)*%
X90500000Y-42000000D03*
X92500000Y-41000000D03*
X91500000Y-41000000D03*
X92500000Y-42000000D03*
X90500000Y-41000000D03*
X91500000Y-42000000D03*
%TO.N,Net-(J6-A)*%
X124500000Y-42000000D03*
X125500000Y-41000000D03*
X124500000Y-41000000D03*
X125500000Y-42000000D03*
X123500000Y-42000000D03*
X123500000Y-41000000D03*
%TO.N,Net-(J6-B)*%
X118000000Y-42000000D03*
X118000000Y-41000000D03*
X120000000Y-42000000D03*
X119000000Y-42000000D03*
X119000000Y-41000000D03*
X120000000Y-41000000D03*
%TO.N,Net-(J6-C)*%
X114500000Y-42000000D03*
X113500000Y-41000000D03*
X113500000Y-42000000D03*
X114500000Y-41000000D03*
X112500000Y-41000000D03*
X112500000Y-42000000D03*
%TO.N,Net-(J8-A)*%
X146500000Y-42000000D03*
X146500000Y-41000000D03*
X145500000Y-42000000D03*
X147500000Y-42000000D03*
X147500000Y-41000000D03*
X145500000Y-41000000D03*
%TO.N,Net-(J8-B)*%
X140000000Y-42000000D03*
X140000000Y-41000000D03*
X141000000Y-41000000D03*
X141000000Y-42000000D03*
X142000000Y-41000000D03*
X142000000Y-42000000D03*
%TO.N,Net-(J8-C)*%
X135500000Y-41000000D03*
X134500000Y-42000000D03*
X136500000Y-42000000D03*
X136500000Y-41000000D03*
X135500000Y-42000000D03*
X134500000Y-41000000D03*
%TD*%
D27*
%TO.N,/5v*%
X168100000Y-72900000D02*
X168100000Y-68100000D01*
X166000000Y-75000000D02*
X168100000Y-72900000D01*
D28*
%TO.N,Net-(J3-Pin_2)*%
X160628000Y-42743000D02*
X159175000Y-44196000D01*
X177405251Y-42743000D02*
X160628000Y-42743000D01*
X182000000Y-38148251D02*
X177405251Y-42743000D01*
X180800000Y-31000000D02*
X182000000Y-32200000D01*
X182000000Y-32200000D02*
X182000000Y-38148251D01*
%TO.N,Net-(J3-Pin_3)*%
X160628000Y-40203000D02*
X177497000Y-40203000D01*
X177497000Y-40203000D02*
X181525000Y-36175000D01*
X181525000Y-36175000D02*
X181525000Y-34125000D01*
X181525000Y-34125000D02*
X180800000Y-33400000D01*
X159175000Y-41656000D02*
X160628000Y-40203000D01*
%TO.N,Net-(J3-Pin_4)*%
X160262000Y-38029000D02*
X178471000Y-38029000D01*
X159175000Y-39116000D02*
X160262000Y-38029000D01*
X178471000Y-38029000D02*
X180800000Y-35700000D01*
%TO.N,/sGP6*%
X154705304Y-63550463D02*
X155400000Y-62855767D01*
X155075000Y-63550463D02*
X154705304Y-63550463D01*
X155400000Y-53900000D02*
X155400000Y-51400000D01*
X160628000Y-47823000D02*
X159175000Y-49276000D01*
X155400000Y-62855767D02*
X155400000Y-53900000D01*
X155400000Y-51400000D02*
X154200000Y-50200000D01*
X177405251Y-47823000D02*
X160628000Y-47823000D01*
X139933250Y-77706750D02*
X139933250Y-79980000D01*
X181100000Y-44128251D02*
X177405251Y-47823000D01*
X181100000Y-43200000D02*
X181100000Y-44128251D01*
X139933250Y-79980000D02*
X140750000Y-80796750D01*
%TO.N,/sGP7*%
X159175000Y-51816000D02*
X160628000Y-50363000D01*
X117933250Y-79133250D02*
X118400000Y-79600000D01*
X154200000Y-52800000D02*
X154925000Y-53525000D01*
X177405251Y-50363000D02*
X181100000Y-46668251D01*
X154925000Y-53525000D02*
X154925000Y-62305462D01*
X160628000Y-50363000D02*
X177405251Y-50363000D01*
X181100000Y-46668251D02*
X181100000Y-45700000D01*
X154925000Y-62305462D02*
X154625000Y-62605462D01*
X117933250Y-77706750D02*
X117933250Y-79133250D01*
%TO.N,/sGP8*%
X95933250Y-77706750D02*
X95933250Y-76966750D01*
X181100000Y-49208251D02*
X181100000Y-48400000D01*
X154200000Y-55500000D02*
X154125000Y-55575000D01*
X160628000Y-52903000D02*
X177405251Y-52903000D01*
X177405251Y-52903000D02*
X181100000Y-49208251D01*
X159175000Y-54356000D02*
X160628000Y-52903000D01*
X154125000Y-55575000D02*
X154125000Y-61700000D01*
%TO.N,Net-(J5-Pin_2)*%
X181610000Y-56515000D02*
X182880000Y-57785000D01*
X182880000Y-57785000D02*
X182880000Y-71291000D01*
X182880000Y-71291000D02*
X176955000Y-77216000D01*
%TO.N,Net-(J5-Pin_3)*%
X182245000Y-69386000D02*
X176955000Y-74676000D01*
X181375000Y-58800000D02*
X182245000Y-59670000D01*
X182245000Y-59670000D02*
X182245000Y-69386000D01*
%TO.N,Net-(J5-Pin_4)*%
X181170000Y-60960000D02*
X181610000Y-61400000D01*
X181610000Y-61400000D02*
X181610000Y-64941000D01*
X181610000Y-64941000D02*
X176955000Y-69596000D01*
D27*
%TO.N,GND*%
X152564000Y-72136000D02*
X159175000Y-72136000D01*
X151600000Y-73100000D02*
X152564000Y-72136000D01*
X151600000Y-74400000D02*
X151600000Y-73100000D01*
D28*
%TO.N,TX0*%
X176440000Y-94615000D02*
X182970000Y-94615000D01*
%TO.N,SDA0*%
X180490153Y-84849847D02*
X180490153Y-90654847D01*
X180490153Y-90654847D02*
X180340000Y-90805000D01*
X170815000Y-90805000D02*
X170180000Y-90170000D01*
X180340000Y-90805000D02*
X170815000Y-90805000D01*
%TO.N,SCL0*%
X179991000Y-61976000D02*
X176955000Y-61976000D01*
X175260000Y-79492000D02*
X175143000Y-79375000D01*
X175260000Y-89535000D02*
X175260000Y-79492000D01*
X179632891Y-90080000D02*
X175805000Y-90080000D01*
X180515000Y-62500000D02*
X179991000Y-61976000D01*
X175805000Y-90080000D02*
X175260000Y-89535000D01*
%TO.N,sGND*%
X120263250Y-77706750D02*
X120263250Y-76163250D01*
X98263250Y-77706750D02*
X98263250Y-76536750D01*
X142200000Y-76100000D02*
X142200000Y-77643500D01*
X120263250Y-76163250D02*
X120200000Y-76100000D01*
X142200000Y-77643500D02*
X142263250Y-77706750D01*
X98263250Y-76536750D02*
X98800000Y-76000000D01*
%TD*%
%TA.AperFunction,Conductor*%
%TO.N,Net-(J8-B)*%
G36*
X143643039Y-33775685D02*
G01*
X143688794Y-33828489D01*
X143700000Y-33880000D01*
X143700000Y-46795500D01*
X143680315Y-46862539D01*
X143627511Y-46908294D01*
X143576000Y-46919500D01*
X138424000Y-46919500D01*
X138356961Y-46899815D01*
X138311206Y-46847011D01*
X138300000Y-46795500D01*
X138300000Y-39801286D01*
X138319685Y-39734247D01*
X138324733Y-39726975D01*
X138329546Y-39720546D01*
X138415796Y-39605331D01*
X138466091Y-39470483D01*
X138472500Y-39410873D01*
X138472499Y-34565128D01*
X138466091Y-34505517D01*
X138415796Y-34370669D01*
X138329546Y-34255454D01*
X138329545Y-34255453D01*
X138324733Y-34249025D01*
X138300316Y-34183561D01*
X138300000Y-34174714D01*
X138300000Y-33880000D01*
X138319685Y-33812961D01*
X138372489Y-33767206D01*
X138424000Y-33756000D01*
X143576000Y-33756000D01*
X143643039Y-33775685D01*
G37*
%TD.AperFunction*%
%TD*%
%TA.AperFunction,Conductor*%
%TO.N,Net-(J8-C)*%
G36*
X137737539Y-33775685D02*
G01*
X137783294Y-33828489D01*
X137794500Y-33880000D01*
X137794500Y-34174733D01*
X137794820Y-34192713D01*
X137795139Y-34201634D01*
X137796104Y-34219624D01*
X137826688Y-34360216D01*
X137846639Y-34413708D01*
X137850344Y-34423640D01*
X137850890Y-34425187D01*
X137851109Y-34425691D01*
X137920056Y-34551953D01*
X137920060Y-34551959D01*
X137920062Y-34551963D01*
X137942265Y-34581623D01*
X137966683Y-34647085D01*
X137966999Y-34655933D01*
X137966999Y-39320064D01*
X137947314Y-39387103D01*
X137942267Y-39394374D01*
X137920052Y-39424049D01*
X137909469Y-39438727D01*
X137904439Y-39445974D01*
X137894436Y-39460944D01*
X137894434Y-39460948D01*
X137834663Y-39591823D01*
X137814976Y-39658868D01*
X137794500Y-39801287D01*
X137794500Y-46795500D01*
X137774815Y-46862539D01*
X137722011Y-46908294D01*
X137670500Y-46919500D01*
X132724000Y-46919500D01*
X132656961Y-46899815D01*
X132611206Y-46847011D01*
X132600000Y-46795500D01*
X132600000Y-33880000D01*
X132619685Y-33812961D01*
X132672489Y-33767206D01*
X132724000Y-33756000D01*
X137670500Y-33756000D01*
X137737539Y-33775685D01*
G37*
%TD.AperFunction*%
%TD*%
%TA.AperFunction,Conductor*%
%TO.N,Net-(J6-A)*%
G36*
X127343039Y-33775685D02*
G01*
X127388794Y-33828489D01*
X127400000Y-33880000D01*
X127400000Y-46795500D01*
X127380315Y-46862539D01*
X127327511Y-46908294D01*
X127276000Y-46919500D01*
X122329500Y-46919500D01*
X122262461Y-46899815D01*
X122216706Y-46847011D01*
X122205500Y-46795500D01*
X122205500Y-37682513D01*
X122205500Y-37682500D01*
X122203150Y-37642192D01*
X122203864Y-37639105D01*
X122202296Y-37625677D01*
X122202272Y-37625448D01*
X122202077Y-37623784D01*
X122202077Y-37623776D01*
X122200476Y-37610089D01*
X122201288Y-37605331D01*
X122197847Y-37585815D01*
X122196802Y-37578682D01*
X122195133Y-37564411D01*
X122191786Y-37551434D01*
X122142291Y-37270734D01*
X122140617Y-37256413D01*
X122125402Y-36995194D01*
X122125402Y-36980807D01*
X122140616Y-36719598D01*
X122142290Y-36705280D01*
X122191792Y-36424537D01*
X122194189Y-36419698D01*
X122196808Y-36397296D01*
X122197854Y-36390156D01*
X122200013Y-36377910D01*
X122200471Y-36365959D01*
X122202082Y-36352180D01*
X122202082Y-36352169D01*
X122202271Y-36350558D01*
X122202301Y-36350260D01*
X122203312Y-36341595D01*
X122203156Y-36333738D01*
X122205500Y-36293498D01*
X122205500Y-33880000D01*
X122225185Y-33812961D01*
X122277989Y-33767206D01*
X122329500Y-33756000D01*
X127276000Y-33756000D01*
X127343039Y-33775685D01*
G37*
%TD.AperFunction*%
%TD*%
%TA.AperFunction,Conductor*%
%TO.N,Net-(J7-A)*%
G36*
X105343039Y-33775685D02*
G01*
X105388794Y-33828489D01*
X105400000Y-33880000D01*
X105400000Y-46795500D01*
X105380315Y-46862539D01*
X105327511Y-46908294D01*
X105276000Y-46919500D01*
X100329500Y-46919500D01*
X100262461Y-46899815D01*
X100216706Y-46847011D01*
X100205500Y-46795500D01*
X100205500Y-38010234D01*
X100205499Y-38010225D01*
X100200163Y-37936972D01*
X100194954Y-37901409D01*
X100179055Y-37829690D01*
X100093039Y-37542379D01*
X100089719Y-37528369D01*
X100044291Y-37270731D01*
X100042617Y-37256410D01*
X100027402Y-36995194D01*
X100027402Y-36980807D01*
X100042616Y-36719591D01*
X100044290Y-36705272D01*
X100089718Y-36447631D01*
X100093034Y-36433637D01*
X100179055Y-36146309D01*
X100194954Y-36074591D01*
X100200163Y-36039028D01*
X100205500Y-35965768D01*
X100205500Y-33880000D01*
X100225185Y-33812961D01*
X100277989Y-33767206D01*
X100329500Y-33756000D01*
X105276000Y-33756000D01*
X105343039Y-33775685D01*
G37*
%TD.AperFunction*%
%TD*%
%TA.AperFunction,Conductor*%
%TO.N,Net-(J7-C)*%
G36*
X93735666Y-33783978D02*
G01*
X93782357Y-33835957D01*
X93794500Y-33889474D01*
X93794500Y-46795500D01*
X93774815Y-46862539D01*
X93722011Y-46908294D01*
X93670500Y-46919500D01*
X88724000Y-46919500D01*
X88656961Y-46899815D01*
X88611206Y-46847011D01*
X88600000Y-46795500D01*
X88600000Y-33977805D01*
X88619685Y-33910766D01*
X88672489Y-33865011D01*
X88721784Y-33853825D01*
X93668289Y-33765494D01*
X93735666Y-33783978D01*
G37*
%TD.AperFunction*%
%TD*%
%TA.AperFunction,Conductor*%
%TO.N,Net-(J6-B)*%
G36*
X121643039Y-33775685D02*
G01*
X121688794Y-33828489D01*
X121700000Y-33880000D01*
X121700000Y-36293498D01*
X121696881Y-36320184D01*
X121696894Y-36320187D01*
X121696856Y-36320401D01*
X121696659Y-36322089D01*
X121696266Y-36323744D01*
X121638104Y-36653597D01*
X121638103Y-36653608D01*
X121618627Y-36987996D01*
X121618627Y-36988003D01*
X121638103Y-37322391D01*
X121638104Y-37322402D01*
X121696265Y-37652251D01*
X121696655Y-37653893D01*
X121696851Y-37655571D01*
X121696894Y-37655814D01*
X121696879Y-37655816D01*
X121700000Y-37682500D01*
X121700000Y-46795500D01*
X121680315Y-46862539D01*
X121627511Y-46908294D01*
X121576000Y-46919500D01*
X116424000Y-46919500D01*
X116356961Y-46899815D01*
X116311206Y-46847011D01*
X116300000Y-46795500D01*
X116300000Y-39669570D01*
X116315172Y-39610136D01*
X116317797Y-39605329D01*
X116368091Y-39470482D01*
X116374500Y-39410873D01*
X116374499Y-34565128D01*
X116368091Y-34505517D01*
X116317796Y-34370669D01*
X116317796Y-34370668D01*
X116315168Y-34365856D01*
X116300000Y-34306429D01*
X116300000Y-33880000D01*
X116319685Y-33812961D01*
X116372489Y-33767206D01*
X116424000Y-33756000D01*
X121576000Y-33756000D01*
X121643039Y-33775685D01*
G37*
%TD.AperFunction*%
%TD*%
%TA.AperFunction,Conductor*%
%TO.N,Net-(J6-C)*%
G36*
X115737539Y-33775685D02*
G01*
X115783294Y-33828489D01*
X115794500Y-33880000D01*
X115794500Y-34306432D01*
X115810203Y-34431446D01*
X115825370Y-34490871D01*
X115825372Y-34490877D01*
X115826724Y-34494313D01*
X115827458Y-34502519D01*
X115861181Y-34592935D01*
X115868999Y-34636268D01*
X115868999Y-39339725D01*
X115861182Y-39383055D01*
X115832402Y-39460224D01*
X115826719Y-39481699D01*
X115825379Y-39485105D01*
X115825377Y-39485110D01*
X115810207Y-39544534D01*
X115794500Y-39669570D01*
X115794500Y-46795500D01*
X115774815Y-46862539D01*
X115722011Y-46908294D01*
X115670500Y-46919500D01*
X110724000Y-46919500D01*
X110656961Y-46899815D01*
X110611206Y-46847011D01*
X110600000Y-46795500D01*
X110600000Y-33880000D01*
X110619685Y-33812961D01*
X110672489Y-33767206D01*
X110724000Y-33756000D01*
X115670500Y-33756000D01*
X115737539Y-33775685D01*
G37*
%TD.AperFunction*%
%TD*%
%TA.AperFunction,Conductor*%
%TO.N,Net-(J8-A)*%
G36*
X149343039Y-33775685D02*
G01*
X149388794Y-33828489D01*
X149400000Y-33880000D01*
X149400000Y-46795500D01*
X149380315Y-46862539D01*
X149327511Y-46908294D01*
X149276000Y-46919500D01*
X144329500Y-46919500D01*
X144262461Y-46899815D01*
X144216706Y-46847011D01*
X144205500Y-46795500D01*
X144205500Y-33880000D01*
X144225185Y-33812961D01*
X144277989Y-33767206D01*
X144329500Y-33756000D01*
X149276000Y-33756000D01*
X149343039Y-33775685D01*
G37*
%TD.AperFunction*%
%TD*%
%TA.AperFunction,Conductor*%
%TO.N,Net-(J7-B)*%
G36*
X99643039Y-33775685D02*
G01*
X99688794Y-33828489D01*
X99700000Y-33880000D01*
X99700000Y-35965768D01*
X99694791Y-36001331D01*
X99598267Y-36323743D01*
X99598264Y-36323757D01*
X99540104Y-36653597D01*
X99540103Y-36653608D01*
X99520627Y-36987996D01*
X99520627Y-36988003D01*
X99540103Y-37322391D01*
X99540104Y-37322402D01*
X99598264Y-37652242D01*
X99598267Y-37652256D01*
X99694791Y-37974669D01*
X99700000Y-38010232D01*
X99700000Y-46795500D01*
X99680315Y-46862539D01*
X99627511Y-46908294D01*
X99576000Y-46919500D01*
X94424000Y-46919500D01*
X94356961Y-46899815D01*
X94311206Y-46847011D01*
X94300000Y-46795500D01*
X94300000Y-33880000D01*
X94319685Y-33812961D01*
X94372489Y-33767206D01*
X94424000Y-33756000D01*
X99576000Y-33756000D01*
X99643039Y-33775685D01*
G37*
%TD.AperFunction*%
%TD*%
%TA.AperFunction,Conductor*%
%TO.N,sGND*%
G36*
X196942539Y-25520185D02*
G01*
X196988294Y-25572989D01*
X196999500Y-25624500D01*
X196999500Y-99444000D01*
X196979815Y-99511039D01*
X196927011Y-99556794D01*
X196875500Y-99568000D01*
X196543133Y-99568000D01*
X196476094Y-99548315D01*
X196430339Y-99495511D01*
X196422927Y-99474440D01*
X196391191Y-99349120D01*
X196298658Y-99138166D01*
X196215961Y-99011589D01*
X195659551Y-99568000D01*
X195387232Y-99568000D01*
X195384077Y-99562535D01*
X195311465Y-99489923D01*
X195222534Y-99438578D01*
X195123344Y-99412000D01*
X195108447Y-99412000D01*
X195863672Y-98656774D01*
X195863671Y-98656772D01*
X195834866Y-98634352D01*
X195834860Y-98634347D01*
X195632276Y-98524715D01*
X195632262Y-98524709D01*
X195414396Y-98449915D01*
X195187179Y-98412000D01*
X194956821Y-98412000D01*
X194729603Y-98449915D01*
X194511737Y-98524709D01*
X194511723Y-98524715D01*
X194309141Y-98634346D01*
X194309139Y-98634347D01*
X194280327Y-98656773D01*
X195035554Y-99412000D01*
X195020656Y-99412000D01*
X194921466Y-99438578D01*
X194832535Y-99489923D01*
X194759923Y-99562535D01*
X194756768Y-99568000D01*
X194484447Y-99568000D01*
X193928036Y-99011589D01*
X193906106Y-99045156D01*
X193852960Y-99090513D01*
X193783728Y-99099936D01*
X193720393Y-99070434D01*
X193698489Y-99045155D01*
X193633063Y-98945012D01*
X193615315Y-98925732D01*
X193476988Y-98775469D01*
X193476983Y-98775465D01*
X193476981Y-98775463D01*
X193295146Y-98633935D01*
X193295135Y-98633928D01*
X193092478Y-98524256D01*
X193092475Y-98524255D01*
X193092472Y-98524253D01*
X193092466Y-98524251D01*
X193092464Y-98524250D01*
X192874520Y-98449429D01*
X192647220Y-98411500D01*
X192416780Y-98411500D01*
X192189479Y-98449429D01*
X191971535Y-98524250D01*
X191971521Y-98524256D01*
X191768864Y-98633928D01*
X191768853Y-98633935D01*
X191587018Y-98775463D01*
X191587015Y-98775466D01*
X191430939Y-98945010D01*
X191365809Y-99044699D01*
X191312662Y-99090055D01*
X191243431Y-99099479D01*
X191180095Y-99069977D01*
X191158191Y-99044699D01*
X191136559Y-99011589D01*
X191093061Y-98945010D01*
X190936988Y-98775469D01*
X190936983Y-98775465D01*
X190936981Y-98775463D01*
X190755146Y-98633935D01*
X190755135Y-98633928D01*
X190552478Y-98524256D01*
X190552475Y-98524255D01*
X190552472Y-98524253D01*
X190552466Y-98524251D01*
X190552464Y-98524250D01*
X190334520Y-98449429D01*
X190107220Y-98411500D01*
X189876780Y-98411500D01*
X189649479Y-98449429D01*
X189431535Y-98524250D01*
X189431521Y-98524256D01*
X189228864Y-98633928D01*
X189228853Y-98633935D01*
X189047018Y-98775463D01*
X189047015Y-98775466D01*
X188890935Y-98945014D01*
X188825508Y-99045157D01*
X188772362Y-99090514D01*
X188703130Y-99099937D01*
X188639795Y-99070434D01*
X188617891Y-99045156D01*
X188595961Y-99011589D01*
X188039551Y-99568000D01*
X187767232Y-99568000D01*
X187764077Y-99562535D01*
X187691465Y-99489923D01*
X187602534Y-99438578D01*
X187503344Y-99412000D01*
X187488447Y-99412000D01*
X188243672Y-98656774D01*
X188243671Y-98656772D01*
X188214866Y-98634352D01*
X188214860Y-98634347D01*
X188012276Y-98524715D01*
X188012262Y-98524709D01*
X187794396Y-98449915D01*
X187567179Y-98412000D01*
X187336821Y-98412000D01*
X187109603Y-98449915D01*
X186891737Y-98524709D01*
X186891723Y-98524715D01*
X186689141Y-98634346D01*
X186689139Y-98634347D01*
X186660327Y-98656773D01*
X187415554Y-99412000D01*
X187400656Y-99412000D01*
X187301466Y-99438578D01*
X187212535Y-99489923D01*
X187139923Y-99562535D01*
X187136768Y-99568000D01*
X186864447Y-99568000D01*
X186308036Y-99011589D01*
X186286106Y-99045156D01*
X186232960Y-99090513D01*
X186163728Y-99099936D01*
X186100393Y-99070434D01*
X186078489Y-99045155D01*
X186013063Y-98945012D01*
X185995315Y-98925732D01*
X185856988Y-98775469D01*
X185856983Y-98775465D01*
X185856981Y-98775463D01*
X185675146Y-98633935D01*
X185675135Y-98633928D01*
X185472478Y-98524256D01*
X185472475Y-98524255D01*
X185472472Y-98524253D01*
X185472466Y-98524251D01*
X185472464Y-98524250D01*
X185254520Y-98449429D01*
X185027220Y-98411500D01*
X184796780Y-98411500D01*
X184569479Y-98449429D01*
X184351535Y-98524250D01*
X184351521Y-98524256D01*
X184148864Y-98633928D01*
X184148853Y-98633935D01*
X183967018Y-98775463D01*
X183967015Y-98775466D01*
X183810939Y-98945010D01*
X183745809Y-99044699D01*
X183692662Y-99090055D01*
X183623431Y-99099479D01*
X183560095Y-99069977D01*
X183538191Y-99044699D01*
X183516559Y-99011589D01*
X183473061Y-98945010D01*
X183316988Y-98775469D01*
X183316983Y-98775465D01*
X183316981Y-98775463D01*
X183135146Y-98633935D01*
X183135135Y-98633928D01*
X182932478Y-98524256D01*
X182932475Y-98524255D01*
X182932472Y-98524253D01*
X182932466Y-98524251D01*
X182932464Y-98524250D01*
X182714520Y-98449429D01*
X182487220Y-98411500D01*
X182256780Y-98411500D01*
X182029479Y-98449429D01*
X181811535Y-98524250D01*
X181811521Y-98524256D01*
X181608864Y-98633928D01*
X181608853Y-98633935D01*
X181427018Y-98775463D01*
X181427015Y-98775466D01*
X181270935Y-98945014D01*
X181205508Y-99045157D01*
X181152362Y-99090514D01*
X181083130Y-99099937D01*
X181019795Y-99070434D01*
X180997891Y-99045156D01*
X180975961Y-99011589D01*
X180419551Y-99568000D01*
X180147232Y-99568000D01*
X180144077Y-99562535D01*
X180071465Y-99489923D01*
X179982534Y-99438578D01*
X179883344Y-99412000D01*
X179868447Y-99412000D01*
X180623672Y-98656774D01*
X180623671Y-98656772D01*
X180594866Y-98634352D01*
X180594860Y-98634347D01*
X180392276Y-98524715D01*
X180392262Y-98524709D01*
X180174396Y-98449915D01*
X179947179Y-98412000D01*
X179716821Y-98412000D01*
X179489603Y-98449915D01*
X179271737Y-98524709D01*
X179271723Y-98524715D01*
X179069141Y-98634346D01*
X179069139Y-98634347D01*
X179040327Y-98656773D01*
X179795554Y-99412000D01*
X179780656Y-99412000D01*
X179681466Y-99438578D01*
X179592535Y-99489923D01*
X179519923Y-99562535D01*
X179516768Y-99568000D01*
X179244447Y-99568000D01*
X178688036Y-99011589D01*
X178666106Y-99045156D01*
X178612960Y-99090513D01*
X178543728Y-99099936D01*
X178480393Y-99070434D01*
X178458489Y-99045155D01*
X178393063Y-98945012D01*
X178375315Y-98925732D01*
X178236988Y-98775469D01*
X178236983Y-98775465D01*
X178236981Y-98775463D01*
X178055146Y-98633935D01*
X178055135Y-98633928D01*
X177852478Y-98524256D01*
X177852475Y-98524255D01*
X177852472Y-98524253D01*
X177852466Y-98524251D01*
X177852464Y-98524250D01*
X177634520Y-98449429D01*
X177407220Y-98411500D01*
X177176780Y-98411500D01*
X176949479Y-98449429D01*
X176731535Y-98524250D01*
X176731521Y-98524256D01*
X176528864Y-98633928D01*
X176528853Y-98633935D01*
X176347018Y-98775463D01*
X176347015Y-98775466D01*
X176190939Y-98945010D01*
X176125809Y-99044699D01*
X176072662Y-99090055D01*
X176003431Y-99099479D01*
X175940095Y-99069977D01*
X175918191Y-99044699D01*
X175896559Y-99011589D01*
X175853061Y-98945010D01*
X175696988Y-98775469D01*
X175696983Y-98775465D01*
X175696981Y-98775463D01*
X175515146Y-98633935D01*
X175515135Y-98633928D01*
X175312478Y-98524256D01*
X175312475Y-98524255D01*
X175312472Y-98524253D01*
X175312466Y-98524251D01*
X175312464Y-98524250D01*
X175094520Y-98449429D01*
X174867220Y-98411500D01*
X174636780Y-98411500D01*
X174409479Y-98449429D01*
X174191535Y-98524250D01*
X174191521Y-98524256D01*
X173988864Y-98633928D01*
X173988853Y-98633935D01*
X173807018Y-98775463D01*
X173807015Y-98775466D01*
X173650935Y-98945014D01*
X173585508Y-99045157D01*
X173532362Y-99090514D01*
X173463130Y-99099937D01*
X173399795Y-99070434D01*
X173377891Y-99045156D01*
X173355961Y-99011589D01*
X172799551Y-99568000D01*
X172527232Y-99568000D01*
X172524077Y-99562535D01*
X172451465Y-99489923D01*
X172362534Y-99438578D01*
X172263344Y-99412000D01*
X172248447Y-99412000D01*
X173003672Y-98656774D01*
X173003671Y-98656772D01*
X172974866Y-98634352D01*
X172974860Y-98634347D01*
X172772276Y-98524715D01*
X172772262Y-98524709D01*
X172554396Y-98449915D01*
X172327179Y-98412000D01*
X172096821Y-98412000D01*
X171869603Y-98449915D01*
X171651737Y-98524709D01*
X171651723Y-98524715D01*
X171449141Y-98634346D01*
X171449139Y-98634347D01*
X171420327Y-98656773D01*
X172175554Y-99412000D01*
X172160656Y-99412000D01*
X172061466Y-99438578D01*
X171972535Y-99489923D01*
X171899923Y-99562535D01*
X171896768Y-99568000D01*
X171624447Y-99568000D01*
X171068037Y-99011590D01*
X170985341Y-99138166D01*
X170892808Y-99349120D01*
X170861073Y-99474440D01*
X170825533Y-99534596D01*
X170763113Y-99565988D01*
X170740867Y-99568000D01*
X170145980Y-99568000D01*
X170083980Y-99551387D01*
X170053188Y-99533609D01*
X170053187Y-99533608D01*
X170053186Y-99533608D01*
X169925892Y-99499500D01*
X169925891Y-99499500D01*
X158620000Y-99499500D01*
X158552961Y-99479815D01*
X158507206Y-99427011D01*
X158496000Y-99375500D01*
X158496000Y-94615000D01*
X175534540Y-94615000D01*
X175554326Y-94803256D01*
X175554327Y-94803259D01*
X175612818Y-94983277D01*
X175612821Y-94983284D01*
X175707467Y-95147216D01*
X175823374Y-95275943D01*
X175834129Y-95287888D01*
X175987265Y-95399148D01*
X175987270Y-95399151D01*
X176160192Y-95476142D01*
X176160197Y-95476144D01*
X176345354Y-95515500D01*
X176345355Y-95515500D01*
X176534644Y-95515500D01*
X176534646Y-95515500D01*
X176719803Y-95476144D01*
X176892730Y-95399151D01*
X177045871Y-95287888D01*
X177048788Y-95284647D01*
X177051600Y-95281526D01*
X177111087Y-95244879D01*
X177143748Y-95240500D01*
X182266252Y-95240500D01*
X182333291Y-95260185D01*
X182358400Y-95281526D01*
X182364126Y-95287885D01*
X182364130Y-95287889D01*
X182517265Y-95399148D01*
X182517270Y-95399151D01*
X182690192Y-95476142D01*
X182690197Y-95476144D01*
X182875354Y-95515500D01*
X182875355Y-95515500D01*
X183064644Y-95515500D01*
X183064646Y-95515500D01*
X183249803Y-95476144D01*
X183422730Y-95399151D01*
X183575871Y-95287888D01*
X183702533Y-95147216D01*
X183797179Y-94983284D01*
X183855674Y-94803256D01*
X183875460Y-94615000D01*
X183855674Y-94426744D01*
X183797179Y-94246716D01*
X183702533Y-94082784D01*
X183575871Y-93942112D01*
X183575870Y-93942111D01*
X183422734Y-93830851D01*
X183422729Y-93830848D01*
X183249807Y-93753857D01*
X183249802Y-93753855D01*
X183104001Y-93722865D01*
X183064646Y-93714500D01*
X182875354Y-93714500D01*
X182842897Y-93721398D01*
X182690197Y-93753855D01*
X182690192Y-93753857D01*
X182517270Y-93830848D01*
X182517265Y-93830851D01*
X182364130Y-93942110D01*
X182364126Y-93942114D01*
X182358400Y-93948474D01*
X182298913Y-93985121D01*
X182266252Y-93989500D01*
X177143748Y-93989500D01*
X177076709Y-93969815D01*
X177051600Y-93948474D01*
X177045873Y-93942114D01*
X177045869Y-93942110D01*
X176892734Y-93830851D01*
X176892729Y-93830848D01*
X176719807Y-93753857D01*
X176719802Y-93753855D01*
X176574001Y-93722865D01*
X176534646Y-93714500D01*
X176345354Y-93714500D01*
X176312897Y-93721398D01*
X176160197Y-93753855D01*
X176160192Y-93753857D01*
X175987270Y-93830848D01*
X175987265Y-93830851D01*
X175834129Y-93942111D01*
X175707466Y-94082785D01*
X175612821Y-94246715D01*
X175612818Y-94246722D01*
X175556789Y-94419163D01*
X175554326Y-94426744D01*
X175534540Y-94615000D01*
X158496000Y-94615000D01*
X158496000Y-90170000D01*
X169274540Y-90170000D01*
X169294326Y-90358256D01*
X169294327Y-90358259D01*
X169352818Y-90538277D01*
X169352821Y-90538284D01*
X169447467Y-90702216D01*
X169574129Y-90842888D01*
X169727265Y-90954148D01*
X169727270Y-90954151D01*
X169900192Y-91031142D01*
X169900197Y-91031144D01*
X170085354Y-91070500D01*
X170144547Y-91070500D01*
X170211586Y-91090185D01*
X170232228Y-91106819D01*
X170416263Y-91290855D01*
X170416267Y-91290858D01*
X170518708Y-91359308D01*
X170518715Y-91359312D01*
X170582504Y-91385734D01*
X170632548Y-91406463D01*
X170652597Y-91410451D01*
X170686196Y-91417134D01*
X170753392Y-91430501D01*
X170753394Y-91430501D01*
X170882721Y-91430501D01*
X170882741Y-91430500D01*
X179636252Y-91430500D01*
X179703291Y-91450185D01*
X179728400Y-91471526D01*
X179734126Y-91477885D01*
X179734130Y-91477889D01*
X179887265Y-91589148D01*
X179887270Y-91589151D01*
X180060192Y-91666142D01*
X180060197Y-91666144D01*
X180245354Y-91705500D01*
X180245355Y-91705500D01*
X180434644Y-91705500D01*
X180434646Y-91705500D01*
X180619803Y-91666144D01*
X180792730Y-91589151D01*
X180945871Y-91477888D01*
X181072533Y-91337216D01*
X181167179Y-91173284D01*
X181225674Y-90993256D01*
X181245460Y-90805000D01*
X181225674Y-90616744D01*
X181167179Y-90436716D01*
X181132264Y-90376242D01*
X181115653Y-90314244D01*
X181115653Y-85548534D01*
X181135338Y-85481495D01*
X181147503Y-85465562D01*
X181166044Y-85444969D01*
X181222686Y-85382063D01*
X181317332Y-85218131D01*
X181375827Y-85038103D01*
X181395613Y-84849847D01*
X181375827Y-84661591D01*
X181317332Y-84481563D01*
X181222686Y-84317631D01*
X181096024Y-84176959D01*
X181096023Y-84176958D01*
X180942887Y-84065698D01*
X180942882Y-84065695D01*
X180769960Y-83988704D01*
X180769955Y-83988702D01*
X180624154Y-83957712D01*
X180584799Y-83949347D01*
X180395507Y-83949347D01*
X180363050Y-83956245D01*
X180210350Y-83988702D01*
X180210345Y-83988704D01*
X180037423Y-84065695D01*
X180037418Y-84065698D01*
X179884282Y-84176958D01*
X179757619Y-84317632D01*
X179662974Y-84481562D01*
X179662971Y-84481569D01*
X179604480Y-84661587D01*
X179604479Y-84661591D01*
X179584693Y-84849847D01*
X179604479Y-85038103D01*
X179604480Y-85038106D01*
X179662971Y-85218124D01*
X179662974Y-85218131D01*
X179757620Y-85382063D01*
X179800925Y-85430157D01*
X179832803Y-85465562D01*
X179863033Y-85528553D01*
X179864653Y-85548534D01*
X179864653Y-89056195D01*
X179844968Y-89123234D01*
X179792164Y-89168989D01*
X179734035Y-89178482D01*
X179734035Y-89179500D01*
X179727806Y-89179500D01*
X179727702Y-89179517D01*
X179727540Y-89179500D01*
X179727537Y-89179500D01*
X179538245Y-89179500D01*
X179505788Y-89186398D01*
X179353088Y-89218855D01*
X179353083Y-89218857D01*
X179180161Y-89295848D01*
X179180156Y-89295851D01*
X179027021Y-89407110D01*
X179027017Y-89407114D01*
X179021291Y-89413474D01*
X178961804Y-89450121D01*
X178929143Y-89454500D01*
X176268650Y-89454500D01*
X176201611Y-89434815D01*
X176155856Y-89382011D01*
X176147912Y-89352917D01*
X176147027Y-89353106D01*
X176145675Y-89346747D01*
X176087181Y-89166722D01*
X176087180Y-89166721D01*
X176087179Y-89166716D01*
X175992533Y-89002784D01*
X175984762Y-88994153D01*
X175917350Y-88919284D01*
X175887120Y-88856292D01*
X175885500Y-88836312D01*
X175885500Y-79923177D01*
X175902113Y-79861177D01*
X175970179Y-79743284D01*
X176028674Y-79563256D01*
X176048460Y-79375000D01*
X176028674Y-79186744D01*
X175970179Y-79006716D01*
X175875533Y-78842784D01*
X175748871Y-78702112D01*
X175748870Y-78702111D01*
X175595734Y-78590851D01*
X175595729Y-78590848D01*
X175422807Y-78513857D01*
X175422802Y-78513855D01*
X175277001Y-78482865D01*
X175237646Y-78474500D01*
X175048354Y-78474500D01*
X175015897Y-78481398D01*
X174863197Y-78513855D01*
X174863192Y-78513857D01*
X174690270Y-78590848D01*
X174690265Y-78590851D01*
X174537129Y-78702111D01*
X174410466Y-78842785D01*
X174315821Y-79006715D01*
X174315818Y-79006722D01*
X174269620Y-79148906D01*
X174257326Y-79186744D01*
X174237540Y-79375000D01*
X174257326Y-79563256D01*
X174257327Y-79563259D01*
X174315818Y-79743277D01*
X174315821Y-79743284D01*
X174410467Y-79907216D01*
X174445115Y-79945696D01*
X174537129Y-80047888D01*
X174537130Y-80047889D01*
X174583385Y-80081495D01*
X174626051Y-80136824D01*
X174634500Y-80181813D01*
X174634500Y-88836312D01*
X174614815Y-88903351D01*
X174602650Y-88919284D01*
X174527466Y-89002784D01*
X174432821Y-89166715D01*
X174432818Y-89166722D01*
X174386636Y-89308857D01*
X174374326Y-89346744D01*
X174354540Y-89535000D01*
X174374326Y-89723256D01*
X174374327Y-89723259D01*
X174432818Y-89903277D01*
X174432821Y-89903284D01*
X174484907Y-89993500D01*
X174501380Y-90061401D01*
X174478527Y-90127427D01*
X174423606Y-90170618D01*
X174377520Y-90179500D01*
X171198109Y-90179500D01*
X171131070Y-90159815D01*
X171085315Y-90107011D01*
X171074788Y-90068462D01*
X171074046Y-90061401D01*
X171065674Y-89981744D01*
X171007179Y-89801716D01*
X170912533Y-89637784D01*
X170785871Y-89497112D01*
X170770182Y-89485713D01*
X170632734Y-89385851D01*
X170632729Y-89385848D01*
X170459807Y-89308857D01*
X170459802Y-89308855D01*
X170314001Y-89277865D01*
X170274646Y-89269500D01*
X170085354Y-89269500D01*
X170052897Y-89276398D01*
X169900197Y-89308855D01*
X169900192Y-89308857D01*
X169727270Y-89385848D01*
X169727265Y-89385851D01*
X169574129Y-89497111D01*
X169447466Y-89637785D01*
X169352821Y-89801715D01*
X169352818Y-89801722D01*
X169294327Y-89981740D01*
X169294326Y-89981744D01*
X169274540Y-90170000D01*
X158496000Y-90170000D01*
X158496000Y-88392000D01*
X153429500Y-88392000D01*
X153362461Y-88372315D01*
X153316706Y-88319511D01*
X153305500Y-88268000D01*
X153305500Y-73135500D01*
X153325185Y-73068461D01*
X153377989Y-73022706D01*
X153429500Y-73011500D01*
X158213692Y-73011500D01*
X158280731Y-73031185D01*
X158301373Y-73047819D01*
X158360378Y-73106824D01*
X158360384Y-73106829D01*
X158541333Y-73233531D01*
X158541335Y-73233532D01*
X158541338Y-73233534D01*
X158660748Y-73289215D01*
X158670189Y-73293618D01*
X158722628Y-73339790D01*
X158741780Y-73406984D01*
X158721564Y-73473865D01*
X158670189Y-73518382D01*
X158541340Y-73578465D01*
X158541338Y-73578466D01*
X158360377Y-73705175D01*
X158204175Y-73861377D01*
X158077466Y-74042338D01*
X158077465Y-74042340D01*
X157984107Y-74242548D01*
X157984104Y-74242554D01*
X157926930Y-74455929D01*
X157926929Y-74455937D01*
X157907677Y-74675997D01*
X157907677Y-74676002D01*
X157926929Y-74896062D01*
X157926930Y-74896070D01*
X157984104Y-75109445D01*
X157984105Y-75109447D01*
X157984106Y-75109450D01*
X158067573Y-75288447D01*
X158077466Y-75309662D01*
X158077468Y-75309666D01*
X158204170Y-75490615D01*
X158204175Y-75490621D01*
X158360378Y-75646824D01*
X158360384Y-75646829D01*
X158541333Y-75773531D01*
X158541335Y-75773532D01*
X158541338Y-75773534D01*
X158629437Y-75814615D01*
X158670189Y-75833618D01*
X158722628Y-75879790D01*
X158741780Y-75946984D01*
X158721564Y-76013865D01*
X158670189Y-76058382D01*
X158541340Y-76118465D01*
X158541338Y-76118466D01*
X158360377Y-76245175D01*
X158204175Y-76401377D01*
X158077466Y-76582338D01*
X158077465Y-76582340D01*
X157984107Y-76782548D01*
X157984104Y-76782554D01*
X157926930Y-76995929D01*
X157926929Y-76995937D01*
X157907677Y-77215997D01*
X157907677Y-77216002D01*
X157926929Y-77436062D01*
X157926930Y-77436070D01*
X157984104Y-77649445D01*
X157984105Y-77649447D01*
X157984106Y-77649450D01*
X158000201Y-77683965D01*
X158077466Y-77849662D01*
X158077468Y-77849666D01*
X158204170Y-78030615D01*
X158204175Y-78030621D01*
X158360378Y-78186824D01*
X158360384Y-78186829D01*
X158541333Y-78313531D01*
X158541335Y-78313532D01*
X158541338Y-78313534D01*
X158741550Y-78406894D01*
X158954932Y-78464070D01*
X159112123Y-78477822D01*
X159174998Y-78483323D01*
X159175000Y-78483323D01*
X159175002Y-78483323D01*
X159230017Y-78478509D01*
X159395068Y-78464070D01*
X159608450Y-78406894D01*
X159808662Y-78313534D01*
X159989620Y-78186826D01*
X160145826Y-78030620D01*
X160272534Y-77849662D01*
X160365894Y-77649450D01*
X160423070Y-77436068D01*
X160442323Y-77216000D01*
X160423070Y-76995932D01*
X160365894Y-76782550D01*
X160272534Y-76582339D01*
X160145826Y-76401380D01*
X159989620Y-76245174D01*
X159989616Y-76245171D01*
X159989615Y-76245170D01*
X159808666Y-76118468D01*
X159808658Y-76118464D01*
X159679811Y-76058382D01*
X159627371Y-76012210D01*
X159608219Y-75945017D01*
X159628435Y-75878135D01*
X159679811Y-75833618D01*
X159720563Y-75814615D01*
X159808662Y-75773534D01*
X159989620Y-75646826D01*
X160145826Y-75490620D01*
X160272534Y-75309662D01*
X160365894Y-75109450D01*
X160395221Y-75000002D01*
X164732677Y-75000002D01*
X164751929Y-75220062D01*
X164751930Y-75220070D01*
X164809104Y-75433445D01*
X164809105Y-75433447D01*
X164809106Y-75433450D01*
X164862367Y-75547669D01*
X164902466Y-75633662D01*
X164902468Y-75633666D01*
X165029170Y-75814615D01*
X165029175Y-75814621D01*
X165185378Y-75970824D01*
X165185384Y-75970829D01*
X165366333Y-76097531D01*
X165366335Y-76097532D01*
X165366338Y-76097534D01*
X165566550Y-76190894D01*
X165779932Y-76248070D01*
X165937123Y-76261822D01*
X165999998Y-76267323D01*
X166000000Y-76267323D01*
X166000002Y-76267323D01*
X166055017Y-76262509D01*
X166220068Y-76248070D01*
X166433450Y-76190894D01*
X166633662Y-76097534D01*
X166814620Y-75970826D01*
X166970826Y-75814620D01*
X167097534Y-75633662D01*
X167190894Y-75433450D01*
X167248070Y-75220068D01*
X167266187Y-75012981D01*
X167291639Y-74947913D01*
X167302026Y-74936116D01*
X168780045Y-73458099D01*
X168875858Y-73314705D01*
X168941855Y-73155374D01*
X168975500Y-72986229D01*
X168975500Y-72813771D01*
X168975500Y-69061308D01*
X168995185Y-68994269D01*
X169011819Y-68973627D01*
X169023108Y-68962338D01*
X169070826Y-68914620D01*
X169197534Y-68733662D01*
X169290894Y-68533450D01*
X169348070Y-68320068D01*
X169367323Y-68100000D01*
X169348070Y-67879932D01*
X169290894Y-67666550D01*
X169197534Y-67466339D01*
X169070826Y-67285380D01*
X168914620Y-67129174D01*
X168914616Y-67129171D01*
X168914615Y-67129170D01*
X168733666Y-67002468D01*
X168733662Y-67002466D01*
X168733660Y-67002465D01*
X168533450Y-66909106D01*
X168533447Y-66909105D01*
X168533445Y-66909104D01*
X168320070Y-66851930D01*
X168320062Y-66851929D01*
X168100002Y-66832677D01*
X168099998Y-66832677D01*
X167879937Y-66851929D01*
X167879929Y-66851930D01*
X167666554Y-66909104D01*
X167666548Y-66909107D01*
X167466340Y-67002465D01*
X167466338Y-67002466D01*
X167285377Y-67129175D01*
X167129175Y-67285377D01*
X167002466Y-67466338D01*
X167002465Y-67466340D01*
X166909107Y-67666548D01*
X166909104Y-67666554D01*
X166851930Y-67879929D01*
X166851929Y-67879937D01*
X166832677Y-68099997D01*
X166832677Y-68100002D01*
X166851929Y-68320062D01*
X166851930Y-68320070D01*
X166909104Y-68533445D01*
X166909105Y-68533447D01*
X166909106Y-68533450D01*
X166951878Y-68625175D01*
X167002466Y-68733662D01*
X167002468Y-68733666D01*
X167129170Y-68914615D01*
X167129175Y-68914621D01*
X167188181Y-68973627D01*
X167221666Y-69034950D01*
X167224500Y-69061308D01*
X167224500Y-72485993D01*
X167204815Y-72553032D01*
X167188181Y-72573674D01*
X166063889Y-73697965D01*
X166002566Y-73731450D01*
X165987016Y-73733812D01*
X165779936Y-73751929D01*
X165779929Y-73751930D01*
X165566554Y-73809104D01*
X165566548Y-73809107D01*
X165366340Y-73902465D01*
X165366338Y-73902466D01*
X165185377Y-74029175D01*
X165029175Y-74185377D01*
X164902466Y-74366338D01*
X164902465Y-74366340D01*
X164809107Y-74566548D01*
X164809104Y-74566554D01*
X164751930Y-74779929D01*
X164751929Y-74779937D01*
X164732677Y-74999997D01*
X164732677Y-75000002D01*
X160395221Y-75000002D01*
X160423070Y-74896068D01*
X160442323Y-74676000D01*
X160423070Y-74455932D01*
X160365894Y-74242550D01*
X160272534Y-74042339D01*
X160145826Y-73861380D01*
X159989620Y-73705174D01*
X159989616Y-73705171D01*
X159989615Y-73705170D01*
X159808666Y-73578468D01*
X159808658Y-73578464D01*
X159679811Y-73518382D01*
X159627371Y-73472210D01*
X159608219Y-73405017D01*
X159628435Y-73338135D01*
X159679811Y-73293618D01*
X159685802Y-73290824D01*
X159808662Y-73233534D01*
X159989620Y-73106826D01*
X160145826Y-72950620D01*
X160272534Y-72769662D01*
X160365894Y-72569450D01*
X160423070Y-72356068D01*
X160442323Y-72136000D01*
X160423070Y-71915932D01*
X160365894Y-71702550D01*
X160272534Y-71502339D01*
X160167691Y-71352606D01*
X160145827Y-71321381D01*
X160082112Y-71257666D01*
X159989620Y-71165174D01*
X159989616Y-71165171D01*
X159989615Y-71165170D01*
X159808666Y-71038468D01*
X159808658Y-71038464D01*
X159679811Y-70978382D01*
X159627371Y-70932210D01*
X159608219Y-70865017D01*
X159628435Y-70798135D01*
X159679811Y-70753618D01*
X159685802Y-70750824D01*
X159808662Y-70693534D01*
X159989620Y-70566826D01*
X160145826Y-70410620D01*
X160272534Y-70229662D01*
X160365894Y-70029450D01*
X160423070Y-69816068D01*
X160442323Y-69596000D01*
X160423070Y-69375932D01*
X160365894Y-69162550D01*
X160272534Y-68962339D01*
X160145826Y-68781380D01*
X159989620Y-68625174D01*
X159989616Y-68625171D01*
X159989615Y-68625170D01*
X159808666Y-68498468D01*
X159808658Y-68498464D01*
X159679811Y-68438382D01*
X159627371Y-68392210D01*
X159608219Y-68325017D01*
X159628435Y-68258135D01*
X159679811Y-68213618D01*
X159685802Y-68210824D01*
X159808662Y-68153534D01*
X159989620Y-68026826D01*
X160145826Y-67870620D01*
X160272534Y-67689662D01*
X160365894Y-67489450D01*
X160423070Y-67276068D01*
X160442323Y-67056000D01*
X160437639Y-67002466D01*
X160429472Y-66909106D01*
X160423070Y-66835932D01*
X160365894Y-66622550D01*
X160272534Y-66422339D01*
X160145826Y-66241380D01*
X159989620Y-66085174D01*
X159989616Y-66085171D01*
X159989615Y-66085170D01*
X159808666Y-65958468D01*
X159808658Y-65958464D01*
X159679811Y-65898382D01*
X159627371Y-65852210D01*
X159608219Y-65785017D01*
X159628435Y-65718135D01*
X159679811Y-65673618D01*
X159685802Y-65670824D01*
X159808662Y-65613534D01*
X159989620Y-65486826D01*
X160145826Y-65330620D01*
X160272534Y-65149662D01*
X160365894Y-64949450D01*
X160423070Y-64736068D01*
X160442323Y-64516000D01*
X160423070Y-64295932D01*
X160365894Y-64082550D01*
X160272534Y-63882339D01*
X160145826Y-63701380D01*
X159989620Y-63545174D01*
X159989616Y-63545171D01*
X159989615Y-63545170D01*
X159808666Y-63418468D01*
X159808658Y-63418464D01*
X159679811Y-63358382D01*
X159627371Y-63312210D01*
X159608219Y-63245017D01*
X159628435Y-63178135D01*
X159679811Y-63133618D01*
X159687964Y-63129816D01*
X159808662Y-63073534D01*
X159989620Y-62946826D01*
X160145826Y-62790620D01*
X160272534Y-62609662D01*
X160365894Y-62409450D01*
X160423070Y-62196068D01*
X160442323Y-61976000D01*
X160423070Y-61755932D01*
X160365894Y-61542550D01*
X160272534Y-61342339D01*
X160207108Y-61248901D01*
X160145827Y-61161381D01*
X160132702Y-61148256D01*
X159989620Y-61005174D01*
X159989616Y-61005171D01*
X159989615Y-61005170D01*
X159808666Y-60878468D01*
X159808662Y-60878466D01*
X159679218Y-60818105D01*
X159626779Y-60771932D01*
X159607627Y-60704739D01*
X159627843Y-60637858D01*
X159679219Y-60593340D01*
X159808416Y-60533095D01*
X159808417Y-60533094D01*
X159873188Y-60487741D01*
X159202448Y-59817000D01*
X159225160Y-59817000D01*
X159322061Y-59791036D01*
X159408940Y-59740876D01*
X159479876Y-59669940D01*
X159530036Y-59583061D01*
X159556000Y-59486160D01*
X159556000Y-59463447D01*
X160226741Y-60134188D01*
X160272094Y-60069417D01*
X160272100Y-60069407D01*
X160365419Y-59869284D01*
X160365424Y-59869270D01*
X160422573Y-59655986D01*
X160422575Y-59655976D01*
X160441821Y-59436000D01*
X160441821Y-59435999D01*
X160422575Y-59216023D01*
X160422573Y-59216013D01*
X160365424Y-59002729D01*
X160365420Y-59002720D01*
X160272096Y-58802586D01*
X160226741Y-58737811D01*
X160226740Y-58737810D01*
X159556000Y-59408551D01*
X159556000Y-59385840D01*
X159530036Y-59288939D01*
X159479876Y-59202060D01*
X159408940Y-59131124D01*
X159322061Y-59080964D01*
X159225160Y-59055000D01*
X159202448Y-59055000D01*
X159873188Y-58384259D01*
X159873187Y-58384258D01*
X159808411Y-58338901D01*
X159808405Y-58338898D01*
X159679219Y-58278658D01*
X159626779Y-58232486D01*
X159607627Y-58165293D01*
X159627843Y-58098411D01*
X159679219Y-58053894D01*
X159700244Y-58044090D01*
X159808662Y-57993534D01*
X159989620Y-57866826D01*
X160145826Y-57710620D01*
X160272534Y-57529662D01*
X160365894Y-57329450D01*
X160423070Y-57116068D01*
X160442323Y-56896000D01*
X160423070Y-56675932D01*
X160365894Y-56462550D01*
X160272534Y-56262339D01*
X160191579Y-56146722D01*
X160145827Y-56081381D01*
X160096662Y-56032216D01*
X159989620Y-55925174D01*
X159989616Y-55925171D01*
X159989615Y-55925170D01*
X159808666Y-55798468D01*
X159808658Y-55798464D01*
X159679811Y-55738382D01*
X159627371Y-55692210D01*
X159608219Y-55625017D01*
X159628435Y-55558135D01*
X159679811Y-55513618D01*
X159685802Y-55510824D01*
X159808662Y-55453534D01*
X159989620Y-55326826D01*
X160145826Y-55170620D01*
X160272534Y-54989662D01*
X160365894Y-54789450D01*
X160423070Y-54576068D01*
X160442323Y-54356000D01*
X160423070Y-54135932D01*
X160411292Y-54091976D01*
X160412955Y-54022126D01*
X160443384Y-53972204D01*
X160850771Y-53564819D01*
X160912094Y-53531334D01*
X160938452Y-53528500D01*
X175754992Y-53528500D01*
X175822031Y-53548185D01*
X175867786Y-53600989D01*
X175877730Y-53670147D01*
X175859162Y-53717070D01*
X175860172Y-53717653D01*
X175857465Y-53722340D01*
X175764107Y-53922548D01*
X175764104Y-53922554D01*
X175706930Y-54135929D01*
X175706929Y-54135937D01*
X175687677Y-54355997D01*
X175687677Y-54356002D01*
X175706929Y-54576062D01*
X175706930Y-54576070D01*
X175764104Y-54789445D01*
X175764105Y-54789447D01*
X175764106Y-54789450D01*
X175813324Y-54894999D01*
X175857466Y-54989662D01*
X175857468Y-54989666D01*
X175984170Y-55170615D01*
X175984175Y-55170621D01*
X176140378Y-55326824D01*
X176140384Y-55326829D01*
X176321333Y-55453531D01*
X176321335Y-55453532D01*
X176321338Y-55453534D01*
X176440748Y-55509215D01*
X176450189Y-55513618D01*
X176502628Y-55559790D01*
X176521780Y-55626984D01*
X176501564Y-55693865D01*
X176450189Y-55738382D01*
X176321340Y-55798465D01*
X176321338Y-55798466D01*
X176140377Y-55925175D01*
X175984175Y-56081377D01*
X175857466Y-56262338D01*
X175857465Y-56262340D01*
X175764107Y-56462548D01*
X175764104Y-56462554D01*
X175706930Y-56675929D01*
X175706929Y-56675937D01*
X175687677Y-56895997D01*
X175687677Y-56896002D01*
X175706929Y-57116062D01*
X175706930Y-57116070D01*
X175764104Y-57329445D01*
X175764105Y-57329447D01*
X175764106Y-57329450D01*
X175838372Y-57488714D01*
X175857466Y-57529662D01*
X175857468Y-57529666D01*
X175984170Y-57710615D01*
X175984175Y-57710621D01*
X176140378Y-57866824D01*
X176140384Y-57866829D01*
X176321333Y-57993531D01*
X176321335Y-57993532D01*
X176321338Y-57993534D01*
X176429756Y-58044090D01*
X176450781Y-58053894D01*
X176503220Y-58100066D01*
X176522372Y-58167260D01*
X176502156Y-58234141D01*
X176450781Y-58278658D01*
X176321590Y-58338901D01*
X176256811Y-58384258D01*
X176927553Y-59055000D01*
X176904840Y-59055000D01*
X176807939Y-59080964D01*
X176721060Y-59131124D01*
X176650124Y-59202060D01*
X176599964Y-59288939D01*
X176574000Y-59385840D01*
X176574000Y-59408553D01*
X175903258Y-58737811D01*
X175857901Y-58802590D01*
X175764579Y-59002720D01*
X175764575Y-59002729D01*
X175707426Y-59216013D01*
X175707424Y-59216023D01*
X175688179Y-59435999D01*
X175688179Y-59436000D01*
X175707424Y-59655976D01*
X175707426Y-59655986D01*
X175764575Y-59869270D01*
X175764580Y-59869284D01*
X175857898Y-60069405D01*
X175857901Y-60069411D01*
X175903258Y-60134187D01*
X175903259Y-60134188D01*
X176574000Y-59463447D01*
X176574000Y-59486160D01*
X176599964Y-59583061D01*
X176650124Y-59669940D01*
X176721060Y-59740876D01*
X176807939Y-59791036D01*
X176904840Y-59817000D01*
X176927553Y-59817000D01*
X176256810Y-60487740D01*
X176321589Y-60533098D01*
X176450781Y-60593342D01*
X176503220Y-60639514D01*
X176522372Y-60706708D01*
X176502156Y-60773589D01*
X176450781Y-60818106D01*
X176321340Y-60878465D01*
X176321338Y-60878466D01*
X176140377Y-61005175D01*
X175984175Y-61161377D01*
X175857466Y-61342338D01*
X175857465Y-61342340D01*
X175764107Y-61542548D01*
X175764104Y-61542554D01*
X175706930Y-61755929D01*
X175706929Y-61755937D01*
X175687677Y-61975997D01*
X175687677Y-61976002D01*
X175706929Y-62196062D01*
X175706930Y-62196070D01*
X175764104Y-62409445D01*
X175764105Y-62409447D01*
X175764106Y-62409450D01*
X175851031Y-62595861D01*
X175857466Y-62609662D01*
X175857468Y-62609666D01*
X175984170Y-62790615D01*
X175984175Y-62790621D01*
X176140378Y-62946824D01*
X176140384Y-62946829D01*
X176321333Y-63073531D01*
X176321335Y-63073532D01*
X176321338Y-63073534D01*
X176440748Y-63129215D01*
X176450189Y-63133618D01*
X176502628Y-63179790D01*
X176521780Y-63246984D01*
X176501564Y-63313865D01*
X176450189Y-63358382D01*
X176321340Y-63418465D01*
X176321338Y-63418466D01*
X176140377Y-63545175D01*
X175984175Y-63701377D01*
X175857466Y-63882338D01*
X175857465Y-63882340D01*
X175764107Y-64082548D01*
X175764104Y-64082554D01*
X175706930Y-64295929D01*
X175706929Y-64295937D01*
X175687677Y-64515997D01*
X175687677Y-64516002D01*
X175706929Y-64736062D01*
X175706930Y-64736070D01*
X175764104Y-64949445D01*
X175764105Y-64949447D01*
X175764106Y-64949450D01*
X175857466Y-65149662D01*
X175857468Y-65149666D01*
X175984170Y-65330615D01*
X175984175Y-65330621D01*
X176140378Y-65486824D01*
X176140384Y-65486829D01*
X176321333Y-65613531D01*
X176321335Y-65613532D01*
X176321338Y-65613534D01*
X176440748Y-65669215D01*
X176450189Y-65673618D01*
X176502628Y-65719790D01*
X176521780Y-65786984D01*
X176501564Y-65853865D01*
X176450189Y-65898382D01*
X176321340Y-65958465D01*
X176321338Y-65958466D01*
X176140377Y-66085175D01*
X175984175Y-66241377D01*
X175857466Y-66422338D01*
X175857465Y-66422340D01*
X175764107Y-66622548D01*
X175764104Y-66622554D01*
X175706930Y-66835929D01*
X175706929Y-66835937D01*
X175687677Y-67055997D01*
X175687677Y-67056002D01*
X175706929Y-67276062D01*
X175706930Y-67276070D01*
X175764104Y-67489445D01*
X175764105Y-67489447D01*
X175764106Y-67489450D01*
X175846688Y-67666548D01*
X175857466Y-67689662D01*
X175857468Y-67689666D01*
X175984170Y-67870615D01*
X175984175Y-67870621D01*
X176140378Y-68026824D01*
X176140384Y-68026829D01*
X176321333Y-68153531D01*
X176321335Y-68153532D01*
X176321338Y-68153534D01*
X176440748Y-68209215D01*
X176450189Y-68213618D01*
X176502628Y-68259790D01*
X176521780Y-68326984D01*
X176501564Y-68393865D01*
X176450189Y-68438382D01*
X176321340Y-68498465D01*
X176321338Y-68498466D01*
X176140377Y-68625175D01*
X175984175Y-68781377D01*
X175857466Y-68962338D01*
X175857465Y-68962340D01*
X175764107Y-69162548D01*
X175764104Y-69162554D01*
X175706930Y-69375929D01*
X175706929Y-69375937D01*
X175687677Y-69595997D01*
X175687677Y-69596002D01*
X175706929Y-69816062D01*
X175706930Y-69816070D01*
X175764104Y-70029445D01*
X175764105Y-70029447D01*
X175764106Y-70029450D01*
X175857466Y-70229662D01*
X175857468Y-70229666D01*
X175984170Y-70410615D01*
X175984175Y-70410621D01*
X176140378Y-70566824D01*
X176140384Y-70566829D01*
X176321333Y-70693531D01*
X176321335Y-70693532D01*
X176321338Y-70693534D01*
X176450189Y-70753618D01*
X176450781Y-70753894D01*
X176503220Y-70800066D01*
X176522372Y-70867260D01*
X176502156Y-70934141D01*
X176450781Y-70978658D01*
X176321590Y-71038901D01*
X176256811Y-71084258D01*
X176927553Y-71755000D01*
X176904840Y-71755000D01*
X176807939Y-71780964D01*
X176721060Y-71831124D01*
X176650124Y-71902060D01*
X176599964Y-71988939D01*
X176574000Y-72085840D01*
X176574000Y-72108553D01*
X175903258Y-71437811D01*
X175857901Y-71502590D01*
X175764579Y-71702720D01*
X175764575Y-71702729D01*
X175707426Y-71916013D01*
X175707424Y-71916023D01*
X175688179Y-72135999D01*
X175688179Y-72136000D01*
X175707424Y-72355976D01*
X175707426Y-72355986D01*
X175764575Y-72569270D01*
X175764580Y-72569284D01*
X175857898Y-72769405D01*
X175857901Y-72769411D01*
X175903258Y-72834187D01*
X175903259Y-72834188D01*
X176574000Y-72163447D01*
X176574000Y-72186160D01*
X176599964Y-72283061D01*
X176650124Y-72369940D01*
X176721060Y-72440876D01*
X176807939Y-72491036D01*
X176904840Y-72517000D01*
X176927553Y-72517000D01*
X176256810Y-73187740D01*
X176321589Y-73233098D01*
X176450781Y-73293342D01*
X176503220Y-73339514D01*
X176522372Y-73406708D01*
X176502156Y-73473589D01*
X176450781Y-73518106D01*
X176321340Y-73578465D01*
X176321338Y-73578466D01*
X176140377Y-73705175D01*
X175984175Y-73861377D01*
X175857466Y-74042338D01*
X175857465Y-74042340D01*
X175764107Y-74242548D01*
X175764104Y-74242554D01*
X175706930Y-74455929D01*
X175706929Y-74455937D01*
X175687677Y-74675997D01*
X175687677Y-74676002D01*
X175706929Y-74896062D01*
X175706930Y-74896070D01*
X175764104Y-75109445D01*
X175764105Y-75109447D01*
X175764106Y-75109450D01*
X175847573Y-75288447D01*
X175857466Y-75309662D01*
X175857468Y-75309666D01*
X175984170Y-75490615D01*
X175984175Y-75490621D01*
X176140378Y-75646824D01*
X176140384Y-75646829D01*
X176321333Y-75773531D01*
X176321335Y-75773532D01*
X176321338Y-75773534D01*
X176409437Y-75814615D01*
X176450189Y-75833618D01*
X176502628Y-75879790D01*
X176521780Y-75946984D01*
X176501564Y-76013865D01*
X176450189Y-76058382D01*
X176321340Y-76118465D01*
X176321338Y-76118466D01*
X176140377Y-76245175D01*
X175984175Y-76401377D01*
X175857466Y-76582338D01*
X175857465Y-76582340D01*
X175764107Y-76782548D01*
X175764104Y-76782554D01*
X175706930Y-76995929D01*
X175706929Y-76995937D01*
X175687677Y-77215997D01*
X175687677Y-77216002D01*
X175706929Y-77436062D01*
X175706930Y-77436070D01*
X175764104Y-77649445D01*
X175764105Y-77649447D01*
X175764106Y-77649450D01*
X175780201Y-77683965D01*
X175857466Y-77849662D01*
X175857468Y-77849666D01*
X175984170Y-78030615D01*
X175984175Y-78030621D01*
X176140378Y-78186824D01*
X176140384Y-78186829D01*
X176321333Y-78313531D01*
X176321335Y-78313532D01*
X176321338Y-78313534D01*
X176521550Y-78406894D01*
X176734932Y-78464070D01*
X176892123Y-78477822D01*
X176954998Y-78483323D01*
X176955000Y-78483323D01*
X176955002Y-78483323D01*
X177010017Y-78478509D01*
X177175068Y-78464070D01*
X177388450Y-78406894D01*
X177588662Y-78313534D01*
X177769620Y-78186826D01*
X177925826Y-78030620D01*
X178052534Y-77849662D01*
X178145894Y-77649450D01*
X178203070Y-77436068D01*
X178222323Y-77216000D01*
X178203070Y-76995932D01*
X178191292Y-76951976D01*
X178192955Y-76882126D01*
X178223384Y-76832204D01*
X183365857Y-71689734D01*
X183434311Y-71587286D01*
X183439782Y-71574077D01*
X183481463Y-71473452D01*
X183505500Y-71352606D01*
X183505500Y-59975000D01*
X185729341Y-59975000D01*
X185749936Y-60210403D01*
X185749938Y-60210413D01*
X185811094Y-60438655D01*
X185811096Y-60438659D01*
X185811097Y-60438663D01*
X185855133Y-60533098D01*
X185910965Y-60652830D01*
X185910967Y-60652834D01*
X185994361Y-60771932D01*
X186046505Y-60846401D01*
X186213599Y-61013495D01*
X186264180Y-61048912D01*
X186407165Y-61149032D01*
X186407167Y-61149033D01*
X186407170Y-61149035D01*
X186621337Y-61248903D01*
X186849592Y-61310063D01*
X187037918Y-61326539D01*
X187084999Y-61330659D01*
X187085000Y-61330659D01*
X187085001Y-61330659D01*
X187124234Y-61327226D01*
X187320408Y-61310063D01*
X187548663Y-61248903D01*
X187762830Y-61149035D01*
X187956401Y-61013495D01*
X188123495Y-60846401D01*
X188259035Y-60652830D01*
X188358903Y-60438663D01*
X188420063Y-60210408D01*
X188440659Y-59975000D01*
X188420063Y-59739592D01*
X188358903Y-59511337D01*
X188259035Y-59297171D01*
X188142769Y-59131124D01*
X188123494Y-59103597D01*
X187956402Y-58936506D01*
X187956396Y-58936501D01*
X187770842Y-58806575D01*
X187727217Y-58751998D01*
X187720023Y-58682500D01*
X187751546Y-58620145D01*
X187770842Y-58603425D01*
X187793026Y-58587891D01*
X187956401Y-58473495D01*
X188123495Y-58306401D01*
X188259035Y-58112830D01*
X188358903Y-57898663D01*
X188420063Y-57670408D01*
X188440659Y-57435000D01*
X188420063Y-57199592D01*
X188358903Y-56971337D01*
X188259035Y-56757171D01*
X188221284Y-56703256D01*
X188123494Y-56563597D01*
X187956402Y-56396506D01*
X187956396Y-56396501D01*
X187770842Y-56266575D01*
X187727217Y-56211998D01*
X187720023Y-56142500D01*
X187751546Y-56080145D01*
X187770842Y-56063425D01*
X187815413Y-56032216D01*
X187956401Y-55933495D01*
X188123495Y-55766401D01*
X188259035Y-55572830D01*
X188358903Y-55358663D01*
X188420063Y-55130408D01*
X188440659Y-54895000D01*
X188420063Y-54659592D01*
X188358903Y-54431337D01*
X188259035Y-54217171D01*
X188123495Y-54023599D01*
X188001179Y-53901283D01*
X187967696Y-53839963D01*
X187972680Y-53770271D01*
X188014551Y-53714337D01*
X188045529Y-53697422D01*
X188177086Y-53648354D01*
X188177093Y-53648350D01*
X188292187Y-53562190D01*
X188292190Y-53562187D01*
X188378350Y-53447093D01*
X188378354Y-53447086D01*
X188428596Y-53312379D01*
X188428598Y-53312372D01*
X188434999Y-53252844D01*
X188435000Y-53252827D01*
X188435000Y-52605000D01*
X187518012Y-52605000D01*
X187550925Y-52547993D01*
X187585000Y-52420826D01*
X187585000Y-52289174D01*
X187550925Y-52162007D01*
X187518012Y-52105000D01*
X188435000Y-52105000D01*
X188435000Y-51457172D01*
X188434999Y-51457155D01*
X188428598Y-51397627D01*
X188428596Y-51397620D01*
X188378354Y-51262913D01*
X188378350Y-51262906D01*
X188292190Y-51147812D01*
X188292187Y-51147809D01*
X188177093Y-51061649D01*
X188177086Y-51061645D01*
X188042379Y-51011403D01*
X188042372Y-51011401D01*
X187982844Y-51005000D01*
X187335000Y-51005000D01*
X187335000Y-51921988D01*
X187277993Y-51889075D01*
X187150826Y-51855000D01*
X187019174Y-51855000D01*
X186892007Y-51889075D01*
X186835000Y-51921988D01*
X186835000Y-51005000D01*
X186187155Y-51005000D01*
X186127627Y-51011401D01*
X186127620Y-51011403D01*
X185992913Y-51061645D01*
X185992906Y-51061649D01*
X185877812Y-51147809D01*
X185877809Y-51147812D01*
X185791649Y-51262906D01*
X185791645Y-51262913D01*
X185741403Y-51397620D01*
X185741401Y-51397627D01*
X185735000Y-51457155D01*
X185735000Y-52105000D01*
X186651988Y-52105000D01*
X186619075Y-52162007D01*
X186585000Y-52289174D01*
X186585000Y-52420826D01*
X186619075Y-52547993D01*
X186651988Y-52605000D01*
X185735000Y-52605000D01*
X185735000Y-53252844D01*
X185741401Y-53312372D01*
X185741403Y-53312379D01*
X185791645Y-53447086D01*
X185791649Y-53447093D01*
X185877809Y-53562187D01*
X185877812Y-53562190D01*
X185992906Y-53648350D01*
X185992913Y-53648354D01*
X186124470Y-53697421D01*
X186180403Y-53739292D01*
X186204821Y-53804756D01*
X186189970Y-53873029D01*
X186168819Y-53901284D01*
X186046503Y-54023600D01*
X185910965Y-54217169D01*
X185910964Y-54217171D01*
X185811098Y-54431335D01*
X185811094Y-54431344D01*
X185749938Y-54659586D01*
X185749936Y-54659596D01*
X185729341Y-54894999D01*
X185729341Y-54895000D01*
X185749936Y-55130403D01*
X185749938Y-55130413D01*
X185811094Y-55358655D01*
X185811096Y-55358659D01*
X185811097Y-55358663D01*
X185828377Y-55395719D01*
X185910965Y-55572830D01*
X185910967Y-55572834D01*
X185991787Y-55688256D01*
X186021610Y-55730848D01*
X186046501Y-55766395D01*
X186046506Y-55766402D01*
X186213597Y-55933493D01*
X186213603Y-55933498D01*
X186399158Y-56063425D01*
X186442783Y-56118002D01*
X186449977Y-56187500D01*
X186418454Y-56249855D01*
X186399158Y-56266575D01*
X186213597Y-56396505D01*
X186046505Y-56563597D01*
X185910965Y-56757169D01*
X185910964Y-56757171D01*
X185811098Y-56971335D01*
X185811094Y-56971344D01*
X185749938Y-57199586D01*
X185749936Y-57199596D01*
X185729341Y-57434999D01*
X185729341Y-57435000D01*
X185749936Y-57670403D01*
X185749938Y-57670413D01*
X185811094Y-57898655D01*
X185811096Y-57898659D01*
X185811097Y-57898663D01*
X185904241Y-58098411D01*
X185910965Y-58112830D01*
X185910967Y-58112834D01*
X186046501Y-58306395D01*
X186046506Y-58306402D01*
X186213597Y-58473493D01*
X186213603Y-58473498D01*
X186399158Y-58603425D01*
X186442783Y-58658002D01*
X186449977Y-58727500D01*
X186418454Y-58789855D01*
X186399158Y-58806575D01*
X186213597Y-58936505D01*
X186046505Y-59103597D01*
X185910965Y-59297169D01*
X185910964Y-59297171D01*
X185811098Y-59511335D01*
X185811094Y-59511344D01*
X185749938Y-59739586D01*
X185749936Y-59739596D01*
X185729341Y-59974999D01*
X185729341Y-59975000D01*
X183505500Y-59975000D01*
X183505500Y-57723394D01*
X183481463Y-57602548D01*
X183434311Y-57488714D01*
X183434310Y-57488713D01*
X183434307Y-57488707D01*
X183365858Y-57386267D01*
X183365855Y-57386263D01*
X183275637Y-57296045D01*
X183275606Y-57296016D01*
X182548960Y-56569370D01*
X182515475Y-56508047D01*
X182513323Y-56494671D01*
X182495674Y-56326744D01*
X182437179Y-56146716D01*
X182342533Y-55982784D01*
X182215871Y-55842112D01*
X182215870Y-55842111D01*
X182062734Y-55730851D01*
X182062729Y-55730848D01*
X181889807Y-55653857D01*
X181889802Y-55653855D01*
X181744001Y-55622865D01*
X181704646Y-55614500D01*
X181515354Y-55614500D01*
X181482897Y-55621398D01*
X181330197Y-55653855D01*
X181330192Y-55653857D01*
X181157270Y-55730848D01*
X181157265Y-55730851D01*
X181004129Y-55842111D01*
X180877466Y-55982785D01*
X180782821Y-56146715D01*
X180782818Y-56146722D01*
X180745252Y-56262340D01*
X180724326Y-56326744D01*
X180704540Y-56515000D01*
X180724326Y-56703256D01*
X180724327Y-56703259D01*
X180782818Y-56883277D01*
X180782821Y-56883284D01*
X180877467Y-57047216D01*
X180939462Y-57116068D01*
X181004129Y-57187888D01*
X181157265Y-57299148D01*
X181157270Y-57299151D01*
X181330192Y-57376142D01*
X181330197Y-57376144D01*
X181515354Y-57415500D01*
X181574548Y-57415500D01*
X181641587Y-57435185D01*
X181662229Y-57451819D01*
X182218181Y-58007771D01*
X182251666Y-58069094D01*
X182254500Y-58095452D01*
X182254500Y-58107976D01*
X182234815Y-58175015D01*
X182182011Y-58220770D01*
X182112853Y-58230714D01*
X182049297Y-58201689D01*
X182038351Y-58190949D01*
X181980871Y-58127112D01*
X181980870Y-58127111D01*
X181827734Y-58015851D01*
X181827729Y-58015848D01*
X181654807Y-57938857D01*
X181654802Y-57938855D01*
X181509001Y-57907865D01*
X181469646Y-57899500D01*
X181280354Y-57899500D01*
X181247897Y-57906398D01*
X181095197Y-57938855D01*
X181095192Y-57938857D01*
X180922270Y-58015848D01*
X180922265Y-58015851D01*
X180769129Y-58127111D01*
X180642466Y-58267785D01*
X180547821Y-58431715D01*
X180547818Y-58431722D01*
X180495500Y-58592742D01*
X180489326Y-58611744D01*
X180469540Y-58800000D01*
X180489326Y-58988256D01*
X180489327Y-58988259D01*
X180547818Y-59168277D01*
X180547821Y-59168284D01*
X180642467Y-59332216D01*
X180735914Y-59435999D01*
X180769129Y-59472888D01*
X180922265Y-59584148D01*
X180922270Y-59584151D01*
X181095192Y-59661142D01*
X181095197Y-59661144D01*
X181280354Y-59700500D01*
X181339548Y-59700500D01*
X181406587Y-59720185D01*
X181427229Y-59736819D01*
X181583181Y-59892771D01*
X181616666Y-59954094D01*
X181619500Y-59980452D01*
X181619500Y-59983466D01*
X181599815Y-60050505D01*
X181547011Y-60096260D01*
X181477853Y-60106204D01*
X181456276Y-60099983D01*
X181455990Y-60100866D01*
X181449802Y-60098855D01*
X181304001Y-60067865D01*
X181264646Y-60059500D01*
X181075354Y-60059500D01*
X181042897Y-60066398D01*
X180890197Y-60098855D01*
X180890192Y-60098857D01*
X180717270Y-60175848D01*
X180717265Y-60175851D01*
X180564129Y-60287111D01*
X180437466Y-60427785D01*
X180342821Y-60591715D01*
X180342818Y-60591722D01*
X180298562Y-60727930D01*
X180284326Y-60771744D01*
X180264540Y-60960000D01*
X180284326Y-61148256D01*
X180284327Y-61148259D01*
X180305213Y-61212540D01*
X180307208Y-61282381D01*
X180271128Y-61342214D01*
X180208427Y-61373042D01*
X180163093Y-61372476D01*
X180141776Y-61368236D01*
X180113029Y-61362518D01*
X180052610Y-61350500D01*
X180052607Y-61350500D01*
X180052606Y-61350500D01*
X178122799Y-61350500D01*
X178055760Y-61330815D01*
X178021224Y-61297623D01*
X177925827Y-61161381D01*
X177912702Y-61148256D01*
X177769620Y-61005174D01*
X177769616Y-61005171D01*
X177769615Y-61005170D01*
X177588666Y-60878468D01*
X177588662Y-60878466D01*
X177459218Y-60818105D01*
X177406779Y-60771932D01*
X177387627Y-60704739D01*
X177407843Y-60637858D01*
X177459219Y-60593340D01*
X177588416Y-60533095D01*
X177588417Y-60533094D01*
X177653188Y-60487741D01*
X176982448Y-59817000D01*
X177005160Y-59817000D01*
X177102061Y-59791036D01*
X177188940Y-59740876D01*
X177259876Y-59669940D01*
X177310036Y-59583061D01*
X177336000Y-59486160D01*
X177336000Y-59463447D01*
X178006741Y-60134188D01*
X178052094Y-60069417D01*
X178052100Y-60069407D01*
X178145419Y-59869284D01*
X178145424Y-59869270D01*
X178202573Y-59655986D01*
X178202575Y-59655976D01*
X178221821Y-59436000D01*
X178221821Y-59435999D01*
X178202575Y-59216023D01*
X178202573Y-59216013D01*
X178145424Y-59002729D01*
X178145420Y-59002720D01*
X178052096Y-58802586D01*
X178006741Y-58737811D01*
X178006740Y-58737810D01*
X177336000Y-59408551D01*
X177336000Y-59385840D01*
X177310036Y-59288939D01*
X177259876Y-59202060D01*
X177188940Y-59131124D01*
X177102061Y-59080964D01*
X177005160Y-59055000D01*
X176982448Y-59055000D01*
X177653188Y-58384259D01*
X177653187Y-58384258D01*
X177588411Y-58338901D01*
X177588405Y-58338898D01*
X177459219Y-58278658D01*
X177406779Y-58232486D01*
X177387627Y-58165293D01*
X177407843Y-58098411D01*
X177459219Y-58053894D01*
X177480244Y-58044090D01*
X177588662Y-57993534D01*
X177769620Y-57866826D01*
X177925826Y-57710620D01*
X178052534Y-57529662D01*
X178145894Y-57329450D01*
X178203070Y-57116068D01*
X178222323Y-56896000D01*
X178203070Y-56675932D01*
X178145894Y-56462550D01*
X178052534Y-56262339D01*
X177971579Y-56146722D01*
X177925827Y-56081381D01*
X177876662Y-56032216D01*
X177769620Y-55925174D01*
X177769616Y-55925171D01*
X177769615Y-55925170D01*
X177588666Y-55798468D01*
X177588658Y-55798464D01*
X177459811Y-55738382D01*
X177407371Y-55692210D01*
X177388219Y-55625017D01*
X177408435Y-55558135D01*
X177459811Y-55513618D01*
X177465802Y-55510824D01*
X177588662Y-55453534D01*
X177769620Y-55326826D01*
X177925826Y-55170620D01*
X178052534Y-54989662D01*
X178145894Y-54789450D01*
X178203070Y-54576068D01*
X178222323Y-54356000D01*
X178203070Y-54135932D01*
X178145894Y-53922550D01*
X178052534Y-53722339D01*
X177925826Y-53541380D01*
X177925824Y-53541377D01*
X177876325Y-53491878D01*
X177842840Y-53430555D01*
X177847824Y-53360863D01*
X177876325Y-53316516D01*
X177891109Y-53301733D01*
X177891110Y-53301731D01*
X177898170Y-53294671D01*
X177898176Y-53294664D01*
X181498729Y-49694111D01*
X181498733Y-49694109D01*
X181585858Y-49606984D01*
X181639227Y-49527112D01*
X181654312Y-49504537D01*
X181657820Y-49496069D01*
X181701459Y-49390712D01*
X181701459Y-49390710D01*
X181701463Y-49390702D01*
X181725500Y-49269858D01*
X181725500Y-49146644D01*
X181725500Y-49098687D01*
X181745185Y-49031648D01*
X181757350Y-49015715D01*
X181775891Y-48995122D01*
X181832533Y-48932216D01*
X181927179Y-48768284D01*
X181985674Y-48588256D01*
X182005460Y-48400000D01*
X181985674Y-48211744D01*
X181927179Y-48031716D01*
X181832533Y-47867784D01*
X181705871Y-47727112D01*
X181702964Y-47725000D01*
X185729341Y-47725000D01*
X185749936Y-47960403D01*
X185749938Y-47960413D01*
X185811094Y-48188655D01*
X185811096Y-48188659D01*
X185811097Y-48188663D01*
X185854091Y-48280863D01*
X185910965Y-48402830D01*
X185910967Y-48402834D01*
X185951960Y-48461377D01*
X186046505Y-48596401D01*
X186213599Y-48763495D01*
X186310384Y-48831265D01*
X186407165Y-48899032D01*
X186407167Y-48899033D01*
X186407170Y-48899035D01*
X186621337Y-48998903D01*
X186849592Y-49060063D01*
X187037918Y-49076539D01*
X187084999Y-49080659D01*
X187085000Y-49080659D01*
X187085001Y-49080659D01*
X187124234Y-49077226D01*
X187320408Y-49060063D01*
X187548663Y-48998903D01*
X187762830Y-48899035D01*
X187956401Y-48763495D01*
X188123495Y-48596401D01*
X188259035Y-48402830D01*
X188358903Y-48188663D01*
X188420063Y-47960408D01*
X188440659Y-47725000D01*
X188420063Y-47489592D01*
X188358903Y-47261337D01*
X188259035Y-47047171D01*
X188254999Y-47041406D01*
X188123494Y-46853597D01*
X187956402Y-46686506D01*
X187956396Y-46686501D01*
X187770842Y-46556575D01*
X187727217Y-46501998D01*
X187720023Y-46432500D01*
X187751546Y-46370145D01*
X187770842Y-46353425D01*
X187855425Y-46294199D01*
X187956401Y-46223495D01*
X188123495Y-46056401D01*
X188259035Y-45862830D01*
X188358903Y-45648663D01*
X188420063Y-45420408D01*
X188440659Y-45185000D01*
X188420063Y-44949592D01*
X188358903Y-44721337D01*
X188259035Y-44507171D01*
X188221193Y-44453126D01*
X188123494Y-44313597D01*
X187956402Y-44146506D01*
X187956396Y-44146501D01*
X187770842Y-44016575D01*
X187727217Y-43961998D01*
X187720023Y-43892500D01*
X187751546Y-43830145D01*
X187770842Y-43813425D01*
X187886823Y-43732214D01*
X187956401Y-43683495D01*
X188123495Y-43516401D01*
X188259035Y-43322830D01*
X188358903Y-43108663D01*
X188420063Y-42880408D01*
X188440659Y-42645000D01*
X188420063Y-42409592D01*
X188358903Y-42181337D01*
X188259035Y-41967171D01*
X188254998Y-41961406D01*
X188123496Y-41773600D01*
X188123495Y-41773599D01*
X188001179Y-41651283D01*
X187967696Y-41589963D01*
X187972680Y-41520271D01*
X188014551Y-41464337D01*
X188045529Y-41447422D01*
X188177086Y-41398354D01*
X188177093Y-41398350D01*
X188292187Y-41312190D01*
X188292190Y-41312187D01*
X188378350Y-41197093D01*
X188378354Y-41197086D01*
X188428596Y-41062379D01*
X188428598Y-41062372D01*
X188434999Y-41002844D01*
X188435000Y-41002827D01*
X188435000Y-40355000D01*
X187518012Y-40355000D01*
X187550925Y-40297993D01*
X187585000Y-40170826D01*
X187585000Y-40039174D01*
X187550925Y-39912007D01*
X187518012Y-39855000D01*
X188435000Y-39855000D01*
X188435000Y-39207172D01*
X188434999Y-39207155D01*
X188428598Y-39147627D01*
X188428596Y-39147620D01*
X188378354Y-39012913D01*
X188378350Y-39012906D01*
X188292190Y-38897812D01*
X188292187Y-38897809D01*
X188177093Y-38811649D01*
X188177086Y-38811645D01*
X188042379Y-38761403D01*
X188042372Y-38761401D01*
X187982844Y-38755000D01*
X187335000Y-38755000D01*
X187335000Y-39671988D01*
X187277993Y-39639075D01*
X187150826Y-39605000D01*
X187019174Y-39605000D01*
X186892007Y-39639075D01*
X186835000Y-39671988D01*
X186835000Y-38755000D01*
X186187155Y-38755000D01*
X186127627Y-38761401D01*
X186127620Y-38761403D01*
X185992913Y-38811645D01*
X185992906Y-38811649D01*
X185877812Y-38897809D01*
X185877809Y-38897812D01*
X185791649Y-39012906D01*
X185791645Y-39012913D01*
X185741403Y-39147620D01*
X185741401Y-39147627D01*
X185735000Y-39207155D01*
X185735000Y-39855000D01*
X186651988Y-39855000D01*
X186619075Y-39912007D01*
X186585000Y-40039174D01*
X186585000Y-40170826D01*
X186619075Y-40297993D01*
X186651988Y-40355000D01*
X185735000Y-40355000D01*
X185735000Y-41002844D01*
X185741401Y-41062372D01*
X185741403Y-41062379D01*
X185791645Y-41197086D01*
X185791649Y-41197093D01*
X185877809Y-41312187D01*
X185877812Y-41312190D01*
X185992906Y-41398350D01*
X185992913Y-41398354D01*
X186124470Y-41447421D01*
X186180403Y-41489292D01*
X186204821Y-41554756D01*
X186189970Y-41623029D01*
X186168819Y-41651284D01*
X186046503Y-41773600D01*
X185910965Y-41967169D01*
X185910964Y-41967171D01*
X185811098Y-42181335D01*
X185811094Y-42181344D01*
X185749938Y-42409586D01*
X185749936Y-42409596D01*
X185729341Y-42644999D01*
X185729341Y-42645000D01*
X185749936Y-42880403D01*
X185749938Y-42880413D01*
X185811094Y-43108655D01*
X185811096Y-43108659D01*
X185811097Y-43108663D01*
X185854091Y-43200863D01*
X185910965Y-43322830D01*
X185910967Y-43322834D01*
X186046501Y-43516395D01*
X186046506Y-43516402D01*
X186213597Y-43683493D01*
X186213603Y-43683498D01*
X186399158Y-43813425D01*
X186442783Y-43868002D01*
X186449977Y-43937500D01*
X186418454Y-43999855D01*
X186399158Y-44016575D01*
X186213597Y-44146505D01*
X186046505Y-44313597D01*
X185910965Y-44507169D01*
X185910964Y-44507171D01*
X185811098Y-44721335D01*
X185811094Y-44721344D01*
X185749938Y-44949586D01*
X185749936Y-44949596D01*
X185729341Y-45184999D01*
X185729341Y-45185000D01*
X185749936Y-45420403D01*
X185749938Y-45420413D01*
X185811094Y-45648655D01*
X185811096Y-45648659D01*
X185811097Y-45648663D01*
X185827696Y-45684259D01*
X185910965Y-45862830D01*
X185910967Y-45862834D01*
X185934190Y-45895999D01*
X186033487Y-46037810D01*
X186046501Y-46056395D01*
X186046506Y-46056402D01*
X186213597Y-46223493D01*
X186213603Y-46223498D01*
X186399158Y-46353425D01*
X186442783Y-46408002D01*
X186449977Y-46477500D01*
X186418454Y-46539855D01*
X186399158Y-46556575D01*
X186213597Y-46686505D01*
X186046505Y-46853597D01*
X185910965Y-47047169D01*
X185910964Y-47047171D01*
X185811098Y-47261335D01*
X185811094Y-47261344D01*
X185749938Y-47489586D01*
X185749936Y-47489596D01*
X185729341Y-47724999D01*
X185729341Y-47725000D01*
X181702964Y-47725000D01*
X181702963Y-47724999D01*
X181552734Y-47615851D01*
X181552729Y-47615848D01*
X181379807Y-47538857D01*
X181373626Y-47536849D01*
X181374368Y-47534564D01*
X181322469Y-47506530D01*
X181288706Y-47445359D01*
X181293374Y-47375645D01*
X181322069Y-47330771D01*
X181498729Y-47154111D01*
X181498733Y-47154109D01*
X181585858Y-47066984D01*
X181627105Y-47005254D01*
X181654312Y-46964537D01*
X181701463Y-46850702D01*
X181703917Y-46838368D01*
X181718918Y-46762949D01*
X181725500Y-46729858D01*
X181725500Y-46606644D01*
X181725500Y-46398687D01*
X181745185Y-46331648D01*
X181757350Y-46315715D01*
X181776723Y-46294199D01*
X181832533Y-46232216D01*
X181927179Y-46068284D01*
X181985674Y-45888256D01*
X182005460Y-45700000D01*
X181985674Y-45511744D01*
X181927179Y-45331716D01*
X181832533Y-45167784D01*
X181705871Y-45027112D01*
X181683165Y-45010615D01*
X181552734Y-44915851D01*
X181552731Y-44915849D01*
X181552730Y-44915849D01*
X181471403Y-44879639D01*
X181418167Y-44834390D01*
X181397846Y-44767541D01*
X181416891Y-44700317D01*
X181434155Y-44678684D01*
X181498729Y-44614111D01*
X181498733Y-44614109D01*
X181585858Y-44526984D01*
X181635209Y-44453126D01*
X181635210Y-44453125D01*
X181654309Y-44424541D01*
X181654312Y-44424537D01*
X181701463Y-44310702D01*
X181703917Y-44298368D01*
X181725500Y-44189857D01*
X181725500Y-43898687D01*
X181745185Y-43831648D01*
X181757350Y-43815715D01*
X181775891Y-43795122D01*
X181832533Y-43732216D01*
X181927179Y-43568284D01*
X181985674Y-43388256D01*
X182005460Y-43200000D01*
X181985674Y-43011744D01*
X181927179Y-42831716D01*
X181832533Y-42667784D01*
X181705871Y-42527112D01*
X181705870Y-42527111D01*
X181552734Y-42415851D01*
X181552729Y-42415848D01*
X181379807Y-42338857D01*
X181379802Y-42338855D01*
X181234001Y-42307865D01*
X181194646Y-42299500D01*
X181005354Y-42299500D01*
X180972897Y-42306398D01*
X180820197Y-42338855D01*
X180820192Y-42338857D01*
X180647270Y-42415848D01*
X180647265Y-42415851D01*
X180494129Y-42527111D01*
X180367466Y-42667785D01*
X180272821Y-42831715D01*
X180272818Y-42831722D01*
X180225213Y-42978236D01*
X180214326Y-43011744D01*
X180194540Y-43200000D01*
X180214326Y-43388256D01*
X180214327Y-43388259D01*
X180272818Y-43568277D01*
X180272821Y-43568284D01*
X180367467Y-43732216D01*
X180391878Y-43759326D01*
X180404325Y-43773151D01*
X180434555Y-43836143D01*
X180425930Y-43905478D01*
X180399856Y-43943804D01*
X178234418Y-46109241D01*
X178173095Y-46142726D01*
X178103403Y-46137742D01*
X178047470Y-46095870D01*
X178045162Y-46092683D01*
X178006740Y-46037811D01*
X178006740Y-46037810D01*
X177336000Y-46708550D01*
X177336000Y-46685840D01*
X177310036Y-46588939D01*
X177259876Y-46502060D01*
X177188940Y-46431124D01*
X177102061Y-46380964D01*
X177005160Y-46355000D01*
X176982448Y-46355000D01*
X177653188Y-45684259D01*
X177653187Y-45684258D01*
X177588411Y-45638901D01*
X177588405Y-45638898D01*
X177459219Y-45578658D01*
X177406779Y-45532486D01*
X177387627Y-45465293D01*
X177407843Y-45398411D01*
X177459219Y-45353894D01*
X177506767Y-45331722D01*
X177588662Y-45293534D01*
X177769620Y-45166826D01*
X177925826Y-45010620D01*
X178052534Y-44829662D01*
X178145894Y-44629450D01*
X178203070Y-44416068D01*
X178222323Y-44196000D01*
X178221785Y-44189855D01*
X178215103Y-44113474D01*
X178203070Y-43975932D01*
X178145894Y-43762550D01*
X178052534Y-43562339D01*
X177925826Y-43381380D01*
X177925824Y-43381377D01*
X177876325Y-43331878D01*
X177842840Y-43270555D01*
X177847824Y-43200863D01*
X177876325Y-43156516D01*
X177891109Y-43141733D01*
X177891109Y-43141731D01*
X177901313Y-43131528D01*
X177901316Y-43131523D01*
X182485857Y-38546985D01*
X182507325Y-38514857D01*
X182554311Y-38444537D01*
X182601463Y-38330703D01*
X182625500Y-38209857D01*
X182625500Y-35475000D01*
X185729341Y-35475000D01*
X185749936Y-35710403D01*
X185749938Y-35710413D01*
X185811094Y-35938655D01*
X185811096Y-35938659D01*
X185811097Y-35938663D01*
X185812812Y-35942340D01*
X185910965Y-36152830D01*
X185910967Y-36152834D01*
X186019281Y-36307521D01*
X186046505Y-36346401D01*
X186213599Y-36513495D01*
X186302861Y-36575997D01*
X186407165Y-36649032D01*
X186407167Y-36649033D01*
X186407170Y-36649035D01*
X186621337Y-36748903D01*
X186849592Y-36810063D01*
X187037918Y-36826539D01*
X187084999Y-36830659D01*
X187085000Y-36830659D01*
X187085001Y-36830659D01*
X187124234Y-36827226D01*
X187320408Y-36810063D01*
X187548663Y-36748903D01*
X187762830Y-36649035D01*
X187956401Y-36513495D01*
X188123495Y-36346401D01*
X188259035Y-36152830D01*
X188358903Y-35938663D01*
X188420063Y-35710408D01*
X188440659Y-35475000D01*
X188420063Y-35239592D01*
X188358903Y-35011337D01*
X188259035Y-34797171D01*
X188252820Y-34788294D01*
X188123494Y-34603597D01*
X187956402Y-34436506D01*
X187956396Y-34436501D01*
X187770842Y-34306575D01*
X187727217Y-34251998D01*
X187720023Y-34182500D01*
X187751546Y-34120145D01*
X187770842Y-34103425D01*
X187814453Y-34072888D01*
X187956401Y-33973495D01*
X188123495Y-33806401D01*
X188259035Y-33612830D01*
X188358903Y-33398663D01*
X188420063Y-33170408D01*
X188440659Y-32935000D01*
X188420063Y-32699592D01*
X188358903Y-32471337D01*
X188259035Y-32257171D01*
X188175867Y-32138393D01*
X188123494Y-32063597D01*
X187956402Y-31896506D01*
X187956396Y-31896501D01*
X187770842Y-31766575D01*
X187727217Y-31711998D01*
X187720023Y-31642500D01*
X187751546Y-31580145D01*
X187770842Y-31563425D01*
X187867132Y-31496002D01*
X187956401Y-31433495D01*
X188123495Y-31266401D01*
X188259035Y-31072830D01*
X188358903Y-30858663D01*
X188420063Y-30630408D01*
X188440659Y-30395000D01*
X188420063Y-30159592D01*
X188358903Y-29931337D01*
X188259035Y-29717171D01*
X188169755Y-29589666D01*
X188123496Y-29523600D01*
X188116125Y-29516229D01*
X188001179Y-29401283D01*
X187967696Y-29339963D01*
X187972680Y-29270271D01*
X188014551Y-29214337D01*
X188045529Y-29197422D01*
X188177086Y-29148354D01*
X188177093Y-29148350D01*
X188292187Y-29062190D01*
X188292190Y-29062187D01*
X188378350Y-28947093D01*
X188378354Y-28947086D01*
X188428596Y-28812379D01*
X188428598Y-28812372D01*
X188434999Y-28752844D01*
X188435000Y-28752827D01*
X188435000Y-28105000D01*
X187518012Y-28105000D01*
X187550925Y-28047993D01*
X187585000Y-27920826D01*
X187585000Y-27789174D01*
X187550925Y-27662007D01*
X187518012Y-27605000D01*
X188435000Y-27605000D01*
X188435000Y-26957172D01*
X188434999Y-26957155D01*
X188428598Y-26897627D01*
X188428596Y-26897620D01*
X188378354Y-26762913D01*
X188378350Y-26762906D01*
X188292190Y-26647812D01*
X188292187Y-26647809D01*
X188177093Y-26561649D01*
X188177086Y-26561645D01*
X188042379Y-26511403D01*
X188042372Y-26511401D01*
X187982844Y-26505000D01*
X187335000Y-26505000D01*
X187335000Y-27421988D01*
X187277993Y-27389075D01*
X187150826Y-27355000D01*
X187019174Y-27355000D01*
X186892007Y-27389075D01*
X186835000Y-27421988D01*
X186835000Y-26505000D01*
X186187155Y-26505000D01*
X186127627Y-26511401D01*
X186127620Y-26511403D01*
X185992913Y-26561645D01*
X185992906Y-26561649D01*
X185877812Y-26647809D01*
X185877809Y-26647812D01*
X185791649Y-26762906D01*
X185791645Y-26762913D01*
X185741403Y-26897620D01*
X185741401Y-26897627D01*
X185735000Y-26957155D01*
X185735000Y-27605000D01*
X186651988Y-27605000D01*
X186619075Y-27662007D01*
X186585000Y-27789174D01*
X186585000Y-27920826D01*
X186619075Y-28047993D01*
X186651988Y-28105000D01*
X185735000Y-28105000D01*
X185735000Y-28752844D01*
X185741401Y-28812372D01*
X185741403Y-28812379D01*
X185791645Y-28947086D01*
X185791649Y-28947093D01*
X185877809Y-29062187D01*
X185877812Y-29062190D01*
X185992906Y-29148350D01*
X185992913Y-29148354D01*
X186124470Y-29197421D01*
X186180403Y-29239292D01*
X186204821Y-29304756D01*
X186189970Y-29373029D01*
X186168819Y-29401284D01*
X186046503Y-29523600D01*
X185910965Y-29717169D01*
X185910964Y-29717171D01*
X185817401Y-29917816D01*
X185813202Y-29926824D01*
X185811098Y-29931335D01*
X185811094Y-29931344D01*
X185749938Y-30159586D01*
X185749936Y-30159596D01*
X185729341Y-30394999D01*
X185729341Y-30395000D01*
X185749936Y-30630403D01*
X185749938Y-30630413D01*
X185811094Y-30858655D01*
X185811096Y-30858659D01*
X185811097Y-30858663D01*
X185877004Y-31000000D01*
X185910965Y-31072830D01*
X185910967Y-31072834D01*
X186046501Y-31266395D01*
X186046506Y-31266402D01*
X186213597Y-31433493D01*
X186213603Y-31433498D01*
X186399158Y-31563425D01*
X186442783Y-31618002D01*
X186449977Y-31687500D01*
X186418454Y-31749855D01*
X186399158Y-31766575D01*
X186213597Y-31896505D01*
X186046505Y-32063597D01*
X185910965Y-32257169D01*
X185910964Y-32257171D01*
X185831484Y-32427617D01*
X185813202Y-32466824D01*
X185811098Y-32471335D01*
X185811094Y-32471344D01*
X185749938Y-32699586D01*
X185749936Y-32699596D01*
X185729341Y-32934999D01*
X185729341Y-32935000D01*
X185749936Y-33170403D01*
X185749938Y-33170413D01*
X185811094Y-33398655D01*
X185811096Y-33398659D01*
X185811097Y-33398663D01*
X185861650Y-33507073D01*
X185910965Y-33612830D01*
X185910967Y-33612834D01*
X186004171Y-33745942D01*
X186043465Y-33802060D01*
X186046501Y-33806395D01*
X186046506Y-33806402D01*
X186213597Y-33973493D01*
X186213603Y-33973498D01*
X186399158Y-34103425D01*
X186442783Y-34158002D01*
X186449977Y-34227500D01*
X186418454Y-34289855D01*
X186399158Y-34306575D01*
X186213597Y-34436505D01*
X186046505Y-34603597D01*
X185910965Y-34797169D01*
X185910964Y-34797171D01*
X185811098Y-35011335D01*
X185811094Y-35011344D01*
X185749938Y-35239586D01*
X185749936Y-35239596D01*
X185729341Y-35474999D01*
X185729341Y-35475000D01*
X182625500Y-35475000D01*
X182625500Y-32138394D01*
X182601463Y-32017548D01*
X182554311Y-31903714D01*
X182554310Y-31903713D01*
X182554307Y-31903707D01*
X182485858Y-31801267D01*
X182485855Y-31801263D01*
X182395637Y-31711045D01*
X182395606Y-31711016D01*
X181738960Y-31054370D01*
X181705475Y-30993047D01*
X181703323Y-30979671D01*
X181685674Y-30811744D01*
X181627179Y-30631716D01*
X181532533Y-30467784D01*
X181405871Y-30327112D01*
X181405870Y-30327111D01*
X181252734Y-30215851D01*
X181252729Y-30215848D01*
X181079807Y-30138857D01*
X181079802Y-30138855D01*
X180934001Y-30107865D01*
X180894646Y-30099500D01*
X180705354Y-30099500D01*
X180672897Y-30106398D01*
X180520197Y-30138855D01*
X180520192Y-30138857D01*
X180347270Y-30215848D01*
X180347265Y-30215851D01*
X180194129Y-30327111D01*
X180067466Y-30467785D01*
X179972821Y-30631715D01*
X179972818Y-30631722D01*
X179914327Y-30811740D01*
X179914326Y-30811744D01*
X179894540Y-31000000D01*
X179914326Y-31188256D01*
X179914327Y-31188259D01*
X179972818Y-31368277D01*
X179972821Y-31368284D01*
X180067467Y-31532216D01*
X180187027Y-31665000D01*
X180194129Y-31672888D01*
X180347265Y-31784148D01*
X180347270Y-31784151D01*
X180520192Y-31861142D01*
X180520197Y-31861144D01*
X180705354Y-31900500D01*
X180764548Y-31900500D01*
X180831587Y-31920185D01*
X180852229Y-31936819D01*
X181281704Y-32366294D01*
X181315189Y-32427617D01*
X181310205Y-32497309D01*
X181268333Y-32553242D01*
X181202869Y-32577659D01*
X181143587Y-32567255D01*
X181112114Y-32553242D01*
X181079803Y-32538856D01*
X181079801Y-32538855D01*
X181079800Y-32538855D01*
X180963102Y-32514050D01*
X180894646Y-32499500D01*
X180705354Y-32499500D01*
X180672897Y-32506398D01*
X180520197Y-32538855D01*
X180520192Y-32538857D01*
X180347270Y-32615848D01*
X180347265Y-32615851D01*
X180194129Y-32727111D01*
X180067466Y-32867785D01*
X179972821Y-33031715D01*
X179972818Y-33031722D01*
X179914327Y-33211740D01*
X179914326Y-33211744D01*
X179894540Y-33400000D01*
X179914326Y-33588256D01*
X179914327Y-33588259D01*
X179972818Y-33768277D01*
X179972821Y-33768284D01*
X180067467Y-33932216D01*
X180141067Y-34013957D01*
X180194129Y-34072888D01*
X180347265Y-34184148D01*
X180347270Y-34184151D01*
X180520192Y-34261142D01*
X180520197Y-34261144D01*
X180705354Y-34300500D01*
X180764548Y-34300500D01*
X180831587Y-34320185D01*
X180852229Y-34336819D01*
X180863181Y-34347771D01*
X180896666Y-34409094D01*
X180899500Y-34435452D01*
X180899500Y-34675500D01*
X180879815Y-34742539D01*
X180827011Y-34788294D01*
X180775500Y-34799500D01*
X180705354Y-34799500D01*
X180672897Y-34806398D01*
X180520197Y-34838855D01*
X180520192Y-34838857D01*
X180347270Y-34915848D01*
X180347265Y-34915851D01*
X180194129Y-35027111D01*
X180067466Y-35167785D01*
X179972821Y-35331715D01*
X179972818Y-35331722D01*
X179925138Y-35478468D01*
X179914326Y-35511744D01*
X179896679Y-35679649D01*
X179870094Y-35744263D01*
X179861039Y-35754368D01*
X178248229Y-37367181D01*
X178186906Y-37400666D01*
X178160548Y-37403500D01*
X178155009Y-37403500D01*
X178087970Y-37383815D01*
X178042215Y-37331011D01*
X178032271Y-37261853D01*
X178050837Y-37214938D01*
X178049825Y-37214354D01*
X178052531Y-37209666D01*
X178052534Y-37209662D01*
X178145894Y-37009450D01*
X178203070Y-36796068D01*
X178222323Y-36576000D01*
X178216854Y-36513493D01*
X178203070Y-36355937D01*
X178203070Y-36355932D01*
X178145894Y-36142550D01*
X178052534Y-35942339D01*
X177925826Y-35761380D01*
X177769620Y-35605174D01*
X177769616Y-35605171D01*
X177769615Y-35605170D01*
X177588666Y-35478468D01*
X177588662Y-35478466D01*
X177459218Y-35418105D01*
X177406779Y-35371932D01*
X177387627Y-35304739D01*
X177407843Y-35237858D01*
X177459219Y-35193340D01*
X177588416Y-35133095D01*
X177588417Y-35133094D01*
X177653188Y-35087741D01*
X176982448Y-34417000D01*
X177005160Y-34417000D01*
X177102061Y-34391036D01*
X177188940Y-34340876D01*
X177259876Y-34269940D01*
X177310036Y-34183061D01*
X177336000Y-34086160D01*
X177336000Y-34063447D01*
X178006741Y-34734188D01*
X178052094Y-34669417D01*
X178052100Y-34669407D01*
X178145419Y-34469284D01*
X178145424Y-34469270D01*
X178202573Y-34255986D01*
X178202575Y-34255976D01*
X178221821Y-34036000D01*
X178221821Y-34035999D01*
X178202575Y-33816023D01*
X178202573Y-33816013D01*
X178145424Y-33602729D01*
X178145420Y-33602720D01*
X178052096Y-33402586D01*
X178006741Y-33337811D01*
X178006740Y-33337810D01*
X177336000Y-34008551D01*
X177336000Y-33985840D01*
X177310036Y-33888939D01*
X177259876Y-33802060D01*
X177188940Y-33731124D01*
X177102061Y-33680964D01*
X177005160Y-33655000D01*
X176982448Y-33655000D01*
X177653188Y-32984259D01*
X177653187Y-32984258D01*
X177588411Y-32938901D01*
X177588405Y-32938898D01*
X177459219Y-32878658D01*
X177406779Y-32832486D01*
X177387627Y-32765293D01*
X177407843Y-32698411D01*
X177459219Y-32653894D01*
X177516713Y-32627084D01*
X177588662Y-32593534D01*
X177769620Y-32466826D01*
X177925826Y-32310620D01*
X178052534Y-32129662D01*
X178145894Y-31929450D01*
X178203070Y-31716068D01*
X178222323Y-31496000D01*
X178216854Y-31433493D01*
X178215103Y-31413474D01*
X178203070Y-31275932D01*
X178145894Y-31062550D01*
X178052534Y-30862339D01*
X177925826Y-30681380D01*
X177769620Y-30525174D01*
X177769616Y-30525171D01*
X177769615Y-30525170D01*
X177588666Y-30398468D01*
X177588658Y-30398464D01*
X177459811Y-30338382D01*
X177407371Y-30292210D01*
X177388219Y-30225017D01*
X177408435Y-30158135D01*
X177459811Y-30113618D01*
X177490087Y-30099500D01*
X177588662Y-30053534D01*
X177769620Y-29926826D01*
X177925826Y-29770620D01*
X178052534Y-29589662D01*
X178145894Y-29389450D01*
X178203070Y-29176068D01*
X178222323Y-28956000D01*
X178203070Y-28735932D01*
X178145894Y-28522550D01*
X178052534Y-28322339D01*
X177925826Y-28141380D01*
X177769620Y-27985174D01*
X177769616Y-27985171D01*
X177769615Y-27985170D01*
X177588666Y-27858468D01*
X177588662Y-27858466D01*
X177588660Y-27858465D01*
X177388450Y-27765106D01*
X177388447Y-27765105D01*
X177388445Y-27765104D01*
X177175070Y-27707930D01*
X177175062Y-27707929D01*
X176955002Y-27688677D01*
X176954998Y-27688677D01*
X176734937Y-27707929D01*
X176734929Y-27707930D01*
X176521554Y-27765104D01*
X176521548Y-27765107D01*
X176321340Y-27858465D01*
X176321338Y-27858466D01*
X176140377Y-27985175D01*
X175984175Y-28141377D01*
X175857466Y-28322338D01*
X175857465Y-28322340D01*
X175764107Y-28522548D01*
X175764104Y-28522554D01*
X175706930Y-28735929D01*
X175706929Y-28735937D01*
X175687677Y-28955997D01*
X175687677Y-28956002D01*
X175706929Y-29176062D01*
X175706930Y-29176070D01*
X175764104Y-29389445D01*
X175764105Y-29389447D01*
X175764106Y-29389450D01*
X175826661Y-29523600D01*
X175857466Y-29589662D01*
X175857468Y-29589666D01*
X175984170Y-29770615D01*
X175984175Y-29770621D01*
X176140378Y-29926824D01*
X176140384Y-29926829D01*
X176321333Y-30053531D01*
X176321335Y-30053532D01*
X176321338Y-30053534D01*
X176419913Y-30099500D01*
X176450189Y-30113618D01*
X176502628Y-30159790D01*
X176521780Y-30226984D01*
X176501564Y-30293865D01*
X176450189Y-30338382D01*
X176321340Y-30398465D01*
X176321338Y-30398466D01*
X176140377Y-30525175D01*
X175984175Y-30681377D01*
X175857466Y-30862338D01*
X175857465Y-30862340D01*
X175764107Y-31062548D01*
X175764104Y-31062554D01*
X175706930Y-31275929D01*
X175706929Y-31275937D01*
X175687677Y-31495997D01*
X175687677Y-31496002D01*
X175706929Y-31716062D01*
X175706930Y-31716070D01*
X175764104Y-31929445D01*
X175764105Y-31929447D01*
X175764106Y-31929450D01*
X175857466Y-32129662D01*
X175857468Y-32129666D01*
X175984170Y-32310615D01*
X175984175Y-32310621D01*
X176140378Y-32466824D01*
X176140384Y-32466829D01*
X176321333Y-32593531D01*
X176321335Y-32593532D01*
X176321338Y-32593534D01*
X176393287Y-32627084D01*
X176450781Y-32653894D01*
X176503220Y-32700066D01*
X176522372Y-32767260D01*
X176502156Y-32834141D01*
X176450781Y-32878658D01*
X176321590Y-32938901D01*
X176256811Y-32984258D01*
X176927553Y-33655000D01*
X176904840Y-33655000D01*
X176807939Y-33680964D01*
X176721060Y-33731124D01*
X176650124Y-33802060D01*
X176599964Y-33888939D01*
X176574000Y-33985840D01*
X176574000Y-34008553D01*
X175903258Y-33337811D01*
X175857901Y-33402590D01*
X175764579Y-33602720D01*
X175764575Y-33602729D01*
X175707426Y-33816013D01*
X175707424Y-33816023D01*
X175688179Y-34035999D01*
X175688179Y-34036000D01*
X175707424Y-34255976D01*
X175707426Y-34255986D01*
X175764575Y-34469270D01*
X175764580Y-34469284D01*
X175857898Y-34669405D01*
X175857901Y-34669411D01*
X175903258Y-34734187D01*
X175903259Y-34734188D01*
X176574000Y-34063447D01*
X176574000Y-34086160D01*
X176599964Y-34183061D01*
X176650124Y-34269940D01*
X176721060Y-34340876D01*
X176807939Y-34391036D01*
X176904840Y-34417000D01*
X176927553Y-34417000D01*
X176256810Y-35087740D01*
X176321589Y-35133098D01*
X176450781Y-35193342D01*
X176503220Y-35239514D01*
X176522372Y-35306708D01*
X176502156Y-35373589D01*
X176450781Y-35418106D01*
X176321340Y-35478465D01*
X176321338Y-35478466D01*
X176140377Y-35605175D01*
X175984175Y-35761377D01*
X175857466Y-35942338D01*
X175857465Y-35942340D01*
X175764107Y-36142548D01*
X175764104Y-36142554D01*
X175706930Y-36355929D01*
X175706929Y-36355937D01*
X175687677Y-36575997D01*
X175687677Y-36576002D01*
X175706929Y-36796062D01*
X175706930Y-36796070D01*
X175764104Y-37009445D01*
X175764105Y-37009447D01*
X175764106Y-37009450D01*
X175857466Y-37209662D01*
X175860175Y-37214354D01*
X175858840Y-37215124D01*
X175878893Y-37274581D01*
X175861884Y-37342349D01*
X175810936Y-37390162D01*
X175754991Y-37403500D01*
X160375009Y-37403500D01*
X160307970Y-37383815D01*
X160262215Y-37331011D01*
X160252271Y-37261853D01*
X160270837Y-37214938D01*
X160269825Y-37214354D01*
X160272531Y-37209666D01*
X160272534Y-37209662D01*
X160365894Y-37009450D01*
X160423070Y-36796068D01*
X160442323Y-36576000D01*
X160436854Y-36513493D01*
X160423070Y-36355937D01*
X160423070Y-36355932D01*
X160365894Y-36142550D01*
X160272534Y-35942339D01*
X160145826Y-35761380D01*
X159989620Y-35605174D01*
X159989616Y-35605171D01*
X159989615Y-35605170D01*
X159808666Y-35478468D01*
X159808662Y-35478466D01*
X159679218Y-35418105D01*
X159626779Y-35371932D01*
X159607627Y-35304739D01*
X159627843Y-35237858D01*
X159679219Y-35193340D01*
X159808416Y-35133095D01*
X159808417Y-35133094D01*
X159873188Y-35087741D01*
X159202448Y-34417000D01*
X159225160Y-34417000D01*
X159322061Y-34391036D01*
X159408940Y-34340876D01*
X159479876Y-34269940D01*
X159530036Y-34183061D01*
X159556000Y-34086160D01*
X159556000Y-34063447D01*
X160226741Y-34734188D01*
X160272094Y-34669417D01*
X160272100Y-34669407D01*
X160365419Y-34469284D01*
X160365424Y-34469270D01*
X160422573Y-34255986D01*
X160422575Y-34255976D01*
X160441821Y-34036000D01*
X160441821Y-34035999D01*
X160422575Y-33816023D01*
X160422573Y-33816013D01*
X160365424Y-33602729D01*
X160365420Y-33602720D01*
X160272096Y-33402586D01*
X160226741Y-33337811D01*
X160226740Y-33337810D01*
X159556000Y-34008551D01*
X159556000Y-33985840D01*
X159530036Y-33888939D01*
X159479876Y-33802060D01*
X159408940Y-33731124D01*
X159322061Y-33680964D01*
X159225160Y-33655000D01*
X159202448Y-33655000D01*
X159873188Y-32984259D01*
X159873187Y-32984258D01*
X159808411Y-32938901D01*
X159808405Y-32938898D01*
X159679219Y-32878658D01*
X159626779Y-32832486D01*
X159607627Y-32765293D01*
X159627843Y-32698411D01*
X159679219Y-32653894D01*
X159736713Y-32627084D01*
X159808662Y-32593534D01*
X159989620Y-32466826D01*
X160145826Y-32310620D01*
X160272534Y-32129662D01*
X160365894Y-31929450D01*
X160423070Y-31716068D01*
X160442323Y-31496000D01*
X160436854Y-31433493D01*
X160435103Y-31413474D01*
X160423070Y-31275932D01*
X160365894Y-31062550D01*
X160272534Y-30862339D01*
X160145826Y-30681380D01*
X159989620Y-30525174D01*
X159989616Y-30525171D01*
X159989615Y-30525170D01*
X159808666Y-30398468D01*
X159808658Y-30398464D01*
X159679811Y-30338382D01*
X159627371Y-30292210D01*
X159608219Y-30225017D01*
X159628435Y-30158135D01*
X159679811Y-30113618D01*
X159710087Y-30099500D01*
X159808662Y-30053534D01*
X159989620Y-29926826D01*
X160145826Y-29770620D01*
X160272534Y-29589662D01*
X160365894Y-29389450D01*
X160423070Y-29176068D01*
X160442323Y-28956000D01*
X160423070Y-28735932D01*
X160365894Y-28522550D01*
X160272534Y-28322339D01*
X160145826Y-28141380D01*
X159989620Y-27985174D01*
X159989616Y-27985171D01*
X159989615Y-27985170D01*
X159808666Y-27858468D01*
X159808662Y-27858466D01*
X159808660Y-27858465D01*
X159608450Y-27765106D01*
X159608447Y-27765105D01*
X159608445Y-27765104D01*
X159395070Y-27707930D01*
X159395062Y-27707929D01*
X159175002Y-27688677D01*
X159174998Y-27688677D01*
X158954937Y-27707929D01*
X158954929Y-27707930D01*
X158741554Y-27765104D01*
X158741548Y-27765107D01*
X158541340Y-27858465D01*
X158541338Y-27858466D01*
X158360377Y-27985175D01*
X158204175Y-28141377D01*
X158077466Y-28322338D01*
X158077465Y-28322340D01*
X157984107Y-28522548D01*
X157984104Y-28522554D01*
X157926930Y-28735929D01*
X157926929Y-28735937D01*
X157907677Y-28955997D01*
X157907677Y-28956002D01*
X157926929Y-29176062D01*
X157926930Y-29176070D01*
X157984104Y-29389445D01*
X157984105Y-29389447D01*
X157984106Y-29389450D01*
X158046661Y-29523600D01*
X158077466Y-29589662D01*
X158077468Y-29589666D01*
X158204170Y-29770615D01*
X158204175Y-29770621D01*
X158360378Y-29926824D01*
X158360384Y-29926829D01*
X158541333Y-30053531D01*
X158541335Y-30053532D01*
X158541338Y-30053534D01*
X158639913Y-30099500D01*
X158670189Y-30113618D01*
X158722628Y-30159790D01*
X158741780Y-30226984D01*
X158721564Y-30293865D01*
X158670189Y-30338382D01*
X158541340Y-30398465D01*
X158541338Y-30398466D01*
X158360377Y-30525175D01*
X158204175Y-30681377D01*
X158077466Y-30862338D01*
X158077465Y-30862340D01*
X157984107Y-31062548D01*
X157984104Y-31062554D01*
X157926930Y-31275929D01*
X157926929Y-31275937D01*
X157907677Y-31495997D01*
X157907677Y-31496002D01*
X157926929Y-31716062D01*
X157926930Y-31716070D01*
X157984104Y-31929445D01*
X157984105Y-31929447D01*
X157984106Y-31929450D01*
X158077466Y-32129662D01*
X158077468Y-32129666D01*
X158204170Y-32310615D01*
X158204175Y-32310621D01*
X158360378Y-32466824D01*
X158360384Y-32466829D01*
X158541333Y-32593531D01*
X158541335Y-32593532D01*
X158541338Y-32593534D01*
X158613287Y-32627084D01*
X158670781Y-32653894D01*
X158723220Y-32700066D01*
X158742372Y-32767260D01*
X158722156Y-32834141D01*
X158670781Y-32878658D01*
X158541590Y-32938901D01*
X158476811Y-32984258D01*
X159147553Y-33655000D01*
X159124840Y-33655000D01*
X159027939Y-33680964D01*
X158941060Y-33731124D01*
X158870124Y-33802060D01*
X158819964Y-33888939D01*
X158794000Y-33985840D01*
X158794000Y-34008553D01*
X158123258Y-33337811D01*
X158077901Y-33402590D01*
X157984579Y-33602720D01*
X157984575Y-33602729D01*
X157927426Y-33816013D01*
X157927424Y-33816023D01*
X157908179Y-34035999D01*
X157908179Y-34036000D01*
X157927424Y-34255976D01*
X157927426Y-34255986D01*
X157984575Y-34469270D01*
X157984580Y-34469284D01*
X158077898Y-34669405D01*
X158077901Y-34669411D01*
X158123258Y-34734187D01*
X158123259Y-34734188D01*
X158794000Y-34063447D01*
X158794000Y-34086160D01*
X158819964Y-34183061D01*
X158870124Y-34269940D01*
X158941060Y-34340876D01*
X159027939Y-34391036D01*
X159124840Y-34417000D01*
X159147553Y-34417000D01*
X158476810Y-35087740D01*
X158541589Y-35133098D01*
X158670781Y-35193342D01*
X158723220Y-35239514D01*
X158742372Y-35306708D01*
X158722156Y-35373589D01*
X158670781Y-35418106D01*
X158541340Y-35478465D01*
X158541338Y-35478466D01*
X158360377Y-35605175D01*
X158204175Y-35761377D01*
X158077466Y-35942338D01*
X158077465Y-35942340D01*
X157984107Y-36142548D01*
X157984104Y-36142554D01*
X157926930Y-36355929D01*
X157926929Y-36355937D01*
X157907677Y-36575997D01*
X157907677Y-36576002D01*
X157926929Y-36796062D01*
X157926930Y-36796070D01*
X157984104Y-37009445D01*
X157984105Y-37009447D01*
X157984106Y-37009450D01*
X158077466Y-37209662D01*
X158077468Y-37209666D01*
X158204170Y-37390615D01*
X158204175Y-37390621D01*
X158360378Y-37546824D01*
X158360384Y-37546829D01*
X158541333Y-37673531D01*
X158541335Y-37673532D01*
X158541338Y-37673534D01*
X158660748Y-37729215D01*
X158670189Y-37733618D01*
X158722628Y-37779790D01*
X158741780Y-37846984D01*
X158721564Y-37913865D01*
X158670189Y-37958382D01*
X158541340Y-38018465D01*
X158541338Y-38018466D01*
X158360377Y-38145175D01*
X158204175Y-38301377D01*
X158077466Y-38482338D01*
X158077465Y-38482340D01*
X157984107Y-38682548D01*
X157984104Y-38682554D01*
X157926930Y-38895929D01*
X157926929Y-38895937D01*
X157907677Y-39115997D01*
X157907677Y-39116002D01*
X157926929Y-39336062D01*
X157926930Y-39336070D01*
X157984104Y-39549445D01*
X157984105Y-39549447D01*
X157984106Y-39549450D01*
X158025899Y-39639075D01*
X158077466Y-39749662D01*
X158077468Y-39749666D01*
X158204170Y-39930615D01*
X158204175Y-39930621D01*
X158360378Y-40086824D01*
X158360384Y-40086829D01*
X158541333Y-40213531D01*
X158541335Y-40213532D01*
X158541338Y-40213534D01*
X158660748Y-40269215D01*
X158670189Y-40273618D01*
X158722628Y-40319790D01*
X158741780Y-40386984D01*
X158721564Y-40453865D01*
X158670189Y-40498382D01*
X158541340Y-40558465D01*
X158541338Y-40558466D01*
X158360377Y-40685175D01*
X158204175Y-40841377D01*
X158077466Y-41022338D01*
X158077465Y-41022340D01*
X157984107Y-41222548D01*
X157984104Y-41222554D01*
X157926930Y-41435929D01*
X157926929Y-41435937D01*
X157907677Y-41655997D01*
X157907677Y-41656002D01*
X157926929Y-41876062D01*
X157926930Y-41876070D01*
X157984104Y-42089445D01*
X157984105Y-42089447D01*
X157984106Y-42089450D01*
X158026957Y-42181344D01*
X158077466Y-42289662D01*
X158077468Y-42289666D01*
X158204170Y-42470615D01*
X158204175Y-42470621D01*
X158360378Y-42626824D01*
X158360384Y-42626829D01*
X158541333Y-42753531D01*
X158541335Y-42753532D01*
X158541338Y-42753534D01*
X158660748Y-42809215D01*
X158670189Y-42813618D01*
X158722628Y-42859790D01*
X158741780Y-42926984D01*
X158721564Y-42993865D01*
X158670189Y-43038382D01*
X158541340Y-43098465D01*
X158541338Y-43098466D01*
X158360377Y-43225175D01*
X158204175Y-43381377D01*
X158077466Y-43562338D01*
X158077465Y-43562340D01*
X157984107Y-43762548D01*
X157984104Y-43762554D01*
X157926930Y-43975929D01*
X157926929Y-43975937D01*
X157907677Y-44195997D01*
X157907677Y-44196002D01*
X157926929Y-44416062D01*
X157926930Y-44416070D01*
X157984104Y-44629445D01*
X157984105Y-44629447D01*
X157984106Y-44629450D01*
X158026957Y-44721344D01*
X158077466Y-44829662D01*
X158077468Y-44829666D01*
X158204170Y-45010615D01*
X158204175Y-45010621D01*
X158360378Y-45166824D01*
X158360384Y-45166829D01*
X158541333Y-45293531D01*
X158541335Y-45293532D01*
X158541338Y-45293534D01*
X158623218Y-45331715D01*
X158670781Y-45353894D01*
X158723220Y-45400066D01*
X158742372Y-45467260D01*
X158722156Y-45534141D01*
X158670781Y-45578658D01*
X158541590Y-45638901D01*
X158476811Y-45684258D01*
X159147553Y-46355000D01*
X159124840Y-46355000D01*
X159027939Y-46380964D01*
X158941060Y-46431124D01*
X158870124Y-46502060D01*
X158819964Y-46588939D01*
X158794000Y-46685840D01*
X158794000Y-46708553D01*
X158123258Y-46037811D01*
X158077901Y-46102590D01*
X157984579Y-46302720D01*
X157984575Y-46302729D01*
X157927426Y-46516013D01*
X157927424Y-46516023D01*
X157908179Y-46735999D01*
X157908179Y-46736000D01*
X157927424Y-46955976D01*
X157927426Y-46955986D01*
X157984575Y-47169270D01*
X157984580Y-47169284D01*
X158077898Y-47369405D01*
X158077901Y-47369411D01*
X158123258Y-47434187D01*
X158123259Y-47434188D01*
X158794000Y-46763447D01*
X158794000Y-46786160D01*
X158819964Y-46883061D01*
X158870124Y-46969940D01*
X158941060Y-47040876D01*
X159027939Y-47091036D01*
X159124840Y-47117000D01*
X159147553Y-47117000D01*
X158476810Y-47787740D01*
X158541589Y-47833098D01*
X158670781Y-47893342D01*
X158723220Y-47939514D01*
X158742372Y-48006708D01*
X158722156Y-48073589D01*
X158670781Y-48118106D01*
X158541340Y-48178465D01*
X158541338Y-48178466D01*
X158360377Y-48305175D01*
X158204175Y-48461377D01*
X158077466Y-48642338D01*
X158077465Y-48642340D01*
X157984107Y-48842548D01*
X157984104Y-48842554D01*
X157926930Y-49055929D01*
X157926929Y-49055937D01*
X157907677Y-49275997D01*
X157907677Y-49276002D01*
X157926929Y-49496062D01*
X157926930Y-49496070D01*
X157984104Y-49709445D01*
X157984105Y-49709447D01*
X157984106Y-49709450D01*
X158041122Y-49831722D01*
X158077466Y-49909662D01*
X158077468Y-49909666D01*
X158204170Y-50090615D01*
X158204175Y-50090621D01*
X158360378Y-50246824D01*
X158360384Y-50246829D01*
X158541333Y-50373531D01*
X158541335Y-50373532D01*
X158541338Y-50373534D01*
X158572910Y-50388256D01*
X158670189Y-50433618D01*
X158722628Y-50479790D01*
X158741780Y-50546984D01*
X158721564Y-50613865D01*
X158670189Y-50658382D01*
X158541340Y-50718465D01*
X158541338Y-50718466D01*
X158360377Y-50845175D01*
X158204175Y-51001377D01*
X158077466Y-51182338D01*
X158077465Y-51182340D01*
X157984107Y-51382548D01*
X157984104Y-51382554D01*
X157926930Y-51595929D01*
X157926929Y-51595937D01*
X157907677Y-51815997D01*
X157907677Y-51816002D01*
X157926929Y-52036062D01*
X157926930Y-52036070D01*
X157984104Y-52249445D01*
X157984105Y-52249447D01*
X157984106Y-52249450D01*
X158030382Y-52348689D01*
X158077466Y-52449662D01*
X158077468Y-52449666D01*
X158204170Y-52630615D01*
X158204175Y-52630621D01*
X158360378Y-52786824D01*
X158360384Y-52786829D01*
X158541333Y-52913531D01*
X158541335Y-52913532D01*
X158541338Y-52913534D01*
X158660748Y-52969215D01*
X158670189Y-52973618D01*
X158722628Y-53019790D01*
X158741780Y-53086984D01*
X158721564Y-53153865D01*
X158670189Y-53198382D01*
X158541340Y-53258465D01*
X158541338Y-53258466D01*
X158360377Y-53385175D01*
X158204175Y-53541377D01*
X158077466Y-53722338D01*
X158077465Y-53722340D01*
X157984107Y-53922548D01*
X157984104Y-53922554D01*
X157926930Y-54135929D01*
X157926929Y-54135937D01*
X157907677Y-54355997D01*
X157907677Y-54356002D01*
X157926929Y-54576062D01*
X157926930Y-54576070D01*
X157984104Y-54789445D01*
X157984105Y-54789447D01*
X157984106Y-54789450D01*
X158033324Y-54894999D01*
X158077466Y-54989662D01*
X158077468Y-54989666D01*
X158204170Y-55170615D01*
X158204175Y-55170621D01*
X158360378Y-55326824D01*
X158360384Y-55326829D01*
X158541333Y-55453531D01*
X158541335Y-55453532D01*
X158541338Y-55453534D01*
X158660748Y-55509215D01*
X158670189Y-55513618D01*
X158722628Y-55559790D01*
X158741780Y-55626984D01*
X158721564Y-55693865D01*
X158670189Y-55738382D01*
X158541340Y-55798465D01*
X158541338Y-55798466D01*
X158360377Y-55925175D01*
X158204175Y-56081377D01*
X158077466Y-56262338D01*
X158077465Y-56262340D01*
X157984107Y-56462548D01*
X157984104Y-56462554D01*
X157926930Y-56675929D01*
X157926929Y-56675937D01*
X157907677Y-56895997D01*
X157907677Y-56896002D01*
X157926929Y-57116062D01*
X157926930Y-57116070D01*
X157984104Y-57329445D01*
X157984105Y-57329447D01*
X157984106Y-57329450D01*
X158058372Y-57488714D01*
X158077466Y-57529662D01*
X158077468Y-57529666D01*
X158204170Y-57710615D01*
X158204175Y-57710621D01*
X158360378Y-57866824D01*
X158360384Y-57866829D01*
X158541333Y-57993531D01*
X158541335Y-57993532D01*
X158541338Y-57993534D01*
X158649756Y-58044090D01*
X158670781Y-58053894D01*
X158723220Y-58100066D01*
X158742372Y-58167260D01*
X158722156Y-58234141D01*
X158670781Y-58278658D01*
X158541590Y-58338901D01*
X158476811Y-58384258D01*
X159147553Y-59055000D01*
X159124840Y-59055000D01*
X159027939Y-59080964D01*
X158941060Y-59131124D01*
X158870124Y-59202060D01*
X158819964Y-59288939D01*
X158794000Y-59385840D01*
X158794000Y-59408553D01*
X158123258Y-58737811D01*
X158077901Y-58802590D01*
X157984579Y-59002720D01*
X157984575Y-59002729D01*
X157927426Y-59216013D01*
X157927424Y-59216023D01*
X157908179Y-59435999D01*
X157908179Y-59436000D01*
X157927424Y-59655976D01*
X157927426Y-59655986D01*
X157984575Y-59869270D01*
X157984580Y-59869284D01*
X158077898Y-60069405D01*
X158077901Y-60069411D01*
X158123258Y-60134187D01*
X158123259Y-60134188D01*
X158794000Y-59463447D01*
X158794000Y-59486160D01*
X158819964Y-59583061D01*
X158870124Y-59669940D01*
X158941060Y-59740876D01*
X159027939Y-59791036D01*
X159124840Y-59817000D01*
X159147553Y-59817000D01*
X158476810Y-60487740D01*
X158541589Y-60533098D01*
X158670781Y-60593342D01*
X158723220Y-60639514D01*
X158742372Y-60706708D01*
X158722156Y-60773589D01*
X158670781Y-60818106D01*
X158541340Y-60878465D01*
X158541338Y-60878466D01*
X158360377Y-61005175D01*
X158204175Y-61161377D01*
X158077466Y-61342338D01*
X158077465Y-61342340D01*
X157984107Y-61542548D01*
X157984104Y-61542554D01*
X157926930Y-61755929D01*
X157926929Y-61755937D01*
X157907677Y-61975997D01*
X157907677Y-61976002D01*
X157926929Y-62196062D01*
X157926930Y-62196070D01*
X157984104Y-62409445D01*
X157984105Y-62409447D01*
X157984106Y-62409450D01*
X158071031Y-62595861D01*
X158077466Y-62609662D01*
X158077468Y-62609666D01*
X158204170Y-62790615D01*
X158204175Y-62790621D01*
X158360378Y-62946824D01*
X158360384Y-62946829D01*
X158541333Y-63073531D01*
X158541335Y-63073532D01*
X158541338Y-63073534D01*
X158660748Y-63129215D01*
X158670189Y-63133618D01*
X158722628Y-63179790D01*
X158741780Y-63246984D01*
X158721564Y-63313865D01*
X158670189Y-63358382D01*
X158541340Y-63418465D01*
X158541338Y-63418466D01*
X158360377Y-63545175D01*
X158204175Y-63701377D01*
X158077466Y-63882338D01*
X158077465Y-63882340D01*
X157984107Y-64082548D01*
X157984104Y-64082554D01*
X157926930Y-64295929D01*
X157926929Y-64295937D01*
X157907677Y-64515997D01*
X157907677Y-64516002D01*
X157926929Y-64736062D01*
X157926930Y-64736070D01*
X157984104Y-64949445D01*
X157984105Y-64949447D01*
X157984106Y-64949450D01*
X158077466Y-65149662D01*
X158077468Y-65149666D01*
X158204170Y-65330615D01*
X158204175Y-65330621D01*
X158360378Y-65486824D01*
X158360384Y-65486829D01*
X158541333Y-65613531D01*
X158541335Y-65613532D01*
X158541338Y-65613534D01*
X158660748Y-65669215D01*
X158670189Y-65673618D01*
X158722628Y-65719790D01*
X158741780Y-65786984D01*
X158721564Y-65853865D01*
X158670189Y-65898382D01*
X158541340Y-65958465D01*
X158541338Y-65958466D01*
X158360377Y-66085175D01*
X158204175Y-66241377D01*
X158077466Y-66422338D01*
X158077465Y-66422340D01*
X157984107Y-66622548D01*
X157984104Y-66622554D01*
X157926930Y-66835929D01*
X157926929Y-66835937D01*
X157907677Y-67055997D01*
X157907677Y-67056002D01*
X157926929Y-67276062D01*
X157926930Y-67276070D01*
X157984104Y-67489445D01*
X157984105Y-67489447D01*
X157984106Y-67489450D01*
X158066688Y-67666548D01*
X158077466Y-67689662D01*
X158077468Y-67689666D01*
X158204170Y-67870615D01*
X158204175Y-67870621D01*
X158360378Y-68026824D01*
X158360384Y-68026829D01*
X158541333Y-68153531D01*
X158541335Y-68153532D01*
X158541338Y-68153534D01*
X158660748Y-68209215D01*
X158670189Y-68213618D01*
X158722628Y-68259790D01*
X158741780Y-68326984D01*
X158721564Y-68393865D01*
X158670189Y-68438382D01*
X158541340Y-68498465D01*
X158541338Y-68498466D01*
X158360377Y-68625175D01*
X158204175Y-68781377D01*
X158077466Y-68962338D01*
X158077465Y-68962340D01*
X157984107Y-69162548D01*
X157984104Y-69162554D01*
X157926930Y-69375929D01*
X157926929Y-69375937D01*
X157907677Y-69595997D01*
X157907677Y-69596002D01*
X157926929Y-69816062D01*
X157926930Y-69816070D01*
X157984104Y-70029445D01*
X157984105Y-70029447D01*
X157984106Y-70029450D01*
X158077466Y-70229662D01*
X158077468Y-70229666D01*
X158204170Y-70410615D01*
X158204175Y-70410621D01*
X158360378Y-70566824D01*
X158360384Y-70566829D01*
X158541333Y-70693531D01*
X158541335Y-70693532D01*
X158541338Y-70693534D01*
X158660748Y-70749215D01*
X158670189Y-70753618D01*
X158722628Y-70799790D01*
X158741780Y-70866984D01*
X158721564Y-70933865D01*
X158670189Y-70978382D01*
X158541340Y-71038465D01*
X158541338Y-71038466D01*
X158360381Y-71165172D01*
X158337543Y-71188011D01*
X158301371Y-71224182D01*
X158240051Y-71257666D01*
X158213692Y-71260500D01*
X153429500Y-71260500D01*
X153362461Y-71240815D01*
X153316706Y-71188011D01*
X153305500Y-71136500D01*
X153305500Y-62458659D01*
X153325185Y-62391620D01*
X153377989Y-62345865D01*
X153447147Y-62335921D01*
X153510703Y-62364946D01*
X153515089Y-62369250D01*
X153519129Y-62372888D01*
X153670113Y-62482584D01*
X153712779Y-62537914D01*
X153720548Y-62595860D01*
X153719540Y-62605462D01*
X153739326Y-62793718D01*
X153739327Y-62793721D01*
X153797818Y-62973739D01*
X153797821Y-62973746D01*
X153892467Y-63137678D01*
X154019129Y-63278350D01*
X154044509Y-63296790D01*
X154087174Y-63352117D01*
X154093242Y-63421297D01*
X154079804Y-63488858D01*
X154079804Y-63612073D01*
X154103840Y-63732911D01*
X154103841Y-63732915D01*
X154106244Y-63738716D01*
X154106245Y-63738719D01*
X154150989Y-63846744D01*
X154150991Y-63846747D01*
X154150992Y-63846749D01*
X154174773Y-63882338D01*
X154185218Y-63897970D01*
X154185219Y-63897972D01*
X154219445Y-63949196D01*
X154310878Y-64040629D01*
X154310509Y-64040997D01*
X154335204Y-64070101D01*
X154342463Y-64082674D01*
X154342465Y-64082677D01*
X154469129Y-64223351D01*
X154622265Y-64334611D01*
X154622270Y-64334614D01*
X154795192Y-64411605D01*
X154795197Y-64411607D01*
X154980354Y-64450963D01*
X154980355Y-64450963D01*
X155169644Y-64450963D01*
X155169646Y-64450963D01*
X155354803Y-64411607D01*
X155527730Y-64334614D01*
X155680871Y-64223351D01*
X155807533Y-64082679D01*
X155902179Y-63918747D01*
X155960674Y-63738719D01*
X155980460Y-63550463D01*
X155960674Y-63362207D01*
X155931235Y-63271604D01*
X155929240Y-63201763D01*
X155946067Y-63164391D01*
X155954310Y-63152055D01*
X155954310Y-63152054D01*
X155954312Y-63152052D01*
X156001463Y-63038218D01*
X156019642Y-62946829D01*
X156025501Y-62917375D01*
X156025501Y-62789050D01*
X156025500Y-62789024D01*
X156025500Y-51338393D01*
X156025499Y-51338389D01*
X156010485Y-51262906D01*
X156001463Y-51217548D01*
X155954311Y-51103714D01*
X155954310Y-51103713D01*
X155954307Y-51103707D01*
X155885858Y-51001267D01*
X155885855Y-51001263D01*
X155795637Y-50911045D01*
X155795606Y-50911016D01*
X155138960Y-50254370D01*
X155105475Y-50193047D01*
X155103323Y-50179671D01*
X155085674Y-50011744D01*
X155027179Y-49831716D01*
X154932533Y-49667784D01*
X154805871Y-49527112D01*
X154805870Y-49527111D01*
X154652734Y-49415851D01*
X154652729Y-49415848D01*
X154479807Y-49338857D01*
X154479802Y-49338855D01*
X154334001Y-49307865D01*
X154294646Y-49299500D01*
X154105354Y-49299500D01*
X154072897Y-49306398D01*
X153920197Y-49338855D01*
X153920192Y-49338857D01*
X153747270Y-49415848D01*
X153747265Y-49415851D01*
X153594129Y-49527111D01*
X153594128Y-49527112D01*
X153521649Y-49607608D01*
X153462163Y-49644256D01*
X153392306Y-49642925D01*
X153334258Y-49604038D01*
X153306448Y-49539941D01*
X153305500Y-49524635D01*
X153305500Y-25624500D01*
X153325185Y-25557461D01*
X153377989Y-25511706D01*
X153429500Y-25500500D01*
X196875500Y-25500500D01*
X196942539Y-25520185D01*
G37*
%TD.AperFunction*%
%TA.AperFunction,Conductor*%
G36*
X181538834Y-65999269D02*
G01*
X181594767Y-66041141D01*
X181619184Y-66106605D01*
X181619500Y-66115451D01*
X181619500Y-69075547D01*
X181599815Y-69142586D01*
X181583181Y-69163228D01*
X178425466Y-72320941D01*
X178364143Y-72354426D01*
X178294451Y-72349442D01*
X178238518Y-72307570D01*
X178214101Y-72242106D01*
X178214257Y-72222452D01*
X178221821Y-72136000D01*
X178221821Y-72135999D01*
X178202575Y-71916023D01*
X178202573Y-71916013D01*
X178145424Y-71702729D01*
X178145420Y-71702720D01*
X178052096Y-71502586D01*
X178006741Y-71437811D01*
X178006740Y-71437810D01*
X177336000Y-72108551D01*
X177336000Y-72085840D01*
X177310036Y-71988939D01*
X177259876Y-71902060D01*
X177188940Y-71831124D01*
X177102061Y-71780964D01*
X177005160Y-71755000D01*
X176982448Y-71755000D01*
X177653188Y-71084259D01*
X177653187Y-71084258D01*
X177588411Y-71038901D01*
X177588405Y-71038898D01*
X177459219Y-70978658D01*
X177406779Y-70932486D01*
X177387627Y-70865293D01*
X177407843Y-70798411D01*
X177459219Y-70753894D01*
X177459811Y-70753618D01*
X177588662Y-70693534D01*
X177769620Y-70566826D01*
X177925826Y-70410620D01*
X178052534Y-70229662D01*
X178145894Y-70029450D01*
X178203070Y-69816068D01*
X178222323Y-69596000D01*
X178203070Y-69375932D01*
X178191292Y-69331976D01*
X178192955Y-69262126D01*
X178223384Y-69212204D01*
X181407821Y-66027768D01*
X181469142Y-65994285D01*
X181538834Y-65999269D01*
G37*
%TD.AperFunction*%
%TA.AperFunction,Conductor*%
G36*
X175822031Y-43388185D02*
G01*
X175867786Y-43440989D01*
X175877730Y-43510147D01*
X175859162Y-43557070D01*
X175860172Y-43557653D01*
X175857465Y-43562340D01*
X175764107Y-43762548D01*
X175764104Y-43762554D01*
X175706930Y-43975929D01*
X175706929Y-43975937D01*
X175687677Y-44195997D01*
X175687677Y-44196002D01*
X175706929Y-44416062D01*
X175706930Y-44416070D01*
X175764104Y-44629445D01*
X175764105Y-44629447D01*
X175764106Y-44629450D01*
X175806957Y-44721344D01*
X175857466Y-44829662D01*
X175857468Y-44829666D01*
X175984170Y-45010615D01*
X175984175Y-45010621D01*
X176140378Y-45166824D01*
X176140384Y-45166829D01*
X176321333Y-45293531D01*
X176321335Y-45293532D01*
X176321338Y-45293534D01*
X176403218Y-45331715D01*
X176450781Y-45353894D01*
X176503220Y-45400066D01*
X176522372Y-45467260D01*
X176502156Y-45534141D01*
X176450781Y-45578658D01*
X176321590Y-45638901D01*
X176256811Y-45684258D01*
X176927553Y-46355000D01*
X176904840Y-46355000D01*
X176807939Y-46380964D01*
X176721060Y-46431124D01*
X176650124Y-46502060D01*
X176599964Y-46588939D01*
X176574000Y-46685840D01*
X176574000Y-46708553D01*
X175903258Y-46037811D01*
X175857901Y-46102590D01*
X175764579Y-46302720D01*
X175764575Y-46302729D01*
X175707426Y-46516013D01*
X175707424Y-46516023D01*
X175688179Y-46735999D01*
X175688179Y-46736000D01*
X175707424Y-46955976D01*
X175707425Y-46955982D01*
X175730315Y-47041406D01*
X175728652Y-47111256D01*
X175689490Y-47169119D01*
X175625261Y-47196623D01*
X175610540Y-47197500D01*
X160566391Y-47197500D01*
X160541692Y-47202412D01*
X160472101Y-47196182D01*
X160416925Y-47153317D01*
X160393683Y-47087427D01*
X160397730Y-47048700D01*
X160422574Y-46955982D01*
X160422575Y-46955976D01*
X160441821Y-46736000D01*
X160441821Y-46735999D01*
X160422575Y-46516023D01*
X160422573Y-46516013D01*
X160365424Y-46302729D01*
X160365420Y-46302720D01*
X160272096Y-46102586D01*
X160226741Y-46037811D01*
X160226740Y-46037810D01*
X159556000Y-46708551D01*
X159556000Y-46685840D01*
X159530036Y-46588939D01*
X159479876Y-46502060D01*
X159408940Y-46431124D01*
X159322061Y-46380964D01*
X159225160Y-46355000D01*
X159202448Y-46355000D01*
X159873188Y-45684259D01*
X159873187Y-45684258D01*
X159808411Y-45638901D01*
X159808405Y-45638898D01*
X159679219Y-45578658D01*
X159626779Y-45532486D01*
X159607627Y-45465293D01*
X159627843Y-45398411D01*
X159679219Y-45353894D01*
X159726767Y-45331722D01*
X159808662Y-45293534D01*
X159989620Y-45166826D01*
X160145826Y-45010620D01*
X160272534Y-44829662D01*
X160365894Y-44629450D01*
X160423070Y-44416068D01*
X160442323Y-44196000D01*
X160441785Y-44189855D01*
X160435103Y-44113474D01*
X160423070Y-43975932D01*
X160411292Y-43931976D01*
X160412955Y-43862126D01*
X160443384Y-43812204D01*
X160850771Y-43404819D01*
X160912094Y-43371334D01*
X160938452Y-43368500D01*
X175754992Y-43368500D01*
X175822031Y-43388185D01*
G37*
%TD.AperFunction*%
%TD*%
%TA.AperFunction,Conductor*%
%TO.N,GND*%
G36*
X152743039Y-25520185D02*
G01*
X152788794Y-25572989D01*
X152800000Y-25624500D01*
X152800000Y-88760500D01*
X152780315Y-88827539D01*
X152727511Y-88873294D01*
X152676000Y-88884500D01*
X150177129Y-88884500D01*
X150177123Y-88884501D01*
X150117516Y-88890908D01*
X149982671Y-88941202D01*
X149982664Y-88941206D01*
X149867455Y-89027452D01*
X149867452Y-89027455D01*
X149781206Y-89142664D01*
X149781202Y-89142671D01*
X149730908Y-89277517D01*
X149725784Y-89325185D01*
X149724501Y-89337123D01*
X149724500Y-89337135D01*
X149724500Y-94182870D01*
X149724501Y-94182876D01*
X149730908Y-94242483D01*
X149781202Y-94377328D01*
X149781206Y-94377335D01*
X149867452Y-94492544D01*
X149867455Y-94492547D01*
X149982664Y-94578793D01*
X149982671Y-94578797D01*
X150117517Y-94629091D01*
X150117516Y-94629091D01*
X150124444Y-94629835D01*
X150177127Y-94635500D01*
X155022872Y-94635499D01*
X155082483Y-94629091D01*
X155217331Y-94578796D01*
X155332546Y-94492546D01*
X155418796Y-94377331D01*
X155469091Y-94242483D01*
X155475500Y-94182873D01*
X155475499Y-89337128D01*
X155469091Y-89277517D01*
X155464618Y-89265525D01*
X155427995Y-89167333D01*
X155423011Y-89097642D01*
X155456496Y-89036319D01*
X155517819Y-89002834D01*
X155544177Y-89000000D01*
X157676000Y-89000000D01*
X157743039Y-89019685D01*
X157788794Y-89072489D01*
X157800000Y-89124000D01*
X157800000Y-99375500D01*
X157780315Y-99442539D01*
X157727511Y-99488294D01*
X157676000Y-99499500D01*
X86304500Y-99499500D01*
X86237461Y-99479815D01*
X86191706Y-99427011D01*
X86180500Y-99375500D01*
X86180500Y-89429500D01*
X86200185Y-89362461D01*
X86252989Y-89316706D01*
X86304500Y-89305500D01*
X89740988Y-89305500D01*
X89808027Y-89325185D01*
X89853782Y-89377989D01*
X89863726Y-89447147D01*
X89834701Y-89510703D01*
X89820694Y-89524489D01*
X89653376Y-89664885D01*
X89653366Y-89664895D01*
X89423507Y-89908529D01*
X89423502Y-89908535D01*
X89223486Y-90177203D01*
X89056007Y-90467286D01*
X89056001Y-90467299D01*
X88923334Y-90774854D01*
X88827267Y-91095743D01*
X88827264Y-91095757D01*
X88769104Y-91425597D01*
X88769103Y-91425608D01*
X88749627Y-91759996D01*
X88749627Y-91760003D01*
X88769103Y-92094391D01*
X88769104Y-92094402D01*
X88827264Y-92424242D01*
X88827267Y-92424256D01*
X88923334Y-92745145D01*
X89056001Y-93052700D01*
X89056007Y-93052713D01*
X89223486Y-93342796D01*
X89423502Y-93611464D01*
X89423507Y-93611470D01*
X89542220Y-93737298D01*
X89653368Y-93855107D01*
X89653374Y-93855112D01*
X89653376Y-93855114D01*
X89909958Y-94070412D01*
X89909966Y-94070418D01*
X90189809Y-94254474D01*
X90189813Y-94254476D01*
X90489143Y-94404805D01*
X90803900Y-94519367D01*
X90803906Y-94519368D01*
X90803908Y-94519369D01*
X91129812Y-94596611D01*
X91129819Y-94596612D01*
X91129828Y-94596614D01*
X91462521Y-94635500D01*
X91462528Y-94635500D01*
X91797472Y-94635500D01*
X91797479Y-94635500D01*
X92130172Y-94596614D01*
X92130181Y-94596611D01*
X92130187Y-94596611D01*
X92393076Y-94534304D01*
X92456100Y-94519367D01*
X92770857Y-94404805D01*
X93070187Y-94254476D01*
X93179058Y-94182870D01*
X93350033Y-94070418D01*
X93350033Y-94070417D01*
X93350039Y-94070414D01*
X93606632Y-93855107D01*
X93836494Y-93611468D01*
X94036517Y-93342791D01*
X94203995Y-93052709D01*
X94336665Y-92745146D01*
X94432732Y-92424260D01*
X94490897Y-92094391D01*
X94510373Y-91760000D01*
X94490897Y-91425609D01*
X94432732Y-91095740D01*
X94336665Y-90774854D01*
X94203995Y-90467291D01*
X94036517Y-90177209D01*
X93894500Y-89986447D01*
X93836497Y-89908535D01*
X93836492Y-89908529D01*
X93663271Y-89724927D01*
X93606632Y-89664893D01*
X93606625Y-89664887D01*
X93606623Y-89664885D01*
X93439306Y-89524489D01*
X93400604Y-89466318D01*
X93399496Y-89396457D01*
X93436333Y-89337087D01*
X93499420Y-89307058D01*
X93519012Y-89305500D01*
X94075990Y-89305500D01*
X94076000Y-89305500D01*
X94183456Y-89293947D01*
X94234967Y-89282741D01*
X94269197Y-89271347D01*
X94337497Y-89248616D01*
X94337501Y-89248613D01*
X94337504Y-89248613D01*
X94458543Y-89170825D01*
X94511347Y-89125070D01*
X94605567Y-89016336D01*
X94665338Y-88885459D01*
X94685023Y-88818420D01*
X94685024Y-88818416D01*
X94705500Y-88676000D01*
X94705500Y-79945696D01*
X94725185Y-79878657D01*
X94777989Y-79832902D01*
X94847147Y-79822958D01*
X94909413Y-79851394D01*
X94909458Y-79851337D01*
X94909698Y-79851524D01*
X94910703Y-79851983D01*
X94913490Y-79854473D01*
X94913505Y-79854487D01*
X94913506Y-79854488D01*
X95109741Y-80007224D01*
X95328440Y-80125578D01*
X95563636Y-80206321D01*
X95808915Y-80247250D01*
X96057585Y-80247250D01*
X96302864Y-80206321D01*
X96538060Y-80125578D01*
X96756759Y-80007224D01*
X96952994Y-79854488D01*
X97007021Y-79795798D01*
X97066907Y-79759809D01*
X97136745Y-79761909D01*
X97189478Y-79795797D01*
X97243506Y-79854488D01*
X97439741Y-80007224D01*
X97658440Y-80125578D01*
X97893636Y-80206321D01*
X98138915Y-80247250D01*
X98387585Y-80247250D01*
X98632864Y-80206321D01*
X98868060Y-80125578D01*
X99086759Y-80007224D01*
X99282994Y-79854488D01*
X99451414Y-79671535D01*
X99587423Y-79463357D01*
X99687313Y-79235631D01*
X99748358Y-78994571D01*
X99768893Y-78746750D01*
X99752734Y-78551744D01*
X99748359Y-78498937D01*
X99748357Y-78498925D01*
X99687313Y-78257868D01*
X99587423Y-78030143D01*
X99451413Y-77821963D01*
X99361519Y-77724311D01*
X99330597Y-77661657D01*
X99328749Y-77640329D01*
X99328749Y-76828879D01*
X99328749Y-76828878D01*
X99326455Y-76807537D01*
X99338862Y-76738778D01*
X99376860Y-76693966D01*
X99386125Y-76687233D01*
X99405871Y-76672888D01*
X99532533Y-76532216D01*
X99627179Y-76368284D01*
X99685674Y-76188256D01*
X99705460Y-76000000D01*
X99705193Y-75997460D01*
X99705460Y-75996001D01*
X99705460Y-75993501D01*
X99705917Y-75993501D01*
X99717763Y-75928731D01*
X99765495Y-75877708D01*
X99828514Y-75860500D01*
X105821890Y-75860500D01*
X105821892Y-75860500D01*
X105949186Y-75826392D01*
X106063314Y-75760500D01*
X106156500Y-75667314D01*
X106222392Y-75553186D01*
X106256500Y-75425892D01*
X106256500Y-47354108D01*
X106222392Y-47226814D01*
X106156500Y-47112686D01*
X106063314Y-47019500D01*
X105960538Y-46960162D01*
X105912323Y-46909594D01*
X105899101Y-46840987D01*
X105899798Y-46835152D01*
X105905500Y-46795500D01*
X105905500Y-33880000D01*
X105893947Y-33772544D01*
X105882741Y-33721033D01*
X105882637Y-33720722D01*
X105848616Y-33618502D01*
X105848613Y-33618496D01*
X105820086Y-33574108D01*
X105800401Y-33507069D01*
X105820085Y-33440029D01*
X105872889Y-33394274D01*
X105892293Y-33387298D01*
X106063207Y-33341502D01*
X106293373Y-33246164D01*
X106509127Y-33121599D01*
X106706776Y-32969938D01*
X106882938Y-32793776D01*
X107034599Y-32596127D01*
X107159164Y-32380373D01*
X107254502Y-32150207D01*
X107318982Y-31909565D01*
X107351500Y-31662565D01*
X107351500Y-31662558D01*
X108548500Y-31662558D01*
X108548501Y-31662575D01*
X108581017Y-31909561D01*
X108645498Y-32150207D01*
X108740830Y-32380361D01*
X108740837Y-32380376D01*
X108865400Y-32596126D01*
X109017060Y-32793774D01*
X109017066Y-32793781D01*
X109193218Y-32969933D01*
X109193225Y-32969939D01*
X109390873Y-33121599D01*
X109606623Y-33246162D01*
X109606638Y-33246169D01*
X109672040Y-33273259D01*
X109836793Y-33341502D01*
X110077435Y-33405982D01*
X110079094Y-33406200D01*
X110079552Y-33406403D01*
X110081417Y-33406774D01*
X110081334Y-33407190D01*
X110142991Y-33434459D01*
X110181468Y-33492779D01*
X110182307Y-33562644D01*
X110175713Y-33580652D01*
X110134664Y-33670534D01*
X110114976Y-33737582D01*
X110109949Y-33772549D01*
X110094500Y-33880000D01*
X110094500Y-46795500D01*
X110094501Y-46795505D01*
X110094501Y-46795509D01*
X110106052Y-46902950D01*
X110106054Y-46902965D01*
X110107238Y-46908407D01*
X110102247Y-46978098D01*
X110073751Y-47022433D01*
X109983503Y-47112682D01*
X109983500Y-47112686D01*
X109917608Y-47226812D01*
X109883500Y-47354108D01*
X109883500Y-75052844D01*
X109863815Y-75119883D01*
X109811011Y-75165638D01*
X109794436Y-75171821D01*
X109662496Y-75210563D01*
X109662492Y-75210565D01*
X109541462Y-75288347D01*
X109541451Y-75288355D01*
X109488659Y-75334099D01*
X109394433Y-75442840D01*
X109394430Y-75442844D01*
X109334664Y-75573710D01*
X109314976Y-75640758D01*
X109294500Y-75783177D01*
X109294500Y-81430043D01*
X109307591Y-81544340D01*
X109320264Y-81598939D01*
X109320269Y-81598958D01*
X109358852Y-81707313D01*
X109439961Y-81826146D01*
X109487154Y-81877655D01*
X109487161Y-81877662D01*
X109487167Y-81877668D01*
X109487169Y-81877670D01*
X109598476Y-81968841D01*
X118834623Y-87549013D01*
X118881823Y-87600528D01*
X118894500Y-87655146D01*
X118894500Y-89657888D01*
X118874815Y-89724927D01*
X118822011Y-89770682D01*
X118752853Y-89780626D01*
X118689297Y-89751601D01*
X118680306Y-89742983D01*
X118663271Y-89724927D01*
X118606632Y-89664893D01*
X118606625Y-89664887D01*
X118606623Y-89664885D01*
X118350041Y-89449587D01*
X118350033Y-89449581D01*
X118070190Y-89265525D01*
X117770864Y-89115198D01*
X117770858Y-89115195D01*
X117456112Y-89000637D01*
X117456091Y-89000630D01*
X117130187Y-88923388D01*
X117130172Y-88923386D01*
X116797479Y-88884500D01*
X116462521Y-88884500D01*
X116171414Y-88918525D01*
X116129827Y-88923386D01*
X116129812Y-88923388D01*
X115803908Y-89000630D01*
X115803887Y-89000637D01*
X115489141Y-89115195D01*
X115489135Y-89115198D01*
X115189809Y-89265525D01*
X114909966Y-89449581D01*
X114909958Y-89449587D01*
X114653376Y-89664885D01*
X114653366Y-89664895D01*
X114423507Y-89908529D01*
X114423502Y-89908535D01*
X114223486Y-90177203D01*
X114056007Y-90467286D01*
X114056001Y-90467299D01*
X113923334Y-90774854D01*
X113827267Y-91095743D01*
X113827264Y-91095757D01*
X113769104Y-91425597D01*
X113769103Y-91425608D01*
X113749627Y-91759996D01*
X113749627Y-91760003D01*
X113769103Y-92094391D01*
X113769104Y-92094402D01*
X113827264Y-92424242D01*
X113827267Y-92424256D01*
X113923334Y-92745145D01*
X114056001Y-93052700D01*
X114056007Y-93052713D01*
X114223486Y-93342796D01*
X114423502Y-93611464D01*
X114423507Y-93611470D01*
X114542220Y-93737298D01*
X114653368Y-93855107D01*
X114653374Y-93855112D01*
X114653376Y-93855114D01*
X114909958Y-94070412D01*
X114909966Y-94070418D01*
X115189809Y-94254474D01*
X115189813Y-94254476D01*
X115489143Y-94404805D01*
X115803900Y-94519367D01*
X115803906Y-94519368D01*
X115803908Y-94519369D01*
X116129812Y-94596611D01*
X116129819Y-94596612D01*
X116129828Y-94596614D01*
X116462521Y-94635500D01*
X116462528Y-94635500D01*
X116797472Y-94635500D01*
X116797479Y-94635500D01*
X117130172Y-94596614D01*
X117130181Y-94596611D01*
X117130187Y-94596611D01*
X117393076Y-94534304D01*
X117456100Y-94519367D01*
X117770857Y-94404805D01*
X118070187Y-94254476D01*
X118179058Y-94182870D01*
X118350033Y-94070418D01*
X118350033Y-94070417D01*
X118350039Y-94070414D01*
X118606632Y-93855107D01*
X118680306Y-93777016D01*
X118740629Y-93741763D01*
X118810436Y-93744718D01*
X118867564Y-93784945D01*
X118893874Y-93849672D01*
X118894500Y-93862111D01*
X118894500Y-95176000D01*
X118894501Y-95176009D01*
X118906052Y-95283450D01*
X118906054Y-95283462D01*
X118917260Y-95334972D01*
X118951383Y-95437497D01*
X118951386Y-95437503D01*
X119029171Y-95558537D01*
X119029179Y-95558548D01*
X119074923Y-95611340D01*
X119074926Y-95611343D01*
X119074930Y-95611347D01*
X119183664Y-95705567D01*
X119183667Y-95705568D01*
X119183668Y-95705569D01*
X119277925Y-95748616D01*
X119314541Y-95765338D01*
X119381580Y-95785023D01*
X119381584Y-95785024D01*
X119524000Y-95805500D01*
X119524003Y-95805500D01*
X124675990Y-95805500D01*
X124676000Y-95805500D01*
X124783456Y-95793947D01*
X124834967Y-95782741D01*
X124869197Y-95771347D01*
X124937497Y-95748616D01*
X124937501Y-95748613D01*
X124937504Y-95748613D01*
X125058543Y-95670825D01*
X125111347Y-95625070D01*
X125205567Y-95516336D01*
X125265338Y-95385459D01*
X125285023Y-95318420D01*
X125285024Y-95318416D01*
X125305500Y-95176000D01*
X125305500Y-94759499D01*
X125325185Y-94692460D01*
X125377989Y-94646705D01*
X125429500Y-94635499D01*
X130052871Y-94635499D01*
X130052872Y-94635499D01*
X130112483Y-94629091D01*
X130247331Y-94578796D01*
X130362546Y-94492546D01*
X130448796Y-94377331D01*
X130499091Y-94242483D01*
X130505500Y-94182873D01*
X130505500Y-91760003D01*
X138719627Y-91760003D01*
X138739103Y-92094391D01*
X138739104Y-92094402D01*
X138797264Y-92424242D01*
X138797267Y-92424256D01*
X138893334Y-92745145D01*
X139026001Y-93052700D01*
X139026007Y-93052713D01*
X139193486Y-93342796D01*
X139393502Y-93611464D01*
X139393507Y-93611470D01*
X139512220Y-93737298D01*
X139623368Y-93855107D01*
X139623374Y-93855112D01*
X139623376Y-93855114D01*
X139879958Y-94070412D01*
X139879966Y-94070418D01*
X140159809Y-94254474D01*
X140159813Y-94254476D01*
X140459143Y-94404805D01*
X140773900Y-94519367D01*
X140773906Y-94519368D01*
X140773908Y-94519369D01*
X141099812Y-94596611D01*
X141099819Y-94596612D01*
X141099828Y-94596614D01*
X141432521Y-94635500D01*
X141432528Y-94635500D01*
X141767472Y-94635500D01*
X141767479Y-94635500D01*
X142100172Y-94596614D01*
X142100181Y-94596611D01*
X142100187Y-94596611D01*
X142363076Y-94534304D01*
X142426100Y-94519367D01*
X142740857Y-94404805D01*
X143040187Y-94254476D01*
X143149058Y-94182870D01*
X143320033Y-94070418D01*
X143320033Y-94070417D01*
X143320039Y-94070414D01*
X143576632Y-93855107D01*
X143806494Y-93611468D01*
X144006517Y-93342791D01*
X144173995Y-93052709D01*
X144306665Y-92745146D01*
X144402732Y-92424260D01*
X144460897Y-92094391D01*
X144480373Y-91760000D01*
X144460897Y-91425609D01*
X144402732Y-91095740D01*
X144306665Y-90774854D01*
X144173995Y-90467291D01*
X144006517Y-90177209D01*
X143864500Y-89986447D01*
X143806497Y-89908535D01*
X143806492Y-89908529D01*
X143633271Y-89724927D01*
X143576632Y-89664893D01*
X143576625Y-89664887D01*
X143576623Y-89664885D01*
X143320041Y-89449587D01*
X143320033Y-89449581D01*
X143040190Y-89265525D01*
X142740864Y-89115198D01*
X142740858Y-89115195D01*
X142426112Y-89000637D01*
X142426091Y-89000630D01*
X142100187Y-88923388D01*
X142100172Y-88923386D01*
X141767479Y-88884500D01*
X141432521Y-88884500D01*
X141141414Y-88918525D01*
X141099827Y-88923386D01*
X141099812Y-88923388D01*
X140773908Y-89000630D01*
X140773887Y-89000637D01*
X140459141Y-89115195D01*
X140459135Y-89115198D01*
X140159809Y-89265525D01*
X139879966Y-89449581D01*
X139879958Y-89449587D01*
X139623376Y-89664885D01*
X139623366Y-89664895D01*
X139393507Y-89908529D01*
X139393502Y-89908535D01*
X139193486Y-90177203D01*
X139026007Y-90467286D01*
X139026001Y-90467299D01*
X138893334Y-90774854D01*
X138797267Y-91095743D01*
X138797264Y-91095757D01*
X138739104Y-91425597D01*
X138739103Y-91425608D01*
X138719627Y-91759996D01*
X138719627Y-91760003D01*
X130505500Y-91760003D01*
X130505499Y-89337128D01*
X130499091Y-89277517D01*
X130494618Y-89265525D01*
X130448797Y-89142671D01*
X130448793Y-89142664D01*
X130362547Y-89027455D01*
X130362544Y-89027452D01*
X130247335Y-88941206D01*
X130247328Y-88941202D01*
X130112482Y-88890908D01*
X130112483Y-88890908D01*
X130052883Y-88884501D01*
X130052881Y-88884500D01*
X130052873Y-88884500D01*
X130052865Y-88884500D01*
X125429500Y-88884500D01*
X125362461Y-88864815D01*
X125316706Y-88812011D01*
X125305500Y-88760500D01*
X125305500Y-81271257D01*
X125305499Y-81271240D01*
X125293947Y-81163798D01*
X125293947Y-81163795D01*
X125282741Y-81112283D01*
X125282587Y-81111820D01*
X125248612Y-81009741D01*
X125248611Y-81009739D01*
X125170824Y-80888704D01*
X125170823Y-80888703D01*
X125170822Y-80888701D01*
X125125067Y-80835898D01*
X125016340Y-80741685D01*
X124885463Y-80681913D01*
X124885461Y-80681912D01*
X124885458Y-80681911D01*
X124820562Y-80662854D01*
X124818976Y-80662357D01*
X124818417Y-80662224D01*
X124707806Y-80646321D01*
X124676002Y-80641749D01*
X124676000Y-80641749D01*
X123494295Y-80641749D01*
X123427256Y-80622064D01*
X123381501Y-80569260D01*
X123374716Y-80550563D01*
X123371474Y-80538745D01*
X123343807Y-80462496D01*
X123321937Y-80428466D01*
X123266023Y-80341462D01*
X123266014Y-80341451D01*
X123220268Y-80288657D01*
X123220267Y-80288656D01*
X123220264Y-80288653D01*
X123111530Y-80194433D01*
X123111527Y-80194431D01*
X123111525Y-80194430D01*
X122980659Y-80134664D01*
X122980654Y-80134662D01*
X122980653Y-80134662D01*
X122935960Y-80121538D01*
X122913611Y-80114976D01*
X122866138Y-80108150D01*
X122771194Y-80094500D01*
X122771192Y-80094500D01*
X121335826Y-80094500D01*
X121268787Y-80074815D01*
X121223032Y-80022011D01*
X121213088Y-79952853D01*
X121242113Y-79889297D01*
X121259661Y-79872648D01*
X121282994Y-79854488D01*
X121451414Y-79671535D01*
X121587423Y-79463357D01*
X121687313Y-79235631D01*
X121702414Y-79176000D01*
X130294500Y-79176000D01*
X130294501Y-79176009D01*
X130306052Y-79283450D01*
X130306054Y-79283462D01*
X130317260Y-79334972D01*
X130351383Y-79437497D01*
X130351386Y-79437503D01*
X130429171Y-79558537D01*
X130429179Y-79558548D01*
X130474923Y-79611340D01*
X130474926Y-79611343D01*
X130474930Y-79611347D01*
X130583664Y-79705567D01*
X130583667Y-79705568D01*
X130583668Y-79705569D01*
X130707032Y-79761909D01*
X130714541Y-79765338D01*
X130781580Y-79785023D01*
X130781584Y-79785024D01*
X130924000Y-79805500D01*
X131670500Y-79805500D01*
X131737539Y-79825185D01*
X131783294Y-79877989D01*
X131794500Y-79929500D01*
X131794500Y-84276000D01*
X131794501Y-84276009D01*
X131806052Y-84383450D01*
X131806054Y-84383462D01*
X131817260Y-84434972D01*
X131851383Y-84537497D01*
X131851386Y-84537503D01*
X131929171Y-84658537D01*
X131929179Y-84658548D01*
X131974923Y-84711340D01*
X131974926Y-84711343D01*
X131974930Y-84711347D01*
X132083664Y-84805567D01*
X132083667Y-84805568D01*
X132083668Y-84805569D01*
X132177925Y-84848616D01*
X132214541Y-84865338D01*
X132281580Y-84885023D01*
X132281584Y-84885024D01*
X132424000Y-84905500D01*
X132424003Y-84905500D01*
X137275990Y-84905500D01*
X137276000Y-84905500D01*
X137383456Y-84893947D01*
X137434967Y-84882741D01*
X137469197Y-84871347D01*
X137537497Y-84848616D01*
X137537501Y-84848613D01*
X137537504Y-84848613D01*
X137658543Y-84770825D01*
X137711347Y-84725070D01*
X137805567Y-84616336D01*
X137865338Y-84485459D01*
X137885023Y-84418420D01*
X137885024Y-84418416D01*
X137905500Y-84276000D01*
X137905500Y-76912676D01*
X137925185Y-76845637D01*
X137977989Y-76799882D01*
X138047147Y-76789938D01*
X138110703Y-76818963D01*
X138117181Y-76824995D01*
X138192686Y-76900500D01*
X138306814Y-76966392D01*
X138434108Y-77000500D01*
X138743750Y-77000500D01*
X138810789Y-77020185D01*
X138856544Y-77072989D01*
X138867750Y-77124500D01*
X138867750Y-77640330D01*
X138848065Y-77707369D01*
X138834980Y-77724312D01*
X138745087Y-77821962D01*
X138745085Y-77821964D01*
X138609076Y-78030143D01*
X138509186Y-78257868D01*
X138448142Y-78498925D01*
X138448140Y-78498937D01*
X138427607Y-78746744D01*
X138427607Y-78746755D01*
X138448140Y-78994562D01*
X138448142Y-78994574D01*
X138509186Y-79235631D01*
X138609076Y-79463356D01*
X138745083Y-79671532D01*
X138745086Y-79671535D01*
X138913506Y-79854488D01*
X139009881Y-79929500D01*
X139109738Y-80007222D01*
X139109743Y-80007225D01*
X139274364Y-80096313D01*
X139323955Y-80145532D01*
X139329908Y-80157916D01*
X139378934Y-80276278D01*
X139378941Y-80276292D01*
X139387202Y-80288654D01*
X139387204Y-80288656D01*
X139447391Y-80378732D01*
X139447394Y-80378736D01*
X139538836Y-80470178D01*
X139538858Y-80470198D01*
X139811038Y-80742378D01*
X139844523Y-80803701D01*
X139846678Y-80817097D01*
X139854139Y-80888088D01*
X139864326Y-80985006D01*
X139864327Y-80985009D01*
X139922818Y-81165027D01*
X139922821Y-81165034D01*
X140017467Y-81328966D01*
X140144129Y-81469638D01*
X140297265Y-81580898D01*
X140297270Y-81580901D01*
X140470192Y-81657892D01*
X140470197Y-81657894D01*
X140655354Y-81697250D01*
X140655355Y-81697250D01*
X140844644Y-81697250D01*
X140844646Y-81697250D01*
X141029803Y-81657894D01*
X141202730Y-81580901D01*
X141355871Y-81469638D01*
X141482533Y-81328966D01*
X141577179Y-81165034D01*
X141635674Y-80985006D01*
X141655460Y-80796750D01*
X141635674Y-80608494D01*
X141577179Y-80428466D01*
X141504485Y-80302556D01*
X141488012Y-80234655D01*
X141510865Y-80168629D01*
X141565786Y-80125438D01*
X141635340Y-80118797D01*
X141653412Y-80124426D01*
X141653589Y-80123913D01*
X141752637Y-80157916D01*
X141893636Y-80206321D01*
X142138915Y-80247250D01*
X142387585Y-80247250D01*
X142632864Y-80206321D01*
X142868060Y-80125578D01*
X143086759Y-80007224D01*
X143282994Y-79854488D01*
X143451414Y-79671535D01*
X143587423Y-79463357D01*
X143687313Y-79235631D01*
X143748358Y-78994571D01*
X143768893Y-78746750D01*
X143752734Y-78551744D01*
X143748359Y-78498937D01*
X143748357Y-78498925D01*
X143687313Y-78257868D01*
X143587423Y-78030143D01*
X143451413Y-77821963D01*
X143361519Y-77724311D01*
X143330597Y-77661657D01*
X143328749Y-77640329D01*
X143328749Y-76828879D01*
X143328749Y-76828878D01*
X143322341Y-76769267D01*
X143310969Y-76738778D01*
X143272047Y-76634421D01*
X143272043Y-76634414D01*
X143185797Y-76519205D01*
X143168228Y-76506053D01*
X143151397Y-76493452D01*
X143115946Y-76466914D01*
X143074076Y-76410980D01*
X143069092Y-76341288D01*
X143072324Y-76329341D01*
X143085674Y-76288256D01*
X143105460Y-76100000D01*
X143094682Y-75997458D01*
X143107251Y-75928732D01*
X143154983Y-75877708D01*
X143218003Y-75860500D01*
X149821890Y-75860500D01*
X149821892Y-75860500D01*
X149949186Y-75826392D01*
X150063314Y-75760500D01*
X150156500Y-75667314D01*
X150222392Y-75553186D01*
X150256500Y-75425892D01*
X150256500Y-47354108D01*
X150222392Y-47226814D01*
X150156500Y-47112686D01*
X150063314Y-47019500D01*
X149960538Y-46960162D01*
X149912323Y-46909594D01*
X149899101Y-46840987D01*
X149899798Y-46835152D01*
X149905500Y-46795500D01*
X149905500Y-33880000D01*
X149893947Y-33772544D01*
X149882741Y-33721033D01*
X149882637Y-33720722D01*
X149848616Y-33618502D01*
X149848612Y-33618494D01*
X149841642Y-33607648D01*
X149821958Y-33540608D01*
X149841643Y-33473569D01*
X149894448Y-33427815D01*
X149929770Y-33417671D01*
X150018565Y-33405982D01*
X150259207Y-33341502D01*
X150489373Y-33246164D01*
X150705127Y-33121599D01*
X150902776Y-32969938D01*
X151078938Y-32793776D01*
X151230599Y-32596127D01*
X151355164Y-32380373D01*
X151450502Y-32150207D01*
X151514982Y-31909565D01*
X151547500Y-31662565D01*
X151547500Y-30313435D01*
X151514982Y-30066435D01*
X151450502Y-29825793D01*
X151355164Y-29595627D01*
X151230599Y-29379873D01*
X151078938Y-29182224D01*
X151078933Y-29182218D01*
X150902781Y-29006066D01*
X150902774Y-29006060D01*
X150705126Y-28854400D01*
X150489376Y-28729837D01*
X150489361Y-28729830D01*
X150259207Y-28634498D01*
X150018561Y-28570017D01*
X149771575Y-28537501D01*
X149771570Y-28537500D01*
X149771565Y-28537500D01*
X149522435Y-28537500D01*
X149522429Y-28537500D01*
X149522424Y-28537501D01*
X149275438Y-28570017D01*
X149034792Y-28634498D01*
X148804638Y-28729830D01*
X148804623Y-28729837D01*
X148588873Y-28854400D01*
X148391225Y-29006060D01*
X148391218Y-29006066D01*
X148215066Y-29182218D01*
X148215060Y-29182225D01*
X148063400Y-29379873D01*
X147938837Y-29595623D01*
X147938830Y-29595638D01*
X147843498Y-29825792D01*
X147779017Y-30066438D01*
X147746501Y-30313424D01*
X147746500Y-30313441D01*
X147746500Y-31662558D01*
X147746501Y-31662575D01*
X147779017Y-31909561D01*
X147843498Y-32150207D01*
X147938830Y-32380361D01*
X147938837Y-32380376D01*
X148063400Y-32596126D01*
X148215060Y-32793774D01*
X148215066Y-32793781D01*
X148391218Y-32969933D01*
X148391225Y-32969939D01*
X148467053Y-33028124D01*
X148508256Y-33084552D01*
X148512411Y-33154298D01*
X148478199Y-33215218D01*
X148416482Y-33247971D01*
X148391567Y-33250500D01*
X144329500Y-33250500D01*
X144329491Y-33250500D01*
X144329490Y-33250501D01*
X144222049Y-33262052D01*
X144222037Y-33262054D01*
X144170527Y-33273260D01*
X144067999Y-33307385D01*
X144022797Y-33336434D01*
X143955757Y-33356117D01*
X143904247Y-33344911D01*
X143785465Y-33290664D01*
X143785460Y-33290662D01*
X143785459Y-33290662D01*
X143718420Y-33270977D01*
X143718422Y-33270977D01*
X143718417Y-33270976D01*
X143656347Y-33262052D01*
X143576000Y-33250500D01*
X138424000Y-33250500D01*
X138423991Y-33250500D01*
X138423990Y-33250501D01*
X138316549Y-33262052D01*
X138316537Y-33262054D01*
X138265027Y-33273260D01*
X138162499Y-33307385D01*
X138117297Y-33336434D01*
X138050257Y-33356117D01*
X137998747Y-33344911D01*
X137879965Y-33290664D01*
X137879960Y-33290662D01*
X137879959Y-33290662D01*
X137812920Y-33270977D01*
X137812922Y-33270977D01*
X137812917Y-33270976D01*
X137750847Y-33262052D01*
X137670500Y-33250500D01*
X137670498Y-33250500D01*
X133802433Y-33250500D01*
X133735394Y-33230815D01*
X133689639Y-33178011D01*
X133679695Y-33108853D01*
X133708720Y-33045297D01*
X133726947Y-33028124D01*
X133764327Y-32999440D01*
X133802776Y-32969938D01*
X133978938Y-32793776D01*
X134130599Y-32596127D01*
X134255164Y-32380373D01*
X134350502Y-32150207D01*
X134414982Y-31909565D01*
X134447500Y-31662565D01*
X134447500Y-30313435D01*
X134414982Y-30066435D01*
X134350502Y-29825793D01*
X134255164Y-29595627D01*
X134130599Y-29379873D01*
X133978938Y-29182224D01*
X133978933Y-29182218D01*
X133802781Y-29006066D01*
X133802774Y-29006060D01*
X133605126Y-28854400D01*
X133389376Y-28729837D01*
X133389361Y-28729830D01*
X133159207Y-28634498D01*
X132918561Y-28570017D01*
X132671575Y-28537501D01*
X132671570Y-28537500D01*
X132671565Y-28537500D01*
X132422435Y-28537500D01*
X132422429Y-28537500D01*
X132422424Y-28537501D01*
X132175438Y-28570017D01*
X131934792Y-28634498D01*
X131704638Y-28729830D01*
X131704623Y-28729837D01*
X131488873Y-28854400D01*
X131291225Y-29006060D01*
X131291218Y-29006066D01*
X131115066Y-29182218D01*
X131115060Y-29182225D01*
X130963400Y-29379873D01*
X130838837Y-29595623D01*
X130838830Y-29595638D01*
X130743498Y-29825792D01*
X130679017Y-30066438D01*
X130646501Y-30313424D01*
X130646500Y-30313441D01*
X130646500Y-31662558D01*
X130646501Y-31662575D01*
X130679017Y-31909561D01*
X130743498Y-32150207D01*
X130838830Y-32380361D01*
X130838837Y-32380376D01*
X130963400Y-32596126D01*
X131115060Y-32793774D01*
X131115066Y-32793781D01*
X131291218Y-32969933D01*
X131291225Y-32969939D01*
X131488873Y-33121599D01*
X131704623Y-33246162D01*
X131704638Y-33246169D01*
X131812059Y-33290664D01*
X131934793Y-33341502D01*
X132105159Y-33387151D01*
X132164818Y-33423515D01*
X132195347Y-33486362D01*
X132187052Y-33555737D01*
X132185858Y-33558437D01*
X132134664Y-33670534D01*
X132114976Y-33737582D01*
X132109949Y-33772549D01*
X132094500Y-33880000D01*
X132094500Y-46795500D01*
X132094501Y-46795505D01*
X132094501Y-46795509D01*
X132106052Y-46902950D01*
X132106054Y-46902965D01*
X132107238Y-46908407D01*
X132102247Y-46978098D01*
X132073751Y-47022433D01*
X131983503Y-47112682D01*
X131983500Y-47112686D01*
X131917608Y-47226812D01*
X131883500Y-47354108D01*
X131883500Y-75425891D01*
X131913795Y-75538957D01*
X131912132Y-75608807D01*
X131898340Y-75638082D01*
X131894436Y-75644156D01*
X131834663Y-75775037D01*
X131814976Y-75842082D01*
X131794500Y-75984500D01*
X131794500Y-76370500D01*
X131774815Y-76437539D01*
X131722011Y-76483294D01*
X131670500Y-76494500D01*
X130924000Y-76494500D01*
X130923991Y-76494500D01*
X130923990Y-76494501D01*
X130816549Y-76506052D01*
X130816537Y-76506054D01*
X130765027Y-76517260D01*
X130662502Y-76551383D01*
X130662496Y-76551386D01*
X130541462Y-76629171D01*
X130541451Y-76629179D01*
X130488659Y-76674923D01*
X130394433Y-76783664D01*
X130394430Y-76783668D01*
X130334664Y-76914534D01*
X130319437Y-76966392D01*
X130314977Y-76981580D01*
X130314976Y-76981584D01*
X130294500Y-77124000D01*
X130294500Y-79176000D01*
X121702414Y-79176000D01*
X121748358Y-78994571D01*
X121768893Y-78746750D01*
X121752734Y-78551744D01*
X121748359Y-78498937D01*
X121748357Y-78498925D01*
X121687313Y-78257868D01*
X121587423Y-78030143D01*
X121451413Y-77821963D01*
X121361519Y-77724311D01*
X121330597Y-77661657D01*
X121328749Y-77640329D01*
X121328749Y-76828879D01*
X121328749Y-76828878D01*
X121322341Y-76769267D01*
X121310969Y-76738778D01*
X121272047Y-76634421D01*
X121272043Y-76634414D01*
X121185797Y-76519205D01*
X121168228Y-76506053D01*
X121151397Y-76493452D01*
X121115946Y-76466914D01*
X121074076Y-76410980D01*
X121069092Y-76341288D01*
X121072324Y-76329341D01*
X121085674Y-76288256D01*
X121105460Y-76100000D01*
X121094682Y-75997458D01*
X121107251Y-75928732D01*
X121154983Y-75877708D01*
X121218003Y-75860500D01*
X127821890Y-75860500D01*
X127821892Y-75860500D01*
X127949186Y-75826392D01*
X128063314Y-75760500D01*
X128156500Y-75667314D01*
X128222392Y-75553186D01*
X128256500Y-75425892D01*
X128256500Y-47354108D01*
X128222392Y-47226814D01*
X128156500Y-47112686D01*
X128063314Y-47019500D01*
X127960538Y-46960162D01*
X127912323Y-46909594D01*
X127899101Y-46840987D01*
X127899798Y-46835152D01*
X127905500Y-46795500D01*
X127905500Y-33880000D01*
X127893947Y-33772544D01*
X127882741Y-33721033D01*
X127882637Y-33720722D01*
X127848616Y-33618502D01*
X127848613Y-33618496D01*
X127833998Y-33595755D01*
X127814313Y-33528716D01*
X127833997Y-33461676D01*
X127886801Y-33415921D01*
X127916694Y-33407336D01*
X127916583Y-33406774D01*
X127920557Y-33405983D01*
X127920556Y-33405983D01*
X127920565Y-33405982D01*
X128161207Y-33341502D01*
X128391373Y-33246164D01*
X128607127Y-33121599D01*
X128804776Y-32969938D01*
X128980938Y-32793776D01*
X129132599Y-32596127D01*
X129257164Y-32380373D01*
X129352502Y-32150207D01*
X129416982Y-31909565D01*
X129449500Y-31662565D01*
X129449500Y-30313435D01*
X129416982Y-30066435D01*
X129352502Y-29825793D01*
X129257164Y-29595627D01*
X129132599Y-29379873D01*
X128980938Y-29182224D01*
X128980933Y-29182218D01*
X128804781Y-29006066D01*
X128804774Y-29006060D01*
X128607126Y-28854400D01*
X128391376Y-28729837D01*
X128391361Y-28729830D01*
X128161207Y-28634498D01*
X127920561Y-28570017D01*
X127673575Y-28537501D01*
X127673570Y-28537500D01*
X127673565Y-28537500D01*
X127424435Y-28537500D01*
X127424429Y-28537500D01*
X127424424Y-28537501D01*
X127177438Y-28570017D01*
X126936792Y-28634498D01*
X126706638Y-28729830D01*
X126706623Y-28729837D01*
X126490873Y-28854400D01*
X126293225Y-29006060D01*
X126293218Y-29006066D01*
X126117066Y-29182218D01*
X126117060Y-29182225D01*
X125965400Y-29379873D01*
X125840837Y-29595623D01*
X125840830Y-29595638D01*
X125745498Y-29825792D01*
X125681017Y-30066438D01*
X125648501Y-30313424D01*
X125648500Y-30313441D01*
X125648500Y-31662558D01*
X125648501Y-31662575D01*
X125681017Y-31909561D01*
X125745498Y-32150207D01*
X125840830Y-32380361D01*
X125840837Y-32380376D01*
X125965400Y-32596126D01*
X126117060Y-32793774D01*
X126117066Y-32793781D01*
X126293218Y-32969933D01*
X126293225Y-32969939D01*
X126369053Y-33028124D01*
X126410256Y-33084552D01*
X126414411Y-33154298D01*
X126380199Y-33215218D01*
X126318482Y-33247971D01*
X126293567Y-33250500D01*
X122329500Y-33250500D01*
X122329491Y-33250500D01*
X122329490Y-33250501D01*
X122222049Y-33262052D01*
X122222037Y-33262054D01*
X122170527Y-33273260D01*
X122067999Y-33307385D01*
X122022797Y-33336434D01*
X121955757Y-33356117D01*
X121904247Y-33344911D01*
X121785465Y-33290664D01*
X121785460Y-33290662D01*
X121785459Y-33290662D01*
X121718420Y-33270977D01*
X121718422Y-33270977D01*
X121718417Y-33270976D01*
X121656347Y-33262052D01*
X121576000Y-33250500D01*
X116424000Y-33250500D01*
X116423991Y-33250500D01*
X116423990Y-33250501D01*
X116316549Y-33262052D01*
X116316537Y-33262054D01*
X116265027Y-33273260D01*
X116162499Y-33307385D01*
X116117297Y-33336434D01*
X116050257Y-33356117D01*
X115998747Y-33344911D01*
X115879965Y-33290664D01*
X115879960Y-33290662D01*
X115879959Y-33290662D01*
X115812920Y-33270977D01*
X115812922Y-33270977D01*
X115812917Y-33270976D01*
X115750847Y-33262052D01*
X115670500Y-33250500D01*
X115670498Y-33250500D01*
X111704433Y-33250500D01*
X111637394Y-33230815D01*
X111591639Y-33178011D01*
X111581695Y-33108853D01*
X111610720Y-33045297D01*
X111628947Y-33028124D01*
X111666327Y-32999440D01*
X111704776Y-32969938D01*
X111880938Y-32793776D01*
X112032599Y-32596127D01*
X112157164Y-32380373D01*
X112252502Y-32150207D01*
X112316982Y-31909565D01*
X112349500Y-31662565D01*
X112349500Y-30313435D01*
X112316982Y-30066435D01*
X112252502Y-29825793D01*
X112157164Y-29595627D01*
X112032599Y-29379873D01*
X111880938Y-29182224D01*
X111880933Y-29182218D01*
X111704781Y-29006066D01*
X111704774Y-29006060D01*
X111507126Y-28854400D01*
X111291376Y-28729837D01*
X111291361Y-28729830D01*
X111061207Y-28634498D01*
X110820561Y-28570017D01*
X110573575Y-28537501D01*
X110573570Y-28537500D01*
X110573565Y-28537500D01*
X110324435Y-28537500D01*
X110324429Y-28537500D01*
X110324424Y-28537501D01*
X110077438Y-28570017D01*
X109836792Y-28634498D01*
X109606638Y-28729830D01*
X109606623Y-28729837D01*
X109390873Y-28854400D01*
X109193225Y-29006060D01*
X109193218Y-29006066D01*
X109017066Y-29182218D01*
X109017060Y-29182225D01*
X108865400Y-29379873D01*
X108740837Y-29595623D01*
X108740830Y-29595638D01*
X108645498Y-29825792D01*
X108581017Y-30066438D01*
X108548501Y-30313424D01*
X108548500Y-30313441D01*
X108548500Y-31662558D01*
X107351500Y-31662558D01*
X107351500Y-30313435D01*
X107318982Y-30066435D01*
X107254502Y-29825793D01*
X107159164Y-29595627D01*
X107034599Y-29379873D01*
X106882938Y-29182224D01*
X106882933Y-29182218D01*
X106706781Y-29006066D01*
X106706774Y-29006060D01*
X106509126Y-28854400D01*
X106293376Y-28729837D01*
X106293361Y-28729830D01*
X106063207Y-28634498D01*
X105822561Y-28570017D01*
X105575575Y-28537501D01*
X105575570Y-28537500D01*
X105575565Y-28537500D01*
X105326435Y-28537500D01*
X105326429Y-28537500D01*
X105326424Y-28537501D01*
X105079438Y-28570017D01*
X104838792Y-28634498D01*
X104608638Y-28729830D01*
X104608623Y-28729837D01*
X104392873Y-28854400D01*
X104195225Y-29006060D01*
X104195218Y-29006066D01*
X104019066Y-29182218D01*
X104019060Y-29182225D01*
X103867400Y-29379873D01*
X103742837Y-29595623D01*
X103742830Y-29595638D01*
X103647498Y-29825792D01*
X103583017Y-30066438D01*
X103550501Y-30313424D01*
X103550500Y-30313441D01*
X103550500Y-31662558D01*
X103550501Y-31662575D01*
X103583017Y-31909561D01*
X103647498Y-32150207D01*
X103742830Y-32380361D01*
X103742837Y-32380376D01*
X103867400Y-32596126D01*
X104019060Y-32793774D01*
X104019066Y-32793781D01*
X104195218Y-32969933D01*
X104195225Y-32969939D01*
X104271053Y-33028124D01*
X104312256Y-33084552D01*
X104316411Y-33154298D01*
X104282199Y-33215218D01*
X104220482Y-33247971D01*
X104195567Y-33250500D01*
X100329500Y-33250500D01*
X100329491Y-33250500D01*
X100329490Y-33250501D01*
X100222049Y-33262052D01*
X100222037Y-33262054D01*
X100170527Y-33273260D01*
X100067999Y-33307385D01*
X100022797Y-33336434D01*
X99955757Y-33356117D01*
X99904247Y-33344911D01*
X99785465Y-33290664D01*
X99785460Y-33290662D01*
X99785459Y-33290662D01*
X99718420Y-33270977D01*
X99718422Y-33270977D01*
X99718417Y-33270976D01*
X99656347Y-33262052D01*
X99576000Y-33250500D01*
X94424000Y-33250500D01*
X94423991Y-33250500D01*
X94423990Y-33250501D01*
X94316549Y-33262052D01*
X94316537Y-33262054D01*
X94265027Y-33273260D01*
X94162502Y-33307383D01*
X94162498Y-33307385D01*
X94110008Y-33341119D01*
X94042968Y-33360803D01*
X93993481Y-33350499D01*
X93869402Y-33296490D01*
X93869399Y-33296489D01*
X93836300Y-33287409D01*
X93805248Y-33278890D01*
X93803254Y-33278284D01*
X93802024Y-33278005D01*
X93659265Y-33260075D01*
X93659264Y-33260075D01*
X93551839Y-33261993D01*
X89499332Y-33334359D01*
X89431952Y-33315875D01*
X89385261Y-33263896D01*
X89374085Y-33194926D01*
X89401970Y-33130862D01*
X89421628Y-33112006D01*
X89606776Y-32969938D01*
X89782938Y-32793776D01*
X89934599Y-32596127D01*
X90059164Y-32380373D01*
X90154502Y-32150207D01*
X90218982Y-31909565D01*
X90251500Y-31662565D01*
X90251500Y-30313435D01*
X90218982Y-30066435D01*
X90154502Y-29825793D01*
X90059164Y-29595627D01*
X89934599Y-29379873D01*
X89782938Y-29182224D01*
X89782933Y-29182218D01*
X89606781Y-29006066D01*
X89606774Y-29006060D01*
X89409126Y-28854400D01*
X89193376Y-28729837D01*
X89193361Y-28729830D01*
X88963207Y-28634498D01*
X88722561Y-28570017D01*
X88475575Y-28537501D01*
X88475570Y-28537500D01*
X88475565Y-28537500D01*
X88226435Y-28537500D01*
X88226429Y-28537500D01*
X88226424Y-28537501D01*
X87979438Y-28570017D01*
X87738792Y-28634498D01*
X87508638Y-28729830D01*
X87508623Y-28729837D01*
X87292873Y-28854400D01*
X87095225Y-29006060D01*
X87095218Y-29006066D01*
X86919066Y-29182218D01*
X86919060Y-29182225D01*
X86767400Y-29379873D01*
X86642837Y-29595623D01*
X86642830Y-29595638D01*
X86547498Y-29825792D01*
X86483017Y-30066438D01*
X86450501Y-30313424D01*
X86450500Y-30313441D01*
X86450500Y-31662558D01*
X86450501Y-31662575D01*
X86483017Y-31909561D01*
X86547498Y-32150207D01*
X86642830Y-32380361D01*
X86642837Y-32380376D01*
X86767400Y-32596126D01*
X86919060Y-32793774D01*
X86919066Y-32793781D01*
X87095218Y-32969933D01*
X87095225Y-32969939D01*
X87292873Y-33121599D01*
X87508623Y-33246162D01*
X87508638Y-33246169D01*
X87574040Y-33273259D01*
X87738793Y-33341502D01*
X87979435Y-33405982D01*
X88102806Y-33422224D01*
X88124097Y-33425027D01*
X88187994Y-33453293D01*
X88226465Y-33511618D01*
X88227296Y-33581483D01*
X88201626Y-33629168D01*
X88194433Y-33637469D01*
X88194430Y-33637473D01*
X88134664Y-33768339D01*
X88114976Y-33835387D01*
X88101325Y-33930333D01*
X88094500Y-33977805D01*
X88094500Y-46795500D01*
X88094501Y-46795505D01*
X88094501Y-46795509D01*
X88106052Y-46902950D01*
X88106054Y-46902965D01*
X88107238Y-46908407D01*
X88102247Y-46978098D01*
X88073751Y-47022433D01*
X87983503Y-47112682D01*
X87983500Y-47112686D01*
X87917608Y-47226812D01*
X87883500Y-47354108D01*
X87883500Y-74670500D01*
X87863815Y-74737539D01*
X87811011Y-74783294D01*
X87759500Y-74794500D01*
X86304500Y-74794500D01*
X86237461Y-74774815D01*
X86191706Y-74722011D01*
X86180500Y-74670500D01*
X86180500Y-25624500D01*
X86200185Y-25557461D01*
X86252989Y-25511706D01*
X86304500Y-25500500D01*
X152676000Y-25500500D01*
X152743039Y-25520185D01*
G37*
%TD.AperFunction*%
%TD*%
%TA.AperFunction,Conductor*%
%TO.N,/12v3*%
G36*
X132300000Y-79300000D02*
G01*
X130924000Y-79300000D01*
X130856961Y-79280315D01*
X130811206Y-79227511D01*
X130800000Y-79176000D01*
X130800000Y-77124000D01*
X130819685Y-77056961D01*
X130872489Y-77011206D01*
X130924000Y-77000000D01*
X132300000Y-77000000D01*
X132300000Y-79300000D01*
G37*
%TD.AperFunction*%
%TD*%
%TA.AperFunction,Conductor*%
%TO.N,/12v1*%
G36*
X87826539Y-75319685D02*
G01*
X87872294Y-75372489D01*
X87882165Y-75417867D01*
X87882439Y-75417832D01*
X87882869Y-75421102D01*
X87883500Y-75424000D01*
X87883500Y-75425891D01*
X87917608Y-75553187D01*
X87950554Y-75610250D01*
X87983500Y-75667314D01*
X88076686Y-75760500D01*
X88190814Y-75826392D01*
X88318108Y-75860500D01*
X93875500Y-75860500D01*
X93942539Y-75880185D01*
X93988294Y-75932989D01*
X93999500Y-75984500D01*
X93999500Y-76565891D01*
X94033608Y-76693187D01*
X94066554Y-76750250D01*
X94099500Y-76807314D01*
X94099502Y-76807316D01*
X94163681Y-76871495D01*
X94197166Y-76932818D01*
X94200000Y-76959176D01*
X94200000Y-88676000D01*
X94180315Y-88743039D01*
X94127511Y-88788794D01*
X94076000Y-88800000D01*
X86304500Y-88800000D01*
X86237461Y-88780315D01*
X86191706Y-88727511D01*
X86180500Y-88676000D01*
X86180500Y-75424000D01*
X86200185Y-75356961D01*
X86252989Y-75311206D01*
X86304500Y-75300000D01*
X87759500Y-75300000D01*
X87826539Y-75319685D01*
G37*
%TD.AperFunction*%
%TD*%
%TA.AperFunction,Conductor*%
%TO.N,/12v2*%
G36*
X110005203Y-75689463D02*
G01*
X110011681Y-75695495D01*
X110076686Y-75760500D01*
X110190814Y-75826392D01*
X110318108Y-75860500D01*
X115875500Y-75860500D01*
X115942539Y-75880185D01*
X115988294Y-75932989D01*
X115999500Y-75984500D01*
X115999500Y-76565891D01*
X116033608Y-76693187D01*
X116037253Y-76699500D01*
X116099500Y-76807314D01*
X116192686Y-76900500D01*
X116238000Y-76926662D01*
X116286214Y-76977226D01*
X116300000Y-77034048D01*
X116300000Y-80600000D01*
X122771194Y-80600000D01*
X122838233Y-80619685D01*
X122883988Y-80672489D01*
X122894484Y-80710746D01*
X122899159Y-80754233D01*
X122949452Y-80889078D01*
X122949456Y-80889085D01*
X123035702Y-81004294D01*
X123035705Y-81004297D01*
X123150914Y-81090543D01*
X123150921Y-81090547D01*
X123285767Y-81140841D01*
X123285766Y-81140841D01*
X123292694Y-81141585D01*
X123345377Y-81147250D01*
X124676002Y-81147249D01*
X124743039Y-81166934D01*
X124788794Y-81219737D01*
X124800000Y-81271249D01*
X124800000Y-89150336D01*
X124792182Y-89193669D01*
X124760908Y-89277517D01*
X124754501Y-89337116D01*
X124754500Y-89337135D01*
X124754500Y-94182870D01*
X124754501Y-94182876D01*
X124760908Y-94242483D01*
X124792182Y-94326330D01*
X124800000Y-94369663D01*
X124800000Y-95176000D01*
X124780315Y-95243039D01*
X124727511Y-95288794D01*
X124676000Y-95300000D01*
X119524000Y-95300000D01*
X119456961Y-95280315D01*
X119411206Y-95227511D01*
X119400000Y-95176000D01*
X119400000Y-92551756D01*
X119405209Y-92516193D01*
X119432732Y-92424260D01*
X119490897Y-92094391D01*
X119510373Y-91760000D01*
X119490897Y-91425609D01*
X119432732Y-91095740D01*
X119405208Y-91003806D01*
X119400000Y-90968243D01*
X119400000Y-87300000D01*
X109859878Y-81536176D01*
X109812677Y-81484660D01*
X109800000Y-81430042D01*
X109800000Y-75783176D01*
X109819685Y-75716137D01*
X109872489Y-75670382D01*
X109941647Y-75660438D01*
X110005203Y-75689463D01*
G37*
%TD.AperFunction*%
%TD*%
%TA.AperFunction,Conductor*%
%TO.N,/12v3*%
G36*
X137343039Y-75880185D02*
G01*
X137388794Y-75932989D01*
X137400000Y-75984500D01*
X137400000Y-84276000D01*
X137380315Y-84343039D01*
X137327511Y-84388794D01*
X137276000Y-84400000D01*
X132424000Y-84400000D01*
X132356961Y-84380315D01*
X132311206Y-84327511D01*
X132300000Y-84276000D01*
X132300000Y-79300000D01*
X132300000Y-75984500D01*
X132319685Y-75917461D01*
X132372489Y-75871706D01*
X132424000Y-75860500D01*
X137276000Y-75860500D01*
X137343039Y-75880185D01*
G37*
%TD.AperFunction*%
%TD*%
M02*
