%TF.GenerationSoftware,KiCad,Pcbnew,8.0.1*%
%TF.CreationDate,2024-04-06T13:43:38-04:00*%
%TF.ProjectId,template-card with ESCs,74656d70-6c61-4746-952d-636172642077,rev?*%
%TF.SameCoordinates,Original*%
%TF.FileFunction,Legend,Top*%
%TF.FilePolarity,Positive*%
%FSLAX46Y46*%
G04 Gerber Fmt 4.6, Leading zero omitted, Abs format (unit mm)*
G04 Created by KiCad (PCBNEW 8.0.1) date 2024-04-06 13:43:38*
%MOMM*%
%LPD*%
G01*
G04 APERTURE LIST*
%ADD10C,0.150000*%
%ADD11C,0.100000*%
%ADD12C,0.120000*%
G04 APERTURE END LIST*
D10*
X188249160Y-91262200D02*
X188392017Y-91309819D01*
X188392017Y-91309819D02*
X188630112Y-91309819D01*
X188630112Y-91309819D02*
X188725350Y-91262200D01*
X188725350Y-91262200D02*
X188772969Y-91214580D01*
X188772969Y-91214580D02*
X188820588Y-91119342D01*
X188820588Y-91119342D02*
X188820588Y-91024104D01*
X188820588Y-91024104D02*
X188772969Y-90928866D01*
X188772969Y-90928866D02*
X188725350Y-90881247D01*
X188725350Y-90881247D02*
X188630112Y-90833628D01*
X188630112Y-90833628D02*
X188439636Y-90786009D01*
X188439636Y-90786009D02*
X188344398Y-90738390D01*
X188344398Y-90738390D02*
X188296779Y-90690771D01*
X188296779Y-90690771D02*
X188249160Y-90595533D01*
X188249160Y-90595533D02*
X188249160Y-90500295D01*
X188249160Y-90500295D02*
X188296779Y-90405057D01*
X188296779Y-90405057D02*
X188344398Y-90357438D01*
X188344398Y-90357438D02*
X188439636Y-90309819D01*
X188439636Y-90309819D02*
X188677731Y-90309819D01*
X188677731Y-90309819D02*
X188820588Y-90357438D01*
X189249160Y-91309819D02*
X189249160Y-90309819D01*
X189249160Y-90309819D02*
X189487255Y-90309819D01*
X189487255Y-90309819D02*
X189630112Y-90357438D01*
X189630112Y-90357438D02*
X189725350Y-90452676D01*
X189725350Y-90452676D02*
X189772969Y-90547914D01*
X189772969Y-90547914D02*
X189820588Y-90738390D01*
X189820588Y-90738390D02*
X189820588Y-90881247D01*
X189820588Y-90881247D02*
X189772969Y-91071723D01*
X189772969Y-91071723D02*
X189725350Y-91166961D01*
X189725350Y-91166961D02*
X189630112Y-91262200D01*
X189630112Y-91262200D02*
X189487255Y-91309819D01*
X189487255Y-91309819D02*
X189249160Y-91309819D01*
X190201541Y-91024104D02*
X190677731Y-91024104D01*
X190106303Y-91309819D02*
X190439636Y-90309819D01*
X190439636Y-90309819D02*
X190772969Y-91309819D01*
X191630112Y-91309819D02*
X191058684Y-91309819D01*
X191344398Y-91309819D02*
X191344398Y-90309819D01*
X191344398Y-90309819D02*
X191249160Y-90452676D01*
X191249160Y-90452676D02*
X191153922Y-90547914D01*
X191153922Y-90547914D02*
X191058684Y-90595533D01*
X178708207Y-85594819D02*
X178374874Y-85118628D01*
X178136779Y-85594819D02*
X178136779Y-84594819D01*
X178136779Y-84594819D02*
X178517731Y-84594819D01*
X178517731Y-84594819D02*
X178612969Y-84642438D01*
X178612969Y-84642438D02*
X178660588Y-84690057D01*
X178660588Y-84690057D02*
X178708207Y-84785295D01*
X178708207Y-84785295D02*
X178708207Y-84928152D01*
X178708207Y-84928152D02*
X178660588Y-85023390D01*
X178660588Y-85023390D02*
X178612969Y-85071009D01*
X178612969Y-85071009D02*
X178517731Y-85118628D01*
X178517731Y-85118628D02*
X178136779Y-85118628D01*
X179041541Y-84594819D02*
X179708207Y-85594819D01*
X179708207Y-84594819D02*
X179041541Y-85594819D01*
X173548922Y-94754819D02*
X174120350Y-94754819D01*
X173834636Y-95754819D02*
X173834636Y-94754819D01*
X174358446Y-94754819D02*
X175025112Y-95754819D01*
X175025112Y-94754819D02*
X174358446Y-95754819D01*
X184439160Y-85547200D02*
X184582017Y-85594819D01*
X184582017Y-85594819D02*
X184820112Y-85594819D01*
X184820112Y-85594819D02*
X184915350Y-85547200D01*
X184915350Y-85547200D02*
X184962969Y-85499580D01*
X184962969Y-85499580D02*
X185010588Y-85404342D01*
X185010588Y-85404342D02*
X185010588Y-85309104D01*
X185010588Y-85309104D02*
X184962969Y-85213866D01*
X184962969Y-85213866D02*
X184915350Y-85166247D01*
X184915350Y-85166247D02*
X184820112Y-85118628D01*
X184820112Y-85118628D02*
X184629636Y-85071009D01*
X184629636Y-85071009D02*
X184534398Y-85023390D01*
X184534398Y-85023390D02*
X184486779Y-84975771D01*
X184486779Y-84975771D02*
X184439160Y-84880533D01*
X184439160Y-84880533D02*
X184439160Y-84785295D01*
X184439160Y-84785295D02*
X184486779Y-84690057D01*
X184486779Y-84690057D02*
X184534398Y-84642438D01*
X184534398Y-84642438D02*
X184629636Y-84594819D01*
X184629636Y-84594819D02*
X184867731Y-84594819D01*
X184867731Y-84594819D02*
X185010588Y-84642438D01*
X186010588Y-85499580D02*
X185962969Y-85547200D01*
X185962969Y-85547200D02*
X185820112Y-85594819D01*
X185820112Y-85594819D02*
X185724874Y-85594819D01*
X185724874Y-85594819D02*
X185582017Y-85547200D01*
X185582017Y-85547200D02*
X185486779Y-85451961D01*
X185486779Y-85451961D02*
X185439160Y-85356723D01*
X185439160Y-85356723D02*
X185391541Y-85166247D01*
X185391541Y-85166247D02*
X185391541Y-85023390D01*
X185391541Y-85023390D02*
X185439160Y-84832914D01*
X185439160Y-84832914D02*
X185486779Y-84737676D01*
X185486779Y-84737676D02*
X185582017Y-84642438D01*
X185582017Y-84642438D02*
X185724874Y-84594819D01*
X185724874Y-84594819D02*
X185820112Y-84594819D01*
X185820112Y-84594819D02*
X185962969Y-84642438D01*
X185962969Y-84642438D02*
X186010588Y-84690057D01*
X186915350Y-85594819D02*
X186439160Y-85594819D01*
X186439160Y-85594819D02*
X186439160Y-84594819D01*
X188868207Y-85594819D02*
X188534874Y-85118628D01*
X188296779Y-85594819D02*
X188296779Y-84594819D01*
X188296779Y-84594819D02*
X188677731Y-84594819D01*
X188677731Y-84594819D02*
X188772969Y-84642438D01*
X188772969Y-84642438D02*
X188820588Y-84690057D01*
X188820588Y-84690057D02*
X188868207Y-84785295D01*
X188868207Y-84785295D02*
X188868207Y-84928152D01*
X188868207Y-84928152D02*
X188820588Y-85023390D01*
X188820588Y-85023390D02*
X188772969Y-85071009D01*
X188772969Y-85071009D02*
X188677731Y-85118628D01*
X188677731Y-85118628D02*
X188296779Y-85118628D01*
X189201541Y-84594819D02*
X189868207Y-85594819D01*
X189868207Y-84594819D02*
X189201541Y-85594819D01*
X183708922Y-94754819D02*
X184280350Y-94754819D01*
X183994636Y-95754819D02*
X183994636Y-94754819D01*
X184518446Y-94754819D02*
X185185112Y-95754819D01*
X185185112Y-94754819D02*
X184518446Y-95754819D01*
X192059160Y-96342200D02*
X192202017Y-96389819D01*
X192202017Y-96389819D02*
X192440112Y-96389819D01*
X192440112Y-96389819D02*
X192535350Y-96342200D01*
X192535350Y-96342200D02*
X192582969Y-96294580D01*
X192582969Y-96294580D02*
X192630588Y-96199342D01*
X192630588Y-96199342D02*
X192630588Y-96104104D01*
X192630588Y-96104104D02*
X192582969Y-96008866D01*
X192582969Y-96008866D02*
X192535350Y-95961247D01*
X192535350Y-95961247D02*
X192440112Y-95913628D01*
X192440112Y-95913628D02*
X192249636Y-95866009D01*
X192249636Y-95866009D02*
X192154398Y-95818390D01*
X192154398Y-95818390D02*
X192106779Y-95770771D01*
X192106779Y-95770771D02*
X192059160Y-95675533D01*
X192059160Y-95675533D02*
X192059160Y-95580295D01*
X192059160Y-95580295D02*
X192106779Y-95485057D01*
X192106779Y-95485057D02*
X192154398Y-95437438D01*
X192154398Y-95437438D02*
X192249636Y-95389819D01*
X192249636Y-95389819D02*
X192487731Y-95389819D01*
X192487731Y-95389819D02*
X192630588Y-95437438D01*
X193630588Y-96294580D02*
X193582969Y-96342200D01*
X193582969Y-96342200D02*
X193440112Y-96389819D01*
X193440112Y-96389819D02*
X193344874Y-96389819D01*
X193344874Y-96389819D02*
X193202017Y-96342200D01*
X193202017Y-96342200D02*
X193106779Y-96246961D01*
X193106779Y-96246961D02*
X193059160Y-96151723D01*
X193059160Y-96151723D02*
X193011541Y-95961247D01*
X193011541Y-95961247D02*
X193011541Y-95818390D01*
X193011541Y-95818390D02*
X193059160Y-95627914D01*
X193059160Y-95627914D02*
X193106779Y-95532676D01*
X193106779Y-95532676D02*
X193202017Y-95437438D01*
X193202017Y-95437438D02*
X193344874Y-95389819D01*
X193344874Y-95389819D02*
X193440112Y-95389819D01*
X193440112Y-95389819D02*
X193582969Y-95437438D01*
X193582969Y-95437438D02*
X193630588Y-95485057D01*
X194535350Y-96389819D02*
X194059160Y-96389819D01*
X194059160Y-96389819D02*
X194059160Y-95389819D01*
X195392493Y-96389819D02*
X194821065Y-96389819D01*
X195106779Y-96389819D02*
X195106779Y-95389819D01*
X195106779Y-95389819D02*
X195011541Y-95532676D01*
X195011541Y-95532676D02*
X194916303Y-95627914D01*
X194916303Y-95627914D02*
X194821065Y-95675533D01*
X175787255Y-97294819D02*
X175882493Y-97294819D01*
X175882493Y-97294819D02*
X175977731Y-97342438D01*
X175977731Y-97342438D02*
X176025350Y-97390057D01*
X176025350Y-97390057D02*
X176072969Y-97485295D01*
X176072969Y-97485295D02*
X176120588Y-97675771D01*
X176120588Y-97675771D02*
X176120588Y-97913866D01*
X176120588Y-97913866D02*
X176072969Y-98104342D01*
X176072969Y-98104342D02*
X176025350Y-98199580D01*
X176025350Y-98199580D02*
X175977731Y-98247200D01*
X175977731Y-98247200D02*
X175882493Y-98294819D01*
X175882493Y-98294819D02*
X175787255Y-98294819D01*
X175787255Y-98294819D02*
X175692017Y-98247200D01*
X175692017Y-98247200D02*
X175644398Y-98199580D01*
X175644398Y-98199580D02*
X175596779Y-98104342D01*
X175596779Y-98104342D02*
X175549160Y-97913866D01*
X175549160Y-97913866D02*
X175549160Y-97675771D01*
X175549160Y-97675771D02*
X175596779Y-97485295D01*
X175596779Y-97485295D02*
X175644398Y-97390057D01*
X175644398Y-97390057D02*
X175692017Y-97342438D01*
X175692017Y-97342438D02*
X175787255Y-97294819D01*
X190789160Y-97390057D02*
X190836779Y-97342438D01*
X190836779Y-97342438D02*
X190932017Y-97294819D01*
X190932017Y-97294819D02*
X191170112Y-97294819D01*
X191170112Y-97294819D02*
X191265350Y-97342438D01*
X191265350Y-97342438D02*
X191312969Y-97390057D01*
X191312969Y-97390057D02*
X191360588Y-97485295D01*
X191360588Y-97485295D02*
X191360588Y-97580533D01*
X191360588Y-97580533D02*
X191312969Y-97723390D01*
X191312969Y-97723390D02*
X190741541Y-98294819D01*
X190741541Y-98294819D02*
X191360588Y-98294819D01*
X179359160Y-95707200D02*
X179502017Y-95754819D01*
X179502017Y-95754819D02*
X179740112Y-95754819D01*
X179740112Y-95754819D02*
X179835350Y-95707200D01*
X179835350Y-95707200D02*
X179882969Y-95659580D01*
X179882969Y-95659580D02*
X179930588Y-95564342D01*
X179930588Y-95564342D02*
X179930588Y-95469104D01*
X179930588Y-95469104D02*
X179882969Y-95373866D01*
X179882969Y-95373866D02*
X179835350Y-95326247D01*
X179835350Y-95326247D02*
X179740112Y-95278628D01*
X179740112Y-95278628D02*
X179549636Y-95231009D01*
X179549636Y-95231009D02*
X179454398Y-95183390D01*
X179454398Y-95183390D02*
X179406779Y-95135771D01*
X179406779Y-95135771D02*
X179359160Y-95040533D01*
X179359160Y-95040533D02*
X179359160Y-94945295D01*
X179359160Y-94945295D02*
X179406779Y-94850057D01*
X179406779Y-94850057D02*
X179454398Y-94802438D01*
X179454398Y-94802438D02*
X179549636Y-94754819D01*
X179549636Y-94754819D02*
X179787731Y-94754819D01*
X179787731Y-94754819D02*
X179930588Y-94802438D01*
X180359160Y-95754819D02*
X180359160Y-94754819D01*
X180359160Y-94754819D02*
X180597255Y-94754819D01*
X180597255Y-94754819D02*
X180740112Y-94802438D01*
X180740112Y-94802438D02*
X180835350Y-94897676D01*
X180835350Y-94897676D02*
X180882969Y-94992914D01*
X180882969Y-94992914D02*
X180930588Y-95183390D01*
X180930588Y-95183390D02*
X180930588Y-95326247D01*
X180930588Y-95326247D02*
X180882969Y-95516723D01*
X180882969Y-95516723D02*
X180835350Y-95611961D01*
X180835350Y-95611961D02*
X180740112Y-95707200D01*
X180740112Y-95707200D02*
X180597255Y-95754819D01*
X180597255Y-95754819D02*
X180359160Y-95754819D01*
X181311541Y-95469104D02*
X181787731Y-95469104D01*
X181216303Y-95754819D02*
X181549636Y-94754819D01*
X181549636Y-94754819D02*
X181882969Y-95754819D01*
X174279160Y-85547200D02*
X174422017Y-85594819D01*
X174422017Y-85594819D02*
X174660112Y-85594819D01*
X174660112Y-85594819D02*
X174755350Y-85547200D01*
X174755350Y-85547200D02*
X174802969Y-85499580D01*
X174802969Y-85499580D02*
X174850588Y-85404342D01*
X174850588Y-85404342D02*
X174850588Y-85309104D01*
X174850588Y-85309104D02*
X174802969Y-85213866D01*
X174802969Y-85213866D02*
X174755350Y-85166247D01*
X174755350Y-85166247D02*
X174660112Y-85118628D01*
X174660112Y-85118628D02*
X174469636Y-85071009D01*
X174469636Y-85071009D02*
X174374398Y-85023390D01*
X174374398Y-85023390D02*
X174326779Y-84975771D01*
X174326779Y-84975771D02*
X174279160Y-84880533D01*
X174279160Y-84880533D02*
X174279160Y-84785295D01*
X174279160Y-84785295D02*
X174326779Y-84690057D01*
X174326779Y-84690057D02*
X174374398Y-84642438D01*
X174374398Y-84642438D02*
X174469636Y-84594819D01*
X174469636Y-84594819D02*
X174707731Y-84594819D01*
X174707731Y-84594819D02*
X174850588Y-84642438D01*
X175850588Y-85499580D02*
X175802969Y-85547200D01*
X175802969Y-85547200D02*
X175660112Y-85594819D01*
X175660112Y-85594819D02*
X175564874Y-85594819D01*
X175564874Y-85594819D02*
X175422017Y-85547200D01*
X175422017Y-85547200D02*
X175326779Y-85451961D01*
X175326779Y-85451961D02*
X175279160Y-85356723D01*
X175279160Y-85356723D02*
X175231541Y-85166247D01*
X175231541Y-85166247D02*
X175231541Y-85023390D01*
X175231541Y-85023390D02*
X175279160Y-84832914D01*
X175279160Y-84832914D02*
X175326779Y-84737676D01*
X175326779Y-84737676D02*
X175422017Y-84642438D01*
X175422017Y-84642438D02*
X175564874Y-84594819D01*
X175564874Y-84594819D02*
X175660112Y-84594819D01*
X175660112Y-84594819D02*
X175802969Y-84642438D01*
X175802969Y-84642438D02*
X175850588Y-84690057D01*
X176755350Y-85594819D02*
X176279160Y-85594819D01*
X176279160Y-85594819D02*
X176279160Y-84594819D01*
X169199160Y-95707200D02*
X169342017Y-95754819D01*
X169342017Y-95754819D02*
X169580112Y-95754819D01*
X169580112Y-95754819D02*
X169675350Y-95707200D01*
X169675350Y-95707200D02*
X169722969Y-95659580D01*
X169722969Y-95659580D02*
X169770588Y-95564342D01*
X169770588Y-95564342D02*
X169770588Y-95469104D01*
X169770588Y-95469104D02*
X169722969Y-95373866D01*
X169722969Y-95373866D02*
X169675350Y-95326247D01*
X169675350Y-95326247D02*
X169580112Y-95278628D01*
X169580112Y-95278628D02*
X169389636Y-95231009D01*
X169389636Y-95231009D02*
X169294398Y-95183390D01*
X169294398Y-95183390D02*
X169246779Y-95135771D01*
X169246779Y-95135771D02*
X169199160Y-95040533D01*
X169199160Y-95040533D02*
X169199160Y-94945295D01*
X169199160Y-94945295D02*
X169246779Y-94850057D01*
X169246779Y-94850057D02*
X169294398Y-94802438D01*
X169294398Y-94802438D02*
X169389636Y-94754819D01*
X169389636Y-94754819D02*
X169627731Y-94754819D01*
X169627731Y-94754819D02*
X169770588Y-94802438D01*
X170199160Y-95754819D02*
X170199160Y-94754819D01*
X170199160Y-94754819D02*
X170437255Y-94754819D01*
X170437255Y-94754819D02*
X170580112Y-94802438D01*
X170580112Y-94802438D02*
X170675350Y-94897676D01*
X170675350Y-94897676D02*
X170722969Y-94992914D01*
X170722969Y-94992914D02*
X170770588Y-95183390D01*
X170770588Y-95183390D02*
X170770588Y-95326247D01*
X170770588Y-95326247D02*
X170722969Y-95516723D01*
X170722969Y-95516723D02*
X170675350Y-95611961D01*
X170675350Y-95611961D02*
X170580112Y-95707200D01*
X170580112Y-95707200D02*
X170437255Y-95754819D01*
X170437255Y-95754819D02*
X170199160Y-95754819D01*
X171151541Y-95469104D02*
X171627731Y-95469104D01*
X171056303Y-95754819D02*
X171389636Y-94754819D01*
X171389636Y-94754819D02*
X171722969Y-95754819D01*
X183740588Y-98294819D02*
X183169160Y-98294819D01*
X183454874Y-98294819D02*
X183454874Y-97294819D01*
X183454874Y-97294819D02*
X183359636Y-97437676D01*
X183359636Y-97437676D02*
X183264398Y-97532914D01*
X183264398Y-97532914D02*
X183169160Y-97580533D01*
X194653819Y-94178333D02*
X195368104Y-94178333D01*
X195368104Y-94178333D02*
X195510961Y-94225952D01*
X195510961Y-94225952D02*
X195606200Y-94321190D01*
X195606200Y-94321190D02*
X195653819Y-94464047D01*
X195653819Y-94464047D02*
X195653819Y-94559285D01*
X195653819Y-93702142D02*
X194653819Y-93702142D01*
X194653819Y-93702142D02*
X194653819Y-93321190D01*
X194653819Y-93321190D02*
X194701438Y-93225952D01*
X194701438Y-93225952D02*
X194749057Y-93178333D01*
X194749057Y-93178333D02*
X194844295Y-93130714D01*
X194844295Y-93130714D02*
X194987152Y-93130714D01*
X194987152Y-93130714D02*
X195082390Y-93178333D01*
X195082390Y-93178333D02*
X195130009Y-93225952D01*
X195130009Y-93225952D02*
X195177628Y-93321190D01*
X195177628Y-93321190D02*
X195177628Y-93702142D01*
X194749057Y-92749761D02*
X194701438Y-92702142D01*
X194701438Y-92702142D02*
X194653819Y-92606904D01*
X194653819Y-92606904D02*
X194653819Y-92368809D01*
X194653819Y-92368809D02*
X194701438Y-92273571D01*
X194701438Y-92273571D02*
X194749057Y-92225952D01*
X194749057Y-92225952D02*
X194844295Y-92178333D01*
X194844295Y-92178333D02*
X194939533Y-92178333D01*
X194939533Y-92178333D02*
X195082390Y-92225952D01*
X195082390Y-92225952D02*
X195653819Y-92797380D01*
X195653819Y-92797380D02*
X195653819Y-92178333D01*
D11*
X96980333Y-26704580D02*
X96980333Y-25990295D01*
X96980333Y-25990295D02*
X97027952Y-25847438D01*
X97027952Y-25847438D02*
X97123190Y-25752200D01*
X97123190Y-25752200D02*
X97266047Y-25704580D01*
X97266047Y-25704580D02*
X97361285Y-25704580D01*
X96599380Y-26704580D02*
X95932714Y-26704580D01*
X95932714Y-26704580D02*
X96361285Y-25704580D01*
D10*
X166806666Y-92164819D02*
X166806666Y-92879104D01*
X166806666Y-92879104D02*
X166759047Y-93021961D01*
X166759047Y-93021961D02*
X166663809Y-93117200D01*
X166663809Y-93117200D02*
X166520952Y-93164819D01*
X166520952Y-93164819D02*
X166425714Y-93164819D01*
X167282857Y-93164819D02*
X167282857Y-92164819D01*
X167282857Y-92164819D02*
X167663809Y-92164819D01*
X167663809Y-92164819D02*
X167759047Y-92212438D01*
X167759047Y-92212438D02*
X167806666Y-92260057D01*
X167806666Y-92260057D02*
X167854285Y-92355295D01*
X167854285Y-92355295D02*
X167854285Y-92498152D01*
X167854285Y-92498152D02*
X167806666Y-92593390D01*
X167806666Y-92593390D02*
X167759047Y-92641009D01*
X167759047Y-92641009D02*
X167663809Y-92688628D01*
X167663809Y-92688628D02*
X167282857Y-92688628D01*
X168759047Y-92164819D02*
X168282857Y-92164819D01*
X168282857Y-92164819D02*
X168235238Y-92641009D01*
X168235238Y-92641009D02*
X168282857Y-92593390D01*
X168282857Y-92593390D02*
X168378095Y-92545771D01*
X168378095Y-92545771D02*
X168616190Y-92545771D01*
X168616190Y-92545771D02*
X168711428Y-92593390D01*
X168711428Y-92593390D02*
X168759047Y-92641009D01*
X168759047Y-92641009D02*
X168806666Y-92736247D01*
X168806666Y-92736247D02*
X168806666Y-92974342D01*
X168806666Y-92974342D02*
X168759047Y-93069580D01*
X168759047Y-93069580D02*
X168711428Y-93117200D01*
X168711428Y-93117200D02*
X168616190Y-93164819D01*
X168616190Y-93164819D02*
X168378095Y-93164819D01*
X168378095Y-93164819D02*
X168282857Y-93117200D01*
X168282857Y-93117200D02*
X168235238Y-93069580D01*
X183866666Y-26054819D02*
X183866666Y-26769104D01*
X183866666Y-26769104D02*
X183819047Y-26911961D01*
X183819047Y-26911961D02*
X183723809Y-27007200D01*
X183723809Y-27007200D02*
X183580952Y-27054819D01*
X183580952Y-27054819D02*
X183485714Y-27054819D01*
X184247619Y-26054819D02*
X184866666Y-26054819D01*
X184866666Y-26054819D02*
X184533333Y-26435771D01*
X184533333Y-26435771D02*
X184676190Y-26435771D01*
X184676190Y-26435771D02*
X184771428Y-26483390D01*
X184771428Y-26483390D02*
X184819047Y-26531009D01*
X184819047Y-26531009D02*
X184866666Y-26626247D01*
X184866666Y-26626247D02*
X184866666Y-26864342D01*
X184866666Y-26864342D02*
X184819047Y-26959580D01*
X184819047Y-26959580D02*
X184771428Y-27007200D01*
X184771428Y-27007200D02*
X184676190Y-27054819D01*
X184676190Y-27054819D02*
X184390476Y-27054819D01*
X184390476Y-27054819D02*
X184295238Y-27007200D01*
X184295238Y-27007200D02*
X184247619Y-26959580D01*
X176966666Y-92164819D02*
X176966666Y-92879104D01*
X176966666Y-92879104D02*
X176919047Y-93021961D01*
X176919047Y-93021961D02*
X176823809Y-93117200D01*
X176823809Y-93117200D02*
X176680952Y-93164819D01*
X176680952Y-93164819D02*
X176585714Y-93164819D01*
X177442857Y-93164819D02*
X177442857Y-92164819D01*
X177442857Y-92164819D02*
X177823809Y-92164819D01*
X177823809Y-92164819D02*
X177919047Y-92212438D01*
X177919047Y-92212438D02*
X177966666Y-92260057D01*
X177966666Y-92260057D02*
X178014285Y-92355295D01*
X178014285Y-92355295D02*
X178014285Y-92498152D01*
X178014285Y-92498152D02*
X177966666Y-92593390D01*
X177966666Y-92593390D02*
X177919047Y-92641009D01*
X177919047Y-92641009D02*
X177823809Y-92688628D01*
X177823809Y-92688628D02*
X177442857Y-92688628D01*
X178347619Y-92164819D02*
X179014285Y-92164819D01*
X179014285Y-92164819D02*
X178585714Y-93164819D01*
X171886666Y-87084819D02*
X171886666Y-87799104D01*
X171886666Y-87799104D02*
X171839047Y-87941961D01*
X171839047Y-87941961D02*
X171743809Y-88037200D01*
X171743809Y-88037200D02*
X171600952Y-88084819D01*
X171600952Y-88084819D02*
X171505714Y-88084819D01*
X172362857Y-88084819D02*
X172362857Y-87084819D01*
X172362857Y-87084819D02*
X172743809Y-87084819D01*
X172743809Y-87084819D02*
X172839047Y-87132438D01*
X172839047Y-87132438D02*
X172886666Y-87180057D01*
X172886666Y-87180057D02*
X172934285Y-87275295D01*
X172934285Y-87275295D02*
X172934285Y-87418152D01*
X172934285Y-87418152D02*
X172886666Y-87513390D01*
X172886666Y-87513390D02*
X172839047Y-87561009D01*
X172839047Y-87561009D02*
X172743809Y-87608628D01*
X172743809Y-87608628D02*
X172362857Y-87608628D01*
X173791428Y-87084819D02*
X173600952Y-87084819D01*
X173600952Y-87084819D02*
X173505714Y-87132438D01*
X173505714Y-87132438D02*
X173458095Y-87180057D01*
X173458095Y-87180057D02*
X173362857Y-87322914D01*
X173362857Y-87322914D02*
X173315238Y-87513390D01*
X173315238Y-87513390D02*
X173315238Y-87894342D01*
X173315238Y-87894342D02*
X173362857Y-87989580D01*
X173362857Y-87989580D02*
X173410476Y-88037200D01*
X173410476Y-88037200D02*
X173505714Y-88084819D01*
X173505714Y-88084819D02*
X173696190Y-88084819D01*
X173696190Y-88084819D02*
X173791428Y-88037200D01*
X173791428Y-88037200D02*
X173839047Y-87989580D01*
X173839047Y-87989580D02*
X173886666Y-87894342D01*
X173886666Y-87894342D02*
X173886666Y-87656247D01*
X173886666Y-87656247D02*
X173839047Y-87561009D01*
X173839047Y-87561009D02*
X173791428Y-87513390D01*
X173791428Y-87513390D02*
X173696190Y-87465771D01*
X173696190Y-87465771D02*
X173505714Y-87465771D01*
X173505714Y-87465771D02*
X173410476Y-87513390D01*
X173410476Y-87513390D02*
X173362857Y-87561009D01*
X173362857Y-87561009D02*
X173315238Y-87656247D01*
D11*
X171878666Y-110879419D02*
X171878666Y-111593704D01*
X171878666Y-111593704D02*
X171831047Y-111736561D01*
X171831047Y-111736561D02*
X171735809Y-111831800D01*
X171735809Y-111831800D02*
X171592952Y-111879419D01*
X171592952Y-111879419D02*
X171497714Y-111879419D01*
X172878666Y-111879419D02*
X172307238Y-111879419D01*
X172592952Y-111879419D02*
X172592952Y-110879419D01*
X172592952Y-110879419D02*
X172497714Y-111022276D01*
X172497714Y-111022276D02*
X172402476Y-111117514D01*
X172402476Y-111117514D02*
X172307238Y-111165133D01*
D10*
X188049819Y-94163333D02*
X188764104Y-94163333D01*
X188764104Y-94163333D02*
X188906961Y-94210952D01*
X188906961Y-94210952D02*
X189002200Y-94306190D01*
X189002200Y-94306190D02*
X189049819Y-94449047D01*
X189049819Y-94449047D02*
X189049819Y-94544285D01*
X189049819Y-93687142D02*
X188049819Y-93687142D01*
X188049819Y-93687142D02*
X188049819Y-93306190D01*
X188049819Y-93306190D02*
X188097438Y-93210952D01*
X188097438Y-93210952D02*
X188145057Y-93163333D01*
X188145057Y-93163333D02*
X188240295Y-93115714D01*
X188240295Y-93115714D02*
X188383152Y-93115714D01*
X188383152Y-93115714D02*
X188478390Y-93163333D01*
X188478390Y-93163333D02*
X188526009Y-93210952D01*
X188526009Y-93210952D02*
X188573628Y-93306190D01*
X188573628Y-93306190D02*
X188573628Y-93687142D01*
X189049819Y-92163333D02*
X189049819Y-92734761D01*
X189049819Y-92449047D02*
X188049819Y-92449047D01*
X188049819Y-92449047D02*
X188192676Y-92544285D01*
X188192676Y-92544285D02*
X188287914Y-92639523D01*
X188287914Y-92639523D02*
X188335533Y-92734761D01*
X182046666Y-87084819D02*
X182046666Y-87799104D01*
X182046666Y-87799104D02*
X181999047Y-87941961D01*
X181999047Y-87941961D02*
X181903809Y-88037200D01*
X181903809Y-88037200D02*
X181760952Y-88084819D01*
X181760952Y-88084819D02*
X181665714Y-88084819D01*
X182522857Y-88084819D02*
X182522857Y-87084819D01*
X182522857Y-87084819D02*
X182903809Y-87084819D01*
X182903809Y-87084819D02*
X182999047Y-87132438D01*
X182999047Y-87132438D02*
X183046666Y-87180057D01*
X183046666Y-87180057D02*
X183094285Y-87275295D01*
X183094285Y-87275295D02*
X183094285Y-87418152D01*
X183094285Y-87418152D02*
X183046666Y-87513390D01*
X183046666Y-87513390D02*
X182999047Y-87561009D01*
X182999047Y-87561009D02*
X182903809Y-87608628D01*
X182903809Y-87608628D02*
X182522857Y-87608628D01*
X183665714Y-87513390D02*
X183570476Y-87465771D01*
X183570476Y-87465771D02*
X183522857Y-87418152D01*
X183522857Y-87418152D02*
X183475238Y-87322914D01*
X183475238Y-87322914D02*
X183475238Y-87275295D01*
X183475238Y-87275295D02*
X183522857Y-87180057D01*
X183522857Y-87180057D02*
X183570476Y-87132438D01*
X183570476Y-87132438D02*
X183665714Y-87084819D01*
X183665714Y-87084819D02*
X183856190Y-87084819D01*
X183856190Y-87084819D02*
X183951428Y-87132438D01*
X183951428Y-87132438D02*
X183999047Y-87180057D01*
X183999047Y-87180057D02*
X184046666Y-87275295D01*
X184046666Y-87275295D02*
X184046666Y-87322914D01*
X184046666Y-87322914D02*
X183999047Y-87418152D01*
X183999047Y-87418152D02*
X183951428Y-87465771D01*
X183951428Y-87465771D02*
X183856190Y-87513390D01*
X183856190Y-87513390D02*
X183665714Y-87513390D01*
X183665714Y-87513390D02*
X183570476Y-87561009D01*
X183570476Y-87561009D02*
X183522857Y-87608628D01*
X183522857Y-87608628D02*
X183475238Y-87703866D01*
X183475238Y-87703866D02*
X183475238Y-87894342D01*
X183475238Y-87894342D02*
X183522857Y-87989580D01*
X183522857Y-87989580D02*
X183570476Y-88037200D01*
X183570476Y-88037200D02*
X183665714Y-88084819D01*
X183665714Y-88084819D02*
X183856190Y-88084819D01*
X183856190Y-88084819D02*
X183951428Y-88037200D01*
X183951428Y-88037200D02*
X183999047Y-87989580D01*
X183999047Y-87989580D02*
X184046666Y-87894342D01*
X184046666Y-87894342D02*
X184046666Y-87703866D01*
X184046666Y-87703866D02*
X183999047Y-87608628D01*
X183999047Y-87608628D02*
X183951428Y-87561009D01*
X183951428Y-87561009D02*
X183856190Y-87513390D01*
X184166666Y-49654819D02*
X184166666Y-50369104D01*
X184166666Y-50369104D02*
X184119047Y-50511961D01*
X184119047Y-50511961D02*
X184023809Y-50607200D01*
X184023809Y-50607200D02*
X183880952Y-50654819D01*
X183880952Y-50654819D02*
X183785714Y-50654819D01*
X185119047Y-49654819D02*
X184642857Y-49654819D01*
X184642857Y-49654819D02*
X184595238Y-50131009D01*
X184595238Y-50131009D02*
X184642857Y-50083390D01*
X184642857Y-50083390D02*
X184738095Y-50035771D01*
X184738095Y-50035771D02*
X184976190Y-50035771D01*
X184976190Y-50035771D02*
X185071428Y-50083390D01*
X185071428Y-50083390D02*
X185119047Y-50131009D01*
X185119047Y-50131009D02*
X185166666Y-50226247D01*
X185166666Y-50226247D02*
X185166666Y-50464342D01*
X185166666Y-50464342D02*
X185119047Y-50559580D01*
X185119047Y-50559580D02*
X185071428Y-50607200D01*
X185071428Y-50607200D02*
X184976190Y-50654819D01*
X184976190Y-50654819D02*
X184738095Y-50654819D01*
X184738095Y-50654819D02*
X184642857Y-50607200D01*
X184642857Y-50607200D02*
X184595238Y-50559580D01*
X184166666Y-37854819D02*
X184166666Y-38569104D01*
X184166666Y-38569104D02*
X184119047Y-38711961D01*
X184119047Y-38711961D02*
X184023809Y-38807200D01*
X184023809Y-38807200D02*
X183880952Y-38854819D01*
X183880952Y-38854819D02*
X183785714Y-38854819D01*
X185071428Y-38188152D02*
X185071428Y-38854819D01*
X184833333Y-37807200D02*
X184595238Y-38521485D01*
X184595238Y-38521485D02*
X185214285Y-38521485D01*
D11*
X119332333Y-27370580D02*
X119332333Y-26656295D01*
X119332333Y-26656295D02*
X119379952Y-26513438D01*
X119379952Y-26513438D02*
X119475190Y-26418200D01*
X119475190Y-26418200D02*
X119618047Y-26370580D01*
X119618047Y-26370580D02*
X119713285Y-26370580D01*
X118427571Y-27370580D02*
X118618047Y-27370580D01*
X118618047Y-27370580D02*
X118713285Y-27322961D01*
X118713285Y-27322961D02*
X118760904Y-27275342D01*
X118760904Y-27275342D02*
X118856142Y-27132485D01*
X118856142Y-27132485D02*
X118903761Y-26942009D01*
X118903761Y-26942009D02*
X118903761Y-26561057D01*
X118903761Y-26561057D02*
X118856142Y-26465819D01*
X118856142Y-26465819D02*
X118808523Y-26418200D01*
X118808523Y-26418200D02*
X118713285Y-26370580D01*
X118713285Y-26370580D02*
X118522809Y-26370580D01*
X118522809Y-26370580D02*
X118427571Y-26418200D01*
X118427571Y-26418200D02*
X118379952Y-26465819D01*
X118379952Y-26465819D02*
X118332333Y-26561057D01*
X118332333Y-26561057D02*
X118332333Y-26799152D01*
X118332333Y-26799152D02*
X118379952Y-26894390D01*
X118379952Y-26894390D02*
X118427571Y-26942009D01*
X118427571Y-26942009D02*
X118522809Y-26989628D01*
X118522809Y-26989628D02*
X118713285Y-26989628D01*
X118713285Y-26989628D02*
X118808523Y-26942009D01*
X118808523Y-26942009D02*
X118856142Y-26894390D01*
X118856142Y-26894390D02*
X118903761Y-26799152D01*
X141430333Y-27370580D02*
X141430333Y-26656295D01*
X141430333Y-26656295D02*
X141477952Y-26513438D01*
X141477952Y-26513438D02*
X141573190Y-26418200D01*
X141573190Y-26418200D02*
X141716047Y-26370580D01*
X141716047Y-26370580D02*
X141811285Y-26370580D01*
X140811285Y-26942009D02*
X140906523Y-26989628D01*
X140906523Y-26989628D02*
X140954142Y-27037247D01*
X140954142Y-27037247D02*
X141001761Y-27132485D01*
X141001761Y-27132485D02*
X141001761Y-27180104D01*
X141001761Y-27180104D02*
X140954142Y-27275342D01*
X140954142Y-27275342D02*
X140906523Y-27322961D01*
X140906523Y-27322961D02*
X140811285Y-27370580D01*
X140811285Y-27370580D02*
X140620809Y-27370580D01*
X140620809Y-27370580D02*
X140525571Y-27322961D01*
X140525571Y-27322961D02*
X140477952Y-27275342D01*
X140477952Y-27275342D02*
X140430333Y-27180104D01*
X140430333Y-27180104D02*
X140430333Y-27132485D01*
X140430333Y-27132485D02*
X140477952Y-27037247D01*
X140477952Y-27037247D02*
X140525571Y-26989628D01*
X140525571Y-26989628D02*
X140620809Y-26942009D01*
X140620809Y-26942009D02*
X140811285Y-26942009D01*
X140811285Y-26942009D02*
X140906523Y-26894390D01*
X140906523Y-26894390D02*
X140954142Y-26846771D01*
X140954142Y-26846771D02*
X141001761Y-26751533D01*
X141001761Y-26751533D02*
X141001761Y-26561057D01*
X141001761Y-26561057D02*
X140954142Y-26465819D01*
X140954142Y-26465819D02*
X140906523Y-26418200D01*
X140906523Y-26418200D02*
X140811285Y-26370580D01*
X140811285Y-26370580D02*
X140620809Y-26370580D01*
X140620809Y-26370580D02*
X140525571Y-26418200D01*
X140525571Y-26418200D02*
X140477952Y-26465819D01*
X140477952Y-26465819D02*
X140430333Y-26561057D01*
X140430333Y-26561057D02*
X140430333Y-26751533D01*
X140430333Y-26751533D02*
X140477952Y-26846771D01*
X140477952Y-26846771D02*
X140525571Y-26894390D01*
X140525571Y-26894390D02*
X140620809Y-26942009D01*
D12*
%TO.C,JP2*%
X192040000Y-91930000D02*
X194040000Y-91930000D01*
X192040000Y-94730000D02*
X192040000Y-91930000D01*
X194040000Y-91930000D02*
X194040000Y-94730000D01*
X194040000Y-94730000D02*
X192040000Y-94730000D01*
%TO.C,J7*%
D11*
X107901000Y-39988000D02*
X85901000Y-39988000D01*
X85901000Y-21988000D01*
X107901000Y-21988000D01*
X107901000Y-39988000D01*
D12*
%TO.C,JP5*%
X169240000Y-91710000D02*
X174740000Y-91710000D01*
X169240000Y-93660000D02*
X169240000Y-91710000D01*
X170290000Y-94210000D02*
X170890000Y-94210000D01*
X170590000Y-93910000D02*
X170290000Y-94210000D01*
X170890000Y-94210000D02*
X170590000Y-93910000D01*
X174740000Y-91710000D02*
X174740000Y-93660000D01*
X174740000Y-93660000D02*
X169240000Y-93660000D01*
%TO.C,J3*%
X185815000Y-26585000D02*
X187085000Y-26585000D01*
X185815000Y-27855000D02*
X185815000Y-26585000D01*
X188127929Y-30015000D02*
X188525000Y-30015000D01*
X188127929Y-30775000D02*
X188525000Y-30775000D01*
X188127929Y-32555000D02*
X188525000Y-32555000D01*
X188127929Y-33315000D02*
X188525000Y-33315000D01*
X188127929Y-35095000D02*
X188525000Y-35095000D01*
X188127929Y-35855000D02*
X188525000Y-35855000D01*
X188195000Y-27475000D02*
X188525000Y-27475000D01*
X188195000Y-28235000D02*
X188525000Y-28235000D01*
X188525000Y-26525000D02*
X188525000Y-36805000D01*
X188525000Y-29125000D02*
X191185000Y-29125000D01*
X188525000Y-31665000D02*
X191185000Y-31665000D01*
X188525000Y-34205000D02*
X191185000Y-34205000D01*
X188525000Y-36805000D02*
X191185000Y-36805000D01*
X191185000Y-26525000D02*
X188525000Y-26525000D01*
X191185000Y-27475000D02*
X197185000Y-27475000D01*
X191185000Y-27535000D02*
X197185000Y-27535000D01*
X191185000Y-27655000D02*
X197185000Y-27655000D01*
X191185000Y-27775000D02*
X197185000Y-27775000D01*
X191185000Y-27895000D02*
X197185000Y-27895000D01*
X191185000Y-28015000D02*
X197185000Y-28015000D01*
X191185000Y-28135000D02*
X197185000Y-28135000D01*
X191185000Y-30015000D02*
X197185000Y-30015000D01*
X191185000Y-32555000D02*
X197185000Y-32555000D01*
X191185000Y-35095000D02*
X197185000Y-35095000D01*
X191185000Y-36805000D02*
X191185000Y-26525000D01*
X197185000Y-27475000D02*
X197185000Y-28235000D01*
X197185000Y-28235000D02*
X191185000Y-28235000D01*
X197185000Y-30015000D02*
X197185000Y-30775000D01*
X197185000Y-30775000D02*
X191185000Y-30775000D01*
X197185000Y-32555000D02*
X197185000Y-33315000D01*
X197185000Y-33315000D02*
X191185000Y-33315000D01*
X197185000Y-35095000D02*
X197185000Y-35855000D01*
X197185000Y-35855000D02*
X191185000Y-35855000D01*
D11*
%TO.C,U7*%
X155935000Y-27686000D02*
X155935000Y-78486000D01*
X155935000Y-78486000D02*
X180065000Y-78486000D01*
X162985000Y-26416000D02*
X173145000Y-26416000D01*
X162985000Y-27686000D02*
X162985000Y-26416000D01*
X162985000Y-27686000D02*
X162985000Y-34036000D01*
X162985000Y-34036000D02*
X173145000Y-34036000D01*
X173145000Y-26416000D02*
X173145000Y-27686000D01*
X173145000Y-34036000D02*
X173145000Y-27686000D01*
X180065000Y-27686000D02*
X155935000Y-27686000D01*
X180065000Y-78486000D02*
X180065000Y-27686000D01*
D12*
%TO.C,JP7*%
X179495000Y-91710000D02*
X184995000Y-91710000D01*
X179495000Y-93660000D02*
X179495000Y-91710000D01*
X180545000Y-94210000D02*
X181145000Y-94210000D01*
X180845000Y-93910000D02*
X180545000Y-94210000D01*
X181145000Y-94210000D02*
X180845000Y-93910000D01*
X184995000Y-91710000D02*
X184995000Y-93660000D01*
X184995000Y-93660000D02*
X179495000Y-93660000D01*
%TO.C,JP6*%
X174415000Y-86630000D02*
X179915000Y-86630000D01*
X174415000Y-88580000D02*
X174415000Y-86630000D01*
X175465000Y-89130000D02*
X176065000Y-89130000D01*
X175765000Y-88830000D02*
X175465000Y-89130000D01*
X176065000Y-89130000D02*
X175765000Y-88830000D01*
X179915000Y-86630000D02*
X179915000Y-88580000D01*
X179915000Y-88580000D02*
X174415000Y-88580000D01*
%TO.C,J2*%
D11*
X86130000Y-88760000D02*
X108130000Y-88760000D01*
X108130000Y-106760000D01*
X86130000Y-106760000D01*
X86130000Y-88760000D01*
X111130000Y-88760000D02*
X133130000Y-88760000D01*
X133130000Y-106760000D01*
X111130000Y-106760000D01*
X111130000Y-88760000D01*
X136100000Y-88760000D02*
X158100000Y-88760000D01*
X158100000Y-106760000D01*
X136100000Y-106760000D01*
X136100000Y-88760000D01*
D12*
%TO.C,JP1*%
X189500000Y-91930000D02*
X191500000Y-91930000D01*
X189500000Y-94730000D02*
X189500000Y-91930000D01*
X191500000Y-91930000D02*
X191500000Y-94730000D01*
X191500000Y-94730000D02*
X189500000Y-94730000D01*
%TO.C,JP8*%
X184505000Y-86630000D02*
X190005000Y-86630000D01*
X184505000Y-88580000D02*
X184505000Y-86630000D01*
X185555000Y-89130000D02*
X186155000Y-89130000D01*
X185855000Y-88830000D02*
X185555000Y-89130000D01*
X186155000Y-89130000D02*
X185855000Y-88830000D01*
X190005000Y-86630000D02*
X190005000Y-88580000D01*
X190005000Y-88580000D02*
X184505000Y-88580000D01*
%TO.C,J5*%
X185815000Y-51085000D02*
X187085000Y-51085000D01*
X185815000Y-52355000D02*
X185815000Y-51085000D01*
X188127929Y-54515000D02*
X188525000Y-54515000D01*
X188127929Y-55275000D02*
X188525000Y-55275000D01*
X188127929Y-57055000D02*
X188525000Y-57055000D01*
X188127929Y-57815000D02*
X188525000Y-57815000D01*
X188127929Y-59595000D02*
X188525000Y-59595000D01*
X188127929Y-60355000D02*
X188525000Y-60355000D01*
X188195000Y-51975000D02*
X188525000Y-51975000D01*
X188195000Y-52735000D02*
X188525000Y-52735000D01*
X188525000Y-51025000D02*
X188525000Y-61305000D01*
X188525000Y-53625000D02*
X191185000Y-53625000D01*
X188525000Y-56165000D02*
X191185000Y-56165000D01*
X188525000Y-58705000D02*
X191185000Y-58705000D01*
X188525000Y-61305000D02*
X191185000Y-61305000D01*
X191185000Y-51025000D02*
X188525000Y-51025000D01*
X191185000Y-51975000D02*
X197185000Y-51975000D01*
X191185000Y-52035000D02*
X197185000Y-52035000D01*
X191185000Y-52155000D02*
X197185000Y-52155000D01*
X191185000Y-52275000D02*
X197185000Y-52275000D01*
X191185000Y-52395000D02*
X197185000Y-52395000D01*
X191185000Y-52515000D02*
X197185000Y-52515000D01*
X191185000Y-52635000D02*
X197185000Y-52635000D01*
X191185000Y-54515000D02*
X197185000Y-54515000D01*
X191185000Y-57055000D02*
X197185000Y-57055000D01*
X191185000Y-59595000D02*
X197185000Y-59595000D01*
X191185000Y-61305000D02*
X191185000Y-51025000D01*
X197185000Y-51975000D02*
X197185000Y-52735000D01*
X197185000Y-52735000D02*
X191185000Y-52735000D01*
X197185000Y-54515000D02*
X197185000Y-55275000D01*
X197185000Y-55275000D02*
X191185000Y-55275000D01*
X197185000Y-57055000D02*
X197185000Y-57815000D01*
X197185000Y-57815000D02*
X191185000Y-57815000D01*
X197185000Y-59595000D02*
X197185000Y-60355000D01*
X197185000Y-60355000D02*
X191185000Y-60355000D01*
%TO.C,J4*%
X185815000Y-38835000D02*
X187085000Y-38835000D01*
X185815000Y-40105000D02*
X185815000Y-38835000D01*
X188127929Y-42265000D02*
X188525000Y-42265000D01*
X188127929Y-43025000D02*
X188525000Y-43025000D01*
X188127929Y-44805000D02*
X188525000Y-44805000D01*
X188127929Y-45565000D02*
X188525000Y-45565000D01*
X188127929Y-47345000D02*
X188525000Y-47345000D01*
X188127929Y-48105000D02*
X188525000Y-48105000D01*
X188195000Y-39725000D02*
X188525000Y-39725000D01*
X188195000Y-40485000D02*
X188525000Y-40485000D01*
X188525000Y-38775000D02*
X188525000Y-49055000D01*
X188525000Y-41375000D02*
X191185000Y-41375000D01*
X188525000Y-43915000D02*
X191185000Y-43915000D01*
X188525000Y-46455000D02*
X191185000Y-46455000D01*
X188525000Y-49055000D02*
X191185000Y-49055000D01*
X191185000Y-38775000D02*
X188525000Y-38775000D01*
X191185000Y-39725000D02*
X197185000Y-39725000D01*
X191185000Y-39785000D02*
X197185000Y-39785000D01*
X191185000Y-39905000D02*
X197185000Y-39905000D01*
X191185000Y-40025000D02*
X197185000Y-40025000D01*
X191185000Y-40145000D02*
X197185000Y-40145000D01*
X191185000Y-40265000D02*
X197185000Y-40265000D01*
X191185000Y-40385000D02*
X197185000Y-40385000D01*
X191185000Y-42265000D02*
X197185000Y-42265000D01*
X191185000Y-44805000D02*
X197185000Y-44805000D01*
X191185000Y-47345000D02*
X197185000Y-47345000D01*
X191185000Y-49055000D02*
X191185000Y-38775000D01*
X197185000Y-39725000D02*
X197185000Y-40485000D01*
X197185000Y-40485000D02*
X191185000Y-40485000D01*
X197185000Y-42265000D02*
X197185000Y-43025000D01*
X197185000Y-43025000D02*
X191185000Y-43025000D01*
X197185000Y-44805000D02*
X197185000Y-45565000D01*
X197185000Y-45565000D02*
X191185000Y-45565000D01*
X197185000Y-47345000D02*
X197185000Y-48105000D01*
X197185000Y-48105000D02*
X191185000Y-48105000D01*
%TO.C,J6*%
D11*
X129999000Y-39988000D02*
X107999000Y-39988000D01*
X107999000Y-21988000D01*
X129999000Y-21988000D01*
X129999000Y-39988000D01*
%TO.C,J8*%
X152097000Y-39988000D02*
X130097000Y-39988000D01*
X130097000Y-21988000D01*
X152097000Y-21988000D01*
X152097000Y-39988000D01*
%TD*%
M02*
